<svg xmlns="http://www.w3.org/2000/svg" viewBox="0 0 34 24"><path fill="none" d="M0 0h34v24H0z"/><path d="M21.2 0H1.4C.6 0 0 .6 0 1.4v16.9c0 .8.6 1.4 1.4 1.4h2.8c0 2.3 1.9 4.2 4.2 4.2s4.2-1.9 4.2-4.2h9.9c0 2.3 1.9 4.2 4.2 4.2 2.3 0 4.2-1.9 4.2-4.2h1.4c.8 0 1.4-.6 1.4-1.4v-5.6c0-.2-.1-.4-.2-.6L31 6.4c-.2-.5-.7-.8-1.3-.8h-7.1V1.4C22.7.6 22 0 21.2 0zM8.5 21.2c-.8 0-1.4-.6-1.4-1.4 0-.8.6-1.4 1.4-1.4s1.4.6 1.4 1.4c0 .7-.6 1.4-1.4 1.4zm11.3-4.3h-8.2c-.8-.9-1.9-1.4-3.1-1.4s-2.3.5-3.1 1.4H2.8V2.8h17v14.1zm7.1 4.3c-.8 0-1.4-.6-1.4-1.4 0-.8.6-1.4 1.4-1.4s1.4.6 1.4 1.4c0 .7-.6 1.4-1.4 1.4zm2-12.7l2.3 4.6V17h-1.1a4.1 4.1 0 0 0-3.1-1.4c-1.2 0-2.3.5-3.1 1.4h-1.1V8.5h6.1z" fill="#333"/></svg>