<?xml version="1.0" encoding="UTF-8"?>
<svg width="66px" height="50px" viewBox="0 0 66 50" version="1.1" xmlns="http://www.w3.org/2000/svg" xmlns:xlink="http://www.w3.org/1999/xlink">
    <!-- Generator: Sketch 51.3 (57544) - http://www.bohemiancoding.com/sketch -->
    <title>18.BC</title>
    <desc>Created with Sketch.</desc>
    <defs>
        <polygon id="path-1" points="0 9.36924096 64.8928414 9.36924096 64.8928414 -2.61044177e-05 0 -2.61044177e-05"></polygon>
    </defs>
    <g id="18.BC" stroke="none" stroke-width="1" fill="none" fill-rule="evenodd">
        <rect id="Rectangle" fill-rule="nonzero" x="0" y="0" width="66" height="50"></rect>
        <g id="Group-21" transform="translate(0.000000, 20.000000)">
            <path d="M17.9616145,5.43343876 C17.8709016,5.55443273 17.7260221,5.64031627 17.5271064,5.69121988 C17.3281908,5.74212349 16.9661225,5.76770582 16.4409016,5.76770582 L15.7581406,5.76770582 L15.7581406,4.11555723 L16.6700984,4.11555723 C17.2207711,4.11555723 17.5964137,4.17703313 17.7968956,4.29946285 C17.9973775,4.42202309 18.0976185,4.63125 18.0976185,4.9272741 C18.0976185,5.14381024 18.0523273,5.31244478 17.9616145,5.43343876 Z M15.7581406,1.52312751 L16.6176285,1.52312751 C17.0059317,1.52312751 17.2924277,1.57168173 17.4769859,1.66865964 C17.6615442,1.76576807 17.7539538,1.94014558 17.7539538,2.19153112 C17.7539538,2.468499 17.6576285,2.66258534 17.4651084,2.7740512 C17.2724578,2.88551707 16.9772169,2.94111948 16.5793855,2.94111948 L15.7581406,2.94111948 L15.7581406,1.52312751 Z M17.8827791,3.40421185 C18.3060622,3.31832831 18.6172269,3.14799699 18.8162731,2.89334839 C19.0150582,2.6386998 19.1146466,2.30612952 19.1146466,1.89550703 C19.1146466,1.36075803 18.9315241,0.970105422 18.5655402,0.723418675 C18.1995562,0.476731928 17.5931506,0.353388554 16.7464538,0.353388554 L14.4118052,0.353388554 L14.4118052,6.9611998 L16.8944659,6.9611998 C17.7030502,6.9611998 18.3347771,6.80770582 18.7900382,6.50045683 C19.2450382,6.19333835 19.4727992,5.70870984 19.4727992,5.04657129 C19.4727992,4.57564759 19.3461928,4.20326807 19.0931104,3.92943273 C18.8400281,3.65572791 18.4367149,3.48069779 17.8827791,3.40421185 Z" id="Fill-1" fill="#FF1A0D"></path>
            <path d="M27.4071978,1.80954518 C27.1357118,1.80954518 26.8583524,1.87637249 26.5747279,2.01015763 C26.2911034,2.14381225 26.0241857,2.34116165 25.7742359,2.6020753 L25.7742359,1.95285843 L24.5941857,2.3444247 L24.5941857,6.96125201 L25.7742359,6.96125201 L25.7742359,3.61910341 C26.268262,3.13525803 26.6906315,2.8934006 27.0412139,2.8934006 C27.2912942,2.8934006 27.4613645,2.98098092 27.5512942,3.15588052 C27.6410934,3.33104116 27.6861235,3.67966566 27.6861235,4.20162349 L27.6861235,6.96125201 L28.8663042,6.96125201 L28.8663042,3.61910341 C28.8663042,2.97301908 28.7457018,2.50979618 28.5048886,2.22969578 C28.2639448,1.9497259 27.8980914,1.80954518 27.4071978,1.80954518" id="Fill-3" fill="#FF1A0D"></path>
            <path d="M32.0336576,5.94902711 C31.8744207,6.00319378 31.6993906,6.03021185 31.5084367,6.03021185 C31.0659669,6.03021185 30.7532359,5.90530221 30.570244,5.65535241 C30.387252,5.40553313 30.4262781,5.01018173 30.4262781,4.46890663 C30.4262781,3.92789257 30.3847721,3.52836446 30.5630653,3.27058333 C30.7413584,3.01267169 31.0405151,2.88384639 31.4606657,2.88384639 C31.696258,2.88384639 31.8887781,2.91960944 32.0384869,2.99126606 C32.1880653,3.06292269 32.3184568,3.1734749 32.4299227,3.32305321 L33.3465793,2.66900703 C33.1715492,2.37611546 32.9161175,2.15970984 32.5802841,2.01965964 C32.2444508,1.87960944 31.86176,1.80951908 31.4320813,1.80951908 C30.6300231,1.80951908 30.0283163,2.04511145 29.6273524,2.51616566 C29.226258,2.9873504 29.1562982,3.64465964 29.1562982,4.48809337 C29.1562982,5.35384639 29.2326536,6.00710944 29.6464086,6.44788253 C30.0601637,6.88878614 30.6712681,7.10923795 31.4798524,7.10923795 C31.9573022,7.10923795 32.3518705,7.03588454 32.6639488,6.88956928 C32.9757661,6.74325402 33.2272821,6.52828414 33.4181054,6.2450512 L32.4872219,5.59100502 C32.3439086,5.77556325 32.1927641,5.89499096 32.0336576,5.94902711" id="Fill-5" fill="#FF1A0D"></path>
            <path d="M36.1117159,5.65535241 C35.953262,5.90530221 35.6940452,6.03021185 35.3338042,6.03021185 C34.9678203,6.03021185 34.7050793,5.90360542 34.5450592,5.65065361 C34.3850392,5.39757129 34.4232821,5.00365562 34.4232821,4.46890663 C34.4232821,3.93115562 34.3858223,3.53241064 34.5471476,3.27293273 C34.7086034,3.01358534 34.9708223,2.88384639 35.3338042,2.88384639 C35.6997882,2.88384639 35.9605713,3.01032229 36.1161536,3.26340462 C36.2717359,3.51648695 36.2312741,3.91823394 36.2312741,4.46890663 C36.2312741,5.01018173 36.2701697,5.40553313 36.1117159,5.65535241 M35.3338042,1.80951908 C34.5788645,1.80951908 34.0270171,2.04119578 33.6783926,2.50428815 C33.3298986,2.96738052 33.2736436,3.62234036 33.2736436,4.46890663 C33.2736436,6.22912751 33.8816155,7.10923795 35.3338042,7.10923795 C36.0828705,7.10923795 36.6317159,6.87756124 36.9804709,6.41446888 C37.3290954,5.95150703 37.3853504,5.30294277 37.3853504,4.46890663 C37.3853504,3.62234036 37.3290954,2.96738052 36.9804709,2.50428815 C36.6317159,2.04119578 36.0828705,1.80951908 35.3338042,1.80951908" id="Fill-7" fill="#FF1A0D"></path>
            <path d="M43.3693313,5.68161345 C43.1616707,5.83119177 42.8715201,5.90611145 42.4986185,5.90611145 C41.9437691,5.90611145 41.5399337,5.71985643 41.2868514,5.34734639 C41.0336386,4.97509739 41.0397731,4.41163353 41.0397731,3.65721586 C41.0397731,2.84876205 41.0421225,2.27185442 41.3119116,1.92649297 C41.5817008,1.58113153 41.9741807,1.4084508 42.4894819,1.4084508 C42.7047129,1.4084508 42.8896627,1.43403313 43.0442008,1.48493675 C43.1988695,1.53584036 43.3367008,1.61219578 43.4580863,1.71413353 C43.5790803,1.81594076 43.7127349,1.98144277 43.8581365,2.21063956 L44.8538896,1.39892269 C44.6507972,1.0455994 44.3552952,0.760017068 43.967253,0.541914659 C43.5790803,0.323942771 43.0776145,0.214956827 42.4623333,0.214956827 C41.5315803,0.214956827 40.8193213,0.495057229 40.3252952,1.05525803 C39.8311386,1.61545884 39.8325743,2.48277811 39.8325743,3.65734639 C39.8325743,5.95218574 40.5585382,7.09960542 42.5076245,7.09960542 C43.0806165,7.09960542 43.5632871,7.00027811 43.9557671,6.80123193 C44.3483775,6.60244679 44.679512,6.29128213 44.9493012,5.86786847 L43.9354056,5.08486647 C43.7655964,5.33311948 43.576992,5.53203514 43.3693313,5.68161345" id="Fill-9" fill="#FF1A0D"></path>
            <path d="M47.9117219,5.65535241 C47.7558785,5.90530221 47.5005773,6.03021185 47.1462098,6.03021185 C46.7859689,6.03021185 46.5274046,5.90360542 46.3698645,5.65065361 C46.2124548,5.39757129 46.2501757,5.00365562 46.2501757,4.46890663 C46.2501757,3.93115562 46.213238,3.53241064 46.3719528,3.27293273 C46.5307982,3.01358534 46.7887098,2.88384639 47.1462098,2.88384639 C47.5063203,2.88384639 47.7627962,3.01032229 47.9158986,3.26340462 C48.069001,3.51648695 48.0291918,3.91823394 48.0291918,4.46890663 C48.0291918,5.01018173 48.0675653,5.40553313 47.9117219,5.65535241 M47.1462098,1.80951908 C46.4031476,1.80951908 45.8601757,2.04119578 45.5170331,2.50428815 C45.1740211,2.96738052 45.1188102,3.62234036 45.1188102,4.46890663 C45.1188102,6.22912751 45.7171235,7.10923795 47.1462098,7.10923795 C47.8832681,7.10923795 48.4233685,6.87756124 48.7666416,6.41446888 C49.1096536,5.95150703 49.164995,5.30294277 49.164995,4.46890663 C49.164995,3.62234036 49.1096536,2.96738052 48.7666416,2.50428815 C48.4233685,2.04119578 47.8832681,1.80951908 47.1462098,1.80951908" id="Fill-11" fill="#FF1A0D"></path>
            <mask id="mask-2" fill="white">
                <use xlink:href="#path-1"></use>
            </mask>
            <g id="Clip-14"></g>
            <polygon id="Fill-13" fill="#FF1A0D" mask="url(#mask-2)" points="49.7179518 6.96123896 50.9498193 6.96123896 50.9498193 1.95284538 49.7179518 1.95284538"></polygon>
            <polygon id="Fill-15" fill="#FF1A0D" mask="url(#mask-2)" points="49.7920622 1.57251707 50.9802048 1.33535843 50.9897329 0.102707831 49.8040703 0.368450803"></polygon>
            <path d="M54.4091506,1.80954518 C54.1393614,1.80954518 53.8633072,1.87637249 53.58151,2.01015763 C53.2994518,2.14381225 53.0342309,2.34116165 52.7855863,2.6020753 L52.7855863,1.95285843 L51.6121928,2.21390261 L51.6121928,6.96125201 L52.7855863,6.96125201 L52.7855863,3.61910341 C53.276741,3.13525803 53.6966305,2.8934006 54.045255,2.8934006 C54.2938996,2.8934006 54.4629257,2.98098092 54.5524639,3.15588052 C54.641741,3.33104116 54.68651,3.67966566 54.68651,4.20162349 L54.68651,6.96125201 L55.8597731,6.96125201 L55.8597731,3.61910341 C55.8597731,2.97301908 55.7399538,2.50979618 55.5005763,2.22969578 C55.2610683,1.9497259 54.8971727,1.80954518 54.4091506,1.80954518" id="Fill-16" fill="#FF1A0D" mask="url(#mask-2)"></path>
            <path d="M63.7835472,5.38564157 C63.4396215,5.71351305 63.0842098,5.8774488 62.7173122,5.8774488 C62.4536576,5.8774488 62.2392098,5.75645482 62.074491,5.51446687 C61.9096416,5.27273996 61.8272821,4.89709739 61.8272821,4.3878002 C61.8272821,3.93906526 61.9204749,3.57778012 62.1067299,3.30394478 C62.2931155,3.03023996 62.5208765,2.89332229 62.7904046,2.89332229 C63.1488183,2.89332229 63.4798223,3.04303112 63.7835472,3.34218775 L63.7835472,5.38564157 Z M64.0458966,2.47486847 L63.8997118,2.4254006 C63.7391697,2.24723795 63.539993,2.10000904 63.3021817,1.98384438 C63.0641094,1.86767972 62.8261677,1.80959739 62.5883564,1.80959739 C62.1841295,1.80959739 61.8394207,1.91701707 61.5542299,2.13185643 C61.2689086,2.34669578 61.0526335,2.65068173 60.9048825,3.04381426 C60.757262,3.43694679 60.6835171,3.89116365 60.6835171,4.40685643 C60.6835171,5.23123394 60.8411878,5.86309137 61.1565291,6.30229819 C61.47174,6.74163554 61.9045512,6.96117369 62.4550934,6.96117369 C62.9737882,6.96117369 63.4165191,6.7750492 63.7835472,6.40253916 L63.7835472,6.81329217 C63.7835472,7.16008936 63.6938785,7.92886446 63.5148022,8.07531024 C63.3355954,8.22175602 63.0168604,8.29497892 62.5582058,8.29497892 C62.0650934,8.29497892 62.0551737,8.04333233 61.5880351,7.80160542 L60.9086677,8.80910542 C61.413005,9.09547088 61.8845813,9.36930622 62.5582058,9.36930622 C63.3751436,9.36930622 63.968497,9.20615361 64.3382661,8.87984839 C64.7080351,8.55354317 64.8928544,7.53416566 64.8928544,6.86576205 L64.8928544,1.95278012 L64.0458966,2.47486847 Z" id="Fill-17" fill="#FF1A0D" mask="url(#mask-2)"></path>
            <path d="M59.1608464,5.05175301 C59.1608464,5.50048795 58.7936878,5.86751606 58.3450833,5.86751606 C57.8963484,5.86751606 57.5293203,5.50048795 57.5293203,5.05175301 L57.5293203,3.99582932 C57.5293203,3.54709438 57.8963484,3.18006627 58.3450833,3.18006627 C58.7936878,3.18006627 59.1608464,3.54709438 59.1608464,3.99582932 L59.1608464,5.05175301 Z M59.1608464,2.71253614 C58.916509,2.3872751 58.5471315,2.15677309 58.1139287,2.10312851 C57.2680151,1.9984498 56.4901034,2.60498594 56.3854247,3.45103012 L56.2970612,5.22090964 C56.192252,6.06695382 56.6682661,6.84473494 57.5143102,6.94954418 C58.2428845,7.03960442 58.9196416,6.60170281 59.1608464,5.93825904 L59.1608464,6.92317871 L60.4224729,6.92317871 L60.4224729,2.12936345 L59.1608464,2.12936345 L59.1608464,2.71253614 Z" id="Fill-18" fill="#FF1A0D" mask="url(#mask-2)"></path>
            <path d="M22.7398845,4.98247189 C22.7398845,5.43120683 22.3727259,5.79823494 21.9241215,5.79823494 C21.4753865,5.79823494 21.1083584,5.43120683 21.1083584,4.98247189 L21.1083584,3.92641767 C21.1083584,3.47781325 21.4753865,3.11065462 21.9241215,3.11065462 C22.3727259,3.11065462 22.7398845,3.47781325 22.7398845,3.92641767 L22.7398845,4.98247189 Z M22.7398845,2.64325502 C22.4955472,2.31799398 22.1261697,2.08736145 21.6930974,2.03384739 C20.8470532,1.92916867 20.0692721,2.53570482 19.9645934,3.381749 L19.8760994,5.15162851 C19.7712902,5.99767269 20.2474347,6.77545382 21.0933484,6.88026305 C21.8219227,6.97032329 22.4988102,6.53242169 22.7398845,5.86897791 L22.7398845,6.85389759 L24.0016416,6.85389759 L24.0016416,2.06008233 L22.7398845,2.06008233 L22.7398845,2.64325502 Z" id="Fill-19" fill="#FF1A0D" mask="url(#mask-2)"></path>
            <path d="M8.41043876,4.4134739 L6.06926406,2.0722992 L3.72821988,4.4134739 L3.44838052,4.13350402 L6.06926406,1.51262048 L8.69040863,4.13350402 L8.41043876,4.4134739 Z M7.34772791,5.47618474 L6.06926406,4.19772088 L4.79093072,5.47618474 L4.46658333,5.15183735 L6.06926406,3.5490261 L7.6720753,5.15183735 L7.34772791,5.47618474 Z M6.06926406,6.75451807 L5.52929418,6.21441767 L6.06926406,5.67431727 L6.60949498,6.21441767 L6.06926406,6.75451807 Z M8.50010743,-1.42108547e-14 L10.6619448,2.16196787 L9.42864157,3.39527108 L6.06926406,0.0358935743 L2.71001707,3.39527108 L1.47658333,2.16196787 L3.6385512,-1.42108547e-14 L2.16195482,-1.42108547e-14 L-1.30522088e-05,2.16196787 L6.06926406,8.23124498 L12.1386717,2.16196787 L9.97670382,-1.42108547e-14 L8.50010743,-1.42108547e-14 Z" id="Fill-20" fill="#FF1A0D" mask="url(#mask-2)"></path>
        </g>
    </g>
</svg>