<?xml version="1.0" encoding="UTF-8"?>
<svg width="66px" height="50px" viewBox="0 0 66 50" version="1.1" xmlns="http://www.w3.org/2000/svg" xmlns:xlink="http://www.w3.org/1999/xlink">
    <!-- Generator: Sketch 51.3 (57544) - http://www.bohemiancoding.com/sketch -->
    <title>27.Banco Patagonia</title>
    <desc>Created with Sketch.</desc>
    <defs></defs>
    <g id="27.Banco-Patagonia" stroke="none" stroke-width="1" fill="none" fill-rule="evenodd">
        <rect id="Rectangle" fill-rule="nonzero" x="0" y="0" width="66" height="50"></rect>
        <g id="BSUD" transform="translate(2.000000, 19.000000)" fill-rule="nonzero">
            <path d="M36.7453333,0.14725 C36.064625,2.5245625 35.3871458,4.90122917 34.7148333,7.28241667 C35.0235417,7.281125 35.3328958,7.281125 35.6409583,7.2791875 C36.18475,5.21833333 36.735,3.15941667 37.2787917,1.09791667 C37.5377708,2.046 37.7780208,2.9973125 38.0376458,3.94604167 C37.785125,3.94604167 37.5345417,3.94733333 37.2826667,3.9505625 C37.2122708,4.22504167 37.138,4.50145833 37.0663125,4.777875 C37.4622083,4.77658333 37.85875,4.77658333 38.2552917,4.77658333 C38.4755208,5.611 38.7009167,6.44477083 38.9159792,7.27983333 C39.2253333,7.28177083 39.5340417,7.28177083 39.8440417,7.28177083 C39.1697917,4.901875 38.4916667,2.52391667 37.8090208,0.147895833 C37.4525208,0.147895833 37.0979583,0.147895833 36.7453333,0.14725 Z M35.2612083,0.986833333 C35.2599167,0.7071875 35.258625,0.42625 35.2566875,0.147895833 C33.9785833,0.156291667 32.6991875,0.138854167 31.4217292,0.157583333 C31.4217292,0.432708333 31.4217292,0.708479167 31.4230208,0.984895833 C31.918375,0.986833333 32.4111458,0.984895833 32.9045625,0.986833333 C32.902625,3.08579167 32.902625,5.18410417 32.9045625,7.28241667 C33.197125,7.281125 33.4903333,7.281125 33.7841875,7.2791875 C33.7841875,5.18410417 33.7887083,3.08579167 33.7809583,0.988125 C34.274375,0.983604167 34.7677917,0.984895833 35.2612083,0.986833333 Z M28.872625,0.155 C28.2003125,2.530375 27.5273542,4.90639583 26.8466458,7.28047917 C27.152125,7.28047917 27.45825,7.28047917 27.7676042,7.28177083 C28.3372292,5.22866667 28.8506667,3.15877083 29.4241667,1.104375 C29.6676458,2.05375 29.9201667,2.99989583 30.1752708,3.94539583 L29.4241667,3.94539583 C29.3505417,4.22116667 29.2743333,4.4969375 29.1961875,4.770125 C29.593375,4.77722917 29.9912083,4.77722917 30.3909792,4.7759375 C30.6150833,5.61035417 30.8314375,6.448 31.0568333,7.28241667 C31.3648958,7.281125 31.6710208,7.281125 31.9797292,7.28241667 C31.30225,4.90122917 30.6267083,2.52133333 29.9388958,0.143375 C29.5836875,0.147895833 29.229125,0.147895833 28.872625,0.155 Z M27.392375,1.43633333 C27.3129375,0.867354167 26.9021875,0.343583333 26.3241667,0.229916667 C25.5317292,0.0807291667 23.9197292,0.155645833 23.9197292,0.155645833 L23.9197292,7.7209375 L24.7916042,7.7209375 C24.7916042,6.19225 24.7941875,5.28614583 24.7890208,4.1791875 C25.4748958,4.173375 26.2498958,4.15852083 26.8233958,3.69675 C27.462125,3.193 27.5092708,2.17775 27.392375,1.43633333 Z M26.2770208,2.81647917 C25.904375,3.23497917 25.284375,3.10839583 24.7890208,3.12647917 C24.7941875,2.41347917 24.7941875,1.70047917 24.7890208,0.987479167 C25.2869583,1.01525 25.92375,0.8525 26.2860625,1.29295833 C26.5560208,1.74052083 26.5682917,2.37860417 26.2770208,2.81647917 Z M59.768,0.1453125 C59.4121458,0.149833333 59.0569375,0.149833333 58.7049583,0.147895833 C58.0236042,2.5245625 57.3474167,4.90252083 56.6770417,7.28177083 C56.9851042,7.28047917 57.2931667,7.28047917 57.6044583,7.27854167 C58.1456667,5.219625 58.6901042,3.16070833 59.2403542,1.1024375 C59.4948125,2.04858333 59.7389375,2.99795833 59.9972708,3.94345833 C59.74475,3.94475 59.4922292,3.94604167 59.2403542,3.94927083 C59.1699583,4.22375 59.0956875,4.50016667 59.0246458,4.77529167 C59.4205417,4.77658333 59.8151458,4.77529167 60.2129792,4.77529167 C60.4370833,5.60970833 60.6573125,6.44347917 60.8768958,7.27854167 C61.18625,7.28047917 61.4943125,7.28047917 61.8036667,7.28177083 C61.1287708,4.90122917 60.4512917,2.52327083 59.768,0.1453125 Z M42.1141458,3.12841667 C42.1160833,3.40547917 42.1160833,3.68254167 42.1167292,3.96154167 C42.5391042,3.95702083 42.962125,3.95895833 43.3857917,3.95960417 C43.3845,4.7449375 43.3870833,5.529625 43.3845,6.31495833 C42.8213333,6.575875 42.05925,6.69858333 41.5606667,6.24585417 C41.0213958,5.72725 40.9419583,4.9309375 40.8786667,4.22633333 C40.8457292,3.33960417 40.8108542,2.40508333 41.1828542,1.5790625 C41.3830625,1.11535417 41.8835833,0.7924375 42.3937917,0.882208333 C42.7399583,0.899645833 42.9827917,1.17025 43.15975,1.44085417 C43.3773958,1.19414583 43.597625,0.9474375 43.8217292,0.705895833 C43.1371458,-0.0684583333 41.87325,-0.179541667 41.0259167,0.381041667 C40.3238958,0.8776875 40.0545833,1.76441667 39.9538333,2.58139583 C39.8595417,3.53335417 39.8827917,4.5105 40.1230417,5.4424375 C40.3032292,6.13283333 40.6887917,6.831625 41.3552917,7.15841667 C42.27625,7.5969375 43.434875,7.3876875 44.194375,6.71602083 C44.1833958,5.5199375 44.1892083,4.32385417 44.1879167,3.127125 C43.496875,3.127125 42.8038958,3.12841667 42.1141458,3.12841667 Z M55.3666458,7.28047917 L56.2346458,7.28047917 C56.2365833,4.901875 56.2365833,2.52391667 56.2346458,0.146604167 C55.9466042,0.14725 55.6559792,0.14725 55.3666458,0.14725 C55.3666458,2.5265 55.3653542,4.9038125 55.3666458,7.28047917 Z M53.6713333,5.71175 C52.8866458,3.85691667 52.1161667,1.99627083 51.3256667,0.144020833 C50.9620625,0.147895833 50.5984583,0.147895833 50.2355,0.156291667 C50.2516458,2.53166667 50.2070833,4.909625 50.2581042,7.28564583 C50.5132083,7.28241667 50.7708958,7.281125 51.0266458,7.2791875 C51.0363333,5.37527083 51.0214792,3.46941667 51.03375,1.56291667 C51.8384583,3.47070833 52.63025,5.3843125 53.4523958,7.285 C53.788875,7.281125 54.1272917,7.281125 54.4637708,7.2791875 C54.4682917,4.9038125 54.4637708,2.52972917 54.4663542,0.155645833 C54.2035,0.151770833 53.9412917,0.14725 53.6771458,0.144666667 C53.6674583,2.00014583 53.6829583,3.855625 53.6713333,5.71175 Z M48.5899167,0.501166667 C48.0751875,0.0400416667 47.3240833,-0.042625 46.6705,0.0949375 C46.0207917,0.233145833 45.5222083,0.763375 45.2845417,1.3659375 C44.9067292,2.30304167 44.8867083,3.3383125 44.930625,4.33160417 C44.9893958,5.15504167 45.1327708,6.03272917 45.6655833,6.6940625 C46.24425,7.4245 47.3402292,7.560125 48.1610833,7.19652083 C48.8392083,6.89039583 49.2021667,6.1748125 49.3726667,5.4850625 C49.6025833,4.50016667 49.60775,3.46877083 49.4772917,2.46772917 C49.3707292,1.75214583 49.1440417,1.00104167 48.5899167,0.501166667 Z M48.1107083,6.06825 C47.8091042,6.568125 47.0612292,6.70697917 46.6065625,6.33885417 C46.124125,5.940375 46.004,5.28097917 45.9213333,4.69391667 C45.8347917,3.83172917 45.8354375,2.94564583 46.0369375,2.09766667 C46.1564167,1.6178125 46.4050625,1.08435417 46.9113958,0.9203125 C47.3492708,0.7730625 47.8556042,0.957770833 48.10425,1.34527083 C48.5440625,2.01952083 48.580875,2.85910417 48.596375,3.638625 C48.5899167,4.46270833 48.565375,5.35202083 48.1107083,6.06825 Z" id="Shape" fill="#1D4C7C"></path>
            <path d="M2.57622917,3.47845833 C3.46166667,3.0786875 3.62570833,1.93814583 3.35639583,1.10308333 C3.1833125,0.5735 2.6679375,0.189229167 2.1138125,0.166625 C1.476375,0.138854167 0.835708333,0.166625 0.196979167,0.155 C0.196979167,2.52779167 0.1956875,4.90122917 0.198270833,7.273375 C0.874458333,7.2559375 1.55322917,7.30308333 2.22877083,7.24754167 C2.78225,7.20620833 3.3344375,6.89685417 3.55402083,6.37179167 C3.816875,5.74597917 3.82075,5.01360417 3.59535417,4.3768125 C3.43260417,3.92214583 3.02960417,3.60827083 2.57622917,3.47845833 Z M1.06627083,0.984895833 C1.5035,1.00685417 2.04470833,0.8931875 2.37602083,1.25614583 C2.677625,1.68691667 2.6756875,2.32047917 2.39797917,2.76158333 C2.088625,3.17685417 1.51770833,3.09095833 1.065625,3.09870833 C1.07079167,2.39410417 1.0695,1.6895 1.06627083,0.984895833 Z M2.52133333,6.1476875 C2.13189583,6.5196875 1.55904167,6.42022917 1.06820833,6.43185417 C1.06820833,5.59808333 1.0714375,4.76366667 1.065625,3.92925 C1.56485417,3.92860417 2.1525625,3.8691875 2.53489583,4.26120833 C3.00829167,4.7585 3.0050625,5.65879167 2.52133333,6.1476875 Z M16.0515417,6.16189583 C15.4586667,5.47085417 15.4405833,4.4969375 15.3986042,3.63475 C15.4121667,2.81841667 15.4153958,1.90391667 15.9320625,1.2245 C16.337,0.6878125 17.2347083,0.793729167 17.5130625,1.40727083 C17.7294167,1.15345833 17.9515833,0.902229167 18.1705208,0.6490625 C17.5705417,0.000645833333 16.5475417,-0.134979167 15.7667292,0.24025 C15.1383333,0.561875 14.7934583,1.236125 14.6307083,1.89422917 C14.3949792,2.88364583 14.3936875,3.9195625 14.5344792,4.92189583 C14.6636458,5.76664583 14.9917292,6.69535417 15.779,7.13645833 C16.5972708,7.583375 17.5950833,7.374125 18.3823542,6.96466667 C18.3009792,6.69858333 18.2215417,6.4305625 18.1459792,6.16383333 C17.5440625,6.58427083 16.6005,6.754125 16.0515417,6.16189583 Z M23.091125,3.16716667 C23.0349375,2.25977083 22.8799375,1.26260417 22.2186042,0.585770833 C21.719375,0.0665208333 20.9359792,-0.0458541667 20.2572083,0.0904166667 C19.6921042,0.198916667 19.2193542,0.597395833 18.9552083,1.10114583 C18.5257292,1.9123125 18.4656667,2.8578125 18.4514583,3.75745833 C18.4792292,4.72685417 18.5547917,5.769875 19.1282917,6.59072917 C19.8890833,7.70220833 21.7994583,7.6511875 22.4956667,6.4925625 C23.1079167,5.50702083 23.1253542,4.2915625 23.091125,3.16716667 Z M22.1346458,4.21729167 C22.083625,4.89025 22.0119375,5.6245625 21.5747083,6.1709375 C21.2188542,6.63658333 20.456125,6.67275 20.053125,6.2523125 C19.6727292,5.85254167 19.5480833,5.2874375 19.4744583,4.75914583 C19.3892083,3.90535417 19.3775833,3.03283333 19.5590625,2.19195833 C19.67725,1.670125 19.9349375,1.07014583 20.4961667,0.911270833 C20.9973333,0.758854167 21.5359583,1.05270833 21.7523125,1.5131875 C22.1656458,2.3463125 22.1604792,3.30989583 22.1346458,4.21729167 Z M12.9457292,5.6943125 C12.1965625,3.83883333 11.3944375,2.00660417 10.6304167,0.158229167 C10.2681042,0.155645833 9.90385417,0.155645833 9.5421875,0.155645833 C9.54347917,2.530375 9.54347917,4.90639583 9.5421875,7.28177083 L10.3249375,7.28177083 C10.3333333,5.37979167 10.3139583,3.47458333 10.334625,1.57002083 C11.1277083,3.47845833 11.935,5.37720833 12.7358333,7.27854167 C13.0755417,7.28047917 13.41525,7.28177083 13.7556042,7.28177083 C13.7568958,4.90639583 13.7543125,2.530375 13.7556042,0.155 C13.496625,0.155645833 13.237,0.1569375 12.977375,0.158229167 C12.9605833,2.00402083 13.0180625,3.85045833 12.9457292,5.6943125 Z M5.9985,0.147895833 C5.32102083,2.52585417 4.63966667,4.90122917 3.9699375,7.28177083 C4.28058333,7.28047917 4.59058333,7.28047917 4.89864583,7.27725 C5.43791667,5.21639583 5.9888125,3.15747917 6.537125,1.0985625 C6.78835417,2.0479375 7.0350625,2.99666667 7.2908125,3.94539583 C7.040875,3.94539583 6.78964583,3.9466875 6.53970833,3.9466875 C6.46608333,4.2218125 6.39310417,4.4969375 6.31754167,4.77270833 C6.71602083,4.77529167 7.11191667,4.77529167 7.50845833,4.77529167 C7.73320833,5.60970833 7.95279167,6.44347917 8.17302083,7.27854167 C8.48302083,7.28047917 8.79172917,7.28047917 9.10108333,7.28047917 C8.42360417,4.90058333 7.74547917,2.52391667 7.06089583,0.144666667 C6.707625,0.147895833 6.3530625,0.147895833 5.9985,0.147895833 Z" id="Shape" fill="#48A55B"></path>
        </g>
    </g>
</svg>