<?xml version="1.0" encoding="UTF-8"?>
<svg width="66px" height="50px" viewBox="0 0 66 50" version="1.1" xmlns="http://www.w3.org/2000/svg" xmlns:xlink="http://www.w3.org/1999/xlink">
    <!-- Generator: Sketch 51.3 (57544) - http://www.bohemiancoding.com/sketch -->
    <title>25.Banco Municipal</title>
    <desc>Created with Sketch.</desc>
    <defs>
        <polygon id="path-1" points="0 27.01 65.9815556 27.01 65.9815556 0 0 0"></polygon>
    </defs>
    <g id="25.Banco-Municipal" stroke="none" stroke-width="1" fill="none" fill-rule="evenodd">
        <g id="Group-30" transform="translate(0.000000, 11.000000)">
            <path d="M21.5698222,9.83393333 C21.6316,9.81615556 21.7722667,9.80704444 21.9918222,9.80704444 L22.5900444,9.80704444 C23.0600444,9.80704444 23.4040444,9.90215556 23.6220444,10.0917111 C23.8400444,10.2814889 23.9491556,10.5837111 23.9491556,10.9983778 C23.9491556,11.4628222 23.8384889,11.7926 23.6173778,11.9874889 C23.3962667,12.1826 23.0556,12.2799333 22.5947111,12.2799333 C22.3753778,12.2799333 22.1640444,12.2703778 21.9618222,12.2506 C21.7591556,12.2312667 21.6284889,12.1946 21.5698222,12.1412667 L21.5698222,9.83393333 Z M21.5698222,6.58637778 C21.6160444,6.5366 21.7229333,6.51171111 21.8898222,6.51171111 L22.3258222,6.51171111 C22.7616,6.51171111 23.0933778,6.5846 23.3204889,6.7306 C23.5478222,6.87637778 23.6616,7.10704444 23.6616,7.42215556 C23.6616,7.85971111 23.5671556,8.17326667 23.3787111,8.36326667 C23.1900444,8.55326667 22.8822667,8.64815556 22.4556,8.64815556 L21.9733778,8.64815556 C21.7876,8.64815556 21.6531556,8.63637778 21.5698222,8.61237778 L21.5698222,6.58637778 Z M22.5529333,13.4177111 C23.6011556,13.4177111 24.3447111,13.1970444 24.7838222,12.7557111 C25.2227111,12.3146 25.4424889,11.6966 25.4424889,10.9023778 C25.4424889,10.5632667 25.3813778,10.2606 25.2593778,9.99415556 C25.1371556,9.72748889 24.9678222,9.51415556 24.7513778,9.35326667 C24.5349333,9.19282222 24.2876,9.09482222 24.0093778,9.05948889 C24.2287111,8.99371111 24.4182667,8.87548889 24.5773778,8.7046 C24.7367111,8.53371111 24.8580444,8.32571111 24.9416,8.0806 C25.0249333,7.83526667 25.0667111,7.56948889 25.0667111,7.28282222 C25.0667111,6.88237778 24.9740444,6.53282222 24.7884889,6.23393333 C24.6029333,5.93526667 24.3178222,5.70304444 23.9327111,5.53726667 C23.5478222,5.37148889 23.0647111,5.2886 22.4836,5.2886 L21.4864889,5.2886 L20.8231556,5.2886 L20.1089333,5.2886 L20.1089333,13.4177111 L20.8556,13.4177111 L22.5529333,13.4177111 Z" id="Fill-1" fill="#CD0E13"></path>
            <path d="M28.0002889,12.0770889 C27.8658444,11.9310889 27.7985111,11.7157556 27.7985111,11.4308667 C27.7985111,11.2277556 27.8402889,11.0748667 27.9236222,10.9715333 C28.0071778,10.8684222 28.1185111,10.7864222 28.2576222,10.7257556 C28.3658444,10.6688667 28.5305111,10.6182 28.7514,10.5735333 C28.9725111,10.5290889 29.1714,10.5068667 29.3474,10.5068667 L29.3474,11.9597556 C29.2949556,12.0379778 29.1836222,12.1137556 29.0136222,12.1866444 C28.8434,12.2595333 28.6811778,12.2959778 28.5267333,12.2959778 C28.3102889,12.2959778 28.1347333,12.2230889 28.0002889,12.0770889 M29.4078444,12.8248667 L29.4078444,12.8677556 C29.4078444,13.0386444 29.4278444,13.1633111 29.4680667,13.2415333 C29.5082889,13.3197556 29.5638444,13.3695333 29.6349556,13.3910889 C29.7060667,13.4122 29.8114,13.4230889 29.9505111,13.4230889 L30.7945111,13.4230889 L30.7945111,9.48264444 C30.7945111,8.91997778 30.7187333,8.48264444 30.5671778,8.1702 C30.4158444,7.85775556 30.1860667,7.63864444 29.8785111,7.51264444 C29.5707333,7.38664444 29.1605111,7.32353333 28.6471778,7.32353333 C28.3874,7.32353333 28.1167333,7.3582 27.8356222,7.42775556 C27.5542889,7.49731111 27.2960667,7.58175556 27.0609556,7.68131111 C26.8260667,7.78108889 26.6467333,7.87375556 26.5231778,7.95908889 L26.8429556,8.96086667 C27.0594,8.86442222 27.3191778,8.77931111 27.6222889,8.70553333 C27.9251778,8.63175556 28.1509556,8.59486667 28.2994,8.59486667 C28.6085111,8.59486667 28.8349556,8.61108889 28.9787333,8.64375556 C29.1227333,8.67642222 29.2200667,8.73753333 29.2709556,8.82664444 C29.3220667,8.91575556 29.3474,9.05553333 29.3474,9.24575556 L29.3474,9.56686667 C28.3951778,9.56686667 27.6887333,9.6842 27.2280667,9.91931111 C26.9311778,10.0724222 26.7031778,10.2755333 26.5438444,10.5282 C26.3847333,10.7810889 26.3051778,11.0855333 26.3051778,11.4415333 C26.3051778,11.8226444 26.3769556,12.1635333 26.5207333,12.4644222 C26.6645111,12.7653111 26.8669556,13.0002 27.1282889,13.1693111 C27.3894,13.3384222 27.6902889,13.4230889 28.0305111,13.4230889 C28.3180667,13.4230889 28.5791778,13.3662 28.8142889,13.2522 C29.0491778,13.1382 29.2469556,12.9957556 29.4078444,12.8248667" id="Fill-3" fill="#CD0E13"></path>
            <path d="M35.5065778,9.24786667 C35.5528,9.43408889 35.5761333,9.69608889 35.5761333,10.0338667 L35.5761333,13.4176444 L37.0232444,13.4176444 L37.0232444,9.6712 C37.0232444,9.0912 36.9636889,8.62942222 36.8445778,8.2852 C36.7254667,7.9412 36.5454667,7.69475556 36.3043556,7.54631111 C36.0630222,7.39786667 35.7523556,7.32342222 35.3721333,7.32342222 C35.0754667,7.32342222 34.7676889,7.39786667 34.4492444,7.54653333 C34.1308,7.69497778 33.8648,7.8592 33.6514667,8.03875556 L33.6236889,7.32897778 L32.3110222,7.32897778 L32.3110222,13.4176444 L33.7581333,13.4176444 L33.7581333,9.23186667 C33.9065778,9.06786667 34.0781333,8.94297778 34.2730222,8.8572 C34.4676889,8.7712 34.6423556,8.72831111 34.7970222,8.72831111 C35.0012444,8.72831111 35.1588,8.76831111 35.2701333,8.84831111 C35.3814667,8.92853333 35.4603556,9.06164444 35.5065778,9.24786667" id="Fill-5" fill="#CD0E13"></path>
            <path d="M39.3281778,13.0406222 C39.6990667,13.2955111 40.1506222,13.4230667 40.6826222,13.4230667 C41.0132889,13.4230667 41.3255111,13.3679556 41.6192889,13.2575111 C41.9128444,13.1470667 42.1417333,13.0012889 42.3057333,12.8195111 L42.0970667,11.8432889 C41.9857333,11.9110667 41.8241778,11.9679556 41.6124,12.0137333 C41.4006222,12.0595111 41.1786222,12.0824 40.9468444,12.0824 C40.6901778,12.0824 40.4621778,12.0152889 40.2626222,11.8810667 C40.0632889,11.7468444 39.9095111,11.5417333 39.8012889,11.2664 C39.6930667,10.9910667 39.6437333,10.6510667 39.6528444,10.2464 C39.6621778,9.87906667 39.7332889,9.57906667 39.8661778,9.34595556 C39.9990667,9.11328889 40.1661778,8.94484444 40.3672889,8.84106667 C40.5679556,8.73751111 40.7797333,8.68551111 41.0026222,8.68551111 C41.2404,8.68551111 41.4406222,8.70395556 41.6028444,8.7404 C41.7652889,8.77728889 41.9128444,8.83573333 42.0457333,8.91595556 L42.2268444,7.63328889 C42.1308444,7.55151111 41.9564,7.47928889 41.7028444,7.41706667 C41.4492889,7.35484444 41.1661778,7.32351111 40.8541778,7.32351111 C40.2759556,7.32351111 39.7888444,7.45884444 39.3932889,7.72951111 C38.9972889,8.00017778 38.7021778,8.37151111 38.5075111,8.84328889 C38.3124,9.31506667 38.2150667,9.84951111 38.2150667,10.4461778 C38.2150667,11.0221778 38.3077333,11.5348444 38.4935111,11.9841778 C38.6788444,12.4332889 38.9570667,12.7855111 39.3281778,13.0406222" id="Fill-7" fill="#CD0E13"></path>
            <path d="M45.6589111,12.2479778 C45.4144667,12.2479778 45.2111333,12.1593111 45.0489111,11.9817556 C44.8864667,11.8042 44.7675778,11.5677556 44.6918,11.2724222 C44.6162444,10.9770889 44.5784667,10.6502 44.5784667,10.2915333 C44.5784667,9.10331111 44.9400222,8.50931111 45.6635778,8.50931111 C46.0222444,8.50931111 46.2895778,8.69108889 46.4658,9.05464444 C46.6420222,9.41842222 46.7300222,9.87331111 46.7300222,10.4195333 C46.7300222,11.6384222 46.3731333,12.2479778 45.6589111,12.2479778 M47.1475778,7.73731111 C46.7702444,7.46153333 46.2895778,7.32353333 45.7053556,7.32353333 C45.1918,7.32353333 44.7375778,7.43908889 44.3418,7.66953333 C43.9458,7.90042222 43.6366889,8.24042222 43.4140222,8.68975556 C43.1915778,9.13908889 43.0802444,9.68108889 43.0802444,10.3162 C43.0802444,10.8988667 43.1660222,11.4237556 43.3378,11.8904222 C43.5091333,12.3570889 43.7835778,12.7290889 44.1609111,13.0066444 C44.5380222,13.2842 45.0204667,13.4230889 45.6078,13.4230889 C46.1180222,13.4230889 46.5709111,13.3068667 46.9666889,13.0744222 C47.3624667,12.8419778 47.6718,12.5002 47.8944667,12.0490889 C48.1169111,11.5982 48.2284667,11.0533111 48.2284667,10.4148667 C48.2284667,9.83197778 48.1424667,9.30886667 47.9706889,8.84575556 C47.7993556,8.38264444 47.5246889,8.01331111 47.1475778,7.73731111" id="Fill-9" fill="#CD0E13"></path>
            <polygon id="Fill-11" fill="#CD0E13" points="25.4399556 16.3889333 24.2041778 20.5787111 23.9532889 22.3384889 23.6204 20.5787111 22.2979556 16.3889333 20.3650667 16.3889333 20.1088444 24.3600444 21.3846222 24.3600444 21.4435111 20.0864889 21.3768444 17.6458222 22.0879556 20.0582667 23.3521778 24.3600444 24.4419556 24.3600444 25.6068444 20.0582667 26.3135111 17.6458222 26.2079556 20.0864889 26.3101778 24.3600444 27.6592889 24.3600444 27.3166222 16.3889333"></polygon>
            <path d="M31.8799333,22.7836889 C31.7901556,22.8614667 31.6588222,22.9359111 31.4857111,23.0070222 C31.3123778,23.0781333 31.1486,23.1134667 30.9941556,23.1134667 C30.7930444,23.1134667 30.6361556,23.0810222 30.5232667,23.0156889 C30.4103778,22.9503556 30.3254889,22.8243556 30.2681556,22.6370222 C30.2108222,22.4499111 30.1823778,22.1725778 30.1823778,21.8050222 L30.1823778,18.3896889 L28.7354889,18.3896889 L28.7354889,21.8323556 C28.7354889,22.3974667 28.7779333,22.8592444 28.8628222,23.2176889 C28.9479333,23.5759111 29.1172667,23.8570222 29.3708222,24.0603556 C29.6243778,24.2636889 29.9921556,24.3652444 30.4746,24.3652444 C30.7250444,24.3652444 30.9948222,24.3094667 31.2839333,24.1976889 C31.5728222,24.0859111 31.8179333,23.9499111 32.0188222,23.7890222 L32.0188222,24.0614667 C32.0188222,24.1836889 32.0468222,24.2650222 32.1023778,24.3050222 C32.1581556,24.3452444 32.2477111,24.3652444 32.3714889,24.3652444 L33.3268222,24.3652444 L33.3268222,18.3896889 L31.8799333,18.3896889 L31.8799333,22.7836889 Z" id="Fill-13" fill="#CD0E13"></path>
            <path d="M38.9340889,18.6028 C38.6929778,18.4572444 38.3820889,18.3843556 38.0016444,18.3843556 C37.7049778,18.3843556 37.3972,18.4572444 37.0787556,18.6028 C36.7605333,18.7485778 36.4945333,18.9094667 36.2812,19.0854667 L36.2534222,18.3896889 L34.9407556,18.3896889 L34.9407556,24.3599111 L36.3878667,24.3599111 L36.3878667,20.2554667 C36.5360889,20.0948 36.7078667,19.9723556 36.9025333,19.8881333 C37.0974222,19.8039111 37.2720889,19.7616889 37.4267556,19.7616889 C37.6309778,19.7616889 37.7885333,19.8010222 37.8998667,19.8794667 C38.0114222,19.9579111 38.0898667,20.0885778 38.1363111,20.2712444 C38.1825333,20.4539111 38.2058667,20.7108 38.2058667,21.0419111 L38.2058667,24.3599111 L39.6527556,24.3599111 L39.6527556,20.6861333 C39.6527556,20.1176889 39.5934222,19.6648 39.4745333,19.3272444 C39.3552,18.9899111 39.1752,18.7483556 38.9340889,18.6028" id="Fill-15" fill="#CD0E13"></path>
            <path d="M47.3030222,22.9833333 C47.0912444,23.0282222 46.8692444,23.0506667 46.6374667,23.0506667 C46.3808,23.0506667 46.1528,22.9848889 45.9532444,22.8531111 C45.7539111,22.7215556 45.6001333,22.5204444 45.4919111,22.2506667 C45.3834667,21.9804444 45.3343556,21.6471111 45.3434667,21.2502222 C45.3528,20.8902222 45.4239111,20.5957778 45.5570222,20.3675556 C45.6896889,20.1391111 45.8565778,19.974 46.0576889,19.8722222 C46.2585778,19.7706667 46.4703556,19.7197778 46.6932444,19.7197778 C46.9310222,19.7197778 47.1314667,19.7377778 47.2936889,19.7737778 C47.4559111,19.8097778 47.6036889,19.8671111 47.7365778,19.946 L47.9174667,18.688 C47.8214667,18.6077778 47.6470222,18.5371111 47.3932444,18.476 C47.1399111,18.4148889 46.8570222,18.3842222 46.5448,18.3842222 C45.9665778,18.3842222 45.4794667,18.5168889 45.0839111,18.7824444 C44.6876889,19.0477778 44.3925778,19.4117778 44.1979111,19.8744444 C44.0030222,20.3371111 43.9056889,20.8611111 43.9056889,21.4462222 C43.9056889,22.0111111 43.9985778,22.5137778 44.1841333,22.9542222 C44.3694667,23.3948889 44.6479111,23.74 45.0188,23.9902222 C45.3899111,24.2402222 45.8412444,24.3653333 46.3730222,24.3653333 C46.7041333,24.3653333 47.0161333,24.3111111 47.3096889,24.2028889 C47.6036889,24.0946667 47.8323556,23.9515556 47.9963556,23.7735556 L47.7876889,22.8162222 C47.6763556,22.8826667 47.5148,22.9382222 47.3030222,22.9833333" id="Fill-17" fill="#CD0E13"></path>
            <path d="M49.8794,15.6453333 C49.7218444,15.6453333 49.5718444,15.6897778 49.4298444,15.7788889 C49.2874,15.8677778 49.1729556,15.9875556 49.0865111,16.1375556 C48.9998444,16.2877778 48.9567333,16.4502222 48.9567333,16.6246667 C48.9567333,16.7957778 48.9936222,16.9493333 49.0678444,17.0855556 C49.1420667,17.2217778 49.2427333,17.3282222 49.3694,17.4048889 C49.4958444,17.4817778 49.6382889,17.5202222 49.7960667,17.5202222 C49.9567333,17.5202222 50.1074,17.4755556 50.2480667,17.3866667 C50.3889556,17.2975556 50.5018444,17.1773333 50.5867333,17.0251111 C50.6716222,16.8733333 50.7142889,16.7102222 50.7142889,16.5355556 C50.7142889,16.2737778 50.6385111,16.06 50.4869556,15.894 C50.3354,15.7282222 50.1331778,15.6453333 49.8794,15.6453333" id="Fill-19" fill="#CD0E13"></path>
            <mask id="mask-2" fill="white">
                <use xlink:href="#path-1"></use>
            </mask>
            <g id="Clip-22"></g>
            <polygon id="Fill-21" fill="#CD0E13" mask="url(#mask-2)" points="49.1328889 24.36 50.58 24.36 50.58 18.3895556 49.1328889 18.3895556"></polygon>
            <path d="M55.4866,22.3098444 C55.3814889,22.6076222 55.2377111,22.8334 55.0552667,22.9874 C54.8726,23.1414 54.6641556,23.2182889 54.4290444,23.2182889 C54.2499333,23.2182889 54.0914889,23.2016222 53.9539333,23.1682889 C53.8161556,23.1351778 53.7026,23.0751778 53.6128222,22.9885111 L53.6128222,19.9787333 C53.7303778,19.8698444 53.8779333,19.7802889 54.0559333,19.7100667 C54.2334889,19.6398444 54.4183778,19.6047333 54.6101556,19.6047333 C54.9470444,19.6047333 55.2037111,19.7276222 55.3799333,19.9734 C55.5559333,20.2194 55.6441556,20.6451778 55.6441556,21.2507333 C55.6441556,21.6589556 55.5917111,22.0120667 55.4866,22.3098444 M56.1126,18.6931778 C55.7943778,18.4874 55.4419333,18.3842889 55.0552667,18.3842889 C54.6810444,18.3842889 54.3734889,18.4485111 54.1323778,18.5762889 C53.8912667,18.7042889 53.6854889,18.8598444 53.5154889,19.0425111 L53.5154889,18.3896222 L52.1659333,18.3896222 L52.1659333,27.0100667 L53.6128222,27.0100667 L53.6128222,25.0327333 L53.5941556,24.1976222 C53.8632667,24.3094 54.1554889,24.3654 54.4710444,24.3654 C55.0026,24.3654 55.4719333,24.2325111 55.8786,23.9671778 C56.2850444,23.7018444 56.6003778,23.3267333 56.8246,22.8418444 C57.0488222,22.3571778 57.1608222,21.7965111 57.1608222,21.1605111 C57.1608222,20.5549556 57.0657111,20.0438444 56.8757111,19.6269556 C56.6857111,19.2102889 56.4310444,18.8989556 56.1126,18.6931778" id="Fill-23" fill="#CD0E13" mask="url(#mask-2)"></path>
            <path d="M61.1170222,22.9302889 C61.0645778,23.0069556 60.9530222,23.0814 60.7830222,23.1527333 C60.6128,23.2242889 60.4505778,23.2600667 60.2961333,23.2600667 C60.0796889,23.2600667 59.9041333,23.1887333 59.7699111,23.0454 C59.6352444,22.9022889 59.5679111,22.6911778 59.5679111,22.4118444 C59.5679111,22.2127333 59.6096889,22.0627333 59.6932444,21.9614 C59.7765778,21.8602889 59.8881333,21.7798444 60.0270222,21.7202889 C60.1352444,21.6647333 60.2999111,21.6149556 60.5210222,21.5711778 C60.7421333,21.5276222 60.9408,21.5056222 61.1170222,21.5056222 L61.1170222,22.9302889 Z M61.6481333,18.5696222 C61.3405778,18.4460667 60.9299111,18.3842889 60.4168,18.3842889 C60.1570222,18.3842889 59.8863556,18.4182889 59.6050222,18.4865111 C59.3236889,18.5545111 59.0656889,18.6376222 58.8305778,18.7351778 C58.5954667,18.8331778 58.4163556,18.9238444 58.2925778,19.0076222 L58.6123556,19.9898444 C58.8290222,19.8954 59.0885778,19.8118444 59.3916889,19.7394 C59.6948,19.6669556 59.9203556,19.6307333 60.0688,19.6307333 C60.3779111,19.6307333 60.6043556,19.6469556 60.7483556,19.6789556 C60.8921333,19.7109556 60.9894667,19.7707333 61.0403556,19.8580667 C61.0914667,19.9456222 61.1170222,20.0827333 61.1170222,20.2691778 L61.1170222,20.5838444 C60.1648,20.5838444 59.4581333,20.6991778 58.9976889,20.9296222 C58.7005778,21.0796222 58.4725778,21.2787333 58.3134667,21.5267333 C58.1541333,21.7745111 58.0745778,22.0731778 58.0745778,22.4222889 C58.0745778,22.7960667 58.1465778,23.1300667 58.2901333,23.4251778 C58.4339111,23.7202889 58.6365778,23.9507333 58.8979111,24.1165111 C59.1590222,24.2822889 59.4596889,24.3654 59.7999111,24.3654 C60.0872444,24.3654 60.3485778,24.3094 60.5836889,24.1976222 C60.8185778,24.0860667 61.0163556,23.9462889 61.1772444,23.7787333 L61.1772444,23.8205111 C61.1772444,23.9882889 61.1974667,24.1105111 61.2374667,24.1871778 C61.2776889,24.2638444 61.3334667,24.3127333 61.4045778,24.3338444 C61.4756889,24.3547333 61.5808,24.3654 61.7199111,24.3654 L62.5641333,24.3654 L62.5641333,20.5014 C62.5641333,19.9498444 62.4881333,19.5209556 62.3368,19.2145111 C62.1854667,18.9080667 61.9554667,18.6934 61.6481333,18.5696222 Z" id="Fill-24" fill="#CD0E13" mask="url(#mask-2)"></path>
            <path d="M41.9577333,15.6453333 C41.8001778,15.6453333 41.6501778,15.6897778 41.5081778,15.7788889 C41.3657333,15.8677778 41.2512889,15.9875556 41.1650667,16.1375556 C41.0781778,16.2877778 41.0350667,16.4502222 41.0350667,16.6246667 C41.0350667,16.7957778 41.0719556,16.9493333 41.1461778,17.0855556 C41.2204,17.2217778 41.3210667,17.3282222 41.4477333,17.4048889 C41.5741778,17.4817778 41.7166222,17.5202222 41.8744,17.5202222 C42.0352889,17.5202222 42.1857333,17.4755556 42.3264,17.3866667 C42.4672889,17.2975556 42.5801778,17.1773333 42.6652889,17.0251111 C42.7499556,16.8733333 42.7928444,16.7102222 42.7928444,16.5355556 C42.7928444,16.2737778 42.7168444,16.06 42.5652889,15.894 C42.4139556,15.7282222 42.2115111,15.6453333 41.9577333,15.6453333" id="Fill-25" fill="#CD0E13" mask="url(#mask-2)"></path>
            <polygon id="Fill-26" fill="#CD0E13" mask="url(#mask-2)" points="42.4297556 18.3842667 40.2604222 18.3842667 40.2604222 19.2942667 41.2113111 19.2942667 41.2113111 24.3600444 42.6582 24.3600444 42.6582 18.3896 42.4297556 18.3896"></polygon>
            <path d="M65.5556222,23.2601333 L65.5556222,15.6556889 L64.1085111,15.6556889 L64.1085111,23.2601333 C64.1085111,23.5554667 64.2196222,23.8399111 64.4198444,24.0570222 C64.6007333,24.2534667 64.8558444,24.3652444 65.1227333,24.3652444 L65.9814,24.3652444 L65.9814,23.2601333 L65.5556222,23.2601333 Z" id="Fill-27" fill="#CD0E13" mask="url(#mask-2)"></path>
            <path d="M11.9999556,13.4176889 C11.2777333,14.1452444 9.16662222,14.1452444 9.36106667,12.8674667 L12.8332889,9.35302222 C12.8332889,9.35302222 13.1110667,8.70657778 12.2221778,8.64813333 C12.2221778,8.64813333 8.55551111,12.6583556 7.05551111,13.6239111 C6.19017778,14.0148 4.77773333,13.7563556 5.05551111,12.8674667 L8.55551111,9.35302222 C8.55551111,9.35302222 8.9444,8.59546667 7.83328889,8.64813333 L3.27773333,13.4176889 C3.27773333,13.4176889 2.70684444,13.6121333 2.12106667,13.6954667 C3.6204,15.3496889 5.78595556,16.3890222 8.1944,16.3890222 C12.3626222,16.3890222 15.8015111,13.2761333 16.3190667,9.2488 C16.0830667,9.24768889 15.8721778,9.2728 15.7777333,9.35302222 C15.7777333,9.35302222 12.7221778,12.6901333 11.9999556,13.4176889" id="Fill-28" fill="#CD0E13" mask="url(#mask-2)"></path>
            <path d="M8.1944,4.44444444e-05 C3.66884444,4.44444444e-05 -4.44444444e-05,3.66893333 -4.44444444e-05,8.19448889 C-4.44444444e-05,9.76848889 0.444622222,11.2380444 1.21373333,12.4862667 C1.30884444,12.3442667 1.38884444,12.2480444 1.38884444,12.2480444 L6.22217778,7.57982222 C6.22217778,7.57982222 8.27773333,6.76226667 9.16662222,8.50937778 L10.5555111,7.38893333 C10.5555111,7.38893333 12.3888444,6.65115556 13.7777333,8.50937778 C13.7777333,8.50937778 14.7221778,7.16848889 15.8332889,7.3236 L16.3424,7.3236 C15.9072889,3.2076 12.4259556,4.44444444e-05 8.1944,4.44444444e-05" id="Fill-29" fill="#CD0E13" mask="url(#mask-2)"></path>
        </g>
        <rect id="Rectangle" fill-rule="nonzero" x="0" y="0" width="66" height="50"></rect>
    </g>
</svg>