<?xml version="1.0" encoding="UTF-8"?>
<svg width="66px" height="50px" viewBox="0 0 66 50" version="1.1" xmlns="http://www.w3.org/2000/svg" xmlns:xlink="http://www.w3.org/1999/xlink">
    <!-- Generator: Sketch 51.3 (57544) - http://www.bohemiancoding.com/sketch -->
    <title>2. PRBA-Mastercard</title>
    <desc>Created with Sketch.</desc>
    <defs>
        <polygon id="path-1" points="0 0.216674237 15.0523685 0.216674237 15.0523685 18.4965812 0 18.4965812"></polygon>
    </defs>
    <g id="2.-PRBA-Mastercard" stroke="none" stroke-width="1" fill="none" fill-rule="evenodd">
        <rect id="Rectangle" fill-rule="nonzero" x="0" y="0" width="66" height="50"></rect>
        <g id="Group-2" transform="translate(47.000000, 18.000000)" fill-rule="nonzero">
            <polygon id="Shape" fill="#F26522" points="5.6875 1.14196078 12.5125 1.14196078 12.5125 10.2776471 5.6875 10.2776471"></polygon>
            <path d="M6.9534003,5.70980392 C6.95129114,3.95785134 7.7428321,2.30218489 9.1,1.21976073 C6.79350544,-0.619310013 3.48197453,-0.350868203 1.4922748,1.83646388 C-0.497424933,4.02379596 -0.497424933,7.39581189 1.4922748,9.58314397 C3.48197453,11.770476 6.79350544,12.0389179 9.1,10.1998471 C7.7428321,9.11742295 6.95129114,7.4617565 6.9534003,5.70980392" id="Shape" fill="#E51B24"></path>
            <path d="M18.2,5.70980392 C18.199888,7.89548493 16.9706181,9.88933705 15.0340457,10.8449206 C13.0974734,11.8005042 10.7934148,11.5501401 9.1,10.2001141 C10.45764,9.11758727 11.2503885,7.4622181 11.2503885,5.70980392 C11.2503885,3.95738974 10.45764,2.30202058 9.1,1.21949376 C10.7934148,-0.130532239 13.0974734,-0.38089634 15.0340457,0.574687227 C16.9706181,1.53027079 18.199888,3.52412292 18.2,5.70980392" id="Shape" fill="#F99F1C"></path>
            <path d="M2.52510168,17.0655319 L2.52510168,16.072128 C2.53653778,15.9031786 2.47459293,15.7374552 2.35494341,15.616897 C2.23529389,15.4963389 2.06940536,15.4324987 1.89925892,15.4415325 C1.67486197,15.4266029 1.46005822,15.5341653 1.33860812,15.7222771 C1.22789751,15.5404449 1.02640444,15.4328768 0.812726358,15.4415325 C0.626472964,15.4339745 0.44990715,15.5241692 0.347690421,15.6790856 L0.347690421,15.4760857 L0,15.4760857 L0,17.0612128 L0.352036551,17.0612128 L0.352036551,16.1973833 C0.33330138,16.0858114 0.366744132,15.9718355 0.442886655,15.8877579 C0.519029178,15.8036804 0.629572943,15.7586646 0.743188274,15.7654686 C0.973533178,15.7654686 1.09087869,15.9123196 1.09087869,16.1973833 L1.09087869,17.0612128 L1.43856912,17.0612128 L1.43856912,16.1973833 C1.41983394,16.0858114 1.4532767,15.9718355 1.52941922,15.8877579 C1.60556174,15.8036804 1.71610551,15.7586646 1.82972084,15.7654686 C2.068758,15.7654686 2.17741126,15.9123196 2.17741126,16.1973833 L2.17741126,17.0612128 L2.52510168,17.0655319 Z M7.70568895,15.4760857 L7.13634588,15.4760857 L7.13634588,15.0009795 L6.78865546,15.0009795 L6.78865546,15.4760857 L6.46704182,15.4760857 L6.46704182,15.7913835 L6.78865546,15.7913835 L6.78865546,16.5126811 C6.78865546,16.8798086 6.93207776,17.1000851 7.340614,17.1000851 C7.49403708,17.1011242 7.64465473,17.0592131 7.77522703,16.979149 L7.67526603,16.685447 C7.5819586,16.7415285 7.4756828,16.7727671 7.36669079,16.7761491 C7.19284558,16.7761491 7.13634588,16.6681704 7.13634588,16.5126811 L7.13634588,15.8000218 L7.70134282,15.8000218 L7.70568895,15.4760857 Z M10.6567114,15.4415325 C10.4790646,15.4311159 10.3107673,15.5214323 10.2220984,15.6747665 L10.2220984,15.4760857 L9.87875408,15.4760857 L9.87875408,17.0612128 L10.2264445,17.0612128 L10.2264445,16.1801067 C10.2264445,15.9166387 10.3394439,15.7741069 10.5654427,15.7741069 C10.6397549,15.7726211 10.7136226,15.7858348 10.7827492,15.8129792 L10.8914024,15.4890432 C10.8120076,15.4603423 10.7281572,15.445723 10.643673,15.4458517 L10.6567114,15.4415325 Z M6.17150497,15.6099793 C5.97583617,15.4949638 5.7511284,15.4380116 5.52393156,15.4458517 C5.11974144,15.4458517 4.85897363,15.6402133 4.85897363,15.9555111 C4.85897363,16.2708088 5.05020336,16.3874258 5.40658604,16.421979 L5.57173899,16.4435747 C5.75862259,16.4694896 5.84989133,16.5213194 5.84989133,16.6077023 C5.84989133,16.6940853 5.72385355,16.7977448 5.48481638,16.7977448 C5.29476947,16.8021274 5.10851677,16.7444745 4.95458849,16.6336172 L4.78943554,16.9014043 C4.99186752,17.0410636 5.23416622,17.1122418 5.48047025,17.1044043 C5.94116006,17.1044043 6.20627401,16.8884469 6.20627401,16.5861066 C6.20627401,16.2837663 5.99765976,16.1541918 5.64996933,16.1110004 L5.48481638,16.0894046 C5.33270183,16.0894046 5.21535631,16.0375749 5.21535631,15.9339153 C5.21535631,15.8302558 5.3283557,15.748192 5.51958543,15.748192 C5.69349,15.7503565 5.86398489,15.7964313 6.01504428,15.8820856 L6.17150497,15.6099793 Z M15.4591853,15.4458517 C15.2815386,15.4354351 15.1132412,15.5257514 15.0245723,15.6790856 L15.0245723,15.4760857 L14.681228,15.4760857 L14.681228,17.0612128 L15.0289184,17.0612128 L15.0289184,16.1801067 C15.0289184,15.9166387 15.1419178,15.7741069 15.3679166,15.7741069 C15.4422288,15.7726211 15.5160965,15.7858348 15.5852231,15.8129792 L15.6938764,15.4890432 C15.6145051,15.4602549 15.530639,15.4456329 15.4461469,15.4458517 L15.4591853,15.4458517 Z M11.0130941,16.275128 C11.003599,16.5039673 11.093372,16.7258541 11.2596263,16.8844673 C11.4258805,17.0430805 11.6526303,17.123169 11.8823201,17.1044043 C12.0906748,17.114147 12.2952077,17.0463927 12.4560093,16.9143618 L12.2865102,16.6379363 C12.1616531,16.7322196 12.0086975,16.7823816 11.8518972,16.7804682 C11.5880569,16.7562535 11.3862149,16.5362864 11.3862149,16.2729684 C11.3862149,16.0096504 11.5880569,15.7896833 11.8518972,15.7654686 C12.0086975,15.7635552 12.1616531,15.8137172 12.2865102,15.9080004 L12.4560093,15.631575 C12.2954151,15.4991728 12.0907331,15.4313691 11.8823201,15.4415325 C11.6521984,15.4240805 11.4255434,15.5052095 11.2594692,15.6644762 C11.093395,15.8237428 11.0037393,16.0459585 11.0130941,16.275128 Z M14.2596534,16.275128 L14.2596534,15.4760857 L13.911963,15.4760857 L13.911963,15.6704473 C13.7920491,15.5158877 13.6040195,15.4289001 13.4078118,15.4372134 C12.9691055,15.4686572 12.629348,15.8315341 12.629348,16.2686492 C12.629348,16.7057644 12.9691055,17.0686413 13.4078118,17.1000851 C13.6040195,17.1083984 13.7920491,17.0214108 13.911963,16.8668512 L13.911963,17.0612128 L14.2596534,17.0612128 L14.2596534,16.275128 Z M12.9558143,16.275128 C12.9653713,16.0145146 13.1827908,15.8092917 13.4451767,15.8132174 C13.7075625,15.817143 13.918667,16.0287772 13.9203255,16.2895584 C13.921984,16.5503395 13.7135881,16.7646086 13.4512731,16.7718299 C13.3182754,16.7733 13.1906733,16.7196419 13.0991306,16.6237499 C13.0075878,16.5278579 12.9603804,16.3984015 12.9688527,16.2664897 L12.9558143,16.275128 Z M8.78352925,15.4328942 C8.34484771,15.4695153 8.00929334,15.8369326 8.01501009,16.2743891 C8.02072683,16.7118456 8.36576934,17.070479 8.8052599,17.095766 C9.04243171,17.1045226 9.27453064,17.0260989 9.45717944,16.8754895 L9.28768036,16.6206598 C9.15549722,16.725508 8.99176295,16.7832956 8.82264442,16.7847874 C8.70725962,16.7968336 8.59181799,16.7625319 8.50202365,16.68952 C8.41222931,16.616508 8.35553712,16.5108473 8.34457009,16.3960641 L9.52671752,16.3960641 L9.52671752,16.2621705 C9.54747339,16.0496685 9.47735107,15.8382877 9.33349734,15.6797165 C9.1896436,15.5211452 8.98532064,15.4300025 8.77049086,15.4285751 L8.78352925,15.4328942 Z M8.77049086,15.7395537 C8.87539062,15.7372373 8.97691738,15.7764414 9.05272334,15.8485365 C9.1285293,15.9206316 9.17240081,16.0197082 9.17468097,16.1239578 L8.35326235,16.1239578 C8.37773763,15.9041413 8.56533971,15.7382121 8.78787538,15.7395537 L8.77049086,15.7395537 Z M17.4801359,16.2621705 L17.4801359,14.8454902 L17.1324455,14.8454902 L17.1324455,15.6747665 C17.0120652,15.5207872 16.8243554,15.4339475 16.6282944,15.4415325 C16.189588,15.4729764 15.8498305,15.8358533 15.8498305,16.2729684 C15.8498305,16.7100835 16.189588,17.0729604 16.6282944,17.1044043 C16.8243554,17.1119893 17.0120652,17.0251496 17.1324455,16.8711703 L17.1324455,17.0655319 L17.4801359,17.0655319 L17.4801359,16.2621705 Z M16.1762968,16.2621705 C16.1928222,16.0030968 16.413837,15.8041565 16.6748876,15.8133779 C16.9359382,15.8225992 17.1421822,16.036632 17.1401569,16.2962179 C17.1381315,16.5558038 16.9285726,16.7666325 16.6674095,16.7718299 C16.5344118,16.7733 16.4068097,16.7196419 16.315267,16.6237499 C16.2237242,16.5278579 16.1765168,16.3984015 16.1849891,16.2664897 L16.1762968,16.2621705 Z M4.47651417,16.2664897 L4.47651417,15.4760857 L4.13751601,15.4760857 L4.13751601,15.6704473 C4.01713577,15.516468 3.82942597,15.4296284 3.6333649,15.4372134 C3.1946585,15.4686572 2.85490101,15.8315341 2.85490101,16.2686492 C2.85490101,16.7057644 3.1946585,17.0686413 3.6333649,17.1000851 C3.82803677,17.1104468 4.0157754,17.0268106 4.13751601,16.8754895 L4.13751601,17.0698511 L4.48520643,17.0698511 L4.47651417,16.2664897 Z M3.17267509,16.2664897 C3.18690214,16.007261 3.40617473,15.8063845 3.66731658,15.8133465 C3.92845843,15.8203085 4.13657849,16.0325793 4.13679988,16.2921932 C4.13702127,16.551807 3.92926354,16.764428 3.66813394,16.7718299 C3.53513617,16.7733 3.40753413,16.7196419 3.31599137,16.6237499 C3.22444861,16.5278579 3.17724123,16.3984015 3.18571348,16.2664897 L3.17267509,16.2664897 Z M18.0451328,16.8366171 C18.0666476,16.8323125 18.08881,16.8323125 18.1103248,16.8366171 C18.1298216,16.8446236 18.1475428,16.8563644 18.1624783,16.8711703 C18.1770586,16.8862695 18.1888304,16.9038175 18.1972474,16.9230001 C18.2008243,16.9429994 18.2008243,16.9634688 18.1972474,16.9834681 C18.2009175,17.0034592 18.2009175,17.0239452 18.1972474,17.0439362 C18.1884003,17.0615864 18.1766489,17.0776442 18.1624783,17.0914468 C18.1474066,17.1060866 18.1297197,17.1178047 18.1103248,17.126 C18.0888352,17.130549 18.0666224,17.130549 18.0451328,17.126 C18.0024249,17.1266317 17.9614174,17.1093901 17.9321334,17.0784894 C17.917442,17.0651415 17.9056157,17.0489813 17.8973644,17.0309788 C17.8928733,17.0110698 17.8928733,16.9904196 17.8973644,16.9705107 C17.8930127,16.9505867 17.8930127,16.9299667 17.8973644,16.9100426 C17.9149718,16.8728331 17.9459919,16.843547 17.984287,16.8279788 C18.0058018,16.8236742 18.0279642,16.8236742 18.049479,16.8279788 L18.0451328,16.8366171 Z M18.049479,17.1087234 L18.0972864,17.1087234 C18.1120087,17.1029058 18.1253354,17.0940764 18.1364016,17.0828085 C18.1475536,17.0716586 18.1564111,17.0584549 18.1624783,17.0439362 C18.1656394,17.0282551 18.1656394,17.0121067 18.1624783,16.9964256 C18.165888,16.98077 18.165888,16.9645706 18.1624783,16.948915 C18.1564111,16.9343963 18.1475536,16.9211925 18.1364016,16.9100426 L18.0972864,16.8841277 L18.0016715,16.8841277 L17.9625564,16.9100426 C17.9512181,16.92104 17.9423336,16.9342841 17.9364796,16.948915 C17.9324313,16.9644963 17.9324313,16.9808442 17.9364796,16.9964256 C17.9326127,17.0120293 17.9326127,17.0283324 17.9364796,17.0439362 C17.9423336,17.0585671 17.9512181,17.0718111 17.9625564,17.0828085 L18.0016715,17.1087234 L18.049479,17.1087234 Z M18.049479,16.9100426 C18.063594,16.905428 18.0788253,16.905428 18.0929403,16.9100426 C18.0977781,16.9210586 18.0977781,16.9335798 18.0929403,16.9445958 C18.0966055,16.9543447 18.0966055,16.965081 18.0929403,16.9748298 C18.0815973,16.9781907 18.0695142,16.9781907 18.0581712,16.9748298 L18.1059787,17.0309788 L18.0668635,17.0309788 L18.0234022,16.9748298 L18.0234022,17.0309788 L17.9929793,17.0309788 L17.9929793,16.8841277 L18.049479,16.9100426 Z M18.0147099,16.9359575 L18.0147099,16.9748298 L18.0712096,16.9748298 L18.0451328,16.9748298 L18.0147099,16.9359575 Z" id="Shape" fill="#000000"></path>
        </g>
        <path d="M43,17 L43,37.5" id="Line" stroke="#E2E2E2" stroke-width="0.3" stroke-linecap="square" fill-rule="nonzero"></path>
        <g id="Group-6" transform="translate(0.000000, 17.000000)">
            <g id="Group-3">
                <mask id="mask-2" fill="white">
                    <use xlink:href="#path-1"></use>
                </mask>
                <g id="Clip-2"></g>
                <path d="M15.0165983,7.35490128 C14.9983594,7.34961654 14.9683956,7.34301062 14.9436428,7.4037851 C13.2708761,11.5826913 8.646015,10.9220991 8.646015,10.9220991 C8.45711222,10.9102084 8.31901778,10.9908007 8.30989833,11.1784088 L8.30989833,14.3188641 C8.31250389,14.5196841 8.18743722,14.561962 8.06497611,14.576495 C5.09594556,14.6848322 4.33251778,12.6396388 4.31949,11.2286139 C4.31688444,10.842828 4.29864556,10.5680217 4.29864556,10.5191378 L4.29864556,2.38724804 C4.29864556,2.19699749 4.43934556,2.12697472 4.56050389,2.12697472 L6.15380111,2.12697472 C6.61237889,2.12961709 6.72702333,2.08337563 6.98888167,1.82970824 L8.28254,0.384332534 C8.42454278,0.20200909 8.19395111,0.216542118 8.19395111,0.216542118 L1.14852889,0.216542118 C0.200106667,0.216542118 -0.000521111111,0.904879176 -0.000521111111,1.31312515 L-0.000521111111,11.1810512 C0.0112038889,12.2287504 -0.04221,18.4977703 6.96022056,18.4977703 L13.6200206,18.4977703 C14.6909039,18.4977703 15.0517733,17.7552646 15.0517733,17.1303444 L15.0517733,7.43681471 C15.0530761,7.43681471 15.0556817,7.3694343 15.0165983,7.35490128 M8.78280667,7.69312447 L9.443315,7.69312447 C10.4790233,7.69312447 11.319315,6.82114279 11.319315,5.75098345 C11.319315,4.68346648 10.4790233,3.81544835 9.443315,3.81544835 L8.75935667,3.81544835 C8.57045389,3.81544835 8.34246778,3.98455995 8.34246778,4.24879682 L8.34246778,7.27563021 C8.34246778,7.46852313 8.51573722,7.69312447 8.78280667,7.69312447" id="Fill-1" fill="#84C300" mask="url(#mask-2)"></path>
            </g>
            <path d="M28.9843741,15.1270612 C28.8273339,15.1270612 28.7078759,15.2422116 28.7078759,15.4327581 L28.7078759,18.15113 C28.7078759,18.3403057 28.8273339,18.4568269 28.9843741,18.4568269 C29.1427566,18.4568269 29.2595301,18.3403057 29.2595301,18.15113 L29.2595301,15.4327581 C29.2595301,15.2422116 29.1427566,15.1270612 28.9843741,15.1270612 Z M22.1470837,15.2024573 C22.0423902,15.1407696 21.89743,15.085936 21.6813319,15.085936 C21.2934291,15.085936 21.0048509,15.2901909 20.8733129,15.5835503 L20.867944,15.5835503 L20.867944,15.4327581 C20.867944,15.2422116 20.7484861,15.1270612 20.5914458,15.1270612 C20.4330634,15.1270612 20.3162899,15.2422116 20.3162899,15.4327581 L20.3162899,18.15113 C20.3162899,18.3403057 20.4330634,18.4568269 20.5914458,18.4568269 C20.7484861,18.4568269 20.867944,18.3403057 20.867944,18.15113 L20.867944,16.5705537 C20.867944,16.026331 21.0571976,15.6178212 21.5296606,15.6178212 C21.6611986,15.6178212 21.7726032,15.6520922 21.8907189,15.7000715 C21.9376968,15.7206341 21.9900435,15.7329716 22.028968,15.7329716 C22.1940616,15.7329716 22.3054662,15.6123379 22.3054662,15.4478373 C22.304124,15.3518786 22.2584884,15.264145 22.1470837,15.2024573 Z M28.9843741,13.7575939 C28.7870671,13.7575939 28.6233158,13.9220945 28.6233158,14.1332036 C28.6233158,14.3374584 28.7870671,14.5074424 28.9843741,14.5074424 C29.1803388,14.5074424 29.3454324,14.3374584 29.3454324,14.1332036 C29.3454324,13.9220945 29.1803388,13.7575939 28.9843741,13.7575939 Z M24.5684563,17.4561151 C24.4637628,17.7823746 24.207398,17.9660669 23.8597619,17.9660669 C23.5107836,17.9660669 23.2544188,17.7823746 23.1497253,17.4561151 C23.0973785,17.279277 23.0785874,17.101068 23.0785874,16.7871461 C23.0785874,16.4759659 23.0973785,16.3046111 23.1497253,16.127773 C23.2544188,15.8015135 23.5107836,15.6164504 23.8597619,15.6164504 C24.207398,15.6164504 24.4624206,15.8015135 24.5684563,16.127773 C24.620803,16.3046111 24.6395942,16.4759659 24.6395942,16.7871461 C24.6395942,17.1024389 24.620803,17.279277 24.5684563,17.4561151 Z M23.8597619,15.085936 C23.2490499,15.085936 22.7900092,15.4067122 22.6195467,15.9660141 C22.5470666,16.1894607 22.5148532,16.4142781 22.5148532,16.7885169 C22.5148532,17.1696099 22.5470666,17.3957982 22.6195467,17.6206157 C22.7900092,18.1716926 23.2490499,18.4965812 23.8597619,18.4965812 C24.4704739,18.4965812 24.9295146,18.1716926 25.0999771,17.6206157 C25.171115,17.3957982 25.2033284,17.1696099 25.2033284,16.7885169 C25.2033284,16.4142781 25.171115,16.1894607 25.0999771,15.9660141 C24.9295146,15.4067122 24.4704739,15.085936 23.8597619,15.085936 Z M27.9280436,15.1270612 C27.7965056,15.1270612 27.7119455,15.2093115 27.6663099,15.3313161 L26.8717131,17.5986823 L26.8596331,17.5986823 L26.0462452,15.3313161 C25.9992674,15.2079406 25.913365,15.1270612 25.7831693,15.1270612 C25.6194179,15.1270612 25.5147244,15.2504366 25.5147244,15.3984871 C25.5147244,15.4464665 25.5200933,15.4875916 25.5402267,15.5424251 L26.4918637,18.1031507 C26.589846,18.3690933 26.6757484,18.4568269 26.852922,18.4568269 C27.0287534,18.4568269 27.1146557,18.3690933 27.2139803,18.1031507 L28.1723284,15.5424251 C28.1911196,15.4875916 28.1991729,15.4464665 28.1991729,15.3984871 C28.1978307,15.2504366 28.091795,15.1270612 27.9280436,15.1270612 Z M31.5171513,15.085936 C31.090324,15.085936 30.7896657,15.2764825 30.6379944,15.5287167 L30.6312833,15.5287167 L30.6312833,15.4327581 C30.6312833,15.2422116 30.5131675,15.1270612 30.3547851,15.1270612 C30.1977448,15.1270612 30.0782869,15.2422116 30.0782869,15.4327581 L30.0782869,18.15113 C30.0782869,18.3403057 30.1977448,18.4568269 30.3547851,18.4568269 C30.5131675,18.4568269 30.6312833,18.3403057 30.6312833,18.15113 L30.6312833,16.4142781 C30.6312833,15.9290015 30.9265726,15.6164504 31.3533999,15.6164504 C31.8258629,15.6164504 32.0553832,15.9248889 32.0553832,16.4471783 L32.0553832,18.15113 C32.0553832,18.3403057 32.1734989,18.4568269 32.3318814,18.4568269 C32.4889216,18.4568269 32.6056952,18.3403057 32.6056952,18.15113 L32.6056952,16.3128361 C32.6056952,15.5698419 32.2003434,15.085936 31.5171513,15.085936 Z M39.4510389,17.3670106 C39.4510389,17.7686662 39.1423273,18.007192 38.6564421,18.007192 C38.2376681,18.007192 38.0014367,17.8372081 38.0014367,17.4972402 C38.0014367,17.1284848 38.243037,16.9653551 38.781269,16.9653551 L39.4134566,16.9653551 C39.4389588,16.9653551 39.4510389,16.9790634 39.4510389,17.007851 L39.4510389,17.3670106 Z M40.1530222,18.0209004 L40.0416175,17.8111622 C39.9959819,17.7138327 39.9825597,17.6452907 39.9825597,17.4753068 L39.9825597,16.3046111 C39.9825597,15.4999291 39.589288,15.085936 38.7490556,15.085936 C38.3168594,15.085936 37.9880144,15.1942322 37.7907075,15.3313161 C37.698094,15.3861496 37.6591695,15.4738832 37.6591695,15.5629877 C37.6591695,15.712409 37.751783,15.8097386 37.8967432,15.8097386 C37.9423788,15.8097386 38.0014367,15.7878051 38.0537834,15.7590175 C38.2054548,15.6781381 38.4551085,15.5972586 38.6967088,15.5972586 C39.248363,15.5972586 39.4523811,15.856347 39.4523811,16.3128361 L39.4523811,16.4691117 C39.4523811,16.4978993 39.4389588,16.508866 39.4134566,16.508866 L38.6980511,16.508866 C37.9168765,16.508866 37.4699159,16.8433505 37.4699159,17.5178028 C37.4699159,18.1374216 37.877952,18.4965812 38.5785931,18.4965812 C39.038976,18.4965812 39.3329231,18.3553849 39.5436523,18.108634 L39.5503635,18.108634 L39.6751903,18.3142597 C39.7409593,18.4088476 39.8188083,18.4554561 39.9181329,18.4554561 C40.0818843,18.4554561 40.2,18.3403057 40.2,18.185401 C40.1986578,18.1305674 40.1785244,18.0688797 40.1530222,18.0209004 Z M36.5625723,13.7575939 C36.3666075,13.7575939 36.2015139,13.9220945 36.2015139,14.1332036 C36.2015139,14.3374584 36.3666075,14.5074424 36.5625723,14.5074424 C36.7598792,14.5074424 36.9249728,14.3374584 36.9249728,14.1332036 C36.9249728,13.9220945 36.7612215,13.7575939 36.5625723,13.7575939 Z M34.5626581,15.6164504 C34.8445252,15.6164504 35.0149877,15.7261174 35.1599479,15.8892472 C35.2310858,15.9714974 35.3035659,16.0249601 35.4015483,16.0249601 C35.5397974,16.0249601 35.6444909,15.9180348 35.6444909,15.7727259 C35.6444909,15.6987007 35.6189886,15.6383838 35.5666419,15.5629877 C35.3693349,15.2970451 35.0337788,15.085936 34.5626581,15.085936 C33.9586572,15.085936 33.4982743,15.3984871 33.3211007,15.9646433 C33.263385,16.1620439 33.2231183,16.4279865 33.2231183,16.7871461 C33.2231183,17.1559015 33.2620428,17.4218441 33.3211007,17.6192448 C33.4982743,18.185401 33.9586572,18.4965812 34.5626581,18.4965812 C35.0337788,18.4965812 35.3679927,18.286843 35.5666419,18.0209004 C35.6189886,17.9455043 35.6444909,17.8851874 35.6444909,17.8111622 C35.6444909,17.6672242 35.5397974,17.5575571 35.4015483,17.5575571 C35.3035659,17.5575571 35.2310858,17.6123906 35.1599479,17.6946409 C35.0149877,17.8577706 34.8445252,17.9660669 34.5626581,17.9660669 C34.2203909,17.9660669 33.9653683,17.7960829 33.8593326,17.4561151 C33.8083281,17.2861312 33.7881947,17.0805055 33.7881947,16.7871461 C33.7881947,16.5020118 33.8083281,16.2977569 33.8593326,16.127773 C33.9653683,15.7878051 34.2203909,15.6164504 34.5626581,15.6164504 Z M36.5625723,15.1270612 C36.405532,15.1270612 36.2874163,15.2422116 36.2874163,15.4327581 L36.2874163,18.15113 C36.2874163,18.3403057 36.405532,18.4568269 36.5625723,18.4568269 C36.7209547,18.4568269 36.8390705,18.3403057 36.8390705,18.15113 L36.8390705,15.4327581 C36.8390705,15.2422116 36.7209547,15.1270612 36.5625723,15.1270612 Z M32.1251789,11.1502599 C32.0526988,11.3805607 31.8889474,11.5176445 31.6339248,11.5176445 C31.3762177,11.5176445 31.2138086,11.3805607 31.1399863,11.1502599 C31.0956929,11.0063219 31.0822706,10.8226296 31.0822706,10.5978122 C31.0822706,10.3743655 31.0956929,10.1893024 31.1399863,10.0453644 C31.2138086,9.8150636 31.37756,9.67935063 31.6339248,9.67935063 C31.8902896,9.67935063 32.0526988,9.8150636 32.1251789,10.0453644 C32.1721567,10.1893024 32.1842367,10.3743655 32.1842367,10.5978122 C32.185579,10.8226296 32.1721567,11.0063219 32.1251789,11.1502599 Z M31.6339248,8.87466868 C30.9373104,8.87466868 30.4447141,9.21600736 30.2554605,9.82191779 C30.1829804,10.0604436 30.150767,10.277036 30.150767,10.5978122 C30.150767,10.9172174 30.1829804,11.1351807 30.2554605,11.3737065 C30.4460563,11.9796169 30.9373104,12.3209556 31.6339248,12.3209556 C32.329197,12.3209556 32.820451,11.9809878 33.0110469,11.3737065 C33.083527,11.1351807 33.1170826,10.9172174 33.1170826,10.5978122 C33.1170826,10.277036 33.083527,10.0604436 33.0110469,9.82191779 C32.820451,9.21600736 32.329197,8.87466868 31.6339248,8.87466868 Z M18.4264381,15.9906892 L17.4278232,15.9906892 C17.4009788,15.9906892 17.390241,15.9783516 17.390241,15.9509349 L17.390241,14.3991462 C17.390241,14.3717294 17.4009788,14.358021 17.4278232,14.358021 L18.4264381,14.358021 C18.9780923,14.358021 19.2975416,14.6705721 19.2975416,15.1750405 C19.2975416,15.6781381 18.9780923,15.9906892 18.4264381,15.9906892 Z M18.4465715,13.7918649 L17.0681071,13.7918649 C16.9043558,13.7918649 16.8050312,13.9015319 16.8050312,14.0646617 L16.8050312,18.1305674 C16.8050312,18.3320806 16.9244892,18.4554561 17.1003205,18.4554561 C17.270783,18.4554561 17.390241,18.3320806 17.390241,18.1305674 L17.390241,16.5979704 C17.390241,16.5705537 17.402321,16.5554745 17.4291655,16.5554745 L18.4465715,16.5554745 C19.3391506,16.5554745 19.8760403,15.9989142 19.8760403,15.1750405 C19.8760403,14.3511668 19.3378084,13.7918649 18.4465715,13.7918649 Z M22.3604974,11.1502599 C22.3604974,11.4559568 22.1578215,11.606749 21.7699187,11.606749 C21.4679183,11.606749 21.310878,11.4902277 21.310878,11.2585561 C21.310878,11.0076927 21.4880516,10.8843173 21.8759544,10.8843173 L22.3215729,10.8843173 C22.3470752,10.8843173 22.3604974,10.8980257 22.3604974,10.9254425 L22.3604974,11.1502599 Z M23.2987122,11.4148316 C23.2530765,11.3325814 23.2409965,11.2585561 23.2409965,11.1009097 L23.2409965,10.2043816 C23.2409965,9.37913709 22.7806136,8.87466868 21.8236077,8.87466868 C21.3820159,8.87466868 21.0612243,8.9582898 20.8518373,9.06658601 C20.6813748,9.15431965 20.6156059,9.303741 20.6156059,9.447679 C20.6156059,9.67935063 20.765935,9.82877199 20.9820331,9.82877199 C21.0478021,9.82877199 21.1202822,9.80820941 21.1994734,9.78216349 C21.3175891,9.73281332 21.5135539,9.68620482 21.7108609,9.68620482 C22.1497682,9.68620482 22.3591552,9.86989713 22.3591552,10.1769649 L22.3591552,10.2112358 C22.3591552,10.2372817 22.3470752,10.2509901 22.3215729,10.2509901 L21.7497854,10.2509901 C20.9618997,10.2509901 20.43709,10.5854746 20.43709,11.3133896 C20.43709,11.9398626 20.8303617,12.3209556 21.6450919,12.3209556 C22.0383636,12.3209556 22.3806308,12.198951 22.5430399,11.9864711 L22.5510932,11.9864711 L22.6289422,12.1029924 C22.7148446,12.224997 22.8450404,12.2866847 23.0020806,12.2866847 C23.2597876,12.2866847 23.4638057,12.0961382 23.4638057,11.843904 C23.4638057,11.7493161 23.4369613,11.6533575 23.3832723,11.5656238 L23.2987122,11.4148316 Z M28.6541869,9.6779798 C28.8246494,9.6779798 28.9427652,9.72595913 29.0488009,9.83014282 C29.1789966,9.95214741 29.2850323,10.0261727 29.4219392,10.0261727 C29.6528018,10.0261727 29.821922,9.85618875 29.821922,9.61766292 C29.821922,9.48194995 29.7695753,9.3722829 29.6380373,9.23656993 C29.4353615,9.02546087 29.0810143,8.87466868 28.6407647,8.87466868 C27.9709948,8.87466868 27.4783985,9.20229898 27.2891449,9.8150636 C27.2233759,10.0124643 27.1844514,10.2496193 27.1844514,10.5978122 C27.1844514,10.9446342 27.2233759,11.1845309 27.2891449,11.3805607 C27.4797407,11.9933253 27.9709948,12.3209556 28.6407647,12.3209556 C29.0810143,12.3209556 29.4353615,12.1701634 29.6380373,11.9590544 C29.7695753,11.8233414 29.821922,11.7150452 29.821922,11.5779614 C29.821922,11.3394356 29.6528018,11.1694516 29.4219392,11.1694516 C29.2850323,11.1694516 29.1789966,11.2434769 29.0488009,11.3668523 C28.9427652,11.4696652 28.8259916,11.5176445 28.6541869,11.5176445 C28.4112443,11.5176445 28.247493,11.4011233 28.1736707,11.1557433 C28.1360884,11.0268845 28.1172972,10.8692381 28.1172972,10.5978122 C28.1172972,10.3250154 28.1360884,10.1687398 28.1736707,10.0398811 C28.247493,9.79450103 28.4099021,9.6779798 28.6541869,9.6779798 Z M18.4828115,11.4353942 L17.7539837,11.4353942 C17.7284815,11.4353942 17.7150592,11.4216858 17.7150592,11.3942691 L17.7150592,10.3181612 C17.7150592,10.2921153 17.7284815,10.277036 17.7539837,10.277036 L18.4828115,10.277036 C18.8760832,10.277036 19.0935236,10.5018535 19.0935236,10.8486755 C19.0935236,11.217431 18.8760832,11.4353942 18.4828115,11.4353942 Z M17.7150592,8.46752977 C17.7150592,8.44011301 17.7284815,8.42640462 17.7539837,8.42640462 L18.4304648,8.42640462 C18.8049453,8.42640462 19.0210434,8.61695112 19.0210434,8.96377315 C19.0210434,9.31059519 18.7982342,9.50936671 18.4304648,9.50936671 L17.7539837,9.50936671 C17.7284815,9.50936671 17.7150592,9.49565833 17.7150592,9.46824157 L17.7150592,8.46752977 Z M19.4599508,9.84796372 L19.4599508,9.83562618 C19.7619512,9.66564225 19.9793916,9.34486614 19.9793916,8.84862275 C19.9793916,8.1124827 19.527062,7.61623932 18.5539494,7.61623932 L17.1701162,7.61623932 C16.9083825,7.61623932 16.75,7.79170659 16.75,8.05764918 L16.75,11.809633 C16.75,12.0755756 16.9083825,12.2455595 17.1701162,12.2455595 L18.5083138,12.2455595 C19.473373,12.2455595 20.0585828,11.809633 20.0585828,10.8966549 C20.0585828,10.3455779 19.7565823,9.97133915 19.4599508,9.84796372 Z M25.6221023,8.87466868 C25.2154084,8.87466868 24.9389102,9.0446526 24.78187,9.2571325 L24.7751588,9.2571325 C24.7228121,9.03916925 24.5523496,8.91031047 24.3362515,8.91031047 C24.0664644,8.91031047 23.8758686,9.10085696 23.8758686,9.41340805 L23.8758686,11.7835871 C23.8758686,12.0961382 24.0664644,12.2880555 24.3362515,12.2880555 C24.5979852,12.2880555 24.79395,12.0961382 24.79395,11.7835871 L24.79395,10.2838902 C24.79395,9.92473065 24.9590436,9.68620482 25.2878885,9.68620482 C25.6153912,9.68620482 25.7858537,9.92473065 25.7858537,10.2838902 L25.7858537,11.7835871 C25.7858537,12.0961382 25.9831607,12.2880555 26.2448944,12.2880555 C26.5146815,12.2880555 26.7052773,12.0961382 26.7052773,11.7835871 L26.7052773,10.1015688 C26.7052773,9.38599128 26.3254279,8.87466868 25.6221023,8.87466868 Z" id="Fill-4" fill="#585A5C"></path>
        </g>
    </g>
</svg>