<?xml version="1.0" encoding="utf-8"?>
<!-- Generator: Adobe Illustrator 22.1.0, SVG Export Plug-In . SVG Version: 6.00 Build 0)  -->
<svg version="1.1" id="Layer_1" xmlns="http://www.w3.org/2000/svg" xmlns:xlink="http://www.w3.org/1999/xlink" x="0px" y="0px"
	 viewBox="0 0 66 50" style="enable-background:new 0 0 66 50;" xml:space="preserve">
<style type="text/css">
	.st0{fill:#005697;}
	.st1{fill:#898B8C;}
</style>
<title>15.TarjetaSaenz</title>
<desc>Created with Sketch.</desc>
<g id="_x31_5.TarjetaSaenz">
	<g id="Group-21" transform="translate(0.000000, 22.000000)">
		<g id="Clip-2">
		</g>
		<g>
			<path class="st0" d="M46.1,0.2L44,5.6v0.3h1.1l0.5-1.5h2.1l0.5,1.5h1.4V5.6l-2.1-5.4H46.1z M46,3.6l0.7-2.1h0l0.8,2.1H46z"/>
			<path class="st0" d="M42.8,2.8c-0.4-0.2-0.7-0.3-1.1-0.4c-0.3-0.1-0.6-0.2-0.9-0.3c-0.2-0.1-0.2-0.2-0.2-0.4
				c0-0.2,0.1-0.2,0.3-0.3c0.1,0,0.3,0,0.4,0c1.1,0,0.3,0,1.5,0c0,0,0.1,0,0.1,0l0.7-1.3c-1.4,0-0.5,0-2,0c-0.3,0-0.6,0-0.9,0
				c-0.2,0-0.6,0.1-0.9,0.3C39,1,38.7,2.7,40,3.3c0.4,0.2,0.8,0.3,1.2,0.5c0.3,0.1,0.5,0.2,0.8,0.3c0.3,0.1,0.3,0.5,0,0.6
				c-0.1,0.1-0.3,0.1-0.5,0.1c-0.5,0-1,0-1.5-0.1c-0.1,0-0.2,0-0.2,0.1c0,0.3,0,0.5,0,0.8c0,0.1,0,0.2,0.2,0.2
				c0.6,0.2,1.2,0.3,1.9,0.2c0.8-0.1,1.6-0.6,1.7-1.6C43.7,3.8,43.5,3.2,42.8,2.8z"/>
			<polygon class="st0" points="66,1.2 66,0.2 62.3,0.2 61.7,1.1 64.5,1.1 64.5,1.1 61.5,5 61.5,5.9 65.4,5.9 66,5.1 62.9,5.1 
				62.9,5 			"/>
			<polygon class="st0" points="59.5,3.9 59.5,3.9 57.1,0.2 55.5,0.2 55.5,5.9 56.7,5.9 56.7,1.7 56.7,1.7 59.4,5.9 60.7,5.9 
				60.7,0.2 59.5,0.2 			"/>
			<polygon class="st0" points="51.8,3.5 53.8,3.5 53.8,2.6 51.8,2.6 51.8,1.1 54.6,1.1 54.6,0.2 50.4,0.2 50.4,5.9 54.7,5.9 
				54.7,5 51.8,5 			"/>
		</g>
		<g id="Clip-5">
		</g>
		<g id="Clip-12">
		</g>
		<g id="Clip-19">
		</g>
		<g>
			<path class="st1" d="M5,1V0.4c0-0.2-0.1-0.3-0.3-0.3H0.3C0.1,0.1,0,0.2,0,0.4V1c0,0.2,0.1,0.3,0.3,0.3h1.3c0.1,0,0.2,0.1,0.2,0.2
				v4.4c0,0.2,0.1,0.3,0.3,0.3h0.8c0.2,0,0.3-0.1,0.3-0.3V1.5c0-0.1,0.1-0.2,0.2-0.2h1.3C4.9,1.3,5,1.2,5,1z"/>
			<path class="st1" d="M8.7,0.2c0-0.1-0.1-0.1-0.1-0.1H7c-0.1,0-0.1,0-0.1,0.1C6.6,1.1,6.3,1.9,6,2.8L4.8,6.1c0,0.1,0,0.1,0.1,0.1
				h1.2c0.1,0,0.1,0,0.1-0.1l0.2-0.6c0-0.1,0.1-0.1,0.2-0.1h2.2C9,5.4,9,5.5,9.1,5.6l0.2,0.6c0,0.1,0.1,0.1,0.1,0.1h1.2
				c0.1,0,0.1-0.1,0.1-0.1L9.5,2.8C9.2,1.9,8.9,1.1,8.7,0.2z M8.3,4.2H7.2C7.1,4.2,7,4.1,7,3.9l0-0.1c0.3-0.7,0.5-1.5,0.6-2.1
				c0-0.1,0.1-0.1,0.2,0c0.1,0.6,0.4,1.4,0.6,2.1l0,0.1C8.5,4.1,8.4,4.2,8.3,4.2z"/>
			<path class="st1" d="M15.3,3.7c-0.1-0.1-0.1-0.1,0-0.2c0.5-0.2,1-0.8,1-1.5c0-1.2-0.8-1.9-2.2-1.9h-2.4c-0.1,0-0.2,0.1-0.2,0.2
				v5.8c0,0.1,0.1,0.2,0.2,0.2h1.1c0.1,0,0.2-0.1,0.2-0.2v-2c0,0,0,0,0.1-0.1c0.3-0.3,0.7,0,0.7,0c1,1.1,0.6,0.8,1,1.2l0.7,0.9
				c0,0.1,0.1,0.1,0.1,0.1h1.4c0.1,0,0.1-0.1,0.1-0.1l-1.1-1.5C15.9,4.3,15.6,4,15.3,3.7z M14,2.8h-0.9c0,0-0.1,0-0.1-0.1V1.4
				c0,0,0-0.1,0.1-0.1h1c0.5,0,0.9,0.5,0.8,1C14.8,2.7,14.5,2.8,14,2.8z"/>
			<path class="st1" d="M23.4,1.3h2.4c0.1,0,0.1,0,0.1-0.1l0.5-1c0-0.1,0-0.1-0.1-0.1h-4.2c-0.2,0-0.3,0.1-0.3,0.3v5.6
				c0,0.2,0.1,0.3,0.3,0.3h3.8c0.2,0,0.3-0.1,0.3-0.3V5.3c0-0.2-0.1-0.3-0.3-0.3h-2.5c-0.1,0-0.2-0.1-0.2-0.2v-1
				c0-0.1,0.1-0.2,0.2-0.2h1.8c0.2,0,0.3-0.1,0.3-0.3V2.8c0-0.2-0.1-0.3-0.3-0.3h-1.8c-0.1,0-0.2-0.1-0.2-0.2V1.5
				C23.3,1.4,23.3,1.3,23.4,1.3z"/>
			<path class="st1" d="M32,1.1V0.4c0-0.1-0.1-0.3-0.3-0.3h-4.5c-0.1,0-0.3,0.1-0.3,0.3v0.7c0,0.1,0.1,0.3,0.3,0.3h1.4
				c0.1,0,0.2,0.1,0.2,0.2V6c0,0.1,0.1,0.3,0.3,0.3H30c0.1,0,0.3-0.1,0.3-0.3V1.5c0-0.1,0.1-0.2,0.2-0.2h1.4C31.9,1.3,32,1.2,32,1.1
				z"/>
			<path class="st1" d="M36.5,2.8c-0.3-0.9-0.6-1.7-0.8-2.6c0-0.1-0.1-0.1-0.1-0.1H34c-0.1,0-0.1,0-0.1,0.1
				c-0.2,0.9-0.5,1.7-0.8,2.6l-1.2,3.3c0,0.1,0,0.1,0.1,0.1h1.2c0.1,0,0.1,0,0.1-0.1l0.2-0.6c0-0.1,0.1-0.1,0.1-0.1h2.4
				c0.1,0,0.1,0,0.1,0.1l0.2,0.6c0,0.1,0.1,0.1,0.1,0.1h1.2c0.1,0,0.1-0.1,0.1-0.1L36.5,2.8z M35.4,4.2h-1.3C34,4.2,34,4.1,34,4
				l0.1-0.2c0.3-0.7,0.5-1.5,0.6-2.1c0-0.1,0.1-0.1,0.2,0c0.1,0.6,0.4,1.4,0.6,2.1L35.5,4C35.6,4.1,35.5,4.2,35.4,4.2z"/>
			<path class="st1" d="M20.5,0.1L20.5,0.1h-0.9H18c-0.1,0-0.2,0.1-0.2,0.2V1c0,0.1,0.1,0.2,0.2,0.2h1c0,0,0.3,0.1,0.3,0.3v2.7
				c0,0.6-0.3,0.8-0.6,0.9c-0.3,0.1-0.5,0.1-0.7,0.1c0,0-0.2-0.1-0.4,0c-0.2,0.1-0.2,0.2-0.3,0.2c-0.1,0.2-0.1,0.7-0.1,0.7
				c0,0.1,0,0.1,0.1,0.1c0,0,0.2,0,0.5,0.1c0.4,0,0.6,0,0.9,0c1.3,0,2-0.8,2-2.1V1V0.4V0.3C20.7,0.2,20.6,0.1,20.5,0.1z"/>
		</g>
	</g>
</g>
</svg>
