<?xml version="1.0" encoding="UTF-8"?>
<svg width="66px" height="50px" viewBox="0 0 66 50" version="1.1" xmlns="http://www.w3.org/2000/svg" xmlns:xlink="http://www.w3.org/1999/xlink">
    <!-- Generator: Sketch 51.2 (57519) - http://www.bohemiancoding.com/sketch -->
    <title>1. Mercado-Pago</title>
    <desc>Created with Sketch.</desc>
    <defs>
        <path d="M3.325,41.669 C1.527,41.669 0.069,40.21 0.069,38.411 L0.069,3.371 C0.069,1.57 1.527,0.111 3.325,0.111 L62.735,0.111 C64.532,0.111 65.99,1.57 65.99,3.371 L65.99,38.411 C65.99,40.21 64.532,41.669 62.734,41.669 L3.325,41.669 Z" id="path-1"></path>
        <linearGradient x1="0.000620591314%" y1="100.001456%" x2="99.9999455%" y2="-0.000182876943%" id="linearGradient-3">
            <stop stop-color="#EFEEEE" offset="0%"></stop>
            <stop stop-color="#DCDDD9" offset="100%"></stop>
        </linearGradient>
        <polygon id="path-4" points="0.0239104994 32.0633 66.0239 32.0633 66.0239 0.08705 0.0239104994 0.08705"></polygon>
        <path d="M13.198,21.384 L12.784,21.384 C12.551,24.568 9.894,27.08 6.648,27.08 C3.249,27.08 0.494,24.326 0.494,20.929 C0.494,17.532 3.249,14.778 6.648,14.778 C10.047,14.778 12.803,17.532 12.803,20.929 C12.803,20.949 12.801,20.969 12.801,20.989 L13.198,20.989 L13.2,20.989 C13.713,20.988 14.129,20.572 14.128,20.06 L14.128,0.087 L14.523,0.087 L14.523,20.059 C14.523,20.791 13.931,21.384 13.198,21.384" id="path-6"></path>
        <linearGradient x1="-271.530659%" y1="-118.096347%" x2="281.576896%" y2="159.77752%" id="linearGradient-8">
            <stop stop-color="#56BCD6" offset="0%"></stop>
            <stop stop-color="#00ACD3" offset="100%"></stop>
        </linearGradient>
        <polygon id="path-9" points="0.0613 14.2646 12.9041 14.2646 12.9041 0.13696 0.0613 0.13696"></polygon>
        <polygon id="path-11" points="0.061 14.265 12.904 14.265 12.904 0.137 0.061 0.137"></polygon>
        <polygon id="path-13" points="0.061 14.2646 12.9043 14.2646 12.9043 0.13672 0.061 0.13672"></polygon>
        <path d="M-28,-5 L-87.41,-5 C-89.207,-5 -90.665,-3.541 -90.665,-1.74 L-90.665,33.299 C-90.665,35.099 -89.208,36.558 -87.41,36.558 L-28,36.558 C-26.202,36.558 -24.744,35.099 -24.744,33.299 L-24.744,-1.74 C-24.744,-3.541 -26.202,-5 -28,-5" id="path-15"></path>
        <polygon id="path-17" points="0.0613 14.2646 12.9041 14.2646 12.9041 0.13696 0.0613 0.13696"></polygon>
        <path d="M9.794,5.519 C9.73,8.15 7.578,10.265 4.929,10.265 C2.241,10.265 0.061,8.087 0.061,5.399 C0.061,2.713 2.241,0.534 4.929,0.534 C7.524,0.534 9.646,2.565 9.789,5.123 C9.794,5.215 9.797,5.307 9.797,5.399 C9.797,5.439 9.795,5.479 9.794,5.519" id="path-19"></path>
        <linearGradient x1="-405.97613%" y1="-551.373107%" x2="302.108474%" y2="382.499671%" id="linearGradient-21">
            <stop stop-color="#56BCD6" offset="0%"></stop>
            <stop stop-color="#00ACD3" offset="100%"></stop>
        </linearGradient>
        <polygon id="path-22" points="0.0597 5.8914 5.7985 5.8914 5.7985 0.9001 0.0597 0.9001"></polygon>
        <path d="M7.052,14.008 C3.343,14.008 0.331,11.034 0.267,7.343 C0.267,7.303 0.264,7.264 0.264,7.225 C0.264,7.131 0.268,7.039 0.271,6.947 C0.417,3.329 3.396,0.441 7.052,0.441 C10.801,0.441 13.839,3.479 13.839,7.225 C13.839,10.971 10.801,14.008 7.052,14.008" id="path-24"></path>
        <linearGradient x1="140.71818%" y1="-88.5397826%" x2="-15.6681473%" y2="150.302976%" id="linearGradient-26">
            <stop stop-color="#56BCD6" offset="0%"></stop>
            <stop stop-color="#00ACD3" offset="100%"></stop>
        </linearGradient>
        <polygon id="path-27" points="0.40146 0.9517 0.59949 0.9517 0.59949 0.754 0.40146 0.754"></polygon>
        <path d="M13.875,7.28 C13.771,10.946 10.766,13.885 7.073,13.885 C3.313,13.885 0.266,10.84 0.266,7.083 C0.266,3.325 3.313,0.279 7.073,0.279 C10.766,0.279 13.771,3.219 13.875,6.885 C13.877,6.951 13.88,7.016 13.88,7.083 C13.88,7.149 13.877,7.214 13.875,7.28" id="path-29"></path>
        <linearGradient x1="-46.0259512%" y1="-54.7873365%" x2="137.713633%" y2="145.735617%" id="linearGradient-31">
            <stop stop-color="#56BCD6" offset="0%"></stop>
            <stop stop-color="#00ACD3" offset="100%"></stop>
        </linearGradient>
        <polygon id="path-32" points="0.8395 13.6113 24.4081 13.6113 24.4081 0.816 0.8395 0.816"></polygon>
        <polygon id="path-34" points="0.839 13.611 24.408 13.611 24.408 0.816 0.839 0.816"></polygon>
        <polygon id="path-36" points="0.8394 13.6113 24.4082 13.6113 24.4082 0.8164 0.8394 0.8164"></polygon>
        <path d="M-33,-21 L-92.41,-21 C-94.207,-21 -95.665,-19.541 -95.665,-17.74 L-95.665,17.299 C-95.665,19.099 -94.208,20.558 -92.41,20.558 L-33,20.558 C-31.202,20.558 -29.744,19.099 -29.744,17.299 L-29.744,-17.74 C-29.744,-19.541 -31.202,-21 -33,-21" id="path-38"></path>
        <polygon id="path-40" points="0.8395 13.6113 24.4081 13.6113 24.4081 0.816 0.8395 0.816"></polygon>
        <polygon id="path-42" points="0.6723 3.8115 6.569 3.8115 6.569 0.0738 0.6723 0.0738"></polygon>
        <polygon id="path-44" points="0.672 3.812 6.569 3.812 6.569 0.073 0.672 0.073"></polygon>
        <polygon id="path-46" points="0.6719 3.8115 6.5693 3.8115 6.5693 0.0728 0.6719 0.0728"></polygon>
        <path d="M-17,-29 L-76.41,-29 C-78.207,-29 -79.665,-27.541 -79.665,-25.74 L-79.665,9.299 C-79.665,11.099 -78.208,12.558 -76.41,12.558 L-17,12.558 C-15.202,12.558 -13.744,11.099 -13.744,9.299 L-13.744,-25.74 C-13.744,-27.541 -15.202,-29 -17,-29" id="path-48"></path>
        <polygon id="path-50" points="0.6723 3.8115 6.569 3.8115 6.569 0.0738 0.6723 0.0738"></polygon>
        <polygon id="path-52" points="0.67848 6.9028 9.3858 6.9028 9.3858 0.04022 0.67848 0.04022"></polygon>
        <polygon id="path-54" points="0.34583 3.5455 52.0676 3.5455 52.0676 0.2157 0.34583 0.2157"></polygon>
        <polygon id="path-56" points="0.853973 6.7981 9.34448 6.7981 9.34448 0.8656 0.853973 0.8656"></polygon>
    </defs>
    <g id="1.-Mercado-Pago" stroke="none" stroke-width="1" fill="none" fill-rule="evenodd">
        <g id="Group-2">
            <rect id="Rectangle" fill-rule="nonzero" x="0" y="0" width="66" height="50"></rect>
            <g id="Group" transform="translate(0.000000, 4.000000)">
                <g id="g10" transform="translate(33.500000, 21.000000) scale(-1, 1) rotate(-180.000000) translate(-33.500000, -21.000000) ">
                    <g id="g14-Clipped">
                        <mask id="mask-2" fill="white">
                            <use xlink:href="#path-1"></use>
                        </mask>
                        <g id="path16"></g>
                        <g id="g22" mask="url(#mask-2)" fill="url(#linearGradient-3)" fill-rule="nonzero">
                            <path d="M3.325,41.669 C1.527,41.669 0.069,40.21 0.069,38.411 L0.069,3.371 C0.069,1.57 1.527,0.111 3.325,0.111 L62.735,0.111 C64.532,0.111 65.99,1.57 65.99,3.371 L65.99,38.411 C65.99,40.21 64.532,41.669 62.734,41.669 L3.325,41.669 Z" id="path30"></path>
                        </g>
                    </g>
                    <g id="g34">
                        <g id="g40" transform="translate(41.926800, 33.027300)" fill="#262E74" fill-rule="nonzero">
                            <path d="M4,6 C1.986,6 0.354,4.928 0.354,3.614 L0.354,3.475 C0.354,2.081 1.78,0.952 3.999,0.952 C6.232,0.952 7.646,2.081 7.646,3.475 L7.646,3.614 C7.646,4.928 6.014,6 4,6" id="path42"></path>
                        </g>
                        <g id="g44" transform="translate(41.927700, 33.886200)" fill="#0098CA" fill-rule="nonzero">
                            <path d="M4,5 C2.063,5 0.493,3.996 0.493,2.756 C0.493,1.519 2.063,0.514 4,0.514 C5.936,0.514 7.506,1.519 7.506,2.756 C7.506,3.995 5.936,5 4,5" id="path46"></path>
                        </g>
                        <g id="g48" transform="translate(43.762700, 36.350600)" fill="#FFFFFF" fill-rule="nonzero">
                            <path d="M1,1 C0.998,0.997 0.963,0.96 0.985,0.931 C1.041,0.86 1.212,0.82 1.385,0.859 C1.488,0.882 1.62,0.987 1.747,1.088 C1.887,1.198 2.023,1.308 2.162,1.353 C2.308,1.398 2.401,1.379 2.463,1.36 C2.531,1.34 2.611,1.295 2.738,1.199 C2.979,1.02 3.943,0.177 4.11,0.032 C4.244,0.092 4.84,0.349 5.651,0.528 C5.581,0.96 5.318,1.355 4.919,1.679 C4.363,1.446 3.685,1.324 3.021,1.648 C3.017,1.65 2.657,1.82 2.304,1.812 C1.776,1.799 1.548,1.571 1.307,1.33 L1,1 Z" id="path50"></path>
                        </g>
                        <g id="g52" transform="translate(41.833000, 34.290500)" fill="#FFFFFF" fill-rule="nonzero">
                            <path d="M6,2 C5.989,2.01 4.866,2.993 4.612,3.184 C4.464,3.294 4.383,3.322 4.296,3.334 C4.252,3.339 4.189,3.331 4.146,3.319 C4.028,3.287 3.874,3.183 3.736,3.074 C3.594,2.961 3.46,2.854 3.335,2.826 C3.176,2.791 2.982,2.833 2.894,2.893 C2.857,2.917 2.832,2.945 2.82,2.974 C2.788,3.049 2.848,3.11 2.857,3.121 L3.168,3.455 C3.204,3.491 3.24,3.527 3.277,3.563 C3.178,3.549 3.085,3.524 2.994,3.5 C2.882,3.467 2.774,3.437 2.666,3.437 C2.619,3.437 2.375,3.478 2.329,3.49 C2.049,3.567 1.802,3.641 1.435,3.813 C0.994,3.485 0.699,3.075 0.614,2.624 C0.678,2.607 0.779,2.577 0.822,2.567 C1.819,2.345 2.13,2.117 2.186,2.069 C2.308,2.206 2.517,2.217 2.652,2.096 C2.672,2.079 2.688,2.06 2.703,2.039 C2.761,2.084 2.84,2.123 2.941,2.122 C2.987,2.122 3.035,2.114 3.084,2.098 C3.196,2.059 3.254,1.984 3.284,1.916 C3.322,1.933 3.368,1.946 3.423,1.946 C3.477,1.946 3.533,1.933 3.589,1.909 C3.772,1.831 3.801,1.65 3.785,1.514 C4.003,1.535 4.196,1.376 4.218,1.158 C4.219,1.146 4.22,1.133 4.22,1.121 C4.22,1.053 4.202,0.99 4.172,0.934 C4.231,0.901 4.383,0.825 4.515,0.842 C4.621,0.855 4.662,0.892 4.676,0.912 C4.686,0.926 4.697,0.942 4.687,0.954 L4.406,1.267 C4.406,1.267 4.359,1.31 4.375,1.327 C4.39,1.345 4.419,1.319 4.439,1.303 C4.582,1.183 4.757,1.002 4.757,1.002 C4.76,1.001 4.771,0.978 4.836,0.966 C4.892,0.956 4.99,0.962 5.059,1.018 C5.075,1.032 5.093,1.05 5.107,1.068 C5.106,1.067 5.105,1.066 5.104,1.066 C5.176,1.158 5.096,1.251 5.096,1.251 L4.768,1.62 C4.768,1.62 4.721,1.663 4.736,1.68 C4.751,1.695 4.781,1.673 4.802,1.656 C4.905,1.568 5.053,1.421 5.193,1.283 C5.222,1.263 5.345,1.187 5.508,1.294 C5.608,1.359 5.628,1.439 5.625,1.5 C5.618,1.58 5.556,1.637 5.556,1.637 L5.107,2.088 C5.107,2.088 5.06,2.129 5.076,2.149 C5.09,2.166 5.12,2.142 5.141,2.125 C5.284,2.005 5.671,1.65 5.671,1.65 C5.677,1.646 5.81,1.551 5.976,1.656 C6.034,1.694 6.072,1.751 6.075,1.817 C6.078,1.886 6.051,1.953 6,2" id="path54"></path>
                        </g>
                        <g id="g56" transform="translate(43.657200, 34.718800)" fill="#FFFFFF" fill-rule="nonzero">
                            <path d="M2,1 C1.931,1.001 1.854,0.96 1.845,0.965 C1.839,0.969 1.849,0.997 1.855,1.013 C1.862,1.029 1.953,1.305 1.73,1.401 C1.56,1.474 1.455,1.391 1.419,1.354 C1.409,1.344 1.405,1.345 1.404,1.357 C1.401,1.407 1.379,1.542 1.231,1.587 C1.02,1.65 0.885,1.503 0.851,1.45 C0.835,1.572 0.732,1.664 0.609,1.664 C0.474,1.659 0.368,1.546 0.373,1.411 C0.378,1.283 0.48,1.18 0.608,1.175 C0.675,1.175 0.734,1.201 0.778,1.243 C0.779,1.242 0.78,1.24 0.779,1.235 C0.769,1.174 0.75,0.954 0.98,0.865 C1.072,0.829 1.151,0.855 1.216,0.901 C1.235,0.915 1.239,0.909 1.236,0.891 C1.228,0.834 1.238,0.713 1.408,0.645 C1.537,0.592 1.614,0.646 1.664,0.692 C1.686,0.711 1.691,0.708 1.693,0.678 C1.698,0.515 1.835,0.385 2,0.384 C2.17,0.384 2.309,0.522 2.309,0.692 C2.309,0.862 2.17,0.998 2,1" id="path58"></path>
                        </g>
                        <g id="g60" transform="translate(41.657200, 34.126000)" fill="#010101" fill-rule="nonzero">
                            <path d="M4,1 C3.846,1 3.721,1.12 3.716,1.272 C3.715,1.285 3.714,1.319 3.684,1.319 C3.672,1.319 3.661,1.312 3.649,1.302 C3.615,1.271 3.572,1.238 3.509,1.238 C3.479,1.238 3.449,1.245 3.416,1.258 C3.254,1.324 3.251,1.436 3.258,1.48 C3.26,1.493 3.261,1.505 3.252,1.515 L3.242,1.524 L3.232,1.524 C3.224,1.524 3.215,1.521 3.204,1.513 C3.156,1.48 3.111,1.464 3.065,1.464 C3.039,1.464 3.013,1.469 2.988,1.479 C2.774,1.562 2.791,1.764 2.802,1.825 C2.803,1.838 2.8,1.848 2.792,1.854 L2.776,1.866 L2.763,1.853 C2.722,1.812 2.666,1.79 2.608,1.79 C2.485,1.791 2.386,1.89 2.387,2.013 C2.387,2.136 2.486,2.236 2.609,2.235 C2.72,2.235 2.814,2.152 2.829,2.042 L2.836,1.981 L2.869,2.032 C2.873,2.038 2.963,2.174 3.128,2.174 C3.159,2.174 3.192,2.168 3.225,2.159 C3.356,2.118 3.379,1.999 3.382,1.949 C3.385,1.92 3.405,1.918 3.409,1.918 C3.421,1.918 3.429,1.926 3.436,1.932 C3.478,1.977 3.537,2.001 3.599,2.001 C3.638,2.001 3.679,1.992 3.722,1.974 C3.931,1.884 3.836,1.618 3.835,1.615 C3.817,1.571 3.815,1.551 3.833,1.54 L3.842,1.536 L3.848,1.536 C3.856,1.536 3.868,1.54 3.889,1.547 C3.917,1.557 3.96,1.571 4,1.571 C4.158,1.569 4.286,1.441 4.286,1.286 C4.285,1.128 4.157,1 4,1 M7.772,2.63 C7.769,2.681 7.763,2.731 7.753,2.781 C6.96,2.605 6.368,2.35 6.219,2.283 C5.873,2.585 5.073,3.28 4.856,3.442 C4.733,3.536 4.649,3.585 4.574,3.606 C4.53,3.62 4.483,3.627 4.437,3.627 C4.381,3.627 4.322,3.618 4.26,3.599 C4.12,3.554 3.98,3.443 3.846,3.336 L3.84,3.331 C3.714,3.231 3.584,3.127 3.486,3.105 C3.443,3.096 3.398,3.091 3.354,3.091 C3.244,3.091 3.146,3.123 3.108,3.17 C3.103,3.178 3.106,3.19 3.121,3.208 L3.122,3.211 L3.428,3.539 C3.665,3.777 3.89,4.002 4.409,4.014 C4.417,4.014 4.426,4.015 4.435,4.015 C4.757,4.014 5.079,3.87 5.115,3.854 C5.419,3.706 5.73,3.631 6.044,3.631 C6.372,3.631 6.709,3.711 7.063,3.875 C7.023,3.909 6.982,3.941 6.94,3.972 C6.629,3.837 6.331,3.77 6.045,3.77 C5.753,3.77 5.46,3.84 5.176,3.979 C5.161,3.985 4.806,4.153 4.435,4.153 C4.426,4.153 4.415,4.153 4.405,4.153 C3.97,4.143 3.726,3.988 3.56,3.853 C3.399,3.849 3.262,3.81 3.138,3.776 C3.028,3.746 2.934,3.719 2.841,3.719 C2.804,3.719 2.734,3.722 2.728,3.723 C2.621,3.726 2.086,3.857 1.659,4.019 C1.616,3.988 1.573,3.956 1.533,3.924 C1.979,3.741 2.521,3.6 2.691,3.588 C2.739,3.586 2.79,3.58 2.841,3.58 C2.954,3.58 3.066,3.612 3.176,3.643 C3.24,3.66 3.312,3.68 3.388,3.695 L3.327,3.634 L3.018,3.301 C2.993,3.276 2.94,3.21 2.975,3.13 C2.989,3.097 3.018,3.066 3.057,3.04 C3.13,2.99 3.262,2.956 3.385,2.956 C3.431,2.956 3.475,2.961 3.516,2.97 C3.646,2.999 3.781,3.107 3.926,3.222 C4.04,3.313 4.203,3.429 4.327,3.463 C4.362,3.473 4.405,3.478 4.439,3.478 C4.45,3.478 4.46,3.478 4.469,3.477 C4.552,3.467 4.631,3.438 4.773,3.331 C5.027,3.14 6.149,2.158 6.161,2.148 C6.162,2.147 6.233,2.086 6.229,1.983 C6.226,1.926 6.194,1.875 6.14,1.84 C6.096,1.811 6.044,1.795 5.991,1.794 C5.917,1.794 5.864,1.829 5.861,1.832 C5.857,1.835 5.473,2.188 5.331,2.307 C5.308,2.325 5.286,2.341 5.264,2.341 C5.252,2.341 5.242,2.336 5.235,2.328 C5.213,2.301 5.237,2.262 5.267,2.237 L5.717,1.786 C5.717,1.785 5.772,1.733 5.778,1.664 C5.782,1.589 5.746,1.526 5.672,1.478 C5.619,1.442 5.565,1.425 5.513,1.425 C5.443,1.425 5.396,1.456 5.384,1.464 L5.319,1.527 C5.202,1.643 5.08,1.763 4.991,1.838 C4.97,1.855 4.946,1.872 4.925,1.872 C4.913,1.872 4.902,1.868 4.896,1.86 C4.886,1.849 4.879,1.828 4.903,1.795 C4.914,1.781 4.927,1.77 4.927,1.77 L5.255,1.401 C5.257,1.398 5.321,1.321 5.261,1.244 L5.25,1.229 C5.24,1.218 5.229,1.209 5.22,1.201 C5.163,1.154 5.088,1.149 5.06,1.149 C5.044,1.149 5.029,1.15 5.015,1.153 C4.982,1.159 4.961,1.168 4.95,1.18 L4.946,1.185 C4.929,1.203 4.763,1.372 4.627,1.486 C4.608,1.501 4.585,1.52 4.562,1.52 C4.551,1.52 4.54,1.515 4.533,1.507 C4.506,1.478 4.546,1.433 4.563,1.416 L4.844,1.108 C4.841,1.101 4.837,1.095 4.832,1.089 C4.822,1.075 4.789,1.042 4.687,1.028 C4.675,1.027 4.662,1.027 4.65,1.027 C4.546,1.027 4.435,1.078 4.377,1.108 C4.402,1.163 4.416,1.224 4.416,1.285 C4.416,1.516 4.229,1.702 4,1.703 L3.999,1.703 L3.983,1.703 C3.991,1.808 3.977,2.007 3.772,2.094 C3.718,2.119 3.658,2.132 3.598,2.133 C3.554,2.133 3.511,2.125 3.47,2.109 C3.428,2.192 3.354,2.254 3.266,2.283 C3.218,2.3 3.167,2.309 3.116,2.309 C3.031,2.309 2.953,2.285 2.883,2.234 C2.816,2.318 2.716,2.367 2.608,2.367 C2.515,2.367 2.426,2.33 2.359,2.264 C2.271,2.331 1.927,2.55 1.002,2.76 C0.957,2.77 0.854,2.8 0.792,2.818 C0.781,2.768 0.773,2.717 0.769,2.666 C0.769,2.666 0.938,2.626 0.973,2.618 C1.916,2.409 2.229,2.19 2.281,2.149 C2.206,1.968 2.293,1.761 2.474,1.686 C2.537,1.66 2.605,1.653 2.673,1.665 C2.702,1.521 2.796,1.413 2.939,1.357 C2.981,1.34 3.024,1.332 3.066,1.332 C3.093,1.332 3.12,1.335 3.146,1.342 C3.173,1.275 3.232,1.191 3.366,1.137 C3.412,1.118 3.46,1.108 3.505,1.108 C3.543,1.108 3.579,1.115 3.613,1.127 C3.678,0.971 3.83,0.869 3.999,0.868 C4.112,0.868 4.22,0.914 4.298,0.995 C4.365,0.958 4.507,0.89 4.651,0.89 C4.67,0.89 4.687,0.891 4.704,0.893 C4.848,0.911 4.914,0.967 4.944,1.011 C4.95,1.018 4.955,1.026 4.959,1.035 C4.992,1.025 5.03,1.017 5.072,1.017 C5.15,1.017 5.226,1.043 5.301,1.099 C5.375,1.152 5.427,1.229 5.435,1.294 C5.435,1.295 5.436,1.295 5.436,1.297 C5.461,1.292 5.486,1.289 5.513,1.289 C5.593,1.289 5.671,1.314 5.746,1.364 C5.892,1.459 5.917,1.583 5.914,1.665 C5.939,1.66 5.967,1.657 5.992,1.657 C6.067,1.657 6.141,1.68 6.212,1.725 C6.302,1.782 6.355,1.871 6.364,1.974 C6.37,2.043 6.354,2.113 6.316,2.174 C6.56,2.279 7.117,2.482 7.772,2.63" id="path62"></path>
                        </g>
                        <g id="g64" transform="translate(50.478500, 35.889200)" fill="#262E74" fill-rule="nonzero">
                            <path d="M10,3 C10,3 9.587,3.044 9.587,2.712 L9.587,2.272 C9.543,2.344 9.481,2.403 9.408,2.444 C9.331,2.487 9.244,2.508 9.156,2.507 C8.951,2.507 8.787,2.431 8.665,2.278 C8.542,2.125 8.48,1.905 8.48,1.639 C8.48,1.409 8.543,1.22 8.667,1.072 C8.792,0.925 9.036,0.86 9.253,0.86 C10.009,0.86 10,1.508 10,1.508 L10,3 Z M9.508,1.323 C9.448,1.237 9.359,1.194 9.245,1.194 C9.129,1.194 9.043,1.237 8.986,1.324 C8.93,1.41 8.901,1.536 8.901,1.679 C8.901,1.813 8.929,1.925 8.985,2.016 C9.04,2.105 9.128,2.15 9.247,2.15 C9.326,2.15 9.394,2.125 9.454,2.076 C9.549,1.994 9.598,1.847 9.598,1.656 C9.598,1.52 9.568,1.409 9.508,1.322 L9.508,1.323 Z M2.458,0.892 L2.083,0.892 L2.083,1.836 C2.083,1.923 2.055,2.128 1.807,2.128 C1.643,2.128 1.523,2.009 1.523,1.836 L1.523,0.893 L1.147,0.893 L1.147,1.836 C1.147,1.923 1.122,2.128 0.875,2.128 C0.707,2.128 0.591,2.009 0.591,1.836 L0.591,0.893 L0.215,0.893 L0.215,1.828 C0.215,2.217 0.474,2.512 0.875,2.512 C1.074,2.512 1.235,2.429 1.341,2.295 C1.456,2.434 1.627,2.514 1.807,2.512 C2.217,2.512 2.458,2.229 2.458,1.828 L2.458,0.892 Z M3.704,1.317 C3.688,1.294 3.67,1.273 3.648,1.256 C3.59,1.207 3.511,1.192 3.418,1.192 C3.33,1.192 3.262,1.206 3.199,1.246 C3.098,1.308 3.04,1.415 3.033,1.571 L4.169,1.571 C4.171,1.706 4.166,1.809 4.155,1.881 C4.139,1.996 4.097,2.106 4.031,2.203 C3.965,2.304 3.872,2.384 3.763,2.434 C3.653,2.482 3.531,2.507 3.396,2.507 C3.167,2.507 2.981,2.436 2.838,2.291 C2.694,2.147 2.623,1.939 2.623,1.669 C2.623,1.381 2.702,1.173 2.861,1.045 C3.02,0.917 3.202,0.853 3.41,0.853 C3.661,0.853 3.856,0.929 3.997,1.081 C4.071,1.16 4.119,1.24 4.139,1.317 L3.703,1.317 L3.704,1.317 Z M3.152,2.082 C3.21,2.141 3.291,2.17 3.396,2.17 C3.491,2.17 3.572,2.143 3.638,2.087 C3.702,2.03 3.739,1.948 3.746,1.84 L3.044,1.84 C3.059,1.942 3.095,2.022 3.152,2.082 Z M5.212,2.507 C4.307,2.507 4.361,1.706 4.361,1.706 L4.361,0.892 L4.771,0.892 L4.771,1.655 C4.771,1.78 4.787,1.873 4.818,1.933 C4.875,2.04 4.985,2.093 5.149,2.093 C5.161,2.093 5.178,2.093 5.198,2.092 C5.218,2.091 5.24,2.089 5.267,2.086 L5.267,2.503 C5.248,2.505 5.236,2.506 5.231,2.506 C5.226,2.506 5.22,2.507 5.212,2.507 Z M6.119,2.162 C6.222,2.162 6.296,2.13 6.345,2.067 C6.378,2.021 6.398,1.968 6.407,1.91 L6.847,1.91 C6.823,2.132 6.745,2.288 6.614,2.375 C6.482,2.462 6.313,2.507 6.107,2.507 C5.865,2.507 5.675,2.432 5.536,2.283 C5.399,2.135 5.33,1.927 5.33,1.659 C5.33,1.422 5.392,1.229 5.517,1.08 C5.642,0.932 5.837,0.857 6.101,0.857 C6.365,0.857 6.565,0.946 6.7,1.125 C6.785,1.235 6.832,1.352 6.843,1.477 L6.403,1.477 C6.395,1.394 6.369,1.328 6.326,1.276 C6.284,1.225 6.213,1.199 6.111,1.199 C5.97,1.199 5.873,1.264 5.821,1.394 C5.793,1.463 5.779,1.555 5.779,1.669 C5.779,1.789 5.793,1.885 5.821,1.957 C5.875,2.094 5.975,2.162 6.119,2.162 Z M8.155,2.41 C8.021,2.478 7.869,2.512 7.697,2.512 C7.434,2.512 7.246,2.443 7.138,2.305 C7.069,2.217 7.031,2.105 7.022,1.968 L7.417,1.968 C7.427,2.028 7.446,2.076 7.476,2.112 C7.516,2.159 7.586,2.183 7.683,2.183 C7.771,2.183 7.837,2.171 7.882,2.146 C7.927,2.123 7.95,2.078 7.95,2.014 C7.95,1.962 7.92,1.923 7.861,1.898 C7.829,1.883 7.774,1.871 7.698,1.862 L7.559,1.844 C7.398,1.825 7.278,1.791 7.196,1.744 C7.047,1.658 6.973,1.52 6.973,1.327 C6.973,1.179 7.019,1.064 7.111,0.983 C7.204,0.902 7.322,0.868 7.465,0.862 C8.357,0.822 8.347,1.332 8.355,1.438 L8.355,2.025 C8.355,2.213 8.289,2.342 8.155,2.41 Z M7.947,1.519 C7.945,1.382 7.905,1.288 7.83,1.236 C7.758,1.185 7.672,1.158 7.584,1.159 C7.527,1.159 7.479,1.174 7.44,1.206 C7.401,1.236 7.381,1.287 7.381,1.357 C7.381,1.435 7.414,1.493 7.478,1.53 C7.516,1.552 7.578,1.571 7.666,1.586 L7.759,1.604 C7.806,1.612 7.842,1.621 7.869,1.632 C7.896,1.642 7.923,1.655 7.947,1.671 L7.947,1.519 Z M11.519,2.272 C11.388,2.437 11.187,2.52 10.919,2.52 C10.651,2.52 10.452,2.438 10.32,2.272 C10.188,2.107 10.123,1.913 10.123,1.688 C10.123,1.459 10.188,1.264 10.32,1.101 C10.452,0.938 10.651,0.857 10.919,0.857 C11.187,0.857 11.388,0.938 11.519,1.101 C11.65,1.264 11.716,1.459 11.716,1.688 C11.716,1.913 11.65,2.107 11.519,2.272 Z M11.192,1.326 C11.129,1.241 11.037,1.199 10.918,1.199 C10.799,1.199 10.707,1.241 10.643,1.326 C10.578,1.411 10.546,1.531 10.546,1.688 C10.546,1.844 10.578,1.964 10.643,2.048 C10.707,2.133 10.799,2.175 10.918,2.175 C11.037,2.175 11.129,2.133 11.192,2.048 C11.257,1.964 11.288,1.844 11.288,1.687 C11.288,1.531 11.257,1.411 11.192,1.326 Z" id="path66"></path>
                        </g>
                        <g id="g68" transform="translate(52.471700, 32.883300)" fill="#0098CA" fill-rule="nonzero">
                            <path d="M7,3 C6.868,3.165 6.668,3.247 6.399,3.247 C6.132,3.247 5.932,3.165 5.801,3 C5.669,2.835 5.603,2.641 5.603,2.415 C5.603,2.187 5.669,1.991 5.801,1.828 C5.932,1.666 6.132,1.584 6.399,1.584 C6.668,1.584 6.867,1.666 7,1.828 C7.131,1.991 7.196,2.187 7.196,2.415 C7.196,2.641 7.131,2.835 7,3 Z M6.673,2.054 C6.609,1.969 6.519,1.927 6.399,1.927 C6.279,1.927 6.188,1.969 6.124,2.054 C6.06,2.139 6.027,2.259 6.027,2.415 C6.027,2.571 6.06,2.691 6.124,2.776 C6.188,2.86 6.279,2.902 6.398,2.902 C6.519,2.902 6.609,2.86 6.673,2.776 C6.737,2.691 6.77,2.571 6.77,2.415 C6.77,2.259 6.737,2.139 6.673,2.054 Z M3.614,3.129 C3.48,3.196 3.328,3.231 3.156,3.231 C2.892,3.231 2.705,3.162 2.597,3.024 C2.529,2.936 2.49,2.824 2.481,2.687 L2.876,2.687 C2.886,2.747 2.905,2.795 2.935,2.831 C2.976,2.878 3.045,2.902 3.143,2.902 C3.229,2.902 3.296,2.891 3.341,2.866 C3.386,2.841 3.409,2.797 3.409,2.733 C3.409,2.68 3.379,2.642 3.32,2.617 C3.287,2.602 3.233,2.59 3.156,2.581 L3.017,2.563 C2.857,2.543 2.737,2.51 2.655,2.463 C2.506,2.377 2.432,2.238 2.432,2.045 C2.432,1.897 2.478,1.782 2.57,1.702 C2.663,1.622 2.781,1.587 2.924,1.581 C3.816,1.541 3.806,2.051 3.814,2.157 L3.814,2.745 C3.814,2.933 3.748,3.062 3.614,3.129 Z M3.407,2.238 C3.404,2.101 3.364,2.007 3.29,1.955 C3.217,1.904 3.131,1.877 3.042,1.878 C2.986,1.878 2.938,1.893 2.899,1.924 C2.859,1.955 2.841,2.006 2.841,2.076 C2.841,2.154 2.872,2.212 2.938,2.25 C2.976,2.271 3.037,2.291 3.124,2.306 L3.218,2.323 C3.265,2.331 3.302,2.341 3.327,2.35 C3.354,2.361 3.38,2.374 3.407,2.39 L3.407,2.238 Z M5.044,1.719 L5.044,1.82 C4.974,1.708 4.878,1.64 4.757,1.611 C4.637,1.584 4.512,1.595 4.397,1.642 C4.28,1.689 4.178,1.778 4.093,1.906 C4.008,2.035 3.966,2.205 3.966,2.416 C3.966,2.662 4.021,2.86 4.134,3.013 C4.247,3.166 4.428,3.236 4.677,3.242 C4.922,3.249 5.064,3.193 5.204,3.087 C5.356,2.972 5.447,2.794 5.447,2.516 L5.447,1.677 C5.448,1.41 5.262,0.916 4.677,0.958 C4.314,0.983 4.113,1.132 4.001,1.469 L4.434,1.469 C4.465,1.414 4.513,1.371 4.579,1.341 C4.644,1.312 4.71,1.303 4.774,1.317 C4.839,1.331 4.898,1.37 4.952,1.433 C5.005,1.497 5.035,1.592 5.044,1.719 Z M4.368,2.403 C4.368,2.129 4.447,1.978 4.605,1.948 C4.763,1.919 4.88,1.956 4.956,2.058 C4.99,2.101 5.017,2.17 5.032,2.263 C5.048,2.357 5.049,2.449 5.035,2.54 C5.022,2.628 4.989,2.712 4.937,2.785 C4.886,2.855 4.812,2.892 4.712,2.892 C4.577,2.892 4.486,2.841 4.439,2.743 C4.392,2.643 4.368,2.53 4.368,2.403 Z M1.22,1.292 C1.22,1.237 1.2,1.189 1.159,1.149 C1.119,1.11 1.07,1.09 1.014,1.09 L0.809,1.09 L0.809,2.517 C0.809,2.794 0.903,2.968 1.057,3.085 C1.158,3.163 1.31,3.237 1.594,3.237 C1.785,3.237 2.01,3.162 2.131,3.015 C2.268,2.848 2.324,2.663 2.324,2.421 C2.324,2.171 2.264,1.968 2.144,1.813 C2.022,1.663 1.867,1.588 1.679,1.588 C1.578,1.588 1.489,1.605 1.413,1.641 C1.332,1.682 1.265,1.747 1.22,1.826 L1.22,1.292 Z M1.907,2.403 C1.907,2.558 1.877,2.677 1.817,2.761 C1.757,2.843 1.67,2.885 1.558,2.885 C1.449,2.885 1.364,2.843 1.304,2.761 C1.248,2.685 1.22,2.566 1.22,2.403 C1.22,2.252 1.249,2.139 1.311,2.063 C1.371,1.98 1.457,1.939 1.57,1.939 C1.674,1.939 1.757,1.98 1.817,2.063 C1.877,2.146 1.907,2.26 1.907,2.403 Z" id="path70"></path>
                        </g>
                        <g id="g72" transform="translate(11.789600, 35.251500)" fill="#008D3E" fill-rule="nonzero">
                            <path d="M2,0 C1.944,0.033 1.88,0.028 1.82,0.038 C1.512,0.083 1.316,0.277 1.162,0.526 C1.05,0.705 1.016,0.909 0.992,1.111 C0.95,1.463 0.964,1.815 1.049,2.16 C1.249,2.962 1.998,3.114 2.563,2.882 C2.872,2.755 3.035,2.506 3.123,2.205 C3.267,1.711 3.252,1.214 3.099,0.724 C2.965,0.296 2.669,0.059 2.222,0.014 C2.211,0.012 2.202,0.011 2.197,0 L2,0 Z M2.761,1.434 C2.755,1.712 2.723,2.019 2.597,2.302 C2.408,2.729 1.926,2.705 1.697,2.464 C1.586,2.348 1.513,2.201 1.487,2.042 C1.434,1.726 1.413,1.408 1.454,1.089 C1.479,0.889 1.529,0.695 1.664,0.536 C1.78,0.398 1.93,0.327 2.112,0.344 C2.366,0.368 2.534,0.512 2.637,0.737 C2.735,0.949 2.759,1.175 2.761,1.434 Z" id="path74"></path>
                        </g>
                        <g id="g76" transform="translate(22.766600, 34.296900)" fill="#004068" fill-rule="nonzero">
                            <path d="M11,1 C10.873,1 10.746,1.002 10.62,0.999 C10.574,0.997 10.552,1.012 10.538,1.055 C10.486,1.218 10.425,1.377 10.382,1.544 C10.347,1.683 10.304,1.82 10.251,1.954 C10.235,1.996 10.211,2.01 10.167,2.009 C10.017,2.006 9.868,2.01 9.718,2.007 C9.668,2.006 9.658,2.02 9.671,2.067 C9.692,2.146 9.717,2.223 9.747,2.298 C9.762,2.337 9.785,2.351 9.826,2.35 C9.907,2.348 9.988,2.354 10.069,2.354 C10.107,2.354 10.127,2.359 10.11,2.405 C10.038,2.6 9.997,2.807 9.905,2.997 C9.856,3.096 9.856,3.208 9.83,3.313 C9.815,3.369 9.805,3.427 9.757,3.477 C9.69,3.277 9.624,3.083 9.561,2.888 C9.48,2.642 9.414,2.391 9.332,2.144 C9.259,1.923 9.162,1.71 9.122,1.476 C9.096,1.324 9.023,1.181 8.972,1.034 C8.96,1 8.937,1.004 8.911,1.004 C8.803,1.006 8.693,1.012 8.584,1.01 C8.529,1.009 8.52,1.027 8.537,1.075 C8.62,1.316 8.7,1.558 8.784,1.798 C8.862,2.017 8.948,2.231 9.016,2.454 C9.067,2.625 9.12,2.795 9.182,2.963 C9.268,3.197 9.36,3.429 9.423,3.67 C9.438,3.729 9.464,3.785 9.485,3.842 C9.495,3.871 9.515,3.878 9.543,3.877 C9.685,3.877 9.827,3.875 9.969,3.878 C10.025,3.88 10.037,3.84 10.05,3.804 C10.116,3.616 10.179,3.427 10.242,3.238 C10.334,2.963 10.424,2.687 10.52,2.414 C10.634,2.085 10.735,1.753 10.847,1.423 C10.893,1.286 10.935,1.146 11,1.015 L11,1 Z M1.407,0.954 C1.336,0.985 1.259,0.991 1.186,1.017 C0.798,1.154 0.567,1.428 0.476,1.82 C0.38,2.233 0.355,2.65 0.449,3.069 C0.492,3.259 0.566,3.44 0.691,3.587 C0.818,3.735 0.977,3.845 1.175,3.895 C1.432,3.96 1.681,3.938 1.93,3.87 C2.038,3.841 2.138,3.786 2.22,3.711 C2.26,3.674 2.272,3.642 2.223,3.6 C2.146,3.534 2.083,3.454 1.998,3.396 C1.968,3.375 1.949,3.366 1.919,3.405 C1.735,3.639 1.35,3.662 1.127,3.454 C0.977,3.313 0.916,3.132 0.883,2.936 C0.824,2.574 0.84,2.215 0.922,1.858 C0.952,1.724 1.017,1.601 1.11,1.5 C1.295,1.295 1.533,1.286 1.782,1.309 C1.802,1.311 1.822,1.315 1.842,1.319 C2.055,1.358 2.075,1.381 2.075,1.592 C2.075,1.823 2.073,2.053 2.076,2.283 C2.076,2.333 2.062,2.345 2.013,2.345 C1.848,2.344 1.684,2.348 1.519,2.348 C1.478,2.348 1.46,2.357 1.462,2.402 C1.466,2.476 1.466,2.549 1.462,2.623 C1.46,2.668 1.48,2.676 1.52,2.676 C1.814,2.675 2.107,2.674 2.401,2.676 C2.446,2.676 2.462,2.667 2.462,2.618 C2.458,2.169 2.457,1.721 2.457,1.272 C2.457,1.233 2.438,1.216 2.41,1.195 C2.2,1.049 1.962,0.989 1.712,0.968 C1.625,0.964 1.538,0.982 1.452,0.954 L1.407,0.954 Z" id="path78"></path>
                        </g>
                        <g id="g80" transform="translate(10.767600, 34.251000)" fill="#008D3E" fill-rule="nonzero">
                            <path d="M0.999999999,1 C0.996999999,1.019 0.982999999,1.023 0.967999999,1.026 C0.549999999,1.097 0.292999999,1.353 0.164999999,1.743 C-0.00600000097,2.259 -9.7170004e-10,2.78 0.163999999,3.295 C0.299999999,3.718 0.623999999,3.947 1.067,3.967 C1.271,3.977 1.465,3.955 1.647,3.857 C1.665,3.848 1.684,3.84 1.701,3.83 C1.852,3.742 1.852,3.735 1.734,3.616 C1.677,3.558 1.62,3.5 1.555,3.452 C1.526,3.431 1.508,3.43 1.488,3.462 C1.342,3.699 0.870999999,3.697 0.703999999,3.412 C0.574999999,3.191 0.510999999,2.957 0.498999999,2.706 C0.484999999,2.422 0.520999999,2.138 0.602999999,1.866 C0.702999999,1.533 0.919999999,1.368 1.26,1.348 C1.398,1.339 1.526,1.366 1.651,1.42 C1.684,1.435 1.717,1.445 1.75,1.459 C1.807,1.485 1.851,1.494 1.867,1.409 C1.877,1.35 1.907,1.295 1.927,1.238 C1.946,1.19 1.933,1.162 1.881,1.141 C1.682,1.059 1.473,1.026 1.259,1.013 C1.234,1.012 1.204,1.027 1.183,0.999 L0.999999999,0.999 L0.999999999,1 Z" id="path82"></path>
                        </g>
                        <g id="g84" transform="translate(27.549300, 34.556600)" fill="#004269" fill-rule="nonzero">
                            <path d="M1,3 L1,2.92 C0.999,2.221 0.998,1.522 0.999,0.823 C0.999,0.76 0.983,0.738 0.919,0.743 C0.841,0.748 0.762,0.748 0.684,0.742 C0.623,0.737 0.613,0.761 0.614,0.815 C0.618,0.982 0.616,1.149 0.616,1.317 C0.616,2.059 0.616,2.801 0.614,3.543 C0.614,3.605 0.629,3.626 0.693,3.623 C0.809,3.617 0.926,3.614 1.043,3.62 C1.116,3.623 1.152,3.6 1.187,3.533 C1.531,2.843 1.88,2.156 2.229,1.468 C2.239,1.447 2.244,1.421 2.276,1.399 L2.276,1.477 C2.277,2.166 2.279,2.855 2.278,3.544 C2.278,3.607 2.294,3.628 2.358,3.624 C2.439,3.618 2.521,3.62 2.602,3.623 C2.646,3.625 2.662,3.608 2.656,3.566 C2.655,3.556 2.656,3.546 2.656,3.536 C2.656,2.634 2.655,1.732 2.657,0.83 C2.657,0.764 2.646,0.736 2.572,0.74 C2.463,0.745 2.354,0.745 2.245,0.739 C2.193,0.737 2.166,0.752 2.141,0.801 C1.814,1.446 1.485,2.089 1.156,2.733 C1.111,2.823 1.064,2.912 1.018,3.002 L1,3" id="path86"></path>
                        </g>
                        <g id="g88" transform="translate(7.818800, 34.568800)" fill="#008C3F" fill-rule="nonzero">
                            <path d="M1,3 L1,2.92 C0.999,2.223 0.998,1.527 0.996,0.83 C0.996,0.715 1.009,0.732 0.894,0.731 C0.825,0.73 0.757,0.736 0.688,0.729 C0.625,0.724 0.615,0.75 0.615,0.807 C0.617,1.247 0.616,1.688 0.616,2.129 C0.616,2.595 0.618,3.062 0.614,3.527 C0.614,3.597 0.634,3.612 0.699,3.609 C0.823,3.606 0.947,3.609 1.071,3.614 C1.122,3.617 1.146,3.597 1.168,3.553 C1.521,2.856 1.875,2.159 2.229,1.463 C2.239,1.443 2.25,1.424 2.271,1.386 C2.273,1.428 2.275,1.451 2.275,1.475 C2.28,2.159 2.287,2.842 2.289,3.527 C2.289,3.593 2.304,3.615 2.372,3.609 C2.447,3.603 2.524,3.605 2.6,3.609 C2.644,3.611 2.66,3.594 2.655,3.552 C2.653,3.542 2.655,3.531 2.655,3.521 C2.655,2.619 2.654,1.717 2.656,0.816 C2.656,0.745 2.637,0.725 2.568,0.729 C2.459,0.733 2.351,0.733 2.242,0.727 C2.183,0.723 2.159,0.747 2.134,0.795 C1.782,1.496 1.428,2.194 1.074,2.894 C1.055,2.931 1.035,2.966 1.016,3.003 L1,3" id="path90"></path>
                        </g>
                        <g id="g92" transform="translate(24.804200, 35.264200)" fill="#004068" fill-rule="nonzero">
                            <path d="M2,0 L1.755,0 C1.311,0.019 0.968,0.378 0.866,0.775 C0.759,1.19 0.768,1.601 0.83,2.016 C0.855,2.188 0.917,2.348 1.004,2.498 C1.181,2.801 1.46,2.929 1.794,2.964 C2.014,2.987 2.229,2.957 2.427,2.852 C2.698,2.707 2.856,2.474 2.935,2.183 C3.065,1.7 3.067,1.214 2.922,0.737 C2.782,0.276 2.494,0.044 2,0 M1.249,1.484 C1.249,1.343 1.25,1.201 1.271,1.06 C1.295,0.894 1.331,0.73 1.425,0.588 C1.544,0.408 1.711,0.312 1.932,0.332 C2.202,0.358 2.372,0.515 2.454,0.764 C2.572,1.119 2.584,1.484 2.538,1.852 C2.512,2.061 2.462,2.26 2.326,2.428 C2.203,2.58 2.038,2.637 1.849,2.621 C1.575,2.598 1.431,2.419 1.345,2.179 C1.265,1.955 1.242,1.722 1.249,1.485" id="path94"></path>
                        </g>
                        <g id="g96" transform="translate(3.055200, 34.834500)" fill="#008D3E" fill-rule="nonzero">
                            <path d="M2,2 C2.128,1.958 2.246,1.911 2.341,1.825 C2.542,1.646 2.584,1.41 2.562,1.16 C2.527,0.75 2.223,0.479 1.81,0.477 C1.514,0.475 1.217,0.471 0.92,0.466 C0.865,0.464 0.848,0.478 0.848,0.537 C0.85,1.449 0.85,2.36 0.848,3.272 C0.848,3.323 0.857,3.342 0.914,3.342 C1.176,3.341 1.44,3.348 1.704,3.346 C1.888,3.344 2.06,3.295 2.205,3.178 C2.365,3.048 2.441,2.879 2.426,2.671 C2.42,2.595 2.415,2.52 2.397,2.445 C2.344,2.231 2.199,2.1 2,2 M1.276,1.313 C1.276,1.227 1.275,1.14 1.276,1.054 C1.277,0.974 1.248,0.865 1.289,0.819 C1.336,0.767 1.446,0.802 1.53,0.8 C1.652,0.797 1.776,0.805 1.885,0.86 C2.055,0.946 2.14,1.099 2.142,1.286 C2.143,1.492 2.07,1.667 1.862,1.757 C1.683,1.833 1.494,1.813 1.307,1.815 C1.265,1.815 1.276,1.783 1.276,1.761 C1.275,1.611 1.275,1.462 1.275,1.313 M1.276,2.579 L1.276,2.207 C1.276,2.183 1.269,2.155 1.311,2.157 C1.427,2.162 1.544,2.144 1.659,2.168 C1.773,2.192 1.876,2.236 1.947,2.343 C2.018,2.452 2.006,2.564 1.993,2.679 C1.975,2.845 1.886,2.944 1.725,2.987 C1.587,3.024 1.448,2.998 1.31,3.002 C1.268,3.004 1.276,2.975 1.276,2.952 L1.276,2.579" id="path98"></path>
                        </g>
                        <g id="g100" transform="translate(16.069800, 34.779800)" fill="#004068" fill-rule="nonzero">
                            <path d="M2,3 C1.922,2.864 1.897,2.721 1.854,2.584 C1.757,2.277 1.671,1.967 1.57,1.662 C1.489,1.417 1.409,1.172 1.338,0.925 C1.304,0.806 1.258,0.691 1.221,0.573 C1.209,0.537 1.194,0.519 1.153,0.521 C1.039,0.525 0.925,0.527 0.811,0.528 C0.774,0.528 0.758,0.535 0.772,0.575 C0.789,0.625 0.799,0.678 0.818,0.727 C0.958,1.093 1.069,1.468 1.201,1.836 C1.283,2.065 1.357,2.298 1.437,2.528 C1.524,2.783 1.604,3.04 1.691,3.295 C1.716,3.37 1.754,3.403 1.839,3.397 C1.957,3.388 2.077,3.393 2.196,3.395 C2.234,3.396 2.253,3.385 2.27,3.349 C2.336,3.206 2.378,3.056 2.425,2.907 C2.474,2.753 2.521,2.599 2.573,2.446 C2.664,2.176 2.757,1.907 2.852,1.639 C2.946,1.372 3.045,1.107 3.137,0.841 C3.173,0.737 3.211,0.633 3.232,0.517 C3.095,0.517 2.963,0.518 2.832,0.516 C2.781,0.516 2.775,0.556 2.769,0.587 C2.734,0.764 2.662,0.928 2.614,1.101 C2.581,1.22 2.534,1.335 2.499,1.453 C2.481,1.508 2.455,1.528 2.396,1.526 C2.251,1.521 2.107,1.526 1.963,1.524 C1.915,1.523 1.893,1.53 1.909,1.586 C1.93,1.659 1.945,1.733 1.974,1.804 C1.99,1.84 2.012,1.858 2.054,1.858 C2.14,1.859 2.226,1.868 2.312,1.87 C2.347,1.871 2.362,1.876 2.35,1.918 C2.246,2.279 2.117,2.631 2,3" id="path102"></path>
                        </g>
                        <g id="g104" transform="translate(4.977500, 34.785200)" fill="#008D3E" fill-rule="nonzero">
                            <path d="M2,3 C1.951,2.838 1.907,2.695 1.862,2.551 C1.852,2.517 1.845,2.481 1.831,2.45 C1.707,2.159 1.63,1.852 1.532,1.553 C1.422,1.222 1.322,0.889 1.217,0.558 C1.207,0.522 1.192,0.509 1.155,0.511 C1.041,0.516 0.927,0.519 0.813,0.521 C0.776,0.521 0.764,0.529 0.78,0.57 C0.853,0.744 0.9,0.927 0.947,1.11 C0.951,1.125 0.954,1.141 0.96,1.153 C1.071,1.363 1.126,1.592 1.2,1.814 C1.284,2.065 1.375,2.313 1.46,2.563 C1.544,2.815 1.62,3.068 1.71,3.317 C1.729,3.37 1.755,3.392 1.814,3.391 C1.938,3.387 2.062,3.392 2.186,3.397 C2.238,3.4 2.264,3.381 2.283,3.334 C2.329,3.22 2.356,3.096 2.407,2.986 C2.479,2.831 2.496,2.663 2.558,2.505 C2.677,2.206 2.766,1.895 2.87,1.59 C2.922,1.434 2.991,1.283 3.032,1.125 C3.081,0.938 3.182,0.772 3.223,0.584 C3.234,0.531 3.238,0.506 3.169,0.51 C3.063,0.515 2.957,0.515 2.851,0.511 C2.81,0.51 2.793,0.525 2.782,0.562 C2.687,0.863 2.571,1.157 2.49,1.462 C2.479,1.507 2.459,1.517 2.417,1.517 C2.268,1.518 2.119,1.525 1.969,1.525 C1.916,1.526 1.899,1.536 1.915,1.593 C1.988,1.855 1.986,1.856 2.261,1.864 C2.37,1.868 2.372,1.869 2.338,1.973 C2.258,2.223 2.173,2.471 2.093,2.722 C2.064,2.809 2.059,2.904 2,3" id="path106"></path>
                        </g>
                        <g id="g108" transform="translate(19.784200, 34.300800)" fill="#004068" fill-rule="nonzero">
                            <path d="M2,2 C2.021,2.114 2.051,2.202 2.083,2.291 C2.095,2.324 2.113,2.336 2.149,2.337 C2.237,2.339 2.326,2.348 2.415,2.349 C2.455,2.35 2.464,2.365 2.45,2.399 C2.372,2.578 2.327,2.767 2.273,2.953 C2.222,3.129 2.136,3.292 2.109,3.475 C2.103,3.475 2.096,3.474 2.09,3.474 C2.08,3.439 2.071,3.403 2.06,3.368 C2.008,3.199 1.951,3.032 1.891,2.866 C1.846,2.746 1.808,2.624 1.777,2.499 C1.726,2.283 1.651,2.074 1.583,1.864 C1.52,1.673 1.436,1.488 1.396,1.29 C1.39,1.258 1.373,1.229 1.362,1.198 C1.341,1.131 1.347,1.037 1.29,1.005 C1.235,0.976 1.152,0.997 1.081,0.996 C1.033,0.995 0.984,1 0.937,0.995 C0.858,0.985 0.852,1.021 0.874,1.082 C0.881,1.101 0.885,1.121 0.893,1.139 C1.059,1.521 1.174,1.922 1.308,2.316 C1.43,2.676 1.561,3.034 1.673,3.398 C1.717,3.538 1.763,3.677 1.812,3.815 C1.828,3.861 1.852,3.875 1.9,3.875 C2.035,3.875 2.168,3.877 2.303,3.881 C2.338,3.882 2.355,3.874 2.367,3.836 C2.455,3.578 2.54,3.319 2.631,3.063 C2.741,2.751 2.848,2.439 2.951,2.125 C2.992,2.002 3.045,1.886 3.087,1.764 C3.149,1.586 3.204,1.404 3.262,1.225 C3.281,1.167 3.303,1.111 3.322,1.054 C3.334,1.016 3.329,0.993 3.278,0.995 C3.167,0.998 3.056,0.997 2.944,0.995 C2.908,0.994 2.893,1.006 2.879,1.041 C2.78,1.303 2.7,1.571 2.622,1.84 C2.609,1.884 2.591,1.926 2.58,1.97 C2.57,2.012 2.538,1.999 2.513,1.999 C2.344,2 2.175,2 2,2" id="path110"></path>
                        </g>
                        <g id="g112" transform="translate(14.647900, 35.108400)" fill="#004269" fill-rule="nonzero">
                            <path d="M16,3 C16,3.059 16.014,3.079 16.075,3.075 C16.168,3.07 16.262,3.071 16.356,3.075 C16.408,3.077 16.426,3.062 16.425,3.008 C16.421,2.831 16.423,2.654 16.423,2.476 C16.423,1.742 16.422,1.007 16.425,0.272 C16.425,0.205 16.408,0.185 16.341,0.189 C16.25,0.195 16.158,0.194 16.067,0.189 C16.014,0.187 16,0.204 16,0.257 C16.002,0.715 16.001,1.174 16.001,1.632 C16.001,2.088 16.002,2.544 16,3 Z M5.315,0.192 C5.263,0.197 5.18,0.164 5.138,0.204 C5.095,0.245 5.123,0.329 5.123,0.394 C5.119,1.149 5.115,1.904 5.115,2.659 C5.115,2.728 5.096,2.742 5.031,2.74 C4.839,2.736 4.646,2.741 4.454,2.739 C4.408,2.739 4.391,2.751 4.394,2.799 C4.397,2.864 4.398,2.931 4.394,2.996 C4.389,3.056 4.408,3.073 4.469,3.072 C5.014,3.07 5.558,3.071 6.103,3.071 C6.253,3.071 6.253,3.071 6.253,2.922 C6.253,2.741 6.253,2.741 6.075,2.739 C5.923,2.736 5.771,2.729 5.619,2.73 C5.553,2.731 5.531,2.716 5.532,2.645 C5.534,1.859 5.533,1.074 5.533,0.289 C5.533,0.177 5.544,0.194 5.435,0.192 C5.399,0.192 5.364,0.192 5.315,0.192 Z M0.755,1.632 C0.755,2.087 0.756,2.543 0.754,2.999 C0.754,3.055 0.767,3.072 0.825,3.071 C1.121,3.063 1.417,3.084 1.713,3.061 C1.85,3.05 1.985,3.034 2.11,2.972 C2.242,2.907 2.344,2.816 2.392,2.672 C2.457,2.483 2.48,2.292 2.433,2.098 C2.354,1.777 2.125,1.619 1.816,1.557 C1.63,1.52 1.443,1.535 1.256,1.534 C1.197,1.533 1.18,1.519 1.18,1.458 C1.179,1.061 1.173,0.663 1.171,0.266 C1.171,0.207 1.157,0.187 1.096,0.19 C1.007,0.195 0.919,0.195 0.83,0.19 C0.771,0.187 0.753,0.203 0.754,0.265 C0.756,0.721 0.755,1.176 0.755,1.632 Z M1.181,2.299 C1.181,2.175 1.182,2.051 1.18,1.928 C1.18,1.891 1.187,1.872 1.229,1.873 C1.348,1.876 1.467,1.87 1.586,1.877 C1.824,1.894 1.955,2.009 1.991,2.222 C2,2.271 1.987,2.318 1.985,2.366 C1.974,2.574 1.836,2.715 1.625,2.728 C1.495,2.735 1.363,2.729 1.231,2.731 C1.19,2.732 1.18,2.717 1.18,2.678 C1.182,2.552 1.181,2.425 1.181,2.299 Z" id="path114"></path>
                        </g>
                        <g id="g452-Clipped">
                            <mask id="mask-5" fill="white">
                                <use xlink:href="#path-4"></use>
                            </mask>
                            <g id="path120"></g>
                            <g id="g452" opacity="0.89999402" mask="url(#mask-5)">
                                <g transform="translate(-1.000000, -1.000000)">
                                    <g id="g274" transform="translate(46.524400, 1.086900)">
                                        <path d="M1,0 L0.999,0 L1,0 Z" id="path272" fill="#00AAD2" fill-rule="nonzero"></path>
                                    </g>
                                    <g id="g282-Clipped" transform="translate(33.000000, 1.000000)">
                                        <mask id="mask-7" fill="white">
                                            <use xlink:href="#path-6"></use>
                                        </mask>
                                        <g id="path124"></g>
                                        <g id="g278" mask="url(#mask-7)" fill="url(#linearGradient-8)" fill-rule="nonzero">
                                            <path d="M13.198,21.384 L12.784,21.384 C12.551,24.568 9.894,27.08 6.648,27.08 C3.249,27.08 0.494,24.326 0.494,20.929 C0.494,17.532 3.249,14.778 6.648,14.778 C10.047,14.778 12.803,17.532 12.803,20.929 C12.803,20.949 12.801,20.969 12.801,20.989 L13.198,20.989 L13.2,20.989 C13.713,20.988 14.129,20.572 14.128,20.06 L14.128,0.087 L14.523,0.087 L14.523,20.059 C14.523,20.791 13.931,21.384 13.198,21.384" id="path276"></path>
                                        </g>
                                    </g>
                                    <g id="g320-Clipped" transform="translate(29.000000, 1.000000)">
                                        <g id="g158-Clipped">
                                            <mask id="mask-10" fill="white">
                                                <use xlink:href="#path-9"></use>
                                            </mask>
                                            <g id="path134"></g>
                                            <mask id="mask-12" fill="white">
                                                <use xlink:href="#path-11"></use>
                                            </mask>
                                            <g id="path144"></g>
                                            <g id="g152-Clipped" mask="url(#mask-12)">
                                                <mask id="mask-14" fill="white">
                                                    <use xlink:href="#path-13"></use>
                                                </mask>
                                                <g id="path138"></g>
                                                <mask id="mask-16" fill="white">
                                                    <use xlink:href="#path-15"></use>
                                                </mask>
                                                <g id="path148"></g>
                                            </g>
                                        </g>
                                        <g id="g316-Clipped">
                                            <mask id="mask-18" fill="white">
                                                <use xlink:href="#path-17"></use>
                                            </mask>
                                            <g id="path162"></g>
                                            <g id="g316" mask="url(#mask-18)">
                                                <g transform="translate(0.000000, -1.000000)">
                                                    <g id="g292" transform="translate(9.578100, 0.518600)">
                                                        <path d="M2,10 L0.216,10 C0.217,9.96 0.219,9.921 0.219,9.881 C0.219,9.788 0.216,9.696 0.211,9.604 L2,9.604 L2.003,9.604 C2.516,9.604 2.931,9.188 2.931,8.675 L2.931,0.618 L3.326,0.618 L3.326,8.675 C3.326,9.406 2.732,10 2,10" id="path290" fill="#00AAD2" fill-rule="nonzero"></path>
                                                    </g>
                                                    <g id="g300-Clipped" transform="translate(0.000000, 5.000000)">
                                                        <mask id="mask-20" fill="white">
                                                            <use xlink:href="#path-19"></use>
                                                        </mask>
                                                        <g id="path166"></g>
                                                        <g id="g296" mask="url(#mask-20)" fill="url(#linearGradient-21)" fill-rule="nonzero">
                                                            <path d="M9.794,5.519 C9.73,8.15 7.578,10.265 4.929,10.265 C2.241,10.265 0.061,8.087 0.061,5.399 C0.061,2.713 2.241,0.534 4.929,0.534 C7.524,0.534 9.646,2.565 9.789,5.123 C9.794,5.215 9.797,5.307 9.797,5.399 C9.797,5.439 9.795,5.479 9.794,5.519" id="path294"></path>
                                                        </g>
                                                    </g>
                                                    <g id="g310-Clipped" transform="translate(2.000000, 7.000000)">
                                                        <mask id="mask-23" fill="white">
                                                            <use xlink:href="#path-22"></use>
                                                        </mask>
                                                        <g id="path176"></g>
                                                        <g id="g308" mask="url(#mask-23)" fill="#5DC7E0" fill-rule="nonzero">
                                                            <g transform="translate(-0.882300, 0.891600)" id="path306">
                                                                <path d="M3,5 C2.604,5 2.406,4.664 2.406,4.248 L3.732,4.248 C3.732,4.248 3.416,4.98 3,5 Z M4.603,4.98 C4.207,4.98 3.871,4.229 3.871,4.229 L5.197,4.229 C5.216,4.644 5.018,4.98 4.603,4.98 Z M3.93,0.018 L3.932,2.649 L6.127,2.646 L6.125,0.015 L3.93,0.018 Z M1.467,0.011 L1.47,2.643 L3.665,2.641 L3.663,0.009 L1.467,0.011 Z M3.93,3.991 L6.681,3.991 L6.681,2.884 L3.93,2.884 L3.93,3.991 Z M0.942,3.991 L3.693,3.991 L3.693,2.884 L0.942,2.884 L0.942,3.991 Z"></path>
                                                            </g>
                                                        </g>
                                                    </g>
                                                </g>
                                            </g>
                                        </g>
                                    </g>
                                    <g id="g326" transform="translate(0.267100, 7.342800)">
                                        <path d="M6,1 L0.757,1 L0.757,0.604 L6.004,0.604 C6,0.696 5.997,0.788 5.997,0.882 C5.997,0.921 6,0.96 6,1" id="path324" fill="#00AAD2" fill-rule="nonzero"></path>
                                    </g>
                                    <g id="g334-Clipped" transform="translate(6.000000, 1.000000)">
                                        <mask id="mask-25" fill="white">
                                            <use xlink:href="#path-24"></use>
                                        </mask>
                                        <g id="path180"></g>
                                        <g id="g330" mask="url(#mask-25)" fill="url(#linearGradient-26)" fill-rule="nonzero">
                                            <path d="M7.052,14.008 C3.343,14.008 0.331,11.034 0.267,7.343 C0.267,7.303 0.264,7.264 0.264,7.225 C0.264,7.131 0.268,7.039 0.271,6.947 C0.417,3.329 3.396,0.441 7.052,0.441 C10.801,0.441 13.839,3.479 13.839,7.225 C13.839,10.971 10.801,14.008 7.052,14.008" id="path328"></path>
                                        </g>
                                    </g>
                                    <g id="g344-Clipped" transform="translate(8.000000, 19.000000)">
                                        <mask id="mask-28" fill="white">
                                            <use xlink:href="#path-27"></use>
                                        </mask>
                                        <g id="path190"></g>
                                        <g id="g342" mask="url(#mask-28)" fill="#FFFFFF" fill-rule="nonzero">
                                            <g transform="translate(-0.499500, -0.047900)" id="path340">
                                                <path d="M1,1 C1.055,1 1.099,0.955 1.099,0.9 C1.099,0.846 1.055,0.802 1,0.802 C0.945,0.802 0.901,0.846 0.901,0.9 C0.901,0.955 0.945,1 1,1"></path>
                                            </g>
                                        </g>
                                    </g>
                                    <g id="g352" transform="translate(0.529800, 14.468300)">
                                        <path d="M5,12 C3.162,12 1.53,11.122 0.5,9.762 L0.5,6.226 L0.5,5.83 C0.5,4.586 0.5,3.433 0.499,2.966 C1.529,1.606 3.162,0.727 5,0.727 C7.935,0.727 10.345,2.967 10.614,5.83 C10.626,5.96 10.633,6.092 10.636,6.226 C10.637,6.271 10.64,6.317 10.64,6.363 C10.64,9.477 8.115,12 5,12" id="path350" fill="#00AAD2" fill-rule="nonzero"></path>
                                    </g>
                                    <g id="g356" transform="translate(10.272500, 0.980500)">
                                        <path d="M14,20 L0.936,20 C0.933,19.867 0.925,19.735 0.913,19.604 L14,19.604 L14.002,19.604 C14.515,19.604 14.93,19.188 14.93,18.675 L14.93,0.146 L15.326,0.146 L15.326,18.675 C15.326,19.406 14.732,20 14,20" id="path354" fill="#00AAD2" fill-rule="nonzero"></path>
                                    </g>
                                    <g id="g360" transform="translate(0.798800, 30.642600)">
                                        <path d="M21,0 L21,1.096 C21,1.827 20.406,2.421 19.674,2.421 L0.283,2.421 L0.283,2.025 L19.674,2.025 L19.676,2.025 C20.189,2.024 20.604,1.608 20.604,1.096 L20.604,0.004 C20.657,0.006 20.709,0.008 20.762,0.008 C20.842,0.008 20.921,0.005 21,0" id="path358" fill="#00AAD2" fill-rule="nonzero"></path>
                                    </g>
                                    <g id="g364" transform="translate(16.798800, 22.642600)">
                                        <path d="M5,8 C4.921,8.005 4.842,8.008 4.762,8.008 C4.709,8.008 4.657,8.006 4.604,8.004 C2.557,7.921 0.923,6.237 0.923,4.171 C0.923,2.053 2.642,0.335 4.762,0.335 C6.882,0.335 8.601,2.053 8.601,4.171 C8.601,6.211 7.009,7.877 5,8" id="path362" fill="#00AAD2" fill-rule="nonzero"></path>
                                    </g>
                                    <g id="g368" transform="translate(62.023400, 25.280300)">
                                        <path d="M5,1 L0.852,1 C0.854,0.934 0.856,0.869 0.856,0.802 C0.856,0.736 0.854,0.67 0.852,0.604 L5,0.604 L5,1 Z" id="path366" fill="#00AAD2" fill-rule="nonzero"></path>
                                    </g>
                                    <g id="g376-Clipped" transform="translate(49.000000, 19.000000)">
                                        <mask id="mask-30" fill="white">
                                            <use xlink:href="#path-29"></use>
                                        </mask>
                                        <g id="path194"></g>
                                        <g id="g372" mask="url(#mask-30)" fill="url(#linearGradient-31)" fill-rule="nonzero">
                                            <path d="M13.875,7.28 C13.771,10.946 10.766,13.885 7.073,13.885 C3.313,13.885 0.266,10.84 0.266,7.083 C0.266,3.325 3.313,0.279 7.073,0.279 C10.766,0.279 13.771,3.219 13.875,6.885 C13.877,6.951 13.88,7.016 13.88,7.083 C13.88,7.149 13.877,7.214 13.875,7.28" id="path370"></path>
                                        </g>
                                    </g>
                                    <g id="g392-Clipped" transform="translate(34.000000, 17.000000)">
                                        <g id="g228-Clipped">
                                            <mask id="mask-33" fill="white">
                                                <use xlink:href="#path-32"></use>
                                            </mask>
                                            <g id="path204"></g>
                                            <mask id="mask-35" fill="white">
                                                <use xlink:href="#path-34"></use>
                                            </mask>
                                            <g id="path214"></g>
                                            <g id="g222-Clipped" mask="url(#mask-35)">
                                                <mask id="mask-37" fill="white">
                                                    <use xlink:href="#path-36"></use>
                                                </mask>
                                                <g id="path208"></g>
                                                <mask id="mask-39" fill="white">
                                                    <use xlink:href="#path-38"></use>
                                                </mask>
                                                <g id="path218"></g>
                                            </g>
                                        </g>
                                        <g id="g388-Clipped">
                                            <mask id="mask-41" fill="white">
                                                <use xlink:href="#path-40"></use>
                                            </mask>
                                            <g id="path232"></g>
                                            <g id="g386" mask="url(#mask-41)" fill="#5DC7E0" fill-rule="nonzero">
                                                <g transform="translate(0.618200, -0.178200)" id="path384">
                                                    <path d="M6,4 L5.129,4.455 L4.258,4 L4.417,4.969 L3.704,5.661 L4.674,5.8 L5.109,6.69 L5.545,5.8 L6.514,5.661 L5.802,4.969 L6,4 Z M10.096,6.354 L7.028,8.747 L6.633,8.747 C6.435,8.232 5.861,7.837 5.148,7.837 C4.456,7.837 3.862,8.212 3.665,8.747 L3.348,8.747 L0.221,6.472 L1.488,4.633 L2.754,5.325 L2.616,0.995 L7.701,0.995 L7.562,5.562 L8.671,4.593 L10.096,6.354 Z M21.554,6.116 C21.276,6.116 21.039,5.879 21.039,5.602 C21.039,5.325 21.276,5.088 21.554,5.088 C21.831,5.088 22.068,5.325 22.068,5.602 C22.068,5.879 21.851,6.116 21.554,6.116 Z M19.852,13.137 C19.654,13.137 19.516,12.979 19.516,12.801 L19.516,6.749 C19.516,6.551 19.674,6.413 19.852,6.413 L23.018,6.413 C23.216,6.413 23.354,6.571 23.354,6.749 L23.354,12.801 C23.354,12.999 23.196,13.137 23.018,13.137 L19.852,13.137 Z M19.713,13.79 L23.216,13.79 C23.533,13.789 23.79,13.533 23.79,13.216 L23.79,5.306 C23.79,4.989 23.532,4.732 23.216,4.732 L19.713,4.732 C19.396,4.732 19.14,4.989 19.14,5.306 L19.14,13.216 C19.14,13.532 19.396,13.79 19.713,13.79 Z"></path>
                                                </g>
                                            </g>
                                        </g>
                                    </g>
                                    <g id="g432-Clipped" transform="translate(18.000000, 25.000000)">
                                        <g id="g260-Clipped">
                                            <mask id="mask-43" fill="white">
                                                <use xlink:href="#path-42"></use>
                                            </mask>
                                            <g id="path236"></g>
                                            <mask id="mask-45" fill="white">
                                                <use xlink:href="#path-44"></use>
                                            </mask>
                                            <g id="path246"></g>
                                            <g id="g254-Clipped" mask="url(#mask-45)">
                                                <mask id="mask-47" fill="white">
                                                    <use xlink:href="#path-46"></use>
                                                </mask>
                                                <g id="path240"></g>
                                                <mask id="mask-49" fill="white">
                                                    <use xlink:href="#path-48"></use>
                                                </mask>
                                                <g id="path250"></g>
                                            </g>
                                        </g>
                                        <g id="g428-Clipped">
                                            <mask id="mask-51" fill="white">
                                                <use xlink:href="#path-50"></use>
                                            </mask>
                                            <g id="path264"></g>
                                            <g id="g428" opacity="0.30000299" mask="url(#mask-51)">
                                                <g transform="translate(0.000000, -1.000000)">
                                                    <g id="g402" transform="translate(0.602100, 0.924300)">
                                                        <path d="M1,1 C0.96,1 0.941,1.02 0.941,1.059 C0.941,1.099 0.96,1.119 1,1.119 C1.04,1.119 1.06,1.099 1.06,1.059 C1.079,1.04 1.04,1 1,1 Z M1,1.375 C0.822,1.375 0.684,1.237 0.684,1.059 C0.684,0.881 0.822,0.743 1,0.743 C1.178,0.743 1.317,0.881 1.317,1.059 C1.317,1.237 1.178,1.376 1,1.376 L1,1.375 Z" id="path400" fill="#FFFFFF" fill-rule="nonzero"></path>
                                                    </g>
                                                    <g id="g410" transform="translate(0.602100, 0.350600)">
                                                        <path d="M1,1 C0.644,1 0.367,1.296 0.367,1.633 C0.367,1.989 0.664,2.266 1,2.266 C1.028,2.266 1.055,2.261 1.082,2.258 C1.283,2.068 1.488,1.877 1.622,1.752 C1.629,1.714 1.633,1.674 1.633,1.633 C1.633,1.277 1.356,1 1,1 M5.017,2.76 C5.017,2.76 5.195,2.74 5.057,2.938 C4.918,3.116 4.74,3.354 3.889,4.065 C3.889,4.065 3.771,4.104 3.711,4.006 C3.652,3.907 3.395,3.61 3.513,3.215 L3.691,2.622 C3.691,2.622 3.454,2.127 3.355,2.068 C3.256,2.008 2.9,1.811 2.682,1.989 C2.464,2.186 2.346,2.384 2.069,2.502 C1.772,2.621 0.16,3.368 0.149,3.373 C0.15,3.371 0.288,3.056 0.505,2.819 C0.556,2.764 0.654,2.667 0.772,2.553 C0.369,2.452 0.07,2.087 0.07,1.653 L0.07,1.651 C0.071,1.138 0.487,0.723 1,0.723 L1.002,0.723 C1.47,0.724 1.856,1.071 1.919,1.521 C1.971,1.506 2.038,1.495 2.128,1.495 L3.75,1.495 L3.889,1.534 C3.889,1.534 3.771,2.701 5.017,2.76" id="path408" fill="#FFFFFF" fill-rule="nonzero"></path>
                                                    </g>
                                                    <g id="g414" transform="translate(0.086400, 2.446800)">
                                                        <path d="M3,1 C3,1 3.119,1.554 2.703,1.554 C2.268,1.554 0.882,1.396 0.882,1.396 C0.882,1.396 2.268,0.783 2.743,0.505 L3,1 Z" id="path412" fill="#FFFFFF" fill-rule="nonzero"></path>
                                                    </g>
                                                    <g id="g418" transform="translate(4.639200, 0.350600)">
                                                        <path d="M1,1 C0.644,1 0.367,1.296 0.367,1.633 C0.367,1.989 0.664,2.266 1,2.266 C1.356,2.266 1.633,1.989 1.633,1.633 C1.633,1.277 1.336,1 1,1 M1,2.582 L0.998,2.582 C0.485,2.582 0.069,2.166 0.07,1.653 L0.07,1.65 C0.071,1.137 0.487,0.722 1,0.723 L1.002,0.723 C1.515,0.724 1.93,1.14 1.93,1.653 L1.93,1.655 C1.929,2.167 1.513,2.583 1,2.582" id="path416" fill="#FFFFFF" fill-rule="nonzero"></path>
                                                    </g>
                                                    <g id="g422" transform="translate(4.639200, 0.924300)">
                                                        <path d="M1,1 C0.96,1 0.94,1.02 0.94,1.059 C0.94,1.099 0.96,1.119 1,1.119 C1.04,1.119 1.059,1.099 1.059,1.059 C1.059,1.04 1.04,1 1,1 M1,1.376 L1,1.375 C0.822,1.375 0.683,1.237 0.683,1.059 C0.683,0.881 0.822,0.743 1,0.743 C1.178,0.743 1.316,0.881 1.316,1.059 C1.316,1.237 1.178,1.376 1,1.376" id="path420" fill="#FFFFFF" fill-rule="nonzero"></path>
                                                    </g>
                                                    <g id="g426" transform="translate(3.095700, 4.376500)">
                                                        <path d="M1,0 C1.12,0 1.218,0.097 1.218,0.217 C1.218,0.337 1.12,0.435 1,0.435 C0.879,0.435 0.782,0.337 0.782,0.217 C0.782,0.097 0.879,0 1,0" id="path424" fill="#FFFFFF" fill-rule="nonzero"></path>
                                                    </g>
                                                </g>
                                            </g>
                                        </g>
                                    </g>
                                    <g id="g446-Clipped" transform="translate(8.000000, 5.000000)">
                                        <mask id="mask-53" fill="white">
                                            <use xlink:href="#path-52"></use>
                                        </mask>
                                        <g id="path268"></g>
                                        <g id="g446" opacity="0.30000299" mask="url(#mask-53)">
                                            <g transform="translate(-1.000000, -1.000000)">
                                                <g id="g440" transform="translate(0.910600, 0.340800)">
                                                    <path d="M9,6 L8.505,6 C8.248,6 8.03,5.782 8.03,5.525 L8.03,3.726 L7.674,3.726 L7.674,3.686 L2.569,3.686 L2.569,3.726 L2.212,3.726 L2.212,5.525 C2.212,5.782 1.995,6 1.738,6 L1.243,6 C0.985,6 0.768,5.782 0.768,5.525 L0.768,1.175 C0.768,0.917 0.985,0.7 1.243,0.7 L1.461,0.7 C1.718,0.7 1.936,0.917 1.936,1.174 L1.936,1.55 L8.308,1.55 L8.308,1.174 C8.308,0.917 8.525,0.699 8.783,0.699 L9,0.699 C9.257,0.699 9.475,0.917 9.475,1.174 L9.475,5.525 C9.475,5.802 9.257,6 9,6" id="path438" fill="#FFFFFF" fill-rule="nonzero"></path>
                                                </g>
                                                <g id="g444" transform="translate(2.605000, 4.371100)">
                                                    <path d="M6,1 L6.02,1 L6.02,3.058 C6.02,3.314 5.802,3.531 5.544,3.531 L1.35,3.531 C1.092,3.531 0.875,3.314 0.875,3.058 L0.875,0.031 L6,0.031 L6,1 Z" id="path442" fill="#FFFFFF" fill-rule="nonzero"></path>
                                                </g>
                                            </g>
                                        </g>
                                    </g>
                                </g>
                            </g>
                        </g>
                        <g id="g484" transform="translate(61.224600, 5.520500)" fill="#FFFFFF" fill-rule="nonzero">
                            <path d="M0.999999999,1 L0.992999999,0.998 L0.959999999,0.998 L0.959999999,1.052 L1.016,1.052 L1.021,1.051 L1.028,1.049 L1.033,1.046 L1.036,1.043 L1.039,1.036 L1.04,1.03 L1.04,1.022 L1.037,1.017 L1.034,1.012 L1.029,1.008 L1.022,1.006 L1.015,1.003 L1.005,1.001 L0.999999999,1 L1.024,1 L0.999999999,1 Z M1.063,1.049 L1.062,1.051 L1.062,1.054 L1.058,1.059 L1.051,1.067 L1.043,1.071 L1.042,1.072 L1.041,1.072 L1.03,1.076 L1.016,1.079 L1,1.08 L0.927,1.08 L0.927,1 L0.927,0.919 L0.927,0.918 L0.96,0.918 L0.96,0.919 L0.96,0.985 L0.993,0.985 L1.033,0.919 L1.061,0.919 L1.021,0.985 L1.029,0.985 L1.039,0.988 L1.047,0.99 L1.053,0.996 L1.055,0.999 L1.059,1.002 L1.059,1.003 L1.062,1.009 L1.062,1.011 L1.063,1.012 L1.065,1.02 L1.067,1.032 L1.065,1.042 L1.063,1.049 Z" id="path486"></path>
                        </g>
                        <g id="g492" transform="translate(57.699200, 6.725600)" fill="#FFFFFF" fill-rule="nonzero">
                            <polygon id="path494" points="1 1 0.998 0.995 1.004 1.002 1.003 1.002"></polygon>
                        </g>
                        <g id="g528-Clipped" transform="translate(7.000000, 16.000000)">
                            <mask id="mask-55" fill="white">
                                <use xlink:href="#path-54"></use>
                            </mask>
                            <g id="path520"></g>
                            <g id="g526" mask="url(#mask-55)" fill="#313131" fill-rule="nonzero">
                                <g transform="translate(0.215300, 0.175300)" id="path524">
                                    <path d="M2,3 C2.078,3 2.117,3.039 2.136,3.078 C2.156,3.117 2.175,3.137 2.175,3.175 C2.175,3.214 2.156,3.253 2.136,3.292 C2.097,3.331 2.059,3.351 2,3.351 L0.559,3.351 L0.559,1.559 L1.824,1.559 L1.824,0.45 L0.812,0.45 C0.792,0.45 0.753,0.45 0.676,0.489 L0.422,0.605 C0.364,0.625 0.325,0.644 0.286,0.644 C0.208,0.644 0.13,0.585 0.13,0.469 C0.13,0.391 0.169,0.333 0.228,0.313 L0.539,0.177 C0.617,0.138 0.714,0.119 0.812,0.119 L1.786,0.119 C1.883,0.119 1.98,0.158 2.058,0.235 C2.136,0.313 2.175,0.391 2.175,0.507 L2.175,1.501 C2.175,1.598 2.136,1.696 2.058,1.774 C1.98,1.851 1.883,1.89 1.786,1.89 L0.89,1.89 L0.89,3 L2,3 Z M51.536,0.411 L50.173,0.411 L50.173,2.981 L51.536,2.981 L51.536,0.411 Z M51.75,3.234 C51.672,3.312 51.594,3.351 51.497,3.351 L50.173,3.351 C50.076,3.351 49.978,3.312 49.919,3.234 C49.841,3.156 49.803,3.078 49.803,2.981 L49.803,0.469 C49.803,0.372 49.842,0.293 49.9,0.216 C49.978,0.138 50.056,0.099 50.173,0.099 L51.477,0.099 C51.575,0.099 51.672,0.138 51.75,0.216 C51.828,0.293 51.847,0.372 51.847,0.469 L51.847,2.981 C51.867,3.078 51.828,3.156 51.75,3.234 Z M48.751,0.411 L47.388,0.411 L47.388,2.981 L48.751,2.981 L48.751,0.411 Z M48.732,3.331 L47.408,3.331 C47.31,3.331 47.213,3.292 47.155,3.214 C47.077,3.137 47.038,3.059 47.038,2.961 L47.038,0.45 C47.038,0.352 47.077,0.274 47.135,0.197 C47.213,0.119 47.291,0.08 47.408,0.08 L48.712,0.08 C48.809,0.08 48.907,0.119 48.985,0.197 C49.063,0.274 49.083,0.352 49.083,0.45 L49.083,2.981 C49.083,3.078 49.043,3.156 48.965,3.234 C48.907,3.292 48.81,3.331 48.732,3.331 Z M45.967,0.411 L44.604,0.411 L44.604,2.981 L45.967,2.981 L45.967,0.411 Z M45.948,3.331 L44.624,3.331 C44.526,3.331 44.428,3.292 44.371,3.214 C44.292,3.137 44.253,3.059 44.253,2.961 L44.253,0.45 C44.253,0.352 44.292,0.274 44.351,0.197 C44.428,0.119 44.506,0.08 44.624,0.08 L45.928,0.08 C46.026,0.08 46.123,0.119 46.201,0.197 C46.279,0.274 46.298,0.352 46.298,0.45 L46.298,2.981 C46.298,3.078 46.259,3.156 46.181,3.234 C46.12,3.297 46.036,3.332 45.948,3.331 Z M43.182,0.411 L41.82,0.411 L41.82,2.981 L43.182,2.981 L43.182,0.411 Z M43.163,3.331 L41.839,3.331 C41.742,3.331 41.644,3.292 41.585,3.214 C41.508,3.137 41.469,3.059 41.469,2.961 L41.469,0.45 C41.469,0.352 41.508,0.274 41.566,0.197 C41.644,0.119 41.722,0.08 41.839,0.08 L43.143,0.08 C43.241,0.08 43.338,0.119 43.417,0.197 C43.494,0.274 43.513,0.352 43.513,0.45 L43.513,2.981 C43.513,3.078 43.474,3.156 43.396,3.234 C43.335,3.297 43.25,3.332 43.163,3.331 Z M37.068,3.331 L35.569,3.331 C35.51,3.331 35.472,3.312 35.433,3.273 C35.394,3.234 35.394,3.195 35.394,3.156 C35.394,3.059 35.472,2.981 35.569,2.981 L37.127,2.981 L37.127,1.89 L35.803,1.89 C35.706,1.89 35.608,1.851 35.53,1.774 C35.453,1.696 35.414,1.598 35.414,1.501 L35.414,0.08 L37.302,0.08 C37.4,0.08 37.458,0.138 37.458,0.235 C37.458,0.293 37.418,0.333 37.4,0.372 C37.361,0.411 37.322,0.411 37.283,0.411 L35.745,0.411 L35.745,1.52 L37.069,1.52 C37.166,1.52 37.263,1.559 37.341,1.637 C37.418,1.715 37.458,1.812 37.458,1.91 L37.458,2.922 C37.458,3.02 37.418,3.117 37.341,3.195 C37.263,3.292 37.185,3.332 37.069,3.332 L37.068,3.331 Z M34.576,1.52 C34.556,1.52 34.499,1.52 34.459,1.481 C34.42,1.443 34.401,1.404 34.401,1.365 L34.401,0.45 L33.894,0.45 L33.894,3.331 L32.882,3.331 C32.765,3.331 32.707,3.273 32.707,3.156 C32.707,3.059 32.785,2.981 32.882,2.981 L33.563,2.981 L33.563,0.411 L32.882,0.411 C32.785,0.411 32.707,0.352 32.707,0.254 C32.707,0.158 32.765,0.08 32.882,0.08 L34.576,0.08 C34.673,0.08 34.751,0.138 34.751,0.254 L34.751,1.326 C34.751,1.365 34.732,1.423 34.693,1.443 C34.634,1.501 34.595,1.52 34.576,1.52 Z M31.636,0.411 L30.273,0.411 L30.273,2.981 L31.636,2.981 L31.636,0.411 Z M31.617,3.331 L30.292,3.331 C30.195,3.331 30.097,3.292 30.039,3.214 C29.961,3.137 29.922,3.059 29.922,2.961 L29.922,0.45 C29.922,0.352 29.961,0.274 30.019,0.197 C30.097,0.119 30.175,0.08 30.292,0.08 L31.597,0.08 C31.694,0.08 31.792,0.119 31.87,0.197 C31.947,0.274 31.966,0.352 31.966,0.45 L31.966,2.981 C31.966,3.078 31.927,3.156 31.85,3.234 C31.792,3.292 31.694,3.331 31.616,3.331 L31.617,3.331 Z M27.488,3 L28.851,3 L28.851,2.26 L27.488,2.26 L27.488,3 Z M29.027,3.351 L27.333,3.351 C27.293,3.351 27.254,3.331 27.215,3.312 C27.177,3.273 27.157,3.234 27.157,3.175 L27.157,2.085 C27.157,2.046 27.177,2.007 27.196,1.968 C27.235,1.929 27.274,1.91 27.333,1.91 L28.851,1.91 L28.851,0.43 L28.812,0.43 C28.774,0.43 28.735,0.43 28.715,0.411 C28.676,0.391 28.657,0.352 28.637,0.313 L28.618,0.293 L28.618,0.274 C28.618,0.235 28.618,0.215 28.637,0.176 C28.657,0.119 28.715,0.099 28.774,0.099 L28.988,0.099 C29.085,0.099 29.144,0.157 29.144,0.274 L29.144,3.175 C29.144,3.234 29.124,3.273 29.085,3.312 C29.085,3.331 29.066,3.351 29.027,3.351 Z M22.971,1.54 L22.971,0.43 L21.608,0.43 L21.608,1.54 L22.971,1.54 Z M22.542,1.89 L22.036,1.89 L22.036,3 L22.542,3 L22.542,1.89 Z M23.205,1.774 C23.166,1.812 23.107,1.832 23.049,1.851 C23.01,1.871 22.951,1.871 22.893,1.871 L22.893,3.137 C22.893,3.175 22.874,3.214 22.854,3.253 C22.815,3.292 22.776,3.312 22.737,3.312 L21.88,3.312 C21.783,3.312 21.705,3.253 21.705,3.137 L21.705,1.89 C21.647,1.89 21.588,1.871 21.53,1.851 C21.452,1.832 21.414,1.792 21.355,1.754 C21.316,1.715 21.277,1.657 21.277,1.618 C21.257,1.579 21.257,1.541 21.257,1.501 L21.257,0.469 C21.257,0.372 21.296,0.274 21.375,0.197 C21.452,0.119 21.55,0.08 21.647,0.08 L22.913,0.08 C23.01,0.08 23.107,0.119 23.185,0.197 C23.263,0.274 23.302,0.372 23.302,0.469 L23.302,1.501 C23.302,1.54 23.302,1.579 23.282,1.618 C23.282,1.676 23.244,1.735 23.205,1.774 Z M18.823,3.292 C18.784,3.253 18.765,3.214 18.765,3.175 L18.765,3 C18.765,2.903 18.843,2.825 18.94,2.825 C18.979,2.825 19.038,2.844 19.077,2.903 C19.096,2.922 19.096,2.961 19.115,3 L20.459,3 L20.459,2.163 L19.661,1.501 C19.622,1.481 19.602,1.423 19.602,1.345 L19.602,0.293 C19.602,0.254 19.622,0.196 19.66,0.176 C19.699,0.138 19.738,0.119 19.796,0.119 C19.894,0.119 19.972,0.196 19.972,0.293 L19.972,1.306 L20.77,1.988 C20.809,2.027 20.829,2.065 20.829,2.125 L20.829,3.37 L18.959,3.37 C18.9,3.331 18.842,3.331 18.823,3.292 Z M15.923,3 C16.001,3 16.04,3.039 16.06,3.078 C16.079,3.117 16.099,3.137 16.099,3.175 C16.099,3.214 16.079,3.253 16.06,3.292 C16.021,3.331 15.982,3.351 15.923,3.351 L14.482,3.351 L14.482,1.559 L15.748,1.559 L15.748,0.45 L14.735,0.45 C14.716,0.45 14.677,0.45 14.599,0.489 L14.346,0.605 C14.288,0.625 14.249,0.644 14.21,0.644 C14.132,0.644 14.054,0.585 14.054,0.469 C14.054,0.391 14.093,0.333 14.151,0.313 L14.463,0.177 C14.541,0.138 14.638,0.119 14.736,0.119 L15.709,0.119 C15.807,0.119 15.904,0.158 15.982,0.235 C16.06,0.313 16.099,0.391 16.099,0.507 L16.099,1.501 C16.099,1.598 16.06,1.696 15.982,1.774 C15.885,1.851 15.807,1.89 15.709,1.89 L14.813,1.89 L14.813,3 L15.923,3 Z M7.179,3 C7.257,3 7.296,3.039 7.315,3.078 C7.335,3.117 7.354,3.137 7.354,3.175 C7.354,3.214 7.335,3.253 7.315,3.292 C7.277,3.331 7.238,3.351 7.179,3.351 L5.738,3.351 L5.738,1.559 L7.004,1.559 L7.004,0.45 L5.992,0.45 C5.972,0.45 5.933,0.45 5.855,0.489 L5.602,0.605 C5.543,0.625 5.505,0.644 5.466,0.644 C5.388,0.644 5.31,0.585 5.31,0.469 C5.31,0.391 5.349,0.333 5.407,0.313 L5.719,0.177 C5.797,0.138 5.894,0.119 5.991,0.119 L6.965,0.119 C7.062,0.119 7.16,0.158 7.237,0.235 C7.315,0.313 7.354,0.391 7.354,0.507 L7.354,1.501 C7.354,1.598 7.315,1.696 7.237,1.774 C7.16,1.851 7.062,1.89 6.965,1.89 L6.069,1.89 L6.069,3 L7.179,3 Z M9.809,1.715 C9.868,1.774 9.926,1.851 9.945,1.91 C9.984,1.988 9.984,2.066 9.984,2.164 L9.984,2.942 C9.984,3.059 9.945,3.137 9.868,3.215 C9.79,3.292 9.712,3.332 9.595,3.332 L8.096,3.332 C7.999,3.332 7.92,3.273 7.92,3.156 C7.92,3.059 7.979,2.981 8.096,2.981 L9.653,2.981 L9.653,2.125 C9.653,2.066 9.634,2.007 9.576,1.949 C9.517,1.89 9.479,1.871 9.401,1.871 L8.543,1.871 C8.446,1.871 8.388,1.793 8.388,1.696 C8.388,1.598 8.446,1.521 8.543,1.521 L9.4,1.521 C9.478,1.521 9.537,1.501 9.576,1.443 C9.634,1.384 9.653,1.326 9.653,1.267 L9.653,0.391 L8.135,0.391 C8.037,0.391 7.959,0.333 7.959,0.216 C7.959,0.119 8.018,0.041 8.135,0.041 L9.614,0.041 C9.712,0.041 9.809,0.08 9.887,0.158 C9.965,0.236 10.004,0.333 10.004,0.43 L10.004,1.306 C10.004,1.384 9.984,1.462 9.945,1.541 C9.907,1.58 9.868,1.657 9.809,1.715 Z M4.63,1.715 C4.688,1.774 4.747,1.851 4.766,1.91 C4.805,1.988 4.805,2.066 4.805,2.164 L4.805,2.942 C4.805,3.059 4.766,3.137 4.688,3.215 C4.61,3.292 4.532,3.332 4.416,3.332 L2.917,3.332 C2.819,3.332 2.741,3.273 2.741,3.156 C2.741,3.059 2.799,2.981 2.917,2.981 L4.474,2.981 L4.474,2.125 C4.474,2.066 4.455,2.007 4.396,1.949 C4.337,1.89 4.299,1.871 4.221,1.871 L3.364,1.871 C3.267,1.871 3.208,1.793 3.208,1.696 C3.208,1.598 3.267,1.521 3.364,1.521 L4.221,1.521 C4.299,1.521 4.357,1.501 4.396,1.443 C4.455,1.384 4.474,1.326 4.474,1.267 L4.474,0.391 L2.955,0.391 C2.858,0.391 2.78,0.333 2.78,0.216 C2.78,0.119 2.838,0.041 2.955,0.041 L4.435,0.041 C4.532,0.041 4.63,0.08 4.708,0.158 C4.786,0.236 4.824,0.333 4.824,0.43 L4.824,1.306 C4.824,1.384 4.805,1.462 4.766,1.541 C4.727,1.58 4.688,1.657 4.63,1.715 Z M18.52,1.481 C18.5,1.501 18.461,1.501 18.423,1.52 L18.364,1.52 L18.364,2.787 C18.364,2.825 18.345,2.884 18.306,2.903 C18.267,2.942 18.228,2.942 18.189,2.942 C18.092,2.942 18.033,2.884 18.033,2.767 L18.033,1.501 L17.099,1.501 L17.099,3.117 C17.099,3.175 17.079,3.214 17.06,3.253 C17.001,3.331 16.884,3.331 16.826,3.272 C16.787,3.234 16.768,3.195 16.768,3.136 L16.768,1.15 L18.033,1.15 L18.033,0.215 C18.033,0.119 18.092,0.041 18.189,0.041 C18.287,0.041 18.364,0.099 18.364,0.215 L18.364,1.15 C18.423,1.15 18.461,1.15 18.5,1.189 C18.52,1.208 18.579,1.248 18.579,1.345 C18.579,1.404 18.579,1.442 18.52,1.481 Z"></path>
                                </g>
                            </g>
                        </g>
                        <g id="g544-Clipped" transform="translate(0.000000, 16.000000)">
                            <mask id="mask-57" fill="white">
                                <use xlink:href="#path-56"></use>
                            </mask>
                            <g id="path536"></g>
                            <g id="g542" mask="url(#mask-57)" fill="#5DC7E0" fill-rule="nonzero">
                                <g transform="translate(-0.141100, 0.656300)" id="path540">
                                    <path d="M8,1 C7.782,1 7.604,1.178 7.604,1.396 C7.604,1.613 7.782,1.791 8,1.791 C8.218,1.791 8.396,1.613 8.396,1.396 C8.396,1.197 8.218,1 8,1 Z M5.843,2.147 C5.784,2.362 5.607,2.523 5.388,2.562 L5.388,3.393 C5.981,3.354 6.476,2.918 6.635,2.365 L5.843,2.147 Z M5.17,2.562 C4.952,2.522 4.774,2.345 4.715,2.127 L3.923,2.325 C4.064,2.91 4.57,3.335 5.17,3.373 L5.17,2.562 Z M2.598,1 C2.38,1 2.202,1.178 2.202,1.396 C2.202,1.613 2.38,1.791 2.598,1.791 C2.815,1.791 2.993,1.613 2.993,1.396 C3.013,1.197 2.835,1 2.598,1 Z M9.128,2.266 L7.03,2.266 C6.951,2.78 6.615,3.235 6.179,3.492 L7.149,3.492 C7.268,3.492 7.386,3.591 7.386,3.709 L7.386,3.769 C7.386,3.888 7.288,4.006 7.169,4.006 L5.526,4.006 L5.526,5.905 C5.526,6.023 5.427,6.142 5.309,6.142 L5.25,6.142 C5.13,6.142 5.012,6.043 5.012,5.924 L5.012,4.026 L3.37,4.026 C3.25,4.026 3.132,3.927 3.132,3.809 L3.132,3.749 C3.132,3.63 3.231,3.512 3.35,3.512 L4.339,3.512 C3.904,3.254 3.587,2.8 3.488,2.285 L1.371,2.285 C1.153,2.285 0.995,2.107 0.995,1.91 L0.995,1.812 C0.995,1.594 1.173,1.436 1.371,1.436 L1.885,1.436 C1.882,1.067 2.179,0.766 2.547,0.763 L2.559,0.763 C2.934,0.763 3.251,1.06 3.251,1.436 L3.547,1.436 C3.785,0.724 4.458,0.209 5.25,0.209 C6.041,0.209 6.714,0.723 6.951,1.435 L7.288,1.435 C7.288,1.06 7.584,0.763 7.98,0.763 C8.349,0.76 8.65,1.056 8.653,1.424 L8.653,1.435 L9.108,1.435 C9.326,1.435 9.484,1.613 9.484,1.811 L9.484,1.91 C9.504,2.107 9.326,2.266 9.128,2.266 Z"></path>
                                </g>
                            </g>
                        </g>
                    </g>
                </g>
                <g id="Group-2-Copy" transform="translate(51.000000, 30.000000)" fill-rule="nonzero">
                    <polygon id="Shape" fill="#F26522" points="2.85714286 0.714285714 6.42857143 0.714285714 6.42857143 5.71428571 2.85714286 5.71428571"></polygon>
                    <path d="M3.82054962,3.21428571 C3.81939074,2.22803886 4.25430335,1.29599547 5,0.686653965 C3.7326953,-0.348635322 1.91317282,-0.19751828 0.819931208,1.03382177 C-0.273310403,2.26516182 -0.273310403,4.16340961 0.819931208,5.39474966 C1.91317282,6.62608971 3.7326953,6.77720675 5,5.74191746 C4.25430335,5.13257596 3.81939074,4.20053257 3.82054962,3.21428571" id="Shape" fill="#E51B24"></path>
                    <path d="M10,3.21428571 C9.99993847,4.44469631 9.32451542,5.56711846 8.26046469,6.10505613 C7.19641395,6.64299379 5.9304477,6.50205345 5,5.74206775 C5.74595603,5.13266846 6.18153215,4.20079242 6.18153215,3.21428571 C6.18153215,2.22777901 5.74595603,1.29590297 5,0.686503674 C5.9304477,-0.0734820173 7.19641395,-0.214422366 8.26046469,0.323515303 C9.32451542,0.861452971 9.99993847,1.98387512 10,3.21428571" id="Shape" fill="#F99F1C"></path>
                    <path d="M1.38741851,9.24575806 L1.38741851,8.62439328 C1.39370208,8.51871701 1.35966645,8.41505856 1.29392495,8.33965057 C1.22818346,8.26424258 1.13703591,8.22431117 1.04354886,8.22996172 C0.920253829,8.22062336 0.802229794,8.28790267 0.735498967,8.40556481 C0.674668962,8.29183049 0.563958482,8.22454767 0.446552944,8.22996172 C0.344215914,8.22523425 0.247201731,8.28165016 0.191038693,8.37854895 L0.191038693,8.25157441 L0,8.25157441 L0,9.24305647 L0.193426676,9.24305647 L0.193426676,8.70273927 C0.183132626,8.6329521 0.201507765,8.56166123 0.243344316,8.50907151 C0.285180867,8.4564818 0.3459192,8.42832482 0.408345206,8.43258067 C0.534908339,8.43258067 0.599383898,8.5244346 0.599383898,8.70273927 L0.599383898,9.24305647 L0.790422591,9.24305647 L0.790422591,8.70273927 C0.780128541,8.6329521 0.798503679,8.56166123 0.84034023,8.50907151 C0.882176782,8.4564818 0.942915114,8.42832482 1.00534112,8.43258067 C1.13668022,8.43258067 1.19637981,8.5244346 1.19637981,8.70273927 L1.19637981,9.24305647 L1.38741851,9.24575806 Z M4.23389503,8.25157441 L3.92106917,8.25157441 L3.92106917,7.95439995 L3.73003047,7.95439995 L3.73003047,8.25157441 L3.55331968,8.25157441 L3.55331968,8.44879019 L3.73003047,8.44879019 L3.73003047,8.89995505 C3.73003047,9.12958986 3.80883393,9.26737074 4.0333044,9.26737074 C4.11760279,9.2680207 4.20035974,9.24180569 4.27210276,9.19172634 L4.21717914,9.00801849 C4.16591132,9.04309698 4.10751802,9.06263639 4.0476323,9.06475179 C3.95211295,9.06475179 3.92106917,8.99721214 3.92106917,8.89995505 L3.92106917,8.45419336 L4.23150704,8.45419336 L4.23389503,8.25157441 Z M5.85533593,8.22996172 C5.75772782,8.22344624 5.66525674,8.27993826 5.61653756,8.37584737 L5.61653756,8.25157441 L5.42788685,8.25157441 L5.42788685,9.24305647 L5.61892555,9.24305647 L5.61892555,8.69193293 C5.61892555,8.52713618 5.68101312,8.43798384 5.80518827,8.43798384 C5.84601915,8.43705453 5.88660582,8.44531954 5.92458746,8.46229812 L5.98428705,8.25967917 C5.94066352,8.24172703 5.89459188,8.23258282 5.84817198,8.23266331 L5.85533593,8.22996172 Z M3.39093679,8.33532358 C3.28342646,8.26338247 3.15996066,8.22775939 3.03512723,8.23266331 C2.81304475,8.23266331 2.66976573,8.35423468 2.66976573,8.55145046 C2.66976573,8.74866623 2.77483701,8.82160906 2.97065167,8.84322174 L3.06139505,8.85672967 C3.16407835,8.87293919 3.214226,8.90535822 3.214226,8.95938994 C3.214226,9.01342166 3.14497448,9.07825972 3.01363538,9.07825972 C2.909214,9.08100102 2.80687735,9.04493963 2.72230137,8.97559946 L2.63155799,9.14309779 C2.74278435,9.23045333 2.87591551,9.27497463 3.01124739,9.27007233 C3.26437366,9.27007233 3.41004066,9.13499303 3.41004066,8.94588201 C3.41004066,8.75677099 3.29541745,8.67572341 3.10437876,8.64870755 L3.01363538,8.63519962 C2.93005595,8.63519962 2.86558039,8.60278059 2.86558039,8.53794253 C2.86558039,8.47310446 2.92766796,8.42177433 3.03273925,8.42177433 C3.12829121,8.42312821 3.22196972,8.45194756 3.30496938,8.50552349 L3.39093679,8.33532358 Z M8.49405787,8.23266331 C8.39644976,8.22614782 8.30397868,8.28263985 8.25525951,8.37854895 L8.25525951,8.25157441 L8.0666088,8.25157441 L8.0666088,9.24305647 L8.25764749,9.24305647 L8.25764749,8.69193293 C8.25764749,8.52713618 8.31973506,8.43798384 8.44391021,8.43798384 C8.48474109,8.43705453 8.52532776,8.44531954 8.5633094,8.46229812 L8.62300899,8.25967917 C8.5793984,8.24167239 8.53331811,8.23252646 8.48689392,8.23266331 L8.49405787,8.23266331 Z M6.05115059,8.75136782 C6.04593351,8.89450466 6.09525936,9.03329277 6.18660785,9.13250382 C6.27795634,9.23171487 6.40254413,9.28180952 6.52874732,9.27007233 C6.64322793,9.27616632 6.75560864,9.23378662 6.84396116,9.15120255 L6.7508298,8.97830104 C6.68222699,9.03727434 6.59818546,9.06865018 6.51203144,9.06745338 C6.36706424,9.05230732 6.25616201,8.91471995 6.25616201,8.75001703 C6.25616201,8.5853141 6.36706424,8.44772674 6.51203144,8.43258067 C6.59818546,8.43138387 6.68222699,8.46275971 6.7508298,8.52173301 L6.84396116,8.34883151 C6.75572258,8.26601516 6.64325996,8.22360457 6.52874732,8.22996172 C6.4023068,8.21904567 6.2777711,8.2697911 6.18652155,8.36941086 C6.095272,8.46903062 6.04601061,8.60802446 6.05115059,8.75136782 Z M7.83497438,8.75136782 L7.83497438,8.25157441 L7.64393569,8.25157441 L7.64393569,8.37314578 C7.57804895,8.27647018 7.47473601,8.22206028 7.36692958,8.22726014 C7.12588212,8.24692797 6.93920217,8.47390405 6.93920217,8.74731544 C6.93920217,9.02072683 7.12588212,9.24770291 7.36692958,9.26737074 C7.47473601,9.27257061 7.57804895,9.2181607 7.64393569,9.1214851 L7.64393569,9.24305647 L7.83497438,9.24305647 L7.83497438,8.75136782 Z M7.11857928,8.75136782 C7.12383041,8.58835663 7.24329167,8.45999163 7.3874597,8.46244708 C7.53162773,8.46490254 7.64761926,8.59727776 7.64853051,8.76039391 C7.64944177,8.92351005 7.5349385,9.05753336 7.39080942,9.06205021 C7.31773373,9.06296972 7.24762271,9.02940706 7.19732449,8.96942755 C7.14702627,8.90944804 7.12108816,8.82847423 7.12574324,8.74596465 L7.11857928,8.75136782 Z M4.82611497,8.22455855 C4.58508116,8.24746466 4.40071063,8.47728077 4.4038517,8.75090569 C4.40699277,9.02453061 4.59657656,9.24885238 4.83805489,9.26466916 C4.96836907,9.27014638 5.09589595,9.22109309 5.19625244,9.12688827 L5.10312108,8.9674947 C5.03049298,9.03307631 4.94052909,9.06922191 4.84760683,9.07015497 C4.78420858,9.07768977 4.72077911,9.0562344 4.67144157,9.0105661 C4.62210402,8.9648978 4.59095446,8.89880802 4.58492862,8.82701223 L5.23446018,8.82701223 L5.23446018,8.74326306 C5.2458645,8.61034505 5.20733575,8.47812837 5.12829524,8.37894354 C5.04925473,8.27975871 4.93698936,8.22274978 4.81895102,8.22185697 L4.82611497,8.22455855 Z M4.81895102,8.41637116 C4.87658825,8.41492229 4.93237219,8.4394441 4.97402381,8.4845389 C5.01567544,8.5296337 5.03978066,8.59160517 5.0410335,8.65681231 L4.58970459,8.65681231 C4.60315255,8.51931916 4.70623061,8.41553198 4.82850296,8.41637116 L4.81895102,8.41637116 Z M9.60447027,8.74326306 L9.60447027,7.85714286 L9.41343158,7.85714286 L9.41343158,8.37584737 C9.34728859,8.27953475 9.24415134,8.22521738 9.13642548,8.22996172 C8.89537801,8.24962956 8.70869807,8.47660564 8.70869807,8.75001703 C8.70869807,9.02342841 8.89537801,9.2504045 9.13642548,9.27007233 C9.24415134,9.27481667 9.34728859,9.2204993 9.41343158,9.12418669 L9.41343158,9.24575806 L9.60447027,9.24575806 L9.60447027,8.74326306 Z M8.88807517,8.74326306 C8.89715507,8.5812149 9.01859174,8.45677962 9.16202613,8.46254748 C9.30546053,8.46831535 9.41878144,8.60219083 9.41766861,8.76455937 C9.41655579,8.9269279 9.30141354,9.0587993 9.15791733,9.06205021 C9.08484163,9.06296972 9.01473062,9.02940706 8.9644324,8.96942755 C8.91413418,8.90944804 8.88819606,8.82847423 8.89285114,8.74596465 L8.88807517,8.74326306 Z M2.45962317,8.74596465 L2.45962317,8.25157441 L2.27336044,8.25157441 L2.27336044,8.37314578 C2.20721745,8.27683317 2.1040802,8.22251579 1.99635434,8.22726014 C1.75530687,8.24692797 1.56862693,8.47390405 1.56862693,8.74731544 C1.56862693,9.02072683 1.75530687,9.24770291 1.99635434,9.26737074 C2.10331691,9.27385185 2.20647,9.2215382 2.27336044,9.12688827 L2.27336044,9.24845964 L2.46439913,9.24845964 L2.45962317,8.74596465 Z M1.74322807,8.74596465 C1.75104513,8.58381958 1.87152458,8.45817319 2.01500911,8.46252787 C2.15849364,8.46688255 2.27284533,8.59965593 2.27296697,8.76204193 C2.27308861,8.92442794 2.15893601,9.0574204 2.01545821,9.06205021 C1.94238251,9.06296972 1.8722715,9.02940706 1.82197328,8.96942755 C1.77167506,8.90944804 1.74573694,8.82847423 1.75039202,8.74596465 L1.74322807,8.74596465 Z M9.91490815,9.102574 C9.92672947,9.09988148 9.93890658,9.09988148 9.9507279,9.102574 C9.96144046,9.107582 9.97117734,9.11492571 9.97938371,9.12418669 C9.98739484,9.1336311 9.99386284,9.14460723 9.99848758,9.15660572 C10.0004529,9.16911509 10.0004529,9.18191855 9.99848758,9.19442792 C10.0005041,9.20693211 10.0005041,9.21974593 9.99848758,9.23225013 C9.99362652,9.24329016 9.98716974,9.25333416 9.97938371,9.26196757 C9.97110251,9.27112462 9.96138445,9.27845415 9.9507279,9.28358026 C9.93892043,9.28642563 9.92671562,9.28642563 9.91490815,9.28358026 C9.89144225,9.28397538 9.86891066,9.27319092 9.85282057,9.25386281 C9.84474836,9.24551382 9.83825041,9.23540578 9.8337167,9.22414537 C9.83124909,9.21169251 9.83124909,9.19877602 9.8337167,9.18632316 C9.83132563,9.17386086 9.83132563,9.16096326 9.8337167,9.14850096 C9.84339111,9.12522676 9.8604351,9.10690858 9.88147638,9.09717083 C9.8932977,9.09447831 9.90547481,9.09447831 9.91729613,9.09717083 L9.91490815,9.102574 Z M9.91729613,9.27277392 L9.94356395,9.27277392 C9.95165313,9.26913502 9.95897552,9.26361236 9.9650558,9.2565644 C9.97118328,9.24959025 9.97605004,9.24133141 9.97938371,9.23225013 C9.98112054,9.22244175 9.98112054,9.21234105 9.97938371,9.20253268 C9.98125712,9.19274023 9.98125712,9.18260768 9.97938371,9.17281523 C9.97605004,9.16373395 9.97118328,9.15547511 9.9650558,9.14850096 L9.94356395,9.13229144 L9.89102831,9.13229144 L9.86953646,9.14850096 C9.86330663,9.15537974 9.85842504,9.16366374 9.85520856,9.17281523 C9.85298426,9.18256124 9.85298426,9.19278668 9.85520856,9.20253268 C9.85308392,9.21229268 9.85308392,9.22249012 9.85520856,9.23225013 C9.85842504,9.24140162 9.86330663,9.24968562 9.86953646,9.2565644 L9.89102831,9.27277392 L9.91729613,9.27277392 Z M9.91729613,9.14850096 C9.92505163,9.14561453 9.93342047,9.14561453 9.94117597,9.14850096 C9.94383411,9.15539137 9.94383411,9.16322324 9.94117597,9.17011365 C9.94318984,9.17621148 9.94318984,9.18292691 9.94117597,9.18902475 C9.93494356,9.19112692 9.92830451,9.19112692 9.9220721,9.18902475 L9.94833992,9.22414537 L9.92684807,9.22414537 L9.90296823,9.18902475 L9.90296823,9.22414537 L9.88625234,9.22414537 L9.88625234,9.13229144 L9.91729613,9.14850096 Z M9.89819226,9.16471048 L9.89819226,9.18902475 L9.92923605,9.18902475 L9.91490815,9.18902475 L9.89819226,9.16471048 Z" id="Shape" fill="#000000"></path>
                </g>
            </g>
        </g>
    </g>
</svg>