<?xml version="1.0" encoding="UTF-8"?>
<svg width="66px" height="50px" viewBox="0 0 66 50" version="1.1" xmlns="http://www.w3.org/2000/svg" xmlns:xlink="http://www.w3.org/1999/xlink">
    <!-- Generator: Sketch 54.1 (76490) - https://sketchapp.com -->
    <title>Slice</title>
    <desc>Created with Sketch.</desc>
    <g id="Page-1" stroke="none" stroke-width="1" fill="none" fill-rule="evenodd">
        <g id="Banco-del-Chaco" transform="translate(0.000000, 12.000000)">
            <rect id="Rectangle" fill="#274896" x="0" y="11" width="22" height="13"></rect>
            <rect id="Rectangle" stroke="#FFFFFF" stroke-width="0.863" x="0" y="11" width="22" height="13"></rect>
            <rect id="Rectangle" fill="#9F9F9E" x="0" y="0" width="22" height="10"></rect>
            <rect id="Rectangle" stroke="#FFFFFF" stroke-width="0.863" x="0" y="0" width="22" height="10"></rect>
            <path d="M24.7379562,15.6422722 C24.7953285,15.6537112 24.849635,15.6615105 24.9026277,15.6682699 C24.9569343,15.6739893 25.0059854,15.6771091 25.0524088,15.6771091 C25.4522628,15.6771091 25.7544526,15.5325621 25.9567883,15.2450279 C26.1591241,14.9611335 26.260292,14.5326921 26.260292,13.9628233 C26.260292,13.3882751 26.1652555,12.9749123 25.9782482,12.722735 C25.790365,12.4700377 25.4824818,12.3426492 25.0576642,12.3426492 C25.0291971,12.3426492 24.9670073,12.344209 24.8693431,12.3478487 C24.8176642,12.3504485 24.7778102,12.3514884 24.7475912,12.3535682 C24.7423358,12.6125049 24.7366423,12.8932796 24.7353285,13.1938126 C24.7313869,13.4927856 24.730073,13.8260757 24.730073,14.1921227 C24.730073,14.5800078 24.730073,14.8753412 24.7322628,15.0765631 C24.7331387,15.278305 24.7353285,15.467048 24.7379562,15.6422722 M24,16 C24.0153285,15.8289354 24.0280292,15.6381126 24.0367883,15.4228519 C24.0446715,15.2065514 24.0490511,14.9065384 24.0490511,14.5243728 L24.0490511,14.0044196 L24.0490511,13.6882881 C24.0490511,13.2546471 24.0446715,12.9151176 24.0367883,12.6686598 C24.0275912,12.422202 24.0153285,12.199662 24,12.00052 C24.0578102,12.0093592 24.1164964,12.0145587 24.1729927,12.0176784 C24.2308029,12.0228779 24.2921168,12.0254777 24.3564964,12.0254777 C24.4545985,12.0254777 24.6065693,12.0197582 24.8154745,12.0119589 C25.0243796,12.0051995 25.1837956,12 25.2945985,12 C25.6007299,12 25.8429197,12.0285974 26.0220438,12.0863122 C26.1994161,12.1435071 26.3540146,12.2386585 26.4862774,12.3702067 C26.6505109,12.5355518 26.7766423,12.7502925 26.8672993,13.0165085 C26.9553285,13.2837645 27,13.5806577 27,13.9082283 C27,14.6044456 26.8423358,15.1264786 26.5265693,15.4764071 C26.2112409,15.8237359 25.7386861,15.99948 25.110219,15.99948 C24.9985401,15.99948 24.8548905,15.9953204 24.6818978,15.989081 C24.5080292,15.9844014 24.3906569,15.9802418 24.330219,15.9802418 C24.2706569,15.9802418 24.1861314,15.9849214 24.0792701,15.9932406 C24.0446715,15.9953204 24.0179562,15.9974002 24,16" id="Shape" fill="#274896"></path>
            <path d="M28,16 C28.0207612,15.7924847 28.036085,15.5563646 28.0459713,15.2911195 C28.0558576,15.0263945 28.0598122,14.5978416 28.0598122,14.0039007 L28.0598122,13.7121311 C28.0598122,13.2684956 28.0553633,12.923677 28.0459713,12.6735145 C28.0355907,12.4238721 28.0207612,12.1991939 28,12 C28.1616411,12.0088415 28.329214,12.0140424 28.5007415,12.0171629 C28.6737519,12.0223638 28.8531883,12.0249642 29.0410282,12.0249642 C29.2293623,12.0249642 29.4008898,12.0223638 29.5580821,12.0171629 C29.7137914,12.0135223 29.862086,12.0083214 30,12 C29.990608,12.0655311 29.9861592,12.11754 29.9836876,12.1523859 C29.9822046,12.1893122 29.9802274,12.2220778 29.9802274,12.252763 C29.9802274,12.2844884 29.9822046,12.3141334 29.9836876,12.3474191 C29.9861592,12.3827851 29.9911023,12.4327136 30,12.4972045 C29.7409787,12.4790014 29.5180425,12.4659992 29.329214,12.4550774 C29.1393969,12.4425952 28.9747899,12.4379144 28.8358873,12.435314 C28.8279783,12.5055259 28.8230351,12.5809388 28.8215522,12.6615525 C28.8185863,12.7421662 28.8171033,12.8597062 28.8171033,13.0162528 L28.8171033,13.2965804 L28.8195749,13.6928878 C28.9298072,13.6902873 29.1161641,13.6814458 29.3811172,13.6726043 C29.6455759,13.6616825 29.844785,13.6544012 29.9802274,13.6486803 C29.9713297,13.7079704 29.9663866,13.7547783 29.963915,13.7891041 C29.962432,13.8244702 29.9599605,13.8598362 29.9599605,13.8926017 C29.9599605,13.9461708 29.9653979,14.023664 29.9772615,14.1276817 C29.9782501,14.1365232 29.9802274,14.1417241 29.9802274,14.1448446 C29.6633712,14.123521 29.4206624,14.1105188 29.2540781,14.1021974 C29.0869995,14.094396 28.9416708,14.0891952 28.8171033,14.0891952 L28.8171033,14.793915 C28.8171033,15.0456378 28.8185863,15.2219477 28.8225408,15.3218047 C28.8255067,15.423742 28.8309441,15.5090365 28.8373702,15.5771681 C28.9960455,15.5709271 29.1735047,15.5620856 29.3662877,15.5459628 C29.559565,15.5319204 29.7701434,15.5126772 30,15.4913535 C29.9955512,15.52932 29.990608,15.5662463 29.9891251,15.605773 C29.9856649,15.6416591 29.9851705,15.6796255 29.9851705,15.7191523 C29.9851705,15.7591991 29.9876421,15.811728 29.9925853,15.8788194 C29.9975284,15.9438305 30,15.9833572 30,16 C29.6539792,15.9859576 29.3885319,15.9807567 29.202175,15.976596 C29.0168067,15.9724353 28.8660405,15.970355 28.752348,15.970355 C28.5966387,15.970355 28.4582304,15.9724353 28.3366288,15.9781563 C28.2165101,15.9833572 28.1043005,15.9895982 28,16" id="Path" fill="#274896"></path>
            <path d="M31,15.9989601 C31.0209756,15.7301443 31.0360976,15.4394904 31.0458537,15.1259587 C31.055122,14.8145067 31.0604878,14.4406603 31.0604878,14.0033797 C31.0604878,13.5842974 31.0546341,13.2120109 31.0458537,12.8865202 C31.0356098,12.5610295 31.0195122,12.2651761 31,12 C31.0726829,12.0119589 31.1429268,12.022358 31.215122,12.0285974 C31.2868293,12.0353568 31.3590244,12.0384765 31.4307317,12.0384765 C31.5009756,12.0384765 31.5731707,12.0353568 31.6439024,12.0285974 C31.7160976,12.022358 31.7882927,12.0119589 31.8595122,12 C31.8395122,12.2703757 31.822439,12.5693488 31.8131707,12.8948395 C31.8029268,13.2208501 31.7980488,13.5910568 31.7980488,14.0038996 C31.7980488,14.4073833 31.8009756,14.7287144 31.8053659,14.966853 C31.8117073,15.2049916 31.8195122,15.4093332 31.8331707,15.5809177 C32.0429268,15.5757182 32.2434146,15.5647992 32.435122,15.5538802 C32.6273171,15.5398414 32.815122,15.5211231 33,15.5018848 C32.9936585,15.5398414 32.9921951,15.5793579 32.9887805,15.6204342 C32.9873171,15.6615105 32.9843902,15.7031067 32.9843902,15.7483426 C32.9843902,15.7873391 32.9873171,15.8284154 32.9887805,15.8700117 C32.9921951,15.911088 32.9936585,15.9537242 33,16 C32.7619512,15.9838815 32.5604878,15.9734824 32.3931707,15.9677629 C32.2263415,15.9625634 32.075122,15.9594437 31.9409756,15.9594437 C31.8190244,15.9594437 31.6843902,15.9625634 31.5385366,15.9677629 C31.3921951,15.9724425 31.2112195,15.9828415 31,15.9989601" id="Path" fill="#274896"></path>
            <path d="M37.8723005,12.9615818 L37.8018779,12.9730947 C37.7488263,12.7723689 37.6441315,12.618696 37.4868545,12.5070705 C37.3300469,12.3959454 37.1328638,12.3403829 36.9,12.3403829 C36.5464789,12.3403829 36.2685446,12.4815417 36.0723005,12.7673633 C35.8755869,13.0516831 35.7760563,13.450632 35.7760563,13.9647103 C35.7760563,14.5188337 35.8769953,14.9398073 36.0784038,15.2316356 C36.2798122,15.5219622 36.570892,15.6676261 36.9544601,15.6676261 C37.1197183,15.6676261 37.286385,15.6305844 37.4539906,15.5575022 C37.6220657,15.4839194 37.77277,15.3823051 37.9098592,15.2491553 L37.9694836,15.266675 L37.8568075,15.738706 C37.7,15.8268052 37.5352113,15.8923789 37.3647887,15.9354274 C37.1938967,15.9774747 37.013615,16 36.8258216,16 C36.2488263,16 35.800939,15.8228007 35.4807512,15.4694031 C35.1596244,15.1160055 35,14.6209486 35,13.9862345 C35,13.3850582 35.171831,12.9030159 35.5183099,12.5416093 C35.8633803,12.1812039 36.3248826,12 36.9046948,12 C37.0882629,12 37.2685446,12.0215242 37.4492958,12.0685771 C37.6295775,12.114629 37.8126761,12.1842072 38,12.2798148 C37.9694836,12.3829308 37.9446009,12.491553 37.9239437,12.6031786 C37.9023474,12.7158053 37.884507,12.8349393 37.8704225,12.9615818 L37.8723005,12.9615818 L37.8723005,12.9615818 Z" id="Path" fill="#274896"></path>
            <path d="M39,16 C39.0184672,15.7363495 39.0327793,15.4482579 39.043398,15.1383255 C39.0507849,14.825793 39.0567867,14.4477379 39.0567867,14.0041602 C39.0577101,13.5923037 39.0507849,13.224129 39.043398,12.8975559 C39.033241,12.5709828 39.0184672,12.2704108 39,12 C39.0674054,12.0119605 39.1361958,12.0223609 39.2036011,12.0286011 C39.2710065,12.0353614 39.3397969,12.0384815 39.4072022,12.0384815 C39.4746076,12.0384815 39.5429363,12.0353614 39.6108033,12.0286011 C39.679132,12.0223609 39.7465374,12.0119605 39.8139428,12 C39.800554,12.175767 39.7899354,12.3374935 39.7834718,12.4929797 C39.7770083,12.6469059 39.7737765,12.7961518 39.7737765,12.9386375 L39.7737765,13.6281851 C39.9727608,13.6391056 40.122807,13.6469059 40.2234534,13.648986 C40.3254848,13.6521061 40.4164358,13.6536661 40.4995383,13.6536661 C40.5849492,13.6536661 40.6772853,13.6521061 40.7760849,13.648986 C40.8776547,13.6469059 41.0272392,13.6385855 41.2271468,13.6281851 L41.2271468,12.9386375 C41.2271468,12.7961518 41.2248384,12.6469059 41.2179132,12.4929797 C41.2119114,12.3374935 41.200831,12.175767 41.1869806,12 C41.2548476,12.0119605 41.323638,12.0223609 41.39012,12.0286011 C41.4584488,12.0353614 41.5253924,12.0384815 41.5946445,12.0384815 C41.6606648,12.0384815 41.7294552,12.0353614 41.7982456,12.0286011 C41.8642659,12.0223609 41.9325946,12.0119605 42,12 C41.9829178,12.2704108 41.968144,12.5709828 41.9584488,12.8975559 C41.9487535,13.224129 41.9445983,13.5923037 41.9445983,14.0041602 C41.9445983,14.4477379 41.9492151,14.825793 41.9584488,15.1383255 C41.9686057,15.4482579 41.9815328,15.7363495 42,16 C41.9247461,15.9890796 41.854109,15.9833593 41.7862419,15.9781591 C41.7197599,15.9724389 41.6551247,15.9703588 41.5941828,15.9703588 C41.531856,15.9703588 41.466759,15.9724389 41.4012004,15.9781591 C41.3328717,15.9833593 41.2631579,15.9895996 41.189289,16 C41.2003693,15.8471139 41.2082179,15.6973479 41.2160665,15.5522621 C41.2243767,15.4071763 41.2266851,15.2657306 41.2266851,15.1274051 L41.2243767,14.0629225 C41.1038781,14.0566823 40.9819945,14.050962 40.8624192,14.049922 C40.7433056,14.0462819 40.621422,14.0457618 40.498615,14.0457618 C40.3776547,14.0457618 40.2553093,14.0462819 40.1366574,14.049922 C40.0175439,14.050962 39.8961219,14.0566823 39.7746999,14.0629225 L39.7728532,15.1274051 C39.7728532,15.2657306 39.7760849,15.4071763 39.7825485,15.5522621 C39.789012,15.6973479 39.7973223,15.8476339 39.810711,16 C39.7349954,15.9890796 39.6638966,15.9833593 39.5964912,15.9781591 C39.5323176,15.9724389 39.466759,15.9703588 39.4058172,15.9703588 C39.3421053,15.9703588 39.2779317,15.9724389 39.212373,15.9781591 C39.1472761,15.9833593 39.0761773,15.9895996 39,16" id="Path" fill="#274896"></path>
            <path d="M43,16 C43.2302137,15.3836333 43.4545591,14.7437763 43.6739392,14.0809396 C43.8919651,13.4175922 44.1090882,12.7241159 44.3230515,12 C44.3560036,12.0061279 44.3894072,12.0102132 44.4201023,12.0132772 C44.4517003,12.0153198 44.4810412,12.0168518 44.5121878,12.0168518 C44.5415287,12.0168518 44.5704183,12.0153198 44.5979537,12.0132772 C44.6272946,12.0102132 44.6552814,12.0061279 44.6814625,12 C44.8719531,12.6357717 45.0773398,13.2873739 45.295817,13.9537853 C45.5156485,14.6196859 45.7503762,15.3003958 46,16 C45.9399639,15.9913188 45.876768,15.9857015 45.8090581,15.9831482 C45.7417996,15.9790629 45.6709299,15.9770203 45.5923864,15.9770203 C45.5160999,15.9770203 45.4443274,15.9790629 45.3784231,15.9831482 C45.3125188,15.9862122 45.2475173,15.9918294 45.1847728,16 C45.1473067,15.8544619 45.1066807,15.7017745 45.0637978,15.5398953 C45.0186578,15.3780161 44.9563647,15.1456658 44.8705989,14.8428444 C44.8074029,14.8392698 44.7360819,14.8362058 44.6611496,14.8336525 C44.5844117,14.8316099 44.4697562,14.8310992 44.3198917,14.8310992 C44.1673187,14.8310992 44.0522119,14.8316099 43.9768282,14.8336525 C43.8991875,14.8362058 43.8292206,14.8392698 43.7646705,14.8428444 C43.6730364,15.1686455 43.6048751,15.4101877 43.5570268,15.5705349 C43.5105327,15.7293502 43.4671983,15.8718243 43.4274752,16 C43.3836894,15.9913188 43.3453205,15.9857015 43.3146253,15.9831482 C43.2816732,15.9790629 43.2523322,15.9770203 43.2247969,15.9770203 C43.1814625,15.9770203 43.1146554,15.9836589 43.0266326,15.9959147 C43.0153476,15.9979574 43.0058682,16 43,16 M43.8955763,14.463424 L43.9082155,14.463424 C44.089678,14.4710839 44.2255492,14.4751692 44.3189889,14.4751692 L44.4778814,14.4751692 C44.5334036,14.4741478 44.620975,14.4705732 44.7387902,14.463424 C44.6773999,14.2356696 44.6133012,14.0120005 44.5446885,13.7929274 C44.4756244,13.5718116 44.4029491,13.3573344 44.3289197,13.1484744 C44.2499248,13.3512064 44.1740897,13.563641 44.10322,13.7827142 C44.0300933,14.0012767 43.9614806,14.2269884 43.8955763,14.463424" id="Shape" fill="#274896"></path>
            <path d="M48.8732196,12.9615818 L48.8041947,12.9730947 C48.7506652,12.7723689 48.6454844,12.618696 48.4886524,12.5070705 C48.3313508,12.3959454 48.1350759,12.3403829 47.9007669,12.3403829 C47.54766,12.3403829 47.2701518,12.4815417 47.0734074,12.7673633 C46.8771326,13.0516831 46.778056,13.450632 46.778056,13.9647103 C46.778056,14.5188337 46.8790108,14.9398073 47.0804508,15.2316356 C47.2814212,15.5219622 47.5734857,15.6676261 47.9566442,15.6676261 C48.1219283,15.6676261 48.2886211,15.6305844 48.4567225,15.5575022 C48.6243544,15.4839194 48.7755517,15.3823051 48.9112537,15.2491553 L48.9718266,15.266675 L48.8596024,15.738706 C48.7018313,15.8268052 48.5374863,15.8923789 48.3675067,15.9354274 C48.1961183,15.9774747 48.016278,16 47.8270465,16 C47.2504304,16 46.8029426,15.8228007 46.4822351,15.4694031 C46.1615276,15.1160055 46,14.6209486 46,13.9862345 C46,13.3850582 46.1723274,12.9030159 46.5188605,12.5416093 C46.863985,12.1812039 47.3255596,12 47.904993,12 C48.0885898,12 48.2703083,12.0215242 48.4520269,12.0685771 C48.6313977,12.114629 48.814525,12.1842072 49,12.2798148 C48.971357,12.3829308 48.9469401,12.491553 48.92581,12.6031786 C48.9028017,12.7153047 48.8849585,12.8344387 48.8732196,12.9615818" id="Path" fill="#274896"></path>
            <path d="M50.8508385,14.0027572 C50.8508385,14.527635 50.9517085,14.9382128 51.1544572,15.2344905 C51.3577103,15.530267 51.6391376,15.6771525 51.9997478,15.6771525 C52.3553146,15.6771525 52.6342201,15.528763 52.8369689,15.2309813 C53.0407263,14.9342023 53.142605,14.5246271 53.142605,14.0027572 C53.142605,13.4738689 53.0407263,13.0592806 52.8369689,12.7614989 C52.6342201,12.4647199 52.3553146,12.3153277 51.9997478,12.3153277 C51.6421637,12.3153277 51.360232,12.4647199 51.1564746,12.7640055 C50.9527172,13.0637925 50.8508385,13.4758742 50.8508385,14.0027572 M50,14.0589046 C50,13.4152149 50.181566,12.9108911 50.5452024,12.5484397 C50.9083344,12.183983 51.4141975,12 52.0567394,12 C52.6770899,12 53.1562224,12.1749593 53.4941369,12.5208673 C53.8325558,12.8667753 54,13.3615741 54,14.0027572 C54,14.6083469 53.8189383,15.0936208 53.4558063,15.4560722 C53.0926743,15.8190249 52.6074896,16 52.0002522,16 C51.3572059,16 50.8639516,15.8320592 50.5189762,15.4966788 C50.1734964,15.1597945 50,14.6825417 50,14.0589046" id="Shape" fill="#274896"></path>
            <path d="M56,15.7308271 C56.0261641,15.6165414 56.0545455,15.4932331 56.0793792,15.364411 C56.1046563,15.2345865 56.1299335,15.0977444 56.1521064,14.9548872 L56.2137472,14.9548872 C56.2536585,15.1719298 56.3343681,15.3423559 56.4536585,15.4626566 C56.5716186,15.5824561 56.7179601,15.643609 56.891796,15.643609 C57.0501109,15.643609 57.1756098,15.5914787 57.27051,15.4877193 C57.3658537,15.3849624 57.4133038,15.2471178 57.4133038,15.0736842 C57.4133038,14.9493734 57.3831486,14.841604 57.3223947,14.7513784 C57.2611973,14.6616541 57.1135255,14.5388471 56.8784922,14.3849624 C56.518847,14.1513784 56.2833703,13.9513784 56.1769401,13.7814536 C56.0669623,13.6115288 56.0137472,13.4005013 56.0137472,13.1488722 C56.0137472,12.806015 56.1135255,12.5303258 56.3135255,12.318797 C56.513969,12.1062657 56.7778271,12 57.1064302,12 C57.2505543,12 57.383592,12.0220551 57.5059867,12.0656642 C57.627051,12.1082707 57.7432373,12.1744361 57.8518847,12.2656642 C57.821286,12.3744361 57.7911308,12.4817043 57.7662971,12.5844612 C57.7392461,12.6897243 57.7170732,12.7879699 57.697561,12.8842105 L57.6474501,12.8842105 C57.6013304,12.7172932 57.5197339,12.5844612 57.4101996,12.4892231 C57.2993348,12.3924812 57.1702882,12.3443609 57.0230599,12.3443609 C56.8864745,12.3443609 56.7760532,12.3894737 56.6935698,12.481203 C56.6088692,12.5714286 56.568071,12.6912281 56.568071,12.8390977 C56.568071,12.9659148 56.5986696,13.0721805 56.659867,13.1598997 C56.7232816,13.247619 56.8616408,13.3593985 57.0745011,13.4932331 C57.1215078,13.524812 57.189357,13.5659148 57.2798226,13.6175439 C57.5272727,13.766416 57.6873614,13.8837093 57.7543237,13.9674185 C57.837694,14.0721805 57.8988914,14.1864662 57.9396896,14.3112782 C57.9796009,14.4365915 58,14.5764411 58,14.7308271 C58,15.112782 57.8944568,15.4185464 57.6815965,15.6511278 C57.4691796,15.883208 57.1871397,16 56.8314856,16 C56.6447894,16 56.4842572,15.9779449 56.3467849,15.9338346 C56.2119734,15.8887218 56.0944568,15.8220551 56,15.7308271" id="Path" fill="#274896"></path>
            <path d="M58,15.4945175 C58,15.3530702 58.0487662,15.2357456 58.1427732,15.1403509 C58.2391304,15.0466009 58.3601645,15 58.5005875,15 C58.6421857,15 58.7608696,15.0466009 58.8554642,15.1403509 C58.9518214,15.2362939 59,15.3530702 59,15.4945175 C59,15.6326754 58.9512338,15.75 58.8525264,15.8503289 C58.7567568,15.9501096 58.6386604,16 58.5011751,16 C58.3625147,16 58.246181,15.9501096 58.146886,15.8503289 C58.0481786,15.7494518 58,15.6326754 58,15.4945175" id="Path" fill="#274896"></path>
            <path d="M59,16 C59.2292764,15.3836333 59.4553934,14.7437763 59.6747405,14.0809396 C59.8936362,13.4175922 60.1093726,12.7241159 60.3210471,12 C60.3562509,12.0061279 60.3891981,12.0102132 60.42034,12.0132772 C60.4514819,12.0153198 60.4812697,12.0168518 60.511509,12.0168518 C60.5412968,12.0168518 60.5706334,12.0153198 60.5986159,12.0132772 C60.6275011,12.0102132 60.6550323,12.0061279 60.6812096,12 C60.8725741,12.6357717 61.0770272,13.2873739 61.295923,13.9537853 C61.51527,14.6196859 61.7504137,15.3003958 62,16 C61.9399729,15.9913188 61.8767865,15.9857015 61.8090868,15.9831482 C61.7418384,15.9790629 61.6700767,15.9770203 61.5928991,15.9770203 C61.5157214,15.9770203 61.444411,15.9790629 61.3785166,15.9831482 C61.3117196,15.9862122 61.2467278,15.9918294 61.1835414,16 C61.1460809,15.8544619 61.1068151,15.7017745 61.0625846,15.5398953 C61.0188055,15.3780161 60.9551677,15.1456658 60.8716714,14.8428444 C60.807131,14.8392698 60.7358207,14.8362058 60.661351,14.8336525 C60.5846246,14.8316099 60.4695351,14.8310992 60.3192418,14.8310992 C60.1662404,14.8310992 60.0520536,14.8316099 59.9757785,14.8336525 C59.8990522,14.8362058 59.8295472,14.8392698 59.7650068,14.8428444 C59.6742892,15.1686455 59.6043328,15.4101877 59.5573943,15.5705349 C59.5104558,15.7293502 59.4675794,15.8718243 59.4292162,16 C59.3836317,15.9913188 59.3457199,15.9857015 59.3141267,15.9831482 C59.2829848,15.9790629 59.2536483,15.9770203 59.2247631,15.9770203 C59.1827892,15.9770203 59.1164435,15.9836589 59.0257259,15.9959147 C59.0153453,15.9979574 59.0063186,16 59,16 M59.8954416,14.463424 L59.9076275,14.463424 C60.0886114,14.4710839 60.2258162,14.4751692 60.3183391,14.4751692 L60.4767564,14.4751692 C60.5327215,14.4741478 60.6207312,14.4705732 60.73898,14.463424 C60.6775989,14.2356696 60.6135099,14.0120005 60.5444561,13.7929274 C60.4767564,13.5718116 60.4036407,13.3573344 60.3287197,13.1484744 C60.2501881,13.3512064 60.1743644,13.563641 60.1026027,13.7827142 C60.030841,14.0012767 59.9613359,14.2269884 59.8954416,14.463424" id="Shape" fill="#274896"></path>
            <path d="M63,15.4945175 C63,15.3530702 63.0470312,15.2357456 63.1422693,15.1403509 C63.2375073,15.0466009 63.3586126,15 63.5002939,15 C63.6425632,15 63.7589653,15.0466009 63.8547913,15.1403509 C63.9512052,15.2362939 64,15.3530702 64,15.4945175 C64,15.6326754 63.9512052,15.75 63.8524397,15.8503289 C63.7560259,15.9501096 63.638448,16 63.5008818,16 C63.361552,16 63.2451499,15.9501096 63.1475603,15.8503289 C63.0487948,15.7494518 63,15.6326754 63,15.4945175" id="Path" fill="#274896"></path>
            <path d="M24.7379562,15.6422722 C24.7953285,15.6537112 24.849635,15.6615105 24.9026277,15.6682699 C24.9569343,15.6739893 25.0059854,15.6771091 25.0524088,15.6771091 C25.4522628,15.6771091 25.7544526,15.5325621 25.9567883,15.2450279 C26.1591241,14.9611335 26.260292,14.5326921 26.260292,13.9628233 C26.260292,13.3882751 26.1652555,12.9749123 25.9782482,12.722735 C25.790365,12.4700377 25.4824818,12.3426492 25.0576642,12.3426492 C25.0291971,12.3426492 24.9670073,12.344209 24.8693431,12.3478487 C24.8176642,12.3504485 24.7778102,12.3514884 24.7475912,12.3535682 C24.7423358,12.6125049 24.7366423,12.8932796 24.7353285,13.1938126 C24.7313869,13.4927856 24.730073,13.8260757 24.730073,14.1921227 C24.730073,14.5800078 24.730073,14.8753412 24.7322628,15.0765631 C24.7331387,15.278305 24.7353285,15.467048 24.7379562,15.6422722 M24,16 C24.0153285,15.8289354 24.0280292,15.6381126 24.0367883,15.4228519 C24.0446715,15.2065514 24.0490511,14.9065384 24.0490511,14.5243728 L24.0490511,14.0044196 L24.0490511,13.6882881 C24.0490511,13.2546471 24.0446715,12.9151176 24.0367883,12.6686598 C24.0275912,12.422202 24.0153285,12.199662 24,12.00052 C24.0578102,12.0093592 24.1164964,12.0145587 24.1729927,12.0176784 C24.2308029,12.0228779 24.2921168,12.0254777 24.3564964,12.0254777 C24.4545985,12.0254777 24.6065693,12.0197582 24.8154745,12.0119589 C25.0243796,12.0051995 25.1837956,12 25.2945985,12 C25.6007299,12 25.8429197,12.0285974 26.0220438,12.0863122 C26.1994161,12.1435071 26.3540146,12.2386585 26.4862774,12.3702067 C26.6505109,12.5355518 26.7766423,12.7502925 26.8672993,13.0165085 C26.9553285,13.2837645 27,13.5806577 27,13.9082283 C27,14.6044456 26.8423358,15.1264786 26.5265693,15.4764071 C26.2112409,15.8237359 25.7386861,15.99948 25.110219,15.99948 C24.9985401,15.99948 24.8548905,15.9953204 24.6818978,15.989081 C24.5080292,15.9844014 24.3906569,15.9802418 24.330219,15.9802418 C24.2706569,15.9802418 24.1861314,15.9849214 24.0792701,15.9932406 C24.0446715,15.9953204 24.0179562,15.9974002 24,16" id="Shape" fill="#274896"></path>
            <path d="M28,16 C28.0207612,15.7924847 28.036085,15.5563646 28.0459713,15.2911195 C28.0558576,15.0263945 28.0598122,14.5978416 28.0598122,14.0039007 L28.0598122,13.7121311 C28.0598122,13.2684956 28.0553633,12.923677 28.0459713,12.6735145 C28.0355907,12.4238721 28.0207612,12.1991939 28,12 C28.1616411,12.0088415 28.329214,12.0140424 28.5007415,12.0171629 C28.6737519,12.0223638 28.8531883,12.0249642 29.0410282,12.0249642 C29.2293623,12.0249642 29.4008898,12.0223638 29.5580821,12.0171629 C29.7137914,12.0135223 29.862086,12.0083214 30,12 C29.990608,12.0655311 29.9861592,12.11754 29.9836876,12.1523859 C29.9822046,12.1893122 29.9802274,12.2220778 29.9802274,12.252763 C29.9802274,12.2844884 29.9822046,12.3141334 29.9836876,12.3474191 C29.9861592,12.3827851 29.9911023,12.4327136 30,12.4972045 C29.7409787,12.4790014 29.5180425,12.4659992 29.329214,12.4550774 C29.1393969,12.4425952 28.9747899,12.4379144 28.8358873,12.435314 C28.8279783,12.5055259 28.8230351,12.5809388 28.8215522,12.6615525 C28.8185863,12.7421662 28.8171033,12.8597062 28.8171033,13.0162528 L28.8171033,13.2965804 L28.8195749,13.6928878 C28.9298072,13.6902873 29.1161641,13.6814458 29.3811172,13.6726043 C29.6455759,13.6616825 29.844785,13.6544012 29.9802274,13.6486803 C29.9713297,13.7079704 29.9663866,13.7547783 29.963915,13.7891041 C29.962432,13.8244702 29.9599605,13.8598362 29.9599605,13.8926017 C29.9599605,13.9461708 29.9653979,14.023664 29.9772615,14.1276817 C29.9782501,14.1365232 29.9802274,14.1417241 29.9802274,14.1448446 C29.6633712,14.123521 29.4206624,14.1105188 29.2540781,14.1021974 C29.0869995,14.094396 28.9416708,14.0891952 28.8171033,14.0891952 L28.8171033,14.793915 C28.8171033,15.0456378 28.8185863,15.2219477 28.8225408,15.3218047 C28.8255067,15.423742 28.8309441,15.5090365 28.8373702,15.5771681 C28.9960455,15.5709271 29.1735047,15.5620856 29.3662877,15.5459628 C29.559565,15.5319204 29.7701434,15.5126772 30,15.4913535 C29.9955512,15.52932 29.990608,15.5662463 29.9891251,15.605773 C29.9856649,15.6416591 29.9851705,15.6796255 29.9851705,15.7191523 C29.9851705,15.7591991 29.9876421,15.811728 29.9925853,15.8788194 C29.9975284,15.9438305 30,15.9833572 30,16 C29.6539792,15.9859576 29.3885319,15.9807567 29.202175,15.976596 C29.0168067,15.9724353 28.8660405,15.970355 28.752348,15.970355 C28.5966387,15.970355 28.4582304,15.9724353 28.3366288,15.9781563 C28.2165101,15.9833572 28.1043005,15.9895982 28,16" id="Path" fill="#274896"></path>
            <path d="M31,15.9989601 C31.0209756,15.7301443 31.0360976,15.4394904 31.0458537,15.1259587 C31.055122,14.8145067 31.0604878,14.4406603 31.0604878,14.0033797 C31.0604878,13.5842974 31.0546341,13.2120109 31.0458537,12.8865202 C31.0356098,12.5610295 31.0195122,12.2651761 31,12 C31.0726829,12.0119589 31.1429268,12.022358 31.215122,12.0285974 C31.2868293,12.0353568 31.3590244,12.0384765 31.4307317,12.0384765 C31.5009756,12.0384765 31.5731707,12.0353568 31.6439024,12.0285974 C31.7160976,12.022358 31.7882927,12.0119589 31.8595122,12 C31.8395122,12.2703757 31.822439,12.5693488 31.8131707,12.8948395 C31.8029268,13.2208501 31.7980488,13.5910568 31.7980488,14.0038996 C31.7980488,14.4073833 31.8009756,14.7287144 31.8053659,14.966853 C31.8117073,15.2049916 31.8195122,15.4093332 31.8331707,15.5809177 C32.0429268,15.5757182 32.2434146,15.5647992 32.435122,15.5538802 C32.6273171,15.5398414 32.815122,15.5211231 33,15.5018848 C32.9936585,15.5398414 32.9921951,15.5793579 32.9887805,15.6204342 C32.9873171,15.6615105 32.9843902,15.7031067 32.9843902,15.7483426 C32.9843902,15.7873391 32.9873171,15.8284154 32.9887805,15.8700117 C32.9921951,15.911088 32.9936585,15.9537242 33,16 C32.7619512,15.9838815 32.5604878,15.9734824 32.3931707,15.9677629 C32.2263415,15.9625634 32.075122,15.9594437 31.9409756,15.9594437 C31.8190244,15.9594437 31.6843902,15.9625634 31.5385366,15.9677629 C31.3921951,15.9724425 31.2112195,15.9828415 31,15.9989601" id="Path" fill="#274896"></path>
            <path d="M37.8723005,12.9615818 L37.8018779,12.9730947 C37.7488263,12.7723689 37.6441315,12.618696 37.4868545,12.5070705 C37.3300469,12.3959454 37.1328638,12.3403829 36.9,12.3403829 C36.5464789,12.3403829 36.2685446,12.4815417 36.0723005,12.7673633 C35.8755869,13.0516831 35.7760563,13.450632 35.7760563,13.9647103 C35.7760563,14.5188337 35.8769953,14.9398073 36.0784038,15.2316356 C36.2798122,15.5219622 36.570892,15.6676261 36.9544601,15.6676261 C37.1197183,15.6676261 37.286385,15.6305844 37.4539906,15.5575022 C37.6220657,15.4839194 37.77277,15.3823051 37.9098592,15.2491553 L37.9694836,15.266675 L37.8568075,15.738706 C37.7,15.8268052 37.5352113,15.8923789 37.3647887,15.9354274 C37.1938967,15.9774747 37.013615,16 36.8258216,16 C36.2488263,16 35.800939,15.8228007 35.4807512,15.4694031 C35.1596244,15.1160055 35,14.6209486 35,13.9862345 C35,13.3850582 35.171831,12.9030159 35.5183099,12.5416093 C35.8633803,12.1812039 36.3248826,12 36.9046948,12 C37.0882629,12 37.2685446,12.0215242 37.4492958,12.0685771 C37.6295775,12.114629 37.8126761,12.1842072 38,12.2798148 C37.9694836,12.3829308 37.9446009,12.491553 37.9239437,12.6031786 C37.9023474,12.7158053 37.884507,12.8349393 37.8704225,12.9615818 L37.8723005,12.9615818 L37.8723005,12.9615818 Z" id="Path" fill="#274896"></path>
            <path d="M39,16 C39.0184672,15.7363495 39.0327793,15.4482579 39.043398,15.1383255 C39.0507849,14.825793 39.0567867,14.4477379 39.0567867,14.0041602 C39.0577101,13.5923037 39.0507849,13.224129 39.043398,12.8975559 C39.033241,12.5709828 39.0184672,12.2704108 39,12 C39.0674054,12.0119605 39.1361958,12.0223609 39.2036011,12.0286011 C39.2710065,12.0353614 39.3397969,12.0384815 39.4072022,12.0384815 C39.4746076,12.0384815 39.5429363,12.0353614 39.6108033,12.0286011 C39.679132,12.0223609 39.7465374,12.0119605 39.8139428,12 C39.800554,12.175767 39.7899354,12.3374935 39.7834718,12.4929797 C39.7770083,12.6469059 39.7737765,12.7961518 39.7737765,12.9386375 L39.7737765,13.6281851 C39.9727608,13.6391056 40.122807,13.6469059 40.2234534,13.648986 C40.3254848,13.6521061 40.4164358,13.6536661 40.4995383,13.6536661 C40.5849492,13.6536661 40.6772853,13.6521061 40.7760849,13.648986 C40.8776547,13.6469059 41.0272392,13.6385855 41.2271468,13.6281851 L41.2271468,12.9386375 C41.2271468,12.7961518 41.2248384,12.6469059 41.2179132,12.4929797 C41.2119114,12.3374935 41.200831,12.175767 41.1869806,12 C41.2548476,12.0119605 41.323638,12.0223609 41.39012,12.0286011 C41.4584488,12.0353614 41.5253924,12.0384815 41.5946445,12.0384815 C41.6606648,12.0384815 41.7294552,12.0353614 41.7982456,12.0286011 C41.8642659,12.0223609 41.9325946,12.0119605 42,12 C41.9829178,12.2704108 41.968144,12.5709828 41.9584488,12.8975559 C41.9487535,13.224129 41.9445983,13.5923037 41.9445983,14.0041602 C41.9445983,14.4477379 41.9492151,14.825793 41.9584488,15.1383255 C41.9686057,15.4482579 41.9815328,15.7363495 42,16 C41.9247461,15.9890796 41.854109,15.9833593 41.7862419,15.9781591 C41.7197599,15.9724389 41.6551247,15.9703588 41.5941828,15.9703588 C41.531856,15.9703588 41.466759,15.9724389 41.4012004,15.9781591 C41.3328717,15.9833593 41.2631579,15.9895996 41.189289,16 C41.2003693,15.8471139 41.2082179,15.6973479 41.2160665,15.5522621 C41.2243767,15.4071763 41.2266851,15.2657306 41.2266851,15.1274051 L41.2243767,14.0629225 C41.1038781,14.0566823 40.9819945,14.050962 40.8624192,14.049922 C40.7433056,14.0462819 40.621422,14.0457618 40.498615,14.0457618 C40.3776547,14.0457618 40.2553093,14.0462819 40.1366574,14.049922 C40.0175439,14.050962 39.8961219,14.0566823 39.7746999,14.0629225 L39.7728532,15.1274051 C39.7728532,15.2657306 39.7760849,15.4071763 39.7825485,15.5522621 C39.789012,15.6973479 39.7973223,15.8476339 39.810711,16 C39.7349954,15.9890796 39.6638966,15.9833593 39.5964912,15.9781591 C39.5323176,15.9724389 39.466759,15.9703588 39.4058172,15.9703588 C39.3421053,15.9703588 39.2779317,15.9724389 39.212373,15.9781591 C39.1472761,15.9833593 39.0761773,15.9895996 39,16" id="Path" fill="#274896"></path>
            <path d="M43,16 C43.2302137,15.3836333 43.4545591,14.7437763 43.6739392,14.0809396 C43.8919651,13.4175922 44.1090882,12.7241159 44.3230515,12 C44.3560036,12.0061279 44.3894072,12.0102132 44.4201023,12.0132772 C44.4517003,12.0153198 44.4810412,12.0168518 44.5121878,12.0168518 C44.5415287,12.0168518 44.5704183,12.0153198 44.5979537,12.0132772 C44.6272946,12.0102132 44.6552814,12.0061279 44.6814625,12 C44.8719531,12.6357717 45.0773398,13.2873739 45.295817,13.9537853 C45.5156485,14.6196859 45.7503762,15.3003958 46,16 C45.9399639,15.9913188 45.876768,15.9857015 45.8090581,15.9831482 C45.7417996,15.9790629 45.6709299,15.9770203 45.5923864,15.9770203 C45.5160999,15.9770203 45.4443274,15.9790629 45.3784231,15.9831482 C45.3125188,15.9862122 45.2475173,15.9918294 45.1847728,16 C45.1473067,15.8544619 45.1066807,15.7017745 45.0637978,15.5398953 C45.0186578,15.3780161 44.9563647,15.1456658 44.8705989,14.8428444 C44.8074029,14.8392698 44.7360819,14.8362058 44.6611496,14.8336525 C44.5844117,14.8316099 44.4697562,14.8310992 44.3198917,14.8310992 C44.1673187,14.8310992 44.0522119,14.8316099 43.9768282,14.8336525 C43.8991875,14.8362058 43.8292206,14.8392698 43.7646705,14.8428444 C43.6730364,15.1686455 43.6048751,15.4101877 43.5570268,15.5705349 C43.5105327,15.7293502 43.4671983,15.8718243 43.4274752,16 C43.3836894,15.9913188 43.3453205,15.9857015 43.3146253,15.9831482 C43.2816732,15.9790629 43.2523322,15.9770203 43.2247969,15.9770203 C43.1814625,15.9770203 43.1146554,15.9836589 43.0266326,15.9959147 C43.0153476,15.9979574 43.0058682,16 43,16 M43.8955763,14.463424 L43.9082155,14.463424 C44.089678,14.4710839 44.2255492,14.4751692 44.3189889,14.4751692 L44.4778814,14.4751692 C44.5334036,14.4741478 44.620975,14.4705732 44.7387902,14.463424 C44.6773999,14.2356696 44.6133012,14.0120005 44.5446885,13.7929274 C44.4756244,13.5718116 44.4029491,13.3573344 44.3289197,13.1484744 C44.2499248,13.3512064 44.1740897,13.563641 44.10322,13.7827142 C44.0300933,14.0012767 43.9614806,14.2269884 43.8955763,14.463424" id="Shape" fill="#274896"></path>
            <path d="M48.8732196,12.9615818 L48.8041947,12.9730947 C48.7506652,12.7723689 48.6454844,12.618696 48.4886524,12.5070705 C48.3313508,12.3959454 48.1350759,12.3403829 47.9007669,12.3403829 C47.54766,12.3403829 47.2701518,12.4815417 47.0734074,12.7673633 C46.8771326,13.0516831 46.778056,13.450632 46.778056,13.9647103 C46.778056,14.5188337 46.8790108,14.9398073 47.0804508,15.2316356 C47.2814212,15.5219622 47.5734857,15.6676261 47.9566442,15.6676261 C48.1219283,15.6676261 48.2886211,15.6305844 48.4567225,15.5575022 C48.6243544,15.4839194 48.7755517,15.3823051 48.9112537,15.2491553 L48.9718266,15.266675 L48.8596024,15.738706 C48.7018313,15.8268052 48.5374863,15.8923789 48.3675067,15.9354274 C48.1961183,15.9774747 48.016278,16 47.8270465,16 C47.2504304,16 46.8029426,15.8228007 46.4822351,15.4694031 C46.1615276,15.1160055 46,14.6209486 46,13.9862345 C46,13.3850582 46.1723274,12.9030159 46.5188605,12.5416093 C46.863985,12.1812039 47.3255596,12 47.904993,12 C48.0885898,12 48.2703083,12.0215242 48.4520269,12.0685771 C48.6313977,12.114629 48.814525,12.1842072 49,12.2798148 C48.971357,12.3829308 48.9469401,12.491553 48.92581,12.6031786 C48.9028017,12.7153047 48.8849585,12.8344387 48.8732196,12.9615818" id="Path" fill="#274896"></path>
            <path d="M50.8508385,14.0027572 C50.8508385,14.527635 50.9517085,14.9382128 51.1544572,15.2344905 C51.3577103,15.530267 51.6391376,15.6771525 51.9997478,15.6771525 C52.3553146,15.6771525 52.6342201,15.528763 52.8369689,15.2309813 C53.0407263,14.9342023 53.142605,14.5246271 53.142605,14.0027572 C53.142605,13.4738689 53.0407263,13.0592806 52.8369689,12.7614989 C52.6342201,12.4647199 52.3553146,12.3153277 51.9997478,12.3153277 C51.6421637,12.3153277 51.360232,12.4647199 51.1564746,12.7640055 C50.9527172,13.0637925 50.8508385,13.4758742 50.8508385,14.0027572 M50,14.0589046 C50,13.4152149 50.181566,12.9108911 50.5452024,12.5484397 C50.9083344,12.183983 51.4141975,12 52.0567394,12 C52.6770899,12 53.1562224,12.1749593 53.4941369,12.5208673 C53.8325558,12.8667753 54,13.3615741 54,14.0027572 C54,14.6083469 53.8189383,15.0936208 53.4558063,15.4560722 C53.0926743,15.8190249 52.6074896,16 52.0002522,16 C51.3572059,16 50.8639516,15.8320592 50.5189762,15.4966788 C50.1734964,15.1597945 50,14.6825417 50,14.0589046" id="Shape" fill="#274896"></path>
            <path d="M56,15.7308271 C56.0261641,15.6165414 56.0545455,15.4932331 56.0793792,15.364411 C56.1046563,15.2345865 56.1299335,15.0977444 56.1521064,14.9548872 L56.2137472,14.9548872 C56.2536585,15.1719298 56.3343681,15.3423559 56.4536585,15.4626566 C56.5716186,15.5824561 56.7179601,15.643609 56.891796,15.643609 C57.0501109,15.643609 57.1756098,15.5914787 57.27051,15.4877193 C57.3658537,15.3849624 57.4133038,15.2471178 57.4133038,15.0736842 C57.4133038,14.9493734 57.3831486,14.841604 57.3223947,14.7513784 C57.2611973,14.6616541 57.1135255,14.5388471 56.8784922,14.3849624 C56.518847,14.1513784 56.2833703,13.9513784 56.1769401,13.7814536 C56.0669623,13.6115288 56.0137472,13.4005013 56.0137472,13.1488722 C56.0137472,12.806015 56.1135255,12.5303258 56.3135255,12.318797 C56.513969,12.1062657 56.7778271,12 57.1064302,12 C57.2505543,12 57.383592,12.0220551 57.5059867,12.0656642 C57.627051,12.1082707 57.7432373,12.1744361 57.8518847,12.2656642 C57.821286,12.3744361 57.7911308,12.4817043 57.7662971,12.5844612 C57.7392461,12.6897243 57.7170732,12.7879699 57.697561,12.8842105 L57.6474501,12.8842105 C57.6013304,12.7172932 57.5197339,12.5844612 57.4101996,12.4892231 C57.2993348,12.3924812 57.1702882,12.3443609 57.0230599,12.3443609 C56.8864745,12.3443609 56.7760532,12.3894737 56.6935698,12.481203 C56.6088692,12.5714286 56.568071,12.6912281 56.568071,12.8390977 C56.568071,12.9659148 56.5986696,13.0721805 56.659867,13.1598997 C56.7232816,13.247619 56.8616408,13.3593985 57.0745011,13.4932331 C57.1215078,13.524812 57.189357,13.5659148 57.2798226,13.6175439 C57.5272727,13.766416 57.6873614,13.8837093 57.7543237,13.9674185 C57.837694,14.0721805 57.8988914,14.1864662 57.9396896,14.3112782 C57.9796009,14.4365915 58,14.5764411 58,14.7308271 C58,15.112782 57.8944568,15.4185464 57.6815965,15.6511278 C57.4691796,15.883208 57.1871397,16 56.8314856,16 C56.6447894,16 56.4842572,15.9779449 56.3467849,15.9338346 C56.2119734,15.8887218 56.0944568,15.8220551 56,15.7308271" id="Path" fill="#274896"></path>
            <path d="M58,15.4945175 C58,15.3530702 58.0487662,15.2357456 58.1427732,15.1403509 C58.2391304,15.0466009 58.3601645,15 58.5005875,15 C58.6421857,15 58.7608696,15.0466009 58.8554642,15.1403509 C58.9518214,15.2362939 59,15.3530702 59,15.4945175 C59,15.6326754 58.9512338,15.75 58.8525264,15.8503289 C58.7567568,15.9501096 58.6386604,16 58.5011751,16 C58.3625147,16 58.246181,15.9501096 58.146886,15.8503289 C58.0481786,15.7494518 58,15.6326754 58,15.4945175" id="Path" fill="#274896"></path>
            <path d="M59,16 C59.2292764,15.3836333 59.4553934,14.7437763 59.6747405,14.0809396 C59.8936362,13.4175922 60.1093726,12.7241159 60.3210471,12 C60.3562509,12.0061279 60.3891981,12.0102132 60.42034,12.0132772 C60.4514819,12.0153198 60.4812697,12.0168518 60.511509,12.0168518 C60.5412968,12.0168518 60.5706334,12.0153198 60.5986159,12.0132772 C60.6275011,12.0102132 60.6550323,12.0061279 60.6812096,12 C60.8725741,12.6357717 61.0770272,13.2873739 61.295923,13.9537853 C61.51527,14.6196859 61.7504137,15.3003958 62,16 C61.9399729,15.9913188 61.8767865,15.9857015 61.8090868,15.9831482 C61.7418384,15.9790629 61.6700767,15.9770203 61.5928991,15.9770203 C61.5157214,15.9770203 61.444411,15.9790629 61.3785166,15.9831482 C61.3117196,15.9862122 61.2467278,15.9918294 61.1835414,16 C61.1460809,15.8544619 61.1068151,15.7017745 61.0625846,15.5398953 C61.0188055,15.3780161 60.9551677,15.1456658 60.8716714,14.8428444 C60.807131,14.8392698 60.7358207,14.8362058 60.661351,14.8336525 C60.5846246,14.8316099 60.4695351,14.8310992 60.3192418,14.8310992 C60.1662404,14.8310992 60.0520536,14.8316099 59.9757785,14.8336525 C59.8990522,14.8362058 59.8295472,14.8392698 59.7650068,14.8428444 C59.6742892,15.1686455 59.6043328,15.4101877 59.5573943,15.5705349 C59.5104558,15.7293502 59.4675794,15.8718243 59.4292162,16 C59.3836317,15.9913188 59.3457199,15.9857015 59.3141267,15.9831482 C59.2829848,15.9790629 59.2536483,15.9770203 59.2247631,15.9770203 C59.1827892,15.9770203 59.1164435,15.9836589 59.0257259,15.9959147 C59.0153453,15.9979574 59.0063186,16 59,16 M59.8954416,14.463424 L59.9076275,14.463424 C60.0886114,14.4710839 60.2258162,14.4751692 60.3183391,14.4751692 L60.4767564,14.4751692 C60.5327215,14.4741478 60.6207312,14.4705732 60.73898,14.463424 C60.6775989,14.2356696 60.6135099,14.0120005 60.5444561,13.7929274 C60.4767564,13.5718116 60.4036407,13.3573344 60.3287197,13.1484744 C60.2501881,13.3512064 60.1743644,13.563641 60.1026027,13.7827142 C60.030841,14.0012767 59.9613359,14.2269884 59.8954416,14.463424" id="Shape" fill="#274896"></path>
            <path d="M63,15.4945175 C63,15.3530702 63.0470312,15.2357456 63.1422693,15.1403509 C63.2375073,15.0466009 63.3586126,15 63.5002939,15 C63.6425632,15 63.7589653,15.0466009 63.8547913,15.1403509 C63.9512052,15.2362939 64,15.3530702 64,15.4945175 C64,15.6326754 63.9512052,15.75 63.8524397,15.8503289 C63.7560259,15.9501096 63.638448,16 63.5008818,16 C63.361552,16 63.2451499,15.9501096 63.1475603,15.8503289 C63.0487948,15.7494518 63,15.6326754 63,15.4945175" id="Path" fill="#274896"></path>
            <path d="M23.0018904,10 C23.0174858,9.71990108 23.0316635,9.41689444 23.0415879,9.09358324 C23.0500945,8.76818951 23.0548204,8.41676428 23.0548204,8.03774567 C23.055293,7.67799037 23.0496219,7.3276064 23.0415879,6.98659378 C23.0316635,6.64506052 23.0174858,6.31498113 23,6 C23.0401701,6.00572693 23.0822306,6.0104126 23.1257089,6.01457764 C23.1701323,6.01822205 23.2169187,6.01978394 23.2679584,6.01978394 C23.3189981,6.01978394 23.3653119,6.01822205 23.4087902,6.01509827 C23.4532136,6.0104126 23.4952741,6.0052063 23.5340265,6 C23.8728733,6.44565925 24.2136106,6.89183913 24.5581285,7.34062215 C24.9035917,7.78784329 25.2504726,8.23766758 25.6034972,8.68697124 L25.6034972,7.99713654 C25.6034972,7.86854093 25.6011342,7.62228296 25.5973535,7.25367695 C25.5954631,6.88559157 25.5907372,6.46804634 25.584121,6 C25.6138941,6.00572693 25.6465028,6.0104126 25.6800567,6.01457764 C25.7136106,6.01822205 25.75,6.01978394 25.7859168,6.01978394 C25.8289225,6.01978394 25.8667297,6.01822205 25.9017013,6.01457764 C25.9371456,6.00989197 25.9692817,6.0052063 26,6 C25.9858223,6.16556033 25.9758979,6.42118964 25.9692817,6.76844982 C25.9640832,7.11414812 25.9612476,7.67174281 25.9612476,8.439672 L25.9612476,8.7645451 C25.9612476,9.07640245 25.9640832,9.32526357 25.9692817,9.50696343 C25.9758979,9.69126643 25.9853497,9.85526487 26,9.99895874 C25.9612476,9.9895874 25.9243856,9.98229858 25.8898866,9.97709228 C25.8544423,9.97240661 25.8208885,9.97032409 25.7859168,9.97032409 C25.7556711,9.97032409 25.7202268,9.97240661 25.6847826,9.97709228 C25.6469754,9.98229858 25.6091682,9.99010803 25.5685255,9.99895874 C25.260397,9.58245477 24.9295841,9.14668749 24.5779773,8.69113627 C24.2268431,8.23350254 23.8355388,7.73369777 23.405482,7.19276324 L23.405482,8.90407393 C23.405482,8.9748796 23.4083176,9.10920213 23.4125709,9.30912404 C23.4163516,9.50904595 23.4187146,9.7376025 23.4258034,9.99895874 C23.3837429,9.9895874 23.3449905,9.98229858 23.3114367,9.97709228 C23.2793006,9.97240661 23.2457467,9.97032409 23.2140832,9.97032409 C23.1819471,9.97032409 23.1493384,9.97240661 23.1148393,9.97709228 C23.0803403,9.98281921 23.0434783,9.99062866 23.0018904,10" id="Path" fill="#274896"></path>
            <path d="M28,6.0010208 C28.0627753,6.00969759 28.1297986,6.01429118 28.2001259,6.01735358 C28.2723411,6.02245757 28.3455003,6.02296797 28.4257395,6.02296797 C28.5026746,6.02296797 28.5734739,6.02245757 28.6409692,6.01735358 C28.7065765,6.01378078 28.7712398,6.00918719 28.8316551,6.0010208 C28.8066394,6.30266684 28.7877596,6.62472885 28.7740717,6.96363404 C28.7627439,7.30509123 28.7561359,7.68023478 28.7561359,8.08804389 C28.7561359,8.4198035 28.7646318,8.65407682 28.7806797,8.79290545 C28.7948395,8.93122368 28.8207992,9.05269874 28.8557269,9.15630981 C28.9095343,9.31555442 29.0006293,9.43907107 29.129484,9.52583897 C29.2592826,9.61260686 29.4150409,9.65548041 29.5991189,9.65548041 C29.7761171,9.65548041 29.9328194,9.61822126 30.0673379,9.54523415 C30.2018565,9.47071584 30.3075834,9.36455276 30.3873505,9.22419293 C30.4524858,9.10833227 30.4968534,8.95674365 30.5237571,8.77146867 C30.5506608,8.5851729 30.5638767,8.28046446 30.5638767,7.85836417 C30.5638767,7.50465739 30.5586847,7.17340819 30.5506608,6.86614776 C30.5393329,6.55939773 30.5261171,6.27051168 30.5062933,6 C30.5440529,6.00867679 30.5818125,6.01327038 30.624292,6.01633278 C30.6648836,6.02143677 30.7078351,6.02194717 30.7536186,6.02194717 C30.8027061,6.02194717 30.8451857,6.02143677 30.8871932,6.01633278 C30.9287288,6.01275998 30.9660164,6.00816639 31,6 C30.9848962,6.26183489 30.9740403,6.4981498 30.9660164,6.70690315 C30.9598804,6.9151461 30.9546885,7.09633788 30.9546885,7.2499681 C30.9546885,7.33877759 30.9575205,7.47811663 30.9598804,7.666454 C30.9636564,7.85581217 30.9660164,7.998724 30.9660164,8.09978308 C30.9660164,8.47441623 30.9424166,8.76636468 30.8956891,8.97358683 C30.8494336,9.18080898 30.7729704,9.35638637 30.6639396,9.4987878 C30.5379169,9.6667092 30.3788546,9.79226745 30.1839207,9.87495215 C29.9899308,9.95967845 29.7605412,10 29.4952801,10 C29.2050031,10 28.9548458,9.95355366 28.7419761,9.86066097 C28.5324103,9.76674748 28.37382,9.63302284 28.2680931,9.45897665 C28.187382,9.3318872 28.1312146,9.1665178 28.0991189,8.96235805 C28.0651353,8.75819829 28.0495595,8.43664668 28.0495595,7.99464081 L28.0495595,7.48985581 C28.0495595,7.12900345 28.0448395,6.83807579 28.0368156,6.61605206 C28.0278477,6.39606992 28.0165198,6.19088937 28,6.0010208" id="Path" fill="#274896"></path>
            <path d="M32,10 C32.0207612,9.79505852 32.0370737,9.55838752 32.04696,9.29154746 C32.0568463,9.02678804 32.0598122,8.59817945 32.0598122,8.00572172 L32.0598122,7.71235371 C32.0598122,7.2686606 32.0568463,6.92379714 32.04696,6.67308192 C32.0365793,6.42340702 32.0207612,6.19921977 32,6 C32.1606525,6.00884265 32.3302027,6.01404421 32.5012358,6.01716515 C32.6747405,6.02236671 32.8536826,6.02236671 33.0415225,6.02236671 C33.230351,6.02236671 33.4023727,6.02236671 33.5590707,6.01716515 C33.7137914,6.01352406 33.862086,6.0083225 34,6 C33.9925853,6.06605982 33.9866535,6.11547464 33.9841819,6.15240572 C33.9817103,6.18881664 33.9817103,6.22158648 33.9817103,6.25279584 C33.9817103,6.28244473 33.9817103,6.31417425 33.9841819,6.34902471 C33.9871478,6.38283485 33.9930796,6.43172952 34,6.49778934 C33.7419674,6.48010403 33.5180425,6.46397919 33.3297084,6.45461638 C33.1408799,6.44369311 32.9757785,6.43745124 32.835393,6.43589077 C32.8294612,6.50663199 32.8240237,6.5810143 32.8205635,6.66111834 C32.8190806,6.74226268 32.8190806,6.86085826 32.8190806,7.01742523 L32.8190806,7.29570871 L32.8205635,7.69414824 C32.9307958,7.68894668 33.1166584,7.68322497 33.3816115,7.67126138 C33.6465645,7.66137841 33.8462679,7.65357607 33.9817103,7.64681404 C33.971824,7.7076723 33.9673752,7.75396619 33.9644093,7.78881664 C33.9609491,7.82522757 33.9609491,7.85955787 33.9609491,7.89336801 C33.9609491,7.94642393 33.9668809,8.02444733 33.9772615,8.12691808 C33.9802274,8.13472042 33.9817103,8.14148244 33.9817103,8.14460338 C33.6628769,8.12327698 33.4211567,8.10871261 33.2540781,8.10091027 C33.0884825,8.0946684 32.9431537,8.09102731 32.8190806,8.09102731 L32.8190806,8.79427828 C32.8190806,9.0449935 32.8190806,9.22184655 32.8230351,9.32275683 C32.8269896,9.42470741 32.8324271,9.50845254 32.8383589,9.57763329 C32.9970341,9.57087126 33.1725161,9.56202861 33.3657934,9.54694408 C33.5610479,9.53342003 33.7706377,9.51313394 34,9.4923277 C33.9945625,9.52977893 33.9925853,9.56827048 33.9886307,9.6046814 C33.9866535,9.64109233 33.9866535,9.67906372 33.9866535,9.71963589 C33.9866535,9.76020806 33.9886307,9.81118336 33.9925853,9.87828349 C33.9990114,9.94382315 34,9.98335501 34,9.99947984 C33.6544736,9.98803641 33.3880376,9.98023407 33.2031636,9.97763329 C33.0177954,9.97295189 32.8665348,9.97087126 32.7518537,9.97087126 C32.5961443,9.97087126 32.4582304,9.97295189 32.3381117,9.97763329 C32.2179931,9.98283485 32.1052892,9.99063719 32,10" id="Path" fill="#274896"></path>
            <path d="M36.2716798,10 C36.146604,9.56122316 35.9719527,8.98972023 35.7468163,8.28549122 C35.5230443,7.58178269 35.2742571,6.81977879 35,6 C35.0627653,6.00884841 35.1264403,6.01353286 35.1923893,6.01665582 C35.2578836,6.02186077 35.3288357,6.02238126 35.4061552,6.02238126 C35.4802911,6.02238126 35.5503335,6.02186077 35.6158278,6.01665582 C35.6831413,6.01301236 35.7454518,6.00832791 35.8054882,6 C35.9078229,6.35653871 36.0260764,6.7718933 36.1657065,7.2424203 C36.3053366,7.71346779 36.4690722,8.26467144 36.6591874,8.89394925 C36.8097332,8.46506181 36.9611886,8.00806766 37.107641,7.52556929 C37.2554579,7.04307092 37.4019102,6.53402733 37.5465434,6 C37.5820194,6.00884841 37.6197696,6.01353286 37.6538811,6.01665582 C37.6893572,6.02186077 37.7289266,6.02238126 37.7689509,6.02238126 C37.8135233,6.02238126 37.8549121,6.02186077 37.8922074,6.01665582 C37.9308672,6.01301236 37.9677077,6.00832791 38,6 C37.7571255,6.65530254 37.5247119,7.31685101 37.3032141,7.98360442 C37.0826258,8.65087833 36.8720437,9.3223162 36.6723772,9.99947951 C36.6369012,9.99011061 36.6018799,9.98438517 36.5682232,9.97970072 C36.5359309,9.97501627 36.5045482,9.97345478 36.4713463,9.97345478 C36.4431474,9.97345478 36.4113099,9.97501627 36.3776531,9.97970072 C36.3439964,9.98542615 36.3089751,9.99219258 36.2716798,10" id="Path" fill="#274896"></path>
            <path d="M38.8512355,8.00325937 C38.8512355,8.52776733 38.9520928,8.93894948 39.1568331,9.23279428 C39.3585477,9.53065062 39.6404438,9.67707158 40,9.67707158 C40.3555219,9.67707158 40.6343923,9.5291463 40.8381241,9.23128996 C41.0413515,8.93343362 41.1422088,8.52526012 41.1422088,8.00325937 C41.1422088,7.47273411 41.0413515,7.05904475 40.8381241,6.76118842 C40.6343923,6.46383352 40.3555219,6.31340103 40,6.31340103 C39.6419566,6.31340103 39.3615734,6.46383352 39.1578417,6.76469851 C38.9536056,7.06305629 38.8512355,7.47473988 38.8512355,8.00325937 M38,8.05741507 C38,7.41456688 38.1820474,6.91061803 38.5456379,6.54707283 C38.910237,6.18102043 39.4135149,6 40.0579929,6 C40.677761,6 41.1568331,6.17400025 41.494705,6.52099787 C41.8325769,6.86749405 42,7.36091262 42,8.00325937 C42,8.60799799 41.8184569,9.09389495 41.4558749,9.45643726 C41.0927887,9.81897957 40.6066566,10 40.0015129,10 C39.3585477,10 38.8638427,9.83301993 38.519415,9.49705403 C38.1729702,9.16008525 38,8.68170992 38,8.05741507" id="Shape" fill="#274896"></path>
            <path d="M44.6459633,7.75292588 C44.6567094,7.75292588 44.6702416,7.75396619 44.6893459,7.75552666 C44.7084502,7.75708713 44.7219824,7.75968791 44.7295445,7.75968791 C44.9277513,7.75968791 45.0750134,7.69622887 45.1713308,7.56775033 C45.2668522,7.44031209 45.3150109,7.24421326 45.3150109,6.97737321 C45.3150109,6.76410923 45.2716282,6.60286086 45.186455,6.49050715 C45.0996898,6.38023407 44.974318,6.32405722 44.8095436,6.32405722 L44.7597929,6.32405722 C44.7434747,6.32509753 44.7148182,6.32873862 44.6762117,6.33654096 C44.6654655,6.43537061 44.6586994,6.54460338 44.6535254,6.66371912 C44.6495453,6.78387516 44.6459633,6.91651495 44.6459633,7.06111834 L44.6459633,7.75292588 Z M44.6662616,9.66137841 C44.700092,9.67126138 44.7287484,9.67698309 44.7498428,9.68218466 C44.7721311,9.68686606 44.7932254,9.68894668 44.8131257,9.68894668 C44.9842681,9.68894668 45.116406,9.61820546 45.2091413,9.4756827 C45.3022747,9.33524057 45.3476473,9.13289987 45.3476473,8.87022107 C45.3476473,8.60962289 45.2986926,8.41040312 45.2015792,8.27152146 C45.1020778,8.13472042 44.9611838,8.06710013 44.7753151,8.06710013 C44.7434747,8.06710013 44.7184003,8.06710013 44.700092,8.0686606 C44.6837738,8.06918075 44.6662616,8.07230169 44.6495453,8.07490247 L44.6495453,8.83381014 C44.6495453,8.96697009 44.6515353,9.10429129 44.6539234,9.24369311 C44.6575054,9.38153446 44.6610875,9.51989597 44.6662616,9.66137841 L44.6662616,9.66137841 Z M44,10 C44.0143282,9.83094928 44.0246764,9.63745124 44.0334325,9.42158648 C44.0409946,9.20728218 44.0437806,8.9076723 44.0437806,8.5243173 L44.0437806,8.00572172 C44.0437806,7.40078023 44.0409946,6.96905072 44.0346265,6.7053316 C44.0270644,6.4390117 44.0159202,6.20442133 44,6 C44.1221878,6.00624187 44.2284553,6.00988296 44.3152205,6.01404421 C44.4039758,6.01664499 44.4736268,6.01924577 44.5261635,6.01924577 C44.5834764,6.01924577 44.6666596,6.01508453 44.7765091,6.00988296 C44.8843687,6.00416125 44.9623778,6 45.0089445,6 C45.3146128,6 45.5450582,6.07750325 45.6986884,6.23146944 C45.8527166,6.38491547 45.9291337,6.61482445 45.9291337,6.92119636 C45.9291337,7.19375813 45.8551046,7.41170351 45.7078425,7.5739922 C45.5605804,7.73628088 45.3512294,7.83094928 45.0801875,7.85487646 L45.0801875,7.88660598 C45.3906319,7.88660598 45.6210772,7.96931079 45.7731154,8.13420026 C45.9251536,8.2970091 45.9999787,8.54720416 45.9999787,8.88790637 C46.0015707,9.23797139 45.9140094,9.510013 45.7400809,9.70715215 C45.5681425,9.90221066 45.325757,9.99947984 45.0133225,9.99947984 C44.9377014,9.99947984 44.8186977,9.99583875 44.6579034,9.98803641 C44.4951191,9.97971391 44.3721353,9.97711313 44.2881561,9.97711313 C44.2372114,9.97711313 44.1544262,9.98335501 44.0350245,9.99687906 C44.0183083,10 44.0079601,10 44,10 L44,10 Z" id="Shape" fill="#274896"></path>
            <path d="M47,10 C47.2297968,9.38390805 47.455079,8.74482759 47.6740406,8.0807152 C47.8939052,7.41711367 48.1106095,6.72286079 48.323702,6 C48.3575621,6.00613027 48.3896163,6.0091954 48.420316,6.01174968 C48.4514673,6.01532567 48.4826185,6.01685824 48.5133183,6.01685824 C48.5422122,6.01685824 48.572009,6.01532567 48.6,6.01174968 C48.627991,6.0091954 48.6559819,6.00613027 48.6817156,6 C48.8726862,6.63652618 49.0794582,7.28786718 49.2970655,7.95249042 C49.5160271,8.61864623 49.7507901,9.30217114 50,9.99948914 C49.9399549,9.99029374 49.8767494,9.98671775 49.8090293,9.98314176 C49.7426637,9.97854406 49.6713318,9.97803321 49.593228,9.97803321 C49.5164786,9.97803321 49.4442438,9.97854406 49.3792325,9.98314176 C49.3128668,9.98722861 49.2478555,9.9908046 49.1846501,9.99948914 C49.1476298,9.85542784 49.1065463,9.70319285 49.0636569,9.54074074 C49.0185102,9.37828863 48.9557562,9.14533844 48.8717833,8.84240102 C48.8072235,8.83933589 48.737246,8.83678161 48.6613995,8.83371648 C48.5837472,8.83218391 48.4708804,8.8311622 48.3191874,8.8311622 C48.1674944,8.8311622 48.0532731,8.83218391 47.9765237,8.83371648 C47.8997743,8.83678161 47.8288939,8.83933589 47.7638826,8.84240102 C47.6740406,9.16934866 47.6045147,9.41149425 47.5571106,9.57037037 C47.510158,9.72924649 47.4681716,9.87228608 47.4288939,9.99948914 C47.3851016,9.99029374 47.3453725,9.98671775 47.3137698,9.98314176 C47.282167,9.97854406 47.2528217,9.97803321 47.2252822,9.97803321 C47.1832957,9.97803321 47.11693,9.98416347 47.0261851,9.99744572 C47.0148984,10 47.0058691,10 47,10 M47.8952596,8.46436782 L47.9088036,8.46436782 C48.089842,8.47254151 48.2257336,8.47560664 48.3182844,8.47560664 L48.4776524,8.47560664 C48.5345372,8.47458493 48.6207675,8.46998723 48.7390519,8.46436782 C48.6785553,8.23550447 48.6126411,8.01277139 48.5440181,7.7936143 C48.476298,7.57292465 48.4040632,7.35734355 48.3286682,7.14789272 C48.2492099,7.35223499 48.1751693,7.56372925 48.1029345,7.78288633 C48.0302483,8.00153257 47.9616253,8.22784163 47.8952596,8.46436782" id="Shape" fill="#274896"></path>
            <path d="M51.0018901,10 C51.0174831,9.71990108 51.031186,9.41689444 51.0415814,9.09358324 C51.0500866,8.76818951 51.0538668,8.41676428 51.0538668,8.03774567 C51.0538668,7.67799037 51.0496141,7.3276064 51.0415814,6.98659378 C51.0307135,6.64506052 51.0170106,6.31498113 51,6 C51.0396913,6.00572693 51.0822177,6.0104126 51.1252166,6.01457764 C51.167743,6.01822205 51.216412,6.01978394 51.2679162,6.01978394 C51.3180028,6.01978394 51.3647819,6.01822205 51.4101433,6.01509827 C51.4517247,6.0104126 51.4937785,6.0052063 51.5339424,6 C51.8722633,6.44565925 52.2124744,6.89183913 52.5569381,7.34062215 C52.9023468,7.78784329 53.2501181,8.23766758 53.6026146,8.68697124 L53.6026146,7.99713654 C53.6026146,7.86854093 53.600252,7.62228296 53.5964719,7.25367695 C53.5931643,6.88559157 53.5893842,6.46804634 53.5827689,6 C53.613955,6.00572693 53.6465585,6.0104126 53.6801071,6.01457764 C53.7131832,6.01822205 53.7486218,6.01978394 53.7859505,6.01978394 C53.8280044,6.01978394 53.8662782,6.01822205 53.9012443,6.01457764 C53.9362104,6.00989197 53.969759,6.0052063 54,6 C53.9858245,6.16556033 53.9740117,6.42118964 53.969759,6.76844982 C53.9636163,7.11414812 53.9617263,7.67174281 53.9617263,8.439672 L53.9617263,8.7645451 C53.9617263,9.07640245 53.9636163,9.32526357 53.969759,9.50696343 C53.9754292,9.69126643 53.985352,9.85526487 54,9.99895874 C53.9617263,9.9895874 53.9243975,9.98229858 53.8889589,9.97709228 C53.8544653,9.97240661 53.8194991,9.97032409 53.7859505,9.97032409 C53.7538195,9.97032409 53.7202709,9.97240661 53.6829422,9.97709228 C53.6475035,9.98229858 53.6092298,9.99010803 53.5685935,9.99895874 C53.2605135,9.58245477 52.9288077,9.14668749 52.5786738,8.69113627 C52.2266499,8.23350254 51.8358797,7.73369777 51.4054182,7.19276324 L51.4054182,8.90407393 C51.4054182,8.9748796 51.4082533,9.10920213 51.4125059,9.30912404 C51.4148685,9.50904595 51.4191211,9.7376025 51.4257363,9.99895874 C51.3836825,9.9895874 51.3444637,9.98229858 51.3118601,9.97709228 C51.2792566,9.97240661 51.2452355,9.97032409 51.2140495,9.97032409 C51.1823909,9.97032409 51.1502599,9.97240661 51.1157663,9.97709228 C51.0803276,9.98281921 51.0425264,9.99062866 51.0018901,10" id="Path" fill="#274896"></path>
            <path d="M57.8732196,6.96232319 L57.8041947,6.97333834 C57.7497261,6.77306296 57.6464235,6.61784954 57.4867741,6.50669671 C57.3313508,6.39654525 57.1346064,6.34096883 56.9002974,6.34096883 C56.5467209,6.34096883 56.2696823,6.48216297 56.0729379,6.7670547 C55.8771326,7.05144574 55.7771169,7.45049443 55.7771169,7.96520215 C55.7771169,8.51746151 55.8785412,8.94054325 56.0795117,9.2329453 C56.2804821,9.5233446 56.5730161,9.66804356 56.9561747,9.66804356 C57.1205196,9.66804356 57.2862733,9.6314933 57.4562529,9.55739141 C57.6220066,9.48529228 57.7755517,9.38265115 57.9126624,9.2504694 L57.9718266,9.2674928 L57.8586633,9.73914132 C57.7008922,9.8267618 57.5365472,9.89285267 57.3651589,9.93541119 C57.1951792,9.9784704 57.0153389,10 56.8256378,10 C56.2499609,10 55.8029426,9.82475904 55.481296,9.46977094 C55.1605885,9.11628489 55,8.61960195 55,7.98573038 C55,7.38540493 55.172797,6.90374265 55.518391,6.54224559 C55.8644545,6.17974715 56.3260291,6 56.9054625,6 C57.0895289,6 57.2707779,6.02203029 57.4515574,6.06959569 C57.6318673,6.11415697 57.8149945,6.18425335 58,6.28088622 C57.9718266,6.38252597 57.9464705,6.49067468 57.9253404,6.60383027 C57.9028017,6.71648517 57.8849585,6.83514833 57.8732196,6.96232319" id="Path" fill="#274896"></path>
            <path d="M59.8512355,8.00325937 C59.8512355,8.52776733 59.9520928,8.93894948 60.1553202,9.23279428 C60.3580434,9.53065062 60.6404438,9.67707158 61,9.67707158 C61.3555219,9.67707158 61.6348966,9.5291463 61.8371155,9.23128996 C62.0413515,8.93343362 62.1432173,8.52526012 62.1432173,8.00325937 C62.1432173,7.47273411 62.0413515,7.05904475 61.8371155,6.76118842 C61.6348966,6.46383352 61.3555219,6.31340103 61,6.31340103 C60.6424609,6.31340103 60.3610691,6.46383352 60.1568331,6.76469851 C59.9531014,7.06305629 59.8512355,7.47473988 59.8512355,8.00325937 M59,8.05741507 C59,7.41456688 59.1825517,6.91061803 59.5466465,6.54707283 C59.910237,6.18102043 60.4140192,6 61.0590015,6 C61.6787695,6 62.1568331,6.17400025 62.4952093,6.52099787 C62.8320726,6.86749405 63,7.36091262 63,8.00325937 C63,8.60799799 62.8189612,9.09389495 62.4558749,9.45643726 C62.0927887,9.81897957 61.6066566,10 61.0005043,10 C60.3575391,10 59.8643469,9.83301993 59.5189107,9.49705403 C59.1744831,9.16008525 59,8.68170992 59,8.05741507" id="Shape" fill="#274896"></path>
            <path d="M23.0018904,10 C23.0174858,9.71990108 23.0316635,9.41689444 23.0415879,9.09358324 C23.0500945,8.76818951 23.0548204,8.41676428 23.0548204,8.03774567 C23.055293,7.67799037 23.0496219,7.3276064 23.0415879,6.98659378 C23.0316635,6.64506052 23.0174858,6.31498113 23,6 C23.0401701,6.00572693 23.0822306,6.0104126 23.1257089,6.01457764 C23.1701323,6.01822205 23.2169187,6.01978394 23.2679584,6.01978394 C23.3189981,6.01978394 23.3653119,6.01822205 23.4087902,6.01509827 C23.4532136,6.0104126 23.4952741,6.0052063 23.5340265,6 C23.8728733,6.44565925 24.2136106,6.89183913 24.5581285,7.34062215 C24.9035917,7.78784329 25.2504726,8.23766758 25.6034972,8.68697124 L25.6034972,7.99713654 C25.6034972,7.86854093 25.6011342,7.62228296 25.5973535,7.25367695 C25.5954631,6.88559157 25.5907372,6.46804634 25.584121,6 C25.6138941,6.00572693 25.6465028,6.0104126 25.6800567,6.01457764 C25.7136106,6.01822205 25.75,6.01978394 25.7859168,6.01978394 C25.8289225,6.01978394 25.8667297,6.01822205 25.9017013,6.01457764 C25.9371456,6.00989197 25.9692817,6.0052063 26,6 C25.9858223,6.16556033 25.9758979,6.42118964 25.9692817,6.76844982 C25.9640832,7.11414812 25.9612476,7.67174281 25.9612476,8.439672 L25.9612476,8.7645451 C25.9612476,9.07640245 25.9640832,9.32526357 25.9692817,9.50696343 C25.9758979,9.69126643 25.9853497,9.85526487 26,9.99895874 C25.9612476,9.9895874 25.9243856,9.98229858 25.8898866,9.97709228 C25.8544423,9.97240661 25.8208885,9.97032409 25.7859168,9.97032409 C25.7556711,9.97032409 25.7202268,9.97240661 25.6847826,9.97709228 C25.6469754,9.98229858 25.6091682,9.99010803 25.5685255,9.99895874 C25.260397,9.58245477 24.9295841,9.14668749 24.5779773,8.69113627 C24.2268431,8.23350254 23.8355388,7.73369777 23.405482,7.19276324 L23.405482,8.90407393 C23.405482,8.9748796 23.4083176,9.10920213 23.4125709,9.30912404 C23.4163516,9.50904595 23.4187146,9.7376025 23.4258034,9.99895874 C23.3837429,9.9895874 23.3449905,9.98229858 23.3114367,9.97709228 C23.2793006,9.97240661 23.2457467,9.97032409 23.2140832,9.97032409 C23.1819471,9.97032409 23.1493384,9.97240661 23.1148393,9.97709228 C23.0803403,9.98281921 23.0434783,9.99062866 23.0018904,10" id="Path" fill="#274896"></path>
            <path d="M28,6.0010208 C28.0627753,6.00969759 28.1297986,6.01429118 28.2001259,6.01735358 C28.2723411,6.02245757 28.3455003,6.02296797 28.4257395,6.02296797 C28.5026746,6.02296797 28.5734739,6.02245757 28.6409692,6.01735358 C28.7065765,6.01378078 28.7712398,6.00918719 28.8316551,6.0010208 C28.8066394,6.30266684 28.7877596,6.62472885 28.7740717,6.96363404 C28.7627439,7.30509123 28.7561359,7.68023478 28.7561359,8.08804389 C28.7561359,8.4198035 28.7646318,8.65407682 28.7806797,8.79290545 C28.7948395,8.93122368 28.8207992,9.05269874 28.8557269,9.15630981 C28.9095343,9.31555442 29.0006293,9.43907107 29.129484,9.52583897 C29.2592826,9.61260686 29.4150409,9.65548041 29.5991189,9.65548041 C29.7761171,9.65548041 29.9328194,9.61822126 30.0673379,9.54523415 C30.2018565,9.47071584 30.3075834,9.36455276 30.3873505,9.22419293 C30.4524858,9.10833227 30.4968534,8.95674365 30.5237571,8.77146867 C30.5506608,8.5851729 30.5638767,8.28046446 30.5638767,7.85836417 C30.5638767,7.50465739 30.5586847,7.17340819 30.5506608,6.86614776 C30.5393329,6.55939773 30.5261171,6.27051168 30.5062933,6 C30.5440529,6.00867679 30.5818125,6.01327038 30.624292,6.01633278 C30.6648836,6.02143677 30.7078351,6.02194717 30.7536186,6.02194717 C30.8027061,6.02194717 30.8451857,6.02143677 30.8871932,6.01633278 C30.9287288,6.01275998 30.9660164,6.00816639 31,6 C30.9848962,6.26183489 30.9740403,6.4981498 30.9660164,6.70690315 C30.9598804,6.9151461 30.9546885,7.09633788 30.9546885,7.2499681 C30.9546885,7.33877759 30.9575205,7.47811663 30.9598804,7.666454 C30.9636564,7.85581217 30.9660164,7.998724 30.9660164,8.09978308 C30.9660164,8.47441623 30.9424166,8.76636468 30.8956891,8.97358683 C30.8494336,9.18080898 30.7729704,9.35638637 30.6639396,9.4987878 C30.5379169,9.6667092 30.3788546,9.79226745 30.1839207,9.87495215 C29.9899308,9.95967845 29.7605412,10 29.4952801,10 C29.2050031,10 28.9548458,9.95355366 28.7419761,9.86066097 C28.5324103,9.76674748 28.37382,9.63302284 28.2680931,9.45897665 C28.187382,9.3318872 28.1312146,9.1665178 28.0991189,8.96235805 C28.0651353,8.75819829 28.0495595,8.43664668 28.0495595,7.99464081 L28.0495595,7.48985581 C28.0495595,7.12900345 28.0448395,6.83807579 28.0368156,6.61605206 C28.0278477,6.39606992 28.0165198,6.19088937 28,6.0010208" id="Path" fill="#274896"></path>
            <path d="M32,10 C32.0207612,9.79505852 32.0370737,9.55838752 32.04696,9.29154746 C32.0568463,9.02678804 32.0598122,8.59817945 32.0598122,8.00572172 L32.0598122,7.71235371 C32.0598122,7.2686606 32.0568463,6.92379714 32.04696,6.67308192 C32.0365793,6.42340702 32.0207612,6.19921977 32,6 C32.1606525,6.00884265 32.3302027,6.01404421 32.5012358,6.01716515 C32.6747405,6.02236671 32.8536826,6.02236671 33.0415225,6.02236671 C33.230351,6.02236671 33.4023727,6.02236671 33.5590707,6.01716515 C33.7137914,6.01352406 33.862086,6.0083225 34,6 C33.9925853,6.06605982 33.9866535,6.11547464 33.9841819,6.15240572 C33.9817103,6.18881664 33.9817103,6.22158648 33.9817103,6.25279584 C33.9817103,6.28244473 33.9817103,6.31417425 33.9841819,6.34902471 C33.9871478,6.38283485 33.9930796,6.43172952 34,6.49778934 C33.7419674,6.48010403 33.5180425,6.46397919 33.3297084,6.45461638 C33.1408799,6.44369311 32.9757785,6.43745124 32.835393,6.43589077 C32.8294612,6.50663199 32.8240237,6.5810143 32.8205635,6.66111834 C32.8190806,6.74226268 32.8190806,6.86085826 32.8190806,7.01742523 L32.8190806,7.29570871 L32.8205635,7.69414824 C32.9307958,7.68894668 33.1166584,7.68322497 33.3816115,7.67126138 C33.6465645,7.66137841 33.8462679,7.65357607 33.9817103,7.64681404 C33.971824,7.7076723 33.9673752,7.75396619 33.9644093,7.78881664 C33.9609491,7.82522757 33.9609491,7.85955787 33.9609491,7.89336801 C33.9609491,7.94642393 33.9668809,8.02444733 33.9772615,8.12691808 C33.9802274,8.13472042 33.9817103,8.14148244 33.9817103,8.14460338 C33.6628769,8.12327698 33.4211567,8.10871261 33.2540781,8.10091027 C33.0884825,8.0946684 32.9431537,8.09102731 32.8190806,8.09102731 L32.8190806,8.79427828 C32.8190806,9.0449935 32.8190806,9.22184655 32.8230351,9.32275683 C32.8269896,9.42470741 32.8324271,9.50845254 32.8383589,9.57763329 C32.9970341,9.57087126 33.1725161,9.56202861 33.3657934,9.54694408 C33.5610479,9.53342003 33.7706377,9.51313394 34,9.4923277 C33.9945625,9.52977893 33.9925853,9.56827048 33.9886307,9.6046814 C33.9866535,9.64109233 33.9866535,9.67906372 33.9866535,9.71963589 C33.9866535,9.76020806 33.9886307,9.81118336 33.9925853,9.87828349 C33.9990114,9.94382315 34,9.98335501 34,9.99947984 C33.6544736,9.98803641 33.3880376,9.98023407 33.2031636,9.97763329 C33.0177954,9.97295189 32.8665348,9.97087126 32.7518537,9.97087126 C32.5961443,9.97087126 32.4582304,9.97295189 32.3381117,9.97763329 C32.2179931,9.98283485 32.1052892,9.99063719 32,10" id="Path" fill="#274896"></path>
            <path d="M36.2716798,10 C36.146604,9.56122316 35.9719527,8.98972023 35.7468163,8.28549122 C35.5230443,7.58178269 35.2742571,6.81977879 35,6 C35.0627653,6.00884841 35.1264403,6.01353286 35.1923893,6.01665582 C35.2578836,6.02186077 35.3288357,6.02238126 35.4061552,6.02238126 C35.4802911,6.02238126 35.5503335,6.02186077 35.6158278,6.01665582 C35.6831413,6.01301236 35.7454518,6.00832791 35.8054882,6 C35.9078229,6.35653871 36.0260764,6.7718933 36.1657065,7.2424203 C36.3053366,7.71346779 36.4690722,8.26467144 36.6591874,8.89394925 C36.8097332,8.46506181 36.9611886,8.00806766 37.107641,7.52556929 C37.2554579,7.04307092 37.4019102,6.53402733 37.5465434,6 C37.5820194,6.00884841 37.6197696,6.01353286 37.6538811,6.01665582 C37.6893572,6.02186077 37.7289266,6.02238126 37.7689509,6.02238126 C37.8135233,6.02238126 37.8549121,6.02186077 37.8922074,6.01665582 C37.9308672,6.01301236 37.9677077,6.00832791 38,6 C37.7571255,6.65530254 37.5247119,7.31685101 37.3032141,7.98360442 C37.0826258,8.65087833 36.8720437,9.3223162 36.6723772,9.99947951 C36.6369012,9.99011061 36.6018799,9.98438517 36.5682232,9.97970072 C36.5359309,9.97501627 36.5045482,9.97345478 36.4713463,9.97345478 C36.4431474,9.97345478 36.4113099,9.97501627 36.3776531,9.97970072 C36.3439964,9.98542615 36.3089751,9.99219258 36.2716798,10" id="Path" fill="#274896"></path>
            <path d="M38.8512355,8.00325937 C38.8512355,8.52776733 38.9520928,8.93894948 39.1568331,9.23279428 C39.3585477,9.53065062 39.6404438,9.67707158 40,9.67707158 C40.3555219,9.67707158 40.6343923,9.5291463 40.8381241,9.23128996 C41.0413515,8.93343362 41.1422088,8.52526012 41.1422088,8.00325937 C41.1422088,7.47273411 41.0413515,7.05904475 40.8381241,6.76118842 C40.6343923,6.46383352 40.3555219,6.31340103 40,6.31340103 C39.6419566,6.31340103 39.3615734,6.46383352 39.1578417,6.76469851 C38.9536056,7.06305629 38.8512355,7.47473988 38.8512355,8.00325937 M38,8.05741507 C38,7.41456688 38.1820474,6.91061803 38.5456379,6.54707283 C38.910237,6.18102043 39.4135149,6 40.0579929,6 C40.677761,6 41.1568331,6.17400025 41.494705,6.52099787 C41.8325769,6.86749405 42,7.36091262 42,8.00325937 C42,8.60799799 41.8184569,9.09389495 41.4558749,9.45643726 C41.0927887,9.81897957 40.6066566,10 40.0015129,10 C39.3585477,10 38.8638427,9.83301993 38.519415,9.49705403 C38.1729702,9.16008525 38,8.68170992 38,8.05741507" id="Shape" fill="#274896"></path>
            <path d="M44.6459633,7.75292588 C44.6567094,7.75292588 44.6702416,7.75396619 44.6893459,7.75552666 C44.7084502,7.75708713 44.7219824,7.75968791 44.7295445,7.75968791 C44.9277513,7.75968791 45.0750134,7.69622887 45.1713308,7.56775033 C45.2668522,7.44031209 45.3150109,7.24421326 45.3150109,6.97737321 C45.3150109,6.76410923 45.2716282,6.60286086 45.186455,6.49050715 C45.0996898,6.38023407 44.974318,6.32405722 44.8095436,6.32405722 L44.7597929,6.32405722 C44.7434747,6.32509753 44.7148182,6.32873862 44.6762117,6.33654096 C44.6654655,6.43537061 44.6586994,6.54460338 44.6535254,6.66371912 C44.6495453,6.78387516 44.6459633,6.91651495 44.6459633,7.06111834 L44.6459633,7.75292588 Z M44.6662616,9.66137841 C44.700092,9.67126138 44.7287484,9.67698309 44.7498428,9.68218466 C44.7721311,9.68686606 44.7932254,9.68894668 44.8131257,9.68894668 C44.9842681,9.68894668 45.116406,9.61820546 45.2091413,9.4756827 C45.3022747,9.33524057 45.3476473,9.13289987 45.3476473,8.87022107 C45.3476473,8.60962289 45.2986926,8.41040312 45.2015792,8.27152146 C45.1020778,8.13472042 44.9611838,8.06710013 44.7753151,8.06710013 C44.7434747,8.06710013 44.7184003,8.06710013 44.700092,8.0686606 C44.6837738,8.06918075 44.6662616,8.07230169 44.6495453,8.07490247 L44.6495453,8.83381014 C44.6495453,8.96697009 44.6515353,9.10429129 44.6539234,9.24369311 C44.6575054,9.38153446 44.6610875,9.51989597 44.6662616,9.66137841 L44.6662616,9.66137841 Z M44,10 C44.0143282,9.83094928 44.0246764,9.63745124 44.0334325,9.42158648 C44.0409946,9.20728218 44.0437806,8.9076723 44.0437806,8.5243173 L44.0437806,8.00572172 C44.0437806,7.40078023 44.0409946,6.96905072 44.0346265,6.7053316 C44.0270644,6.4390117 44.0159202,6.20442133 44,6 C44.1221878,6.00624187 44.2284553,6.00988296 44.3152205,6.01404421 C44.4039758,6.01664499 44.4736268,6.01924577 44.5261635,6.01924577 C44.5834764,6.01924577 44.6666596,6.01508453 44.7765091,6.00988296 C44.8843687,6.00416125 44.9623778,6 45.0089445,6 C45.3146128,6 45.5450582,6.07750325 45.6986884,6.23146944 C45.8527166,6.38491547 45.9291337,6.61482445 45.9291337,6.92119636 C45.9291337,7.19375813 45.8551046,7.41170351 45.7078425,7.5739922 C45.5605804,7.73628088 45.3512294,7.83094928 45.0801875,7.85487646 L45.0801875,7.88660598 C45.3906319,7.88660598 45.6210772,7.96931079 45.7731154,8.13420026 C45.9251536,8.2970091 45.9999787,8.54720416 45.9999787,8.88790637 C46.0015707,9.23797139 45.9140094,9.510013 45.7400809,9.70715215 C45.5681425,9.90221066 45.325757,9.99947984 45.0133225,9.99947984 C44.9377014,9.99947984 44.8186977,9.99583875 44.6579034,9.98803641 C44.4951191,9.97971391 44.3721353,9.97711313 44.2881561,9.97711313 C44.2372114,9.97711313 44.1544262,9.98335501 44.0350245,9.99687906 C44.0183083,10 44.0079601,10 44,10 L44,10 Z" id="Shape" fill="#274896"></path>
            <path d="M47,10 C47.2297968,9.38390805 47.455079,8.74482759 47.6740406,8.0807152 C47.8939052,7.41711367 48.1106095,6.72286079 48.323702,6 C48.3575621,6.00613027 48.3896163,6.0091954 48.420316,6.01174968 C48.4514673,6.01532567 48.4826185,6.01685824 48.5133183,6.01685824 C48.5422122,6.01685824 48.572009,6.01532567 48.6,6.01174968 C48.627991,6.0091954 48.6559819,6.00613027 48.6817156,6 C48.8726862,6.63652618 49.0794582,7.28786718 49.2970655,7.95249042 C49.5160271,8.61864623 49.7507901,9.30217114 50,9.99948914 C49.9399549,9.99029374 49.8767494,9.98671775 49.8090293,9.98314176 C49.7426637,9.97854406 49.6713318,9.97803321 49.593228,9.97803321 C49.5164786,9.97803321 49.4442438,9.97854406 49.3792325,9.98314176 C49.3128668,9.98722861 49.2478555,9.9908046 49.1846501,9.99948914 C49.1476298,9.85542784 49.1065463,9.70319285 49.0636569,9.54074074 C49.0185102,9.37828863 48.9557562,9.14533844 48.8717833,8.84240102 C48.8072235,8.83933589 48.737246,8.83678161 48.6613995,8.83371648 C48.5837472,8.83218391 48.4708804,8.8311622 48.3191874,8.8311622 C48.1674944,8.8311622 48.0532731,8.83218391 47.9765237,8.83371648 C47.8997743,8.83678161 47.8288939,8.83933589 47.7638826,8.84240102 C47.6740406,9.16934866 47.6045147,9.41149425 47.5571106,9.57037037 C47.510158,9.72924649 47.4681716,9.87228608 47.4288939,9.99948914 C47.3851016,9.99029374 47.3453725,9.98671775 47.3137698,9.98314176 C47.282167,9.97854406 47.2528217,9.97803321 47.2252822,9.97803321 C47.1832957,9.97803321 47.11693,9.98416347 47.0261851,9.99744572 C47.0148984,10 47.0058691,10 47,10 M47.8952596,8.46436782 L47.9088036,8.46436782 C48.089842,8.47254151 48.2257336,8.47560664 48.3182844,8.47560664 L48.4776524,8.47560664 C48.5345372,8.47458493 48.6207675,8.46998723 48.7390519,8.46436782 C48.6785553,8.23550447 48.6126411,8.01277139 48.5440181,7.7936143 C48.476298,7.57292465 48.4040632,7.35734355 48.3286682,7.14789272 C48.2492099,7.35223499 48.1751693,7.56372925 48.1029345,7.78288633 C48.0302483,8.00153257 47.9616253,8.22784163 47.8952596,8.46436782" id="Shape" fill="#274896"></path>
            <path d="M51.0018901,10 C51.0174831,9.71990108 51.031186,9.41689444 51.0415814,9.09358324 C51.0500866,8.76818951 51.0538668,8.41676428 51.0538668,8.03774567 C51.0538668,7.67799037 51.0496141,7.3276064 51.0415814,6.98659378 C51.0307135,6.64506052 51.0170106,6.31498113 51,6 C51.0396913,6.00572693 51.0822177,6.0104126 51.1252166,6.01457764 C51.167743,6.01822205 51.216412,6.01978394 51.2679162,6.01978394 C51.3180028,6.01978394 51.3647819,6.01822205 51.4101433,6.01509827 C51.4517247,6.0104126 51.4937785,6.0052063 51.5339424,6 C51.8722633,6.44565925 52.2124744,6.89183913 52.5569381,7.34062215 C52.9023468,7.78784329 53.2501181,8.23766758 53.6026146,8.68697124 L53.6026146,7.99713654 C53.6026146,7.86854093 53.600252,7.62228296 53.5964719,7.25367695 C53.5931643,6.88559157 53.5893842,6.46804634 53.5827689,6 C53.613955,6.00572693 53.6465585,6.0104126 53.6801071,6.01457764 C53.7131832,6.01822205 53.7486218,6.01978394 53.7859505,6.01978394 C53.8280044,6.01978394 53.8662782,6.01822205 53.9012443,6.01457764 C53.9362104,6.00989197 53.969759,6.0052063 54,6 C53.9858245,6.16556033 53.9740117,6.42118964 53.969759,6.76844982 C53.9636163,7.11414812 53.9617263,7.67174281 53.9617263,8.439672 L53.9617263,8.7645451 C53.9617263,9.07640245 53.9636163,9.32526357 53.969759,9.50696343 C53.9754292,9.69126643 53.985352,9.85526487 54,9.99895874 C53.9617263,9.9895874 53.9243975,9.98229858 53.8889589,9.97709228 C53.8544653,9.97240661 53.8194991,9.97032409 53.7859505,9.97032409 C53.7538195,9.97032409 53.7202709,9.97240661 53.6829422,9.97709228 C53.6475035,9.98229858 53.6092298,9.99010803 53.5685935,9.99895874 C53.2605135,9.58245477 52.9288077,9.14668749 52.5786738,8.69113627 C52.2266499,8.23350254 51.8358797,7.73369777 51.4054182,7.19276324 L51.4054182,8.90407393 C51.4054182,8.9748796 51.4082533,9.10920213 51.4125059,9.30912404 C51.4148685,9.50904595 51.4191211,9.7376025 51.4257363,9.99895874 C51.3836825,9.9895874 51.3444637,9.98229858 51.3118601,9.97709228 C51.2792566,9.97240661 51.2452355,9.97032409 51.2140495,9.97032409 C51.1823909,9.97032409 51.1502599,9.97240661 51.1157663,9.97709228 C51.0803276,9.98281921 51.0425264,9.99062866 51.0018901,10" id="Path" fill="#274896"></path>
            <path d="M57.8732196,6.96232319 L57.8041947,6.97333834 C57.7497261,6.77306296 57.6464235,6.61784954 57.4867741,6.50669671 C57.3313508,6.39654525 57.1346064,6.34096883 56.9002974,6.34096883 C56.5467209,6.34096883 56.2696823,6.48216297 56.0729379,6.7670547 C55.8771326,7.05144574 55.7771169,7.45049443 55.7771169,7.96520215 C55.7771169,8.51746151 55.8785412,8.94054325 56.0795117,9.2329453 C56.2804821,9.5233446 56.5730161,9.66804356 56.9561747,9.66804356 C57.1205196,9.66804356 57.2862733,9.6314933 57.4562529,9.55739141 C57.6220066,9.48529228 57.7755517,9.38265115 57.9126624,9.2504694 L57.9718266,9.2674928 L57.8586633,9.73914132 C57.7008922,9.8267618 57.5365472,9.89285267 57.3651589,9.93541119 C57.1951792,9.9784704 57.0153389,10 56.8256378,10 C56.2499609,10 55.8029426,9.82475904 55.481296,9.46977094 C55.1605885,9.11628489 55,8.61960195 55,7.98573038 C55,7.38540493 55.172797,6.90374265 55.518391,6.54224559 C55.8644545,6.17974715 56.3260291,6 56.9054625,6 C57.0895289,6 57.2707779,6.02203029 57.4515574,6.06959569 C57.6318673,6.11415697 57.8149945,6.18425335 58,6.28088622 C57.9718266,6.38252597 57.9464705,6.49067468 57.9253404,6.60383027 C57.9028017,6.71648517 57.8849585,6.83514833 57.8732196,6.96232319" id="Path" fill="#274896"></path>
            <path d="M59.8512355,8.00325937 C59.8512355,8.52776733 59.9520928,8.93894948 60.1553202,9.23279428 C60.3580434,9.53065062 60.6404438,9.67707158 61,9.67707158 C61.3555219,9.67707158 61.6348966,9.5291463 61.8371155,9.23128996 C62.0413515,8.93343362 62.1432173,8.52526012 62.1432173,8.00325937 C62.1432173,7.47273411 62.0413515,7.05904475 61.8371155,6.76118842 C61.6348966,6.46383352 61.3555219,6.31340103 61,6.31340103 C60.6424609,6.31340103 60.3610691,6.46383352 60.1568331,6.76469851 C59.9531014,7.06305629 59.8512355,7.47473988 59.8512355,8.00325937 M59,8.05741507 C59,7.41456688 59.1825517,6.91061803 59.5466465,6.54707283 C59.910237,6.18102043 60.4140192,6 61.0590015,6 C61.6787695,6 62.1568331,6.17400025 62.4952093,6.52099787 C62.8320726,6.86749405 63,7.36091262 63,8.00325937 C63,8.60799799 62.8189612,9.09389495 62.4558749,9.45643726 C62.0927887,9.81897957 61.6066566,10 61.0005043,10 C60.3575391,10 59.8643469,9.83301993 59.5189107,9.49705403 C59.1744831,9.16008525 59,8.68170992 59,8.05741507" id="Shape" fill="#274896"></path>
            <rect id="Rectangle" fill="#274896" x="22" y="10" width="43" height="1"></rect>
            <path d="M18.998911,21.9369983 L18.6417098,21.9369983 C18.3596515,21.6919365 18.1075415,21.513845 17.8957256,21.4037161 C17.681187,21.2920989 17.4829839,21.2340579 17.2994827,21.2340579 C17.117615,21.2340579 16.7598693,21.293091 16.2284236,21.409669 C15.7018786,21.5257509 15.3011163,21.6125643 15.0321263,21.6631641 C14.4130139,21.772797 13.7830112,21.8561378 13.1470188,21.9151709 C12.5093929,21.9702354 11.8646883,22 11.2156276,22 C9.74326164,22 8.37271985,21.8615947 7.10781378,21.5813114 C5.83855159,21.3005322 4.73482167,20.897718 3.79008984,20.3664201 C2.85733733,19.8509967 2.15927035,19.2616578 1.69316635,18.6023721 C1.23087395,17.9391179 1,17.2083972 1,16.4077298 C1,15.6140074 1.23414103,14.9011455 1.70514566,14.2646794 C2.17560577,13.6297015 2.90634359,13.0453234 3.88864688,12.5095607 C4.80506398,12.0085235 5.86632181,11.6324975 7.07133134,11.3775142 C8.27525184,11.1260034 9.6098557,11 11.0751429,11 C11.75633,11 12.4217261,11.0267881 13.0707868,11.0823487 C13.7198475,11.135925 14.3596515,11.2227383 14.9836646,11.3368359 C15.25211,11.382475 15.6539613,11.4653197 16.185407,11.5814016 C16.7163082,11.6979796 17.0691533,11.7565166 17.253199,11.7565166 C17.4345222,11.7565166 17.6327253,11.70046 17.8472638,11.5883467 C18.0628914,11.4787138 18.3052001,11.3006224 18.5823577,11.0555606 L18.9515383,11.0555606 L18.9515383,14.7528186 L18.396134,14.7528186 C17.4993194,13.639623 16.4249932,12.796293 15.1753335,12.2248128 C13.9213177,11.6503563 12.5181051,11.3641201 10.9684182,11.3641201 C8.97767493,11.3641201 7.45739178,11.7991792 6.39722298,12.6722738 C5.33923224,13.5413998 4.81159815,14.8039145 4.81159815,16.4558492 C4.81159815,18.0383332 5.37081405,19.2919185 6.48706779,20.222558 C7.60277702,21.150221 9.09202287,21.6155407 10.9444596,21.6155407 C12.3449496,21.6155407 13.6942554,21.3173988 14.9880207,20.7206187 C16.2855976,20.1248309 17.4584808,19.2591774 18.5132045,18.1261387 L19,18.1261387 L19,21.9369983 L18.998911,21.9369983 Z" id="Path" fill="#FFFFFF"></path>
            <path d="M18.3201896,6.54570485 C17.9658035,6.16629956 17.2217507,5.78689427 16.4145087,5.61398678 C16.8341903,5.54405286 17.2533453,5.26762115 17.5440156,5.13050661 C17.7704436,4.99229075 18.1901251,4.64647577 18.2559472,4.37059471 C18.3528373,4.09526432 18.5144963,3.68061674 18.5144963,3.30011013 C18.5144963,2.88711454 18.3528373,2.40363436 18.1269359,2.09251101 C17.8999814,1.78193833 17.3823566,1.43722467 16.8979061,1.30011013 C16.4145087,1.19548458 15.6688762,1.02367841 14.8621608,1.02367841 L12.7569074,1.02367841 L12.7569074,1 L9.76858506,1 L9.76858506,1.31002203 C10.2509293,1.33259912 10.5889915,1.48292952 10.7880374,1.76431718 C10.9159955,1.94548458 11.0018275,2.21640969 11.04606,2.57654185 L11.04606,7.95539648 L5.39431297,1 L2.00052658,1 L2.00052658,1.32433921 L2.1374365,1.32433921 C2.59766448,1.32433921 2.89412712,1.38215859 3.02629786,1.49834802 C3.15530913,1.61123348 3.22060463,1.90363436 3.22060463,2.36508811 L3.22060463,8.55451542 C3.22060463,9.21310573 3.12950688,9.6839207 2.94941767,9.96751101 C2.76932846,10.2505507 2.45180275,10.4284141 2,10.498348 L2,10.80837 L4.99358816,10.80837 L4.99358816,10.498348 C4.51019081,10.4801762 4.16686284,10.3298458 3.97413579,10.0462555 C3.77614298,9.76321586 3.67714657,9.26707048 3.67714657,8.55506608 L3.67714657,1.96255507 L11.0197311,11 L11.537356,11 L11.537356,10.8270925 L15.4445546,10.8270925 C16.155433,10.8270925 16.9310804,10.6189427 17.4160575,10.5165198 C17.8367922,10.4124449 18.3865382,10.0671806 18.611913,9.68722467 C18.838341,9.37665198 19,8.79019824 19,8.23788546 C18.9994734,7.5814978 18.7088031,6.92566079 18.3201896,6.54570485 L18.3201896,6.54570485 Z M13.8606121,1.98843612 C13.8606121,1.78248899 13.8922067,1.6095815 13.8922067,1.54129956 C13.8922067,1.50660793 13.956449,1.43777533 14.0212179,1.43777533 C14.1191612,1.43777533 14.2808202,1.36839207 14.506195,1.36839207 C14.9916987,1.36839207 15.4445546,1.50660793 15.7020506,1.5407489 C15.9621794,1.57378855 16.3481601,1.85132159 16.4461033,2.09251101 C16.5440466,2.2654185 16.7373002,2.74834802 16.7373002,3.23182819 C16.7378268,3.85297357 16.5429934,4.405837 16.2844443,4.78524229 C16.024842,5.16685022 15.5403915,5.3722467 14.894282,5.3722467 L13.8600855,5.3722467 L13.8600855,1.98843612 L13.8606121,1.98843612 Z M17.0274439,9.16905286 C17.0274439,9.34251101 16.8020691,9.75605727 16.6730579,9.89482379 C16.54352,10.06663 16.2191488,10.3089207 15.9600731,10.3419604 C15.7662929,10.3788546 15.3466113,10.4460352 14.9590509,10.4460352 C14.5377896,10.4460352 14.2144716,10.3419604 14.0859869,10.2747797 C13.9559224,10.2053965 13.8606121,9.82544053 13.8606121,9.54900881 L13.8606121,5.75165198 L14.7005018,5.75165198 C15.4766758,5.75165198 16.2844443,6.06332599 16.5751146,6.40859031 C16.8663115,6.78854626 17.1575084,7.44493392 17.1575084,8.1685022 C17.1575084,8.51376652 17.0274439,8.9284141 17.0274439,9.16905286 L17.0274439,9.16905286 Z" id="Shape" fill="#FFFFFF"></path>
        </g>
    </g>
</svg>