<?xml version="1.0" encoding="UTF-8"?>
<svg width="66px" height="50px" viewBox="0 0 66 50" version="1.1" xmlns="http://www.w3.org/2000/svg" xmlns:xlink="http://www.w3.org/1999/xlink">
    <!-- Generator: Sketch 51.3 (57544) - http://www.bohemiancoding.com/sketch -->
    <title>3. PRBA-Visa</title>
    <desc>Created with Sketch.</desc>
    <defs>
        <polygon id="path-1" points="0 0.216674237 15.0523685 0.216674237 15.0523685 18.4965812 0 18.4965812"></polygon>
    </defs>
    <g id="3.-PRBA-Visa" stroke="none" stroke-width="1" fill="none" fill-rule="evenodd">
        <g id="Group-2">
            <rect id="Rectangle" fill-rule="nonzero" x="0" y="0" width="66" height="50"></rect>
            <g id="Group" transform="translate(44.000000, 23.000000)" fill="#222C64">
                <path d="M8.89369725,0.129951053 L7.77502015,7.11558094 L9.56233183,7.11558094 L10.6767228,0.129951053 L8.89369725,0.129951053 Z M14.281349,2.9319985 C13.6555756,2.61151703 13.274111,2.3949755 13.274111,2.06583237 C13.274111,1.73668924 13.5998561,1.4638469 14.3027796,1.4638469 C14.7614722,1.45050938 15.2171981,1.54230923 15.6357627,1.7323584 L15.7986352,1.80598253 L16.042944,0.29885345 C15.5316249,0.0994692594 14.9880058,-0.00187034007 14.4399354,2.61330473e-05 C12.6740543,2.61330473e-05 11.439652,0.952808883 11.439652,2.31268972 C11.439652,3.31744243 12.3311648,3.87178876 13.0083716,4.20959355 C13.6855785,4.54739835 13.9341734,4.77260154 13.9341734,5.07575969 C13.9341734,5.5434894 13.3726918,5.76003094 12.8583575,5.76003094 C12.2780084,5.77608594 11.7026063,5.64820667 11.1824849,5.3875795 L10.9467483,5.2749779 L10.6810089,6.86006193 C11.3164774,7.1089971 11.992506,7.23533031 12.6740543,7.23251337 C14.5470884,7.23251337 15.7686324,6.29705394 15.7857768,4.84622566 C15.790063,4.04069116 15.3143037,3.43004403 14.281349,2.9319985 Z M20.6248054,0.129951053 L19.2403889,0.129951053 C18.8333699,0.0807805103 18.4463884,0.321131282 18.3060149,0.710282364 L15.6529072,7.11558094 L17.5302273,7.11558094 L17.9031197,6.06751991 L20.1961935,6.06751991 C20.2476269,6.31004643 20.4104994,7.11558094 20.4104994,7.11558094 L22.0649414,7.11558094 L20.6248054,0.129951053 Z M18.417454,4.64267662 L19.1289498,2.68947199 C19.1289498,2.68947199 19.2746778,2.2823739 19.3646863,2.01819323 L19.4889838,2.62017869 C19.4889838,2.62017869 19.8275872,4.29187934 19.9175957,4.64267662 L18.417454,4.64267662 Z M6.28345068,0.129951053 L4.53471407,4.8938648 L4.3418387,3.92808956 L3.71606531,0.718944026 C3.63489079,0.342647129 3.28459728,0.0898273654 2.90598879,0.134281884 L0.0300028341,0.134281884 L0,0.277199297 C0.660677758,0.447437331 1.29416874,0.71135074 1.88160631,1.06107965 L3.47175651,7.1242426 L5.36193506,7.1242426 L8.16934311,0.147274376 L6.28345068,0.129951053 Z" id="Shape"></path>
            </g>
        </g>
        <g id="Group-6-Copy" transform="translate(0.000000, 16.000000)">
            <g id="Group-3">
                <mask id="mask-2" fill="white">
                    <use xlink:href="#path-1"></use>
                </mask>
                <g id="Clip-2"></g>
                <path d="M15.0165983,7.35490128 C14.9983594,7.34961654 14.9683956,7.34301062 14.9436428,7.4037851 C13.2708761,11.5826913 8.646015,10.9220991 8.646015,10.9220991 C8.45711222,10.9102084 8.31901778,10.9908007 8.30989833,11.1784088 L8.30989833,14.3188641 C8.31250389,14.5196841 8.18743722,14.561962 8.06497611,14.576495 C5.09594556,14.6848322 4.33251778,12.6396388 4.31949,11.2286139 C4.31688444,10.842828 4.29864556,10.5680217 4.29864556,10.5191378 L4.29864556,2.38724804 C4.29864556,2.19699749 4.43934556,2.12697472 4.56050389,2.12697472 L6.15380111,2.12697472 C6.61237889,2.12961709 6.72702333,2.08337563 6.98888167,1.82970824 L8.28254,0.384332534 C8.42454278,0.20200909 8.19395111,0.216542118 8.19395111,0.216542118 L1.14852889,0.216542118 C0.200106667,0.216542118 -0.000521111111,0.904879176 -0.000521111111,1.31312515 L-0.000521111111,11.1810512 C0.0112038889,12.2287504 -0.04221,18.4977703 6.96022056,18.4977703 L13.6200206,18.4977703 C14.6909039,18.4977703 15.0517733,17.7552646 15.0517733,17.1303444 L15.0517733,7.43681471 C15.0530761,7.43681471 15.0556817,7.3694343 15.0165983,7.35490128 M8.78280667,7.69312447 L9.443315,7.69312447 C10.4790233,7.69312447 11.319315,6.82114279 11.319315,5.75098345 C11.319315,4.68346648 10.4790233,3.81544835 9.443315,3.81544835 L8.75935667,3.81544835 C8.57045389,3.81544835 8.34246778,3.98455995 8.34246778,4.24879682 L8.34246778,7.27563021 C8.34246778,7.46852313 8.51573722,7.69312447 8.78280667,7.69312447" id="Fill-1" fill="#84C300" mask="url(#mask-2)"></path>
            </g>
            <path d="M28.9843741,15.1270612 C28.8273339,15.1270612 28.7078759,15.2422116 28.7078759,15.4327581 L28.7078759,18.15113 C28.7078759,18.3403057 28.8273339,18.4568269 28.9843741,18.4568269 C29.1427566,18.4568269 29.2595301,18.3403057 29.2595301,18.15113 L29.2595301,15.4327581 C29.2595301,15.2422116 29.1427566,15.1270612 28.9843741,15.1270612 Z M22.1470837,15.2024573 C22.0423902,15.1407696 21.89743,15.085936 21.6813319,15.085936 C21.2934291,15.085936 21.0048509,15.2901909 20.8733129,15.5835503 L20.867944,15.5835503 L20.867944,15.4327581 C20.867944,15.2422116 20.7484861,15.1270612 20.5914458,15.1270612 C20.4330634,15.1270612 20.3162899,15.2422116 20.3162899,15.4327581 L20.3162899,18.15113 C20.3162899,18.3403057 20.4330634,18.4568269 20.5914458,18.4568269 C20.7484861,18.4568269 20.867944,18.3403057 20.867944,18.15113 L20.867944,16.5705537 C20.867944,16.026331 21.0571976,15.6178212 21.5296606,15.6178212 C21.6611986,15.6178212 21.7726032,15.6520922 21.8907189,15.7000715 C21.9376968,15.7206341 21.9900435,15.7329716 22.028968,15.7329716 C22.1940616,15.7329716 22.3054662,15.6123379 22.3054662,15.4478373 C22.304124,15.3518786 22.2584884,15.264145 22.1470837,15.2024573 Z M28.9843741,13.7575939 C28.7870671,13.7575939 28.6233158,13.9220945 28.6233158,14.1332036 C28.6233158,14.3374584 28.7870671,14.5074424 28.9843741,14.5074424 C29.1803388,14.5074424 29.3454324,14.3374584 29.3454324,14.1332036 C29.3454324,13.9220945 29.1803388,13.7575939 28.9843741,13.7575939 Z M24.5684563,17.4561151 C24.4637628,17.7823746 24.207398,17.9660669 23.8597619,17.9660669 C23.5107836,17.9660669 23.2544188,17.7823746 23.1497253,17.4561151 C23.0973785,17.279277 23.0785874,17.101068 23.0785874,16.7871461 C23.0785874,16.4759659 23.0973785,16.3046111 23.1497253,16.127773 C23.2544188,15.8015135 23.5107836,15.6164504 23.8597619,15.6164504 C24.207398,15.6164504 24.4624206,15.8015135 24.5684563,16.127773 C24.620803,16.3046111 24.6395942,16.4759659 24.6395942,16.7871461 C24.6395942,17.1024389 24.620803,17.279277 24.5684563,17.4561151 Z M23.8597619,15.085936 C23.2490499,15.085936 22.7900092,15.4067122 22.6195467,15.9660141 C22.5470666,16.1894607 22.5148532,16.4142781 22.5148532,16.7885169 C22.5148532,17.1696099 22.5470666,17.3957982 22.6195467,17.6206157 C22.7900092,18.1716926 23.2490499,18.4965812 23.8597619,18.4965812 C24.4704739,18.4965812 24.9295146,18.1716926 25.0999771,17.6206157 C25.171115,17.3957982 25.2033284,17.1696099 25.2033284,16.7885169 C25.2033284,16.4142781 25.171115,16.1894607 25.0999771,15.9660141 C24.9295146,15.4067122 24.4704739,15.085936 23.8597619,15.085936 Z M27.9280436,15.1270612 C27.7965056,15.1270612 27.7119455,15.2093115 27.6663099,15.3313161 L26.8717131,17.5986823 L26.8596331,17.5986823 L26.0462452,15.3313161 C25.9992674,15.2079406 25.913365,15.1270612 25.7831693,15.1270612 C25.6194179,15.1270612 25.5147244,15.2504366 25.5147244,15.3984871 C25.5147244,15.4464665 25.5200933,15.4875916 25.5402267,15.5424251 L26.4918637,18.1031507 C26.589846,18.3690933 26.6757484,18.4568269 26.852922,18.4568269 C27.0287534,18.4568269 27.1146557,18.3690933 27.2139803,18.1031507 L28.1723284,15.5424251 C28.1911196,15.4875916 28.1991729,15.4464665 28.1991729,15.3984871 C28.1978307,15.2504366 28.091795,15.1270612 27.9280436,15.1270612 Z M31.5171513,15.085936 C31.090324,15.085936 30.7896657,15.2764825 30.6379944,15.5287167 L30.6312833,15.5287167 L30.6312833,15.4327581 C30.6312833,15.2422116 30.5131675,15.1270612 30.3547851,15.1270612 C30.1977448,15.1270612 30.0782869,15.2422116 30.0782869,15.4327581 L30.0782869,18.15113 C30.0782869,18.3403057 30.1977448,18.4568269 30.3547851,18.4568269 C30.5131675,18.4568269 30.6312833,18.3403057 30.6312833,18.15113 L30.6312833,16.4142781 C30.6312833,15.9290015 30.9265726,15.6164504 31.3533999,15.6164504 C31.8258629,15.6164504 32.0553832,15.9248889 32.0553832,16.4471783 L32.0553832,18.15113 C32.0553832,18.3403057 32.1734989,18.4568269 32.3318814,18.4568269 C32.4889216,18.4568269 32.6056952,18.3403057 32.6056952,18.15113 L32.6056952,16.3128361 C32.6056952,15.5698419 32.2003434,15.085936 31.5171513,15.085936 Z M39.4510389,17.3670106 C39.4510389,17.7686662 39.1423273,18.007192 38.6564421,18.007192 C38.2376681,18.007192 38.0014367,17.8372081 38.0014367,17.4972402 C38.0014367,17.1284848 38.243037,16.9653551 38.781269,16.9653551 L39.4134566,16.9653551 C39.4389588,16.9653551 39.4510389,16.9790634 39.4510389,17.007851 L39.4510389,17.3670106 Z M40.1530222,18.0209004 L40.0416175,17.8111622 C39.9959819,17.7138327 39.9825597,17.6452907 39.9825597,17.4753068 L39.9825597,16.3046111 C39.9825597,15.4999291 39.589288,15.085936 38.7490556,15.085936 C38.3168594,15.085936 37.9880144,15.1942322 37.7907075,15.3313161 C37.698094,15.3861496 37.6591695,15.4738832 37.6591695,15.5629877 C37.6591695,15.712409 37.751783,15.8097386 37.8967432,15.8097386 C37.9423788,15.8097386 38.0014367,15.7878051 38.0537834,15.7590175 C38.2054548,15.6781381 38.4551085,15.5972586 38.6967088,15.5972586 C39.248363,15.5972586 39.4523811,15.856347 39.4523811,16.3128361 L39.4523811,16.4691117 C39.4523811,16.4978993 39.4389588,16.508866 39.4134566,16.508866 L38.6980511,16.508866 C37.9168765,16.508866 37.4699159,16.8433505 37.4699159,17.5178028 C37.4699159,18.1374216 37.877952,18.4965812 38.5785931,18.4965812 C39.038976,18.4965812 39.3329231,18.3553849 39.5436523,18.108634 L39.5503635,18.108634 L39.6751903,18.3142597 C39.7409593,18.4088476 39.8188083,18.4554561 39.9181329,18.4554561 C40.0818843,18.4554561 40.2,18.3403057 40.2,18.185401 C40.1986578,18.1305674 40.1785244,18.0688797 40.1530222,18.0209004 Z M36.5625723,13.7575939 C36.3666075,13.7575939 36.2015139,13.9220945 36.2015139,14.1332036 C36.2015139,14.3374584 36.3666075,14.5074424 36.5625723,14.5074424 C36.7598792,14.5074424 36.9249728,14.3374584 36.9249728,14.1332036 C36.9249728,13.9220945 36.7612215,13.7575939 36.5625723,13.7575939 Z M34.5626581,15.6164504 C34.8445252,15.6164504 35.0149877,15.7261174 35.1599479,15.8892472 C35.2310858,15.9714974 35.3035659,16.0249601 35.4015483,16.0249601 C35.5397974,16.0249601 35.6444909,15.9180348 35.6444909,15.7727259 C35.6444909,15.6987007 35.6189886,15.6383838 35.5666419,15.5629877 C35.3693349,15.2970451 35.0337788,15.085936 34.5626581,15.085936 C33.9586572,15.085936 33.4982743,15.3984871 33.3211007,15.9646433 C33.263385,16.1620439 33.2231183,16.4279865 33.2231183,16.7871461 C33.2231183,17.1559015 33.2620428,17.4218441 33.3211007,17.6192448 C33.4982743,18.185401 33.9586572,18.4965812 34.5626581,18.4965812 C35.0337788,18.4965812 35.3679927,18.286843 35.5666419,18.0209004 C35.6189886,17.9455043 35.6444909,17.8851874 35.6444909,17.8111622 C35.6444909,17.6672242 35.5397974,17.5575571 35.4015483,17.5575571 C35.3035659,17.5575571 35.2310858,17.6123906 35.1599479,17.6946409 C35.0149877,17.8577706 34.8445252,17.9660669 34.5626581,17.9660669 C34.2203909,17.9660669 33.9653683,17.7960829 33.8593326,17.4561151 C33.8083281,17.2861312 33.7881947,17.0805055 33.7881947,16.7871461 C33.7881947,16.5020118 33.8083281,16.2977569 33.8593326,16.127773 C33.9653683,15.7878051 34.2203909,15.6164504 34.5626581,15.6164504 Z M36.5625723,15.1270612 C36.405532,15.1270612 36.2874163,15.2422116 36.2874163,15.4327581 L36.2874163,18.15113 C36.2874163,18.3403057 36.405532,18.4568269 36.5625723,18.4568269 C36.7209547,18.4568269 36.8390705,18.3403057 36.8390705,18.15113 L36.8390705,15.4327581 C36.8390705,15.2422116 36.7209547,15.1270612 36.5625723,15.1270612 Z M32.1251789,11.1502599 C32.0526988,11.3805607 31.8889474,11.5176445 31.6339248,11.5176445 C31.3762177,11.5176445 31.2138086,11.3805607 31.1399863,11.1502599 C31.0956929,11.0063219 31.0822706,10.8226296 31.0822706,10.5978122 C31.0822706,10.3743655 31.0956929,10.1893024 31.1399863,10.0453644 C31.2138086,9.8150636 31.37756,9.67935063 31.6339248,9.67935063 C31.8902896,9.67935063 32.0526988,9.8150636 32.1251789,10.0453644 C32.1721567,10.1893024 32.1842367,10.3743655 32.1842367,10.5978122 C32.185579,10.8226296 32.1721567,11.0063219 32.1251789,11.1502599 Z M31.6339248,8.87466868 C30.9373104,8.87466868 30.4447141,9.21600736 30.2554605,9.82191779 C30.1829804,10.0604436 30.150767,10.277036 30.150767,10.5978122 C30.150767,10.9172174 30.1829804,11.1351807 30.2554605,11.3737065 C30.4460563,11.9796169 30.9373104,12.3209556 31.6339248,12.3209556 C32.329197,12.3209556 32.820451,11.9809878 33.0110469,11.3737065 C33.083527,11.1351807 33.1170826,10.9172174 33.1170826,10.5978122 C33.1170826,10.277036 33.083527,10.0604436 33.0110469,9.82191779 C32.820451,9.21600736 32.329197,8.87466868 31.6339248,8.87466868 Z M18.4264381,15.9906892 L17.4278232,15.9906892 C17.4009788,15.9906892 17.390241,15.9783516 17.390241,15.9509349 L17.390241,14.3991462 C17.390241,14.3717294 17.4009788,14.358021 17.4278232,14.358021 L18.4264381,14.358021 C18.9780923,14.358021 19.2975416,14.6705721 19.2975416,15.1750405 C19.2975416,15.6781381 18.9780923,15.9906892 18.4264381,15.9906892 Z M18.4465715,13.7918649 L17.0681071,13.7918649 C16.9043558,13.7918649 16.8050312,13.9015319 16.8050312,14.0646617 L16.8050312,18.1305674 C16.8050312,18.3320806 16.9244892,18.4554561 17.1003205,18.4554561 C17.270783,18.4554561 17.390241,18.3320806 17.390241,18.1305674 L17.390241,16.5979704 C17.390241,16.5705537 17.402321,16.5554745 17.4291655,16.5554745 L18.4465715,16.5554745 C19.3391506,16.5554745 19.8760403,15.9989142 19.8760403,15.1750405 C19.8760403,14.3511668 19.3378084,13.7918649 18.4465715,13.7918649 Z M22.3604974,11.1502599 C22.3604974,11.4559568 22.1578215,11.606749 21.7699187,11.606749 C21.4679183,11.606749 21.310878,11.4902277 21.310878,11.2585561 C21.310878,11.0076927 21.4880516,10.8843173 21.8759544,10.8843173 L22.3215729,10.8843173 C22.3470752,10.8843173 22.3604974,10.8980257 22.3604974,10.9254425 L22.3604974,11.1502599 Z M23.2987122,11.4148316 C23.2530765,11.3325814 23.2409965,11.2585561 23.2409965,11.1009097 L23.2409965,10.2043816 C23.2409965,9.37913709 22.7806136,8.87466868 21.8236077,8.87466868 C21.3820159,8.87466868 21.0612243,8.9582898 20.8518373,9.06658601 C20.6813748,9.15431965 20.6156059,9.303741 20.6156059,9.447679 C20.6156059,9.67935063 20.765935,9.82877199 20.9820331,9.82877199 C21.0478021,9.82877199 21.1202822,9.80820941 21.1994734,9.78216349 C21.3175891,9.73281332 21.5135539,9.68620482 21.7108609,9.68620482 C22.1497682,9.68620482 22.3591552,9.86989713 22.3591552,10.1769649 L22.3591552,10.2112358 C22.3591552,10.2372817 22.3470752,10.2509901 22.3215729,10.2509901 L21.7497854,10.2509901 C20.9618997,10.2509901 20.43709,10.5854746 20.43709,11.3133896 C20.43709,11.9398626 20.8303617,12.3209556 21.6450919,12.3209556 C22.0383636,12.3209556 22.3806308,12.198951 22.5430399,11.9864711 L22.5510932,11.9864711 L22.6289422,12.1029924 C22.7148446,12.224997 22.8450404,12.2866847 23.0020806,12.2866847 C23.2597876,12.2866847 23.4638057,12.0961382 23.4638057,11.843904 C23.4638057,11.7493161 23.4369613,11.6533575 23.3832723,11.5656238 L23.2987122,11.4148316 Z M28.6541869,9.6779798 C28.8246494,9.6779798 28.9427652,9.72595913 29.0488009,9.83014282 C29.1789966,9.95214741 29.2850323,10.0261727 29.4219392,10.0261727 C29.6528018,10.0261727 29.821922,9.85618875 29.821922,9.61766292 C29.821922,9.48194995 29.7695753,9.3722829 29.6380373,9.23656993 C29.4353615,9.02546087 29.0810143,8.87466868 28.6407647,8.87466868 C27.9709948,8.87466868 27.4783985,9.20229898 27.2891449,9.8150636 C27.2233759,10.0124643 27.1844514,10.2496193 27.1844514,10.5978122 C27.1844514,10.9446342 27.2233759,11.1845309 27.2891449,11.3805607 C27.4797407,11.9933253 27.9709948,12.3209556 28.6407647,12.3209556 C29.0810143,12.3209556 29.4353615,12.1701634 29.6380373,11.9590544 C29.7695753,11.8233414 29.821922,11.7150452 29.821922,11.5779614 C29.821922,11.3394356 29.6528018,11.1694516 29.4219392,11.1694516 C29.2850323,11.1694516 29.1789966,11.2434769 29.0488009,11.3668523 C28.9427652,11.4696652 28.8259916,11.5176445 28.6541869,11.5176445 C28.4112443,11.5176445 28.247493,11.4011233 28.1736707,11.1557433 C28.1360884,11.0268845 28.1172972,10.8692381 28.1172972,10.5978122 C28.1172972,10.3250154 28.1360884,10.1687398 28.1736707,10.0398811 C28.247493,9.79450103 28.4099021,9.6779798 28.6541869,9.6779798 Z M18.4828115,11.4353942 L17.7539837,11.4353942 C17.7284815,11.4353942 17.7150592,11.4216858 17.7150592,11.3942691 L17.7150592,10.3181612 C17.7150592,10.2921153 17.7284815,10.277036 17.7539837,10.277036 L18.4828115,10.277036 C18.8760832,10.277036 19.0935236,10.5018535 19.0935236,10.8486755 C19.0935236,11.217431 18.8760832,11.4353942 18.4828115,11.4353942 Z M17.7150592,8.46752977 C17.7150592,8.44011301 17.7284815,8.42640462 17.7539837,8.42640462 L18.4304648,8.42640462 C18.8049453,8.42640462 19.0210434,8.61695112 19.0210434,8.96377315 C19.0210434,9.31059519 18.7982342,9.50936671 18.4304648,9.50936671 L17.7539837,9.50936671 C17.7284815,9.50936671 17.7150592,9.49565833 17.7150592,9.46824157 L17.7150592,8.46752977 Z M19.4599508,9.84796372 L19.4599508,9.83562618 C19.7619512,9.66564225 19.9793916,9.34486614 19.9793916,8.84862275 C19.9793916,8.1124827 19.527062,7.61623932 18.5539494,7.61623932 L17.1701162,7.61623932 C16.9083825,7.61623932 16.75,7.79170659 16.75,8.05764918 L16.75,11.809633 C16.75,12.0755756 16.9083825,12.2455595 17.1701162,12.2455595 L18.5083138,12.2455595 C19.473373,12.2455595 20.0585828,11.809633 20.0585828,10.8966549 C20.0585828,10.3455779 19.7565823,9.97133915 19.4599508,9.84796372 Z M25.6221023,8.87466868 C25.2154084,8.87466868 24.9389102,9.0446526 24.78187,9.2571325 L24.7751588,9.2571325 C24.7228121,9.03916925 24.5523496,8.91031047 24.3362515,8.91031047 C24.0664644,8.91031047 23.8758686,9.10085696 23.8758686,9.41340805 L23.8758686,11.7835871 C23.8758686,12.0961382 24.0664644,12.2880555 24.3362515,12.2880555 C24.5979852,12.2880555 24.79395,12.0961382 24.79395,11.7835871 L24.79395,10.2838902 C24.79395,9.92473065 24.9590436,9.68620482 25.2878885,9.68620482 C25.6153912,9.68620482 25.7858537,9.92473065 25.7858537,10.2838902 L25.7858537,11.7835871 C25.7858537,12.0961382 25.9831607,12.2880555 26.2448944,12.2880555 C26.5146815,12.2880555 26.7052773,12.0961382 26.7052773,11.7835871 L26.7052773,10.1015688 C26.7052773,9.38599128 26.3254279,8.87466868 25.6221023,8.87466868 Z" id="Fill-4" fill="#585A5C"></path>
        </g>
        <path d="M42.1,16 L42.1,36.5" id="Line" stroke="#E2E2E2" stroke-width="0.3" stroke-linecap="square" fill-rule="nonzero"></path>
    </g>
</svg>