<svg height="50" viewBox="0 0 66 50" width="66" xmlns="http://www.w3.org/2000/svg"><g fill="none"><path d="m0 0h66v50h-66z"/><g fill="#1d723b" transform="translate(0 19)"><path d="m3.3.9-3.3.1c0 .1.1.2.1.4v9.6c0 .2 0 .3-.1.4h1.7c-.1-.1-.1-.2-.1-.4v-4.1h1c2.4 0 3.9-1.2 3.9-3.1 0-1.7-1.3-2.9-3.2-2.9zm.5 5c-.3.1-.8.2-1.4.2h-.8v-4.5h.9c.6 0 1.1.1 1.4.2.7.3 1.1 1 1.1 1.9 0 1.1-.5 1.9-1.2 2.2z"/><path d="m8.7 4.4v-1.2h-1.4c0 .1.1.2.1.4v7.4c0 .2 0 .3-.1.4h1.5c-.1-.1-.1-.2-.1-.4v-4.9c0-1.1.7-1.8 1.8-1.8h.3v-1.1c-1.2-.1-1.8.3-2.1 1.2z"/><path d="m14.5 3.1c-2.3 0-3.7 1.7-3.7 4.2 0 2.6 1.4 4.2 3.7 4.2 2.2 0 3.7-1.7 3.7-4.1 0-2.6-1.4-4.3-3.7-4.3zm.1 7.8c-1.4 0-2.2-1.4-2.2-3.6s.9-3.6 2.2-3.6c1.4 0 2.2 1.4 2.2 3.6-.1 2.2-.9 3.6-2.2 3.6z"/><path d="m24.7 3.4c0 .1 0 .2-.1.4l-2.3 6.1-2.2-6.1c0-.2-.1-.3-.1-.4v-.1h-1.6c.1.1.1.2.2.4l2.7 7.2c.1.2.1.3.1.4v.1h1.1c0-.1 0-.2.1-.4l2.7-7.2c.1-.2.1-.3.2-.4z"/><path d="m32.8 7c0-2.4-1.3-3.9-3.5-3.9-2.3 0-3.7 1.7-3.7 4.2 0 2.7 1.4 4.2 4 4.2.8 0 1.6-.2 2.3-.4.1-.1.3-.1.5-.2l-.2-1c-.4.3-.6.4-.9.6-.5.2-1 .3-1.5.3-1.8 0-2.8-1.2-2.8-3.5 0-.1 0-.2 0-.3zm-3.5-3.2c1.2 0 1.9.9 2 2.6h-4.2c.2-1.6 1-2.6 2.2-2.6z"/><path d="m40.2 5.4c0-1.4-1-2.3-2.6-2.3-.9 0-1.7.3-2.2.9-.1.1-.2.2-.3.5v-1.2h-1.4c0 .1.1.2.1.4v7.3c0 .2 0 .3-.1.4h1.5c-.1-.1-.1-.2-.1-.4v-5c0-1.1.9-1.9 2-1.9s1.7.6 1.7 1.6v5.3.4h1.5c0-.1-.1-.3-.1-.4z"/><path d="m41.3 7.4c0 2.7 1.3 4.2 3.6 4.2.9 0 1.5-.1 2.3-.6v-1.1c-.3.3-.5.5-.8.6-.4.2-.8.3-1.2.3-1.4 0-2.3-1.3-2.3-3.5s1-3.6 2.4-3.6c.5 0 1.1.2 1.6.5.1.1.2.2.4.3v-1.1c-.7-.2-1.2-.3-2-.3-2.5 0-4 1.7-4 4.3z"/><path d="m51.3 3.1c-1.2 0-1.7.4-2.1 1.3v-1.2h-1.4c0 .1.1.2.1.4v7.4c0 .2 0 .3-.1.4h1.5c-.1-.1-.1-.2-.1-.4v-4.9c0-1.1.7-1.8 1.8-1.8h.3z"/><path d="m58.3 7c0-2.4-1.3-3.9-3.5-3.9-2.3 0-3.7 1.7-3.7 4.2 0 2.7 1.4 4.2 4 4.2.8 0 1.6-.2 2.3-.4.1-.1.3-.1.5-.2l-.2-1c-.4.3-.6.4-.9.6-.5.2-1 .3-1.5.3-1.8 0-2.8-1.2-2.8-3.5 0-.1 0-.2 0-.3zm-3.5-3.2c1.2 0 1.9.9 2 2.6h-4.2c.2-1.6 1-2.6 2.2-2.6z"/><path d="m65.9.9c0-.2 0-.3.1-.4h-1.5c.1.1.1.2.1.4v3.3c-.3-.4-.4-.6-.7-.7-.4-.3-1-.4-1.5-.4-2.1 0-3.2 1.5-3.2 4.2s1 4.2 2.9 4.2c.8 0 1.6-.3 2.1-.9.1-.1.2-.3.4-.5v1.2h1.4c0-.1 0-.2 0-.4v-10zm-1.4 7.9c-.2 1-1 1.8-1.9 1.8-1.3 0-1.9-1.1-1.9-3.2 0-2.3.7-3.5 2-3.5 1 0 1.8.8 1.8 1.7l.1 1.7v.4c0 .5 0 .8-.1 1.1z"/></g></g></svg>