<?xml version="1.0" encoding="UTF-8"?>
<svg width="75px" height="75px" viewBox="0 0 75 75" version="1.1" xmlns="http://www.w3.org/2000/svg" xmlns:xlink="http://www.w3.org/1999/xlink">
    <!-- Generator: Sketch 51.3 (57544) - http://www.bohemiancoding.com/sketch -->
    <title>Group</title>
    <desc>Created with Sketch.</desc>
    <defs></defs>
    <g id="Page-1" stroke="none" stroke-width="1" fill="none" fill-rule="evenodd">
        <g id="Group" fill-rule="nonzero">
            <path d="M37.5,65.997 C35.565,65.997 33.684,65.829 31.827,65.58 L12,74.997 L12,57.147 C4.635,51.123 0,42.546 0,32.997 C0,14.769 16.788,0 37.5,0 C58.209,0 75,14.769 75,32.997 C75,51.225 58.209,65.997 37.5,65.997 Z" id="Path" fill="#FFFFFF"></path>
            <path d="M37.5,3.015 C18.474,3.015 3,16.464 3,32.997 C3,42.06 7.668,50.178 15,55.677 L15,70.254 L31.368,62.478 C33.36,62.79 35.403,62.979 37.5,62.979 C56.523,62.979 72,49.527 72,32.994 C72,16.461 56.523,3.015 37.5,3.015 Z" id="Shape" stroke="#4A4A4A" stroke-width="3"></path>
            <path d="M55.5,38.997 C53.016,38.997 51,36.984 51,34.497 C51,32.013 53.016,29.997 55.5,29.997 C57.984,29.997 60,32.013 60,34.497 C60,36.984 57.984,38.997 55.5,38.997 Z" id="Path" fill="#4A90E2"></path>
            <path d="M37.5,38.997 C35.016,38.997 33,36.984 33,34.497 C33,32.013 35.016,29.997 37.5,29.997 C39.984,29.997 42,32.013 42,34.497 C42,36.984 39.984,38.997 37.5,38.997 Z" id="Path" fill="#4A90E2"></path>
            <path d="M19.5,38.997 C17.016,38.997 15,36.984 15,34.497 C15,32.013 17.016,29.997 19.5,29.997 C21.984,29.997 24,32.013 24,34.497 C24,36.984 21.984,38.997 19.5,38.997 Z" id="Path" fill="#4A90E2"></path>
        </g>
    </g>
</svg>