<?xml version="1.0" encoding="UTF-8"?>
<svg width="66px" height="50px" viewBox="0 0 66 50" version="1.1" xmlns="http://www.w3.org/2000/svg" xmlns:xlink="http://www.w3.org/1999/xlink">
    <!-- Generator: Sketch 51.2 (57519) - http://www.bohemiancoding.com/sketch -->
    <title>7.Cabal</title>
    <desc>Created with Sketch.</desc>
    <defs></defs>
    <g id="7.Cabal" stroke="none" stroke-width="1" fill="none" fill-rule="evenodd">
        <g id="Group" fill-rule="nonzero">
            <rect id="Rectangle" x="0" y="0" width="66" height="50"></rect>
        </g>
        <g id="cabal_credito" transform="translate(0.000000, 14.000000)" fill-rule="nonzero">
            <path d="M0,22 L61.6,21.9998845 C64.0086646,22.0171103 65.9769578,20.1053022 66,17.7261534 L66,0 L0,0 L0,22 Z" id="Shape" fill="#00609C"></path>
            <path d="M34.98,12.2257143 L33.6285714,7.96190476 L32.3085714,12.2257143 L34.98,12.2257143 Z M34.9066667,6.54761905 L37.9552381,15.567619 L36.0380952,15.567619 L35.4304762,13.7028571 L31.8371429,13.7028571 L31.2190476,15.567619 L29.3333333,15.567619 L32.1514286,7.23904762 C32.2973285,6.83486554 32.6752539,6.5607658 33.1047619,6.54761905 L34.9066667,6.54761905 Z" id="Shape" fill="#FFFFFF"></path>
            <path d="M43.612381,13.2838095 C43.612381,13.9438095 43.2666667,14.1638095 42.4390476,14.1638095 L40.5638095,14.1638095 L40.5638095,11.6914286 L42.5961905,11.6914286 C43.3295238,11.6914286 43.6438095,11.9952381 43.6438095,12.6028571 L43.612381,13.2838095 Z M40.5638095,7.96190476 L42.3238095,7.96190476 C42.9942857,7.96190476 43.287619,8.19238095 43.287619,8.6847619 L43.287619,9.49142857 C43.287619,10.0152381 43.0257143,10.3295238 42.3133333,10.3295238 L40.5638095,10.3295238 L40.5638095,7.96190476 Z M44,10.8742857 C44.6485186,10.6895426 45.0831924,10.0809993 45.047619,9.40761905 L45.047619,8.4752381 C45.047619,7.24952381 44.3142857,6.54761905 42.4809524,6.54761905 L38.7619048,6.54761905 L38.7619048,15.567619 L42.8371429,15.567619 C44.5971429,15.567619 45.4771429,14.7714286 45.4771429,13.472381 L45.4771429,12.5714286 C45.5255361,11.6990645 44.8706993,10.9466988 44,10.8742857 Z" id="Shape" fill="#FFFFFF"></path>
            <path d="M25.96,7.81524385 L28.6,7.81524385 L28.6,7.16572004 C28.5942614,6.6722338 28.1925672,6.27521048 27.6990476,6.27524385 L25.96,6.27524385 C23.6133333,6.27524385 22.5971429,7.24952956 22.5971429,8.88381528 L22.5971429,12.9485772 C22.5971429,14.5828629 23.6447619,15.5361962 25.96,15.5571486 L28.4952381,15.5571486 L28.4952381,14.8971486 C28.4952381,14.4053522 28.0965583,14.0066724 27.6047619,14.0066724 L25.96,14.0066724 C24.8180952,14.0066724 24.4304762,13.5666724 24.4304762,12.6447677 L24.4304762,9.17714861 C24.4304762,8.25524385 24.8180952,7.84667242 25.96,7.81524385" id="Shape" fill="#FFFFFF"></path>
            <path d="M56.9904762,14.0695238 L56.9904762,6.41142857 L56.1733333,6.41142857 C55.5947493,6.41142857 55.1257143,6.8804636 55.1257143,7.45904762 L55.1257143,15.5990476 L60.9714286,15.5990476 L60.9714286,14.0695238 L56.9904762,14.0695238 Z" id="Shape" fill="#FFFFFF"></path>
            <path d="M51.532381,12.2257143 L50.1809524,7.96190476 L48.8609524,12.2257143 L51.532381,12.2257143 Z M51.4590476,6.54761905 L54.4761905,15.567619 L52.6009524,15.567619 L51.9828571,13.7028571 L48.4,13.7028571 L47.7714286,15.567619 L45.8542857,15.567619 L48.5885714,7.49047619 C48.7774553,6.92769144 49.3044595,6.54824842 49.8980952,6.54761905 L51.4590476,6.54761905 Z" id="Shape" fill="#FFFFFF"></path>
            <path d="M12.6552381,3.76095238 L19.3390476,10.3295238 C19.5208476,10.5052067 19.623512,10.7471845 19.623512,11 C19.623512,11.2528155 19.5208476,11.4947933 19.3390476,11.6704762 L12.6552381,18.2390476 L12.6552381,14.5619048 L15.7980952,11.4190476 C16.0482834,11.1626684 16.0482834,10.7535221 15.7980952,10.4971429 L12.6552381,7.35428571 L12.6552381,3.76095238 Z" id="Shape" fill="#FFFFFF"></path>
            <path d="M11.4190476,3.76095238 L4.7247619,10.3295238 C4.35727916,10.7009775 4.35727916,11.2990225 4.7247619,11.6704762 L11.4190476,18.2390476 L11.4190476,14.5619048 L8.27619048,11.4190476 C8.15069315,11.2985438 8.07975416,11.1320802 8.07975416,10.9580952 C8.07975416,10.7841103 8.15069315,10.6176467 8.27619048,10.4971429 L11.4190476,7.35428571 L11.4190476,3.76095238 Z" id="Shape" fill="#FFFFFF"></path>
        </g>
    </g>
</svg>