<svg height="50" viewBox="0 0 66 50" width="66" xmlns="http://www.w3.org/2000/svg"><g fill="none"><path d="m0 0h66v50h-66z"/><g transform="translate(0 20)"><path d="m1.0814375.3100625h4.0225625v4.021875h-4.0225625z" fill="#004896"/><path d="m5.8829375.3100625h4.0225625v4.021875h-4.0225625z" fill="#4160a5"/><path d="m10.715375.3100625h4.0225625v4.021875h-4.0225625z" fill="#6a7bb7"/><path d="m15.516875.3100625h4.021875v4.021875h-4.021875z" fill="#939bc9"/><path d="m.572.5754375 3.0229375 1.7455625-3.0229375 1.744875z" fill="#ef3e33"/><path d="m25.41825 7.4903125c-.077-.0941875-.1780625-.1698125-.303875-.22825-.125125-.05775-.26125-.086625-.4090625-.086625-.1890625 0-.3581875.045375-.5039375.136125-.1464375.0914375-.2701875.2303125-.37125.4145625v-.4750625h-.4214375v3.3639375h.4668125v-1.8390625c0-.405625.0653125-.6923125.1986875-.8586875.1326875-.1670625.3114375-.2509375.534875-.2509375.11825 0 .2220625.031625.312125.0941875s.1560625.15125.1973125.2646875c.042625.114125.06325.2949375.06325.5424375v2.0480625h.466125v-2.068c0-.3100625-.0185625-.540375-.0570625-.69025-.0385-.1519375-.0955625-.2743125-.1725625-.367125zm-6.3036875.65175c.169125-.103125.3004375-.240625.3925625-.4118125.0935-.1698125.1395625-.3623125.1395625-.576125 0-.2289375-.0543125-.4393125-.16225-.628375-.10725-.18975-.2454375-.33-.41525-.419375-.1684375-.0900625-.3980625-.13475-.6881875-.13475h-1.4293125v4.6426875h1.4499375c.3355 0 .5988125-.0474375.7913125-.144375.1918125-.09625.3458125-.25025.460625-.4626875.1155-.2124375.1725625-.45925.1725625-.73975 0-.28325-.06325-.5218125-.18975-.7143125-.1271875-.193875-.301125-.33-.5218125-.411125zm-1.6589375-1.6231875h.7645c.276375 0 .468875.0213125.5754375.0639375.1065625.0419375.1925.1189375.257125.229625.0653125.11.0969375.2495625.0969375.4159375 0 .1794375-.03575.32175-.105875.42625-.0715.1038125-.171875.1780625-.3031875.22275-.09075.0295625-.243375.044-.4599375.044h-.825zm1.739375 3.2195625c-.0749375.125125-.18425.2151875-.328625.270875-.0996875.0378125-.2536875.056375-.4626875.056375h-.94875v-1.595h.881375c.2605625 0 .4503125.0281875.573375.083875.121.0556875.2179375.1436875.2894375.2660625.0715.121.1079375.2701875.1079375.444125.0006875.1904375-.037125.347875-.1120625.4736875zm3.4849375-.5335v-.7596875c0-.308-.0213125-.543125-.0653125-.702625-.0433125-.1601875-.147125-.2949375-.3114375-.40425-.165-.1079375-.391875-.16225-.680625-.16225-.3719375 0-.65725.0818125-.856625.246125-.199375.165-.331375.4269375-.397375.7885625l.45925.075625c.0501875-.2481875.12925-.416625.2371875-.507375s.270875-.13475.488125-.13475c.240625 0 .4186875.0680625.5341875.202125.0831875.0935.1244375.2550625.1244375.4846875l-.0034375.14575c-.177375.0776875-.4558125.1436875-.836.199375-.2825625.0405625-.4943125.1024375-.6331875.187-.1395625.083875-.2495625.20075-.3293125.3513125-.0804375.1505625-.1203125.32175-.1203125.5163125 0 .2935625.08525.526625.25575.699875.171875.17325.4008125.259875.6875.259875.1821875 0 .3575-.0419375.526625-.12375.16775-.0825.3306875-.204875.48675-.367125.015125.1601875.04675.298375.0955625.41525h.4874375c-.059125-.130625-.099-.265375-.1189375-.40425-.0199375-.1395625-.03025-.474375-.03025-1.0058125zm-.471625-.0694375c0 .276375-.0336875.48675-.1010625.631125s-.169125.2605625-.30525.3465c-.136125.0873125-.287375.1299375-.45375.1299375-.176 0-.3128125-.048125-.4125-.144375s-.1491875-.2234375-.1491875-.3843125c0-.1038125.022-.19525.066-.275.0433125-.078375.103125-.1395625.1815-.182875s.2151875-.0825.4118125-.1155c.3375625-.059125.592625-.1313125.763125-.2151875v.2096875zm-18.506125.5493125-1.8858125-3.4409375h-.4860625v4.3745625h.4558125v-3.4423125l1.8830625 3.4423125h.4860625v-4.3745625h-.4530625zm2.849-.537625c0 .397375-.05775.672375-.17325.8201875-.13475.17325-.308.259875-.5190625.259875-.1134375 0-.2145-.033-.3025-.100375-.0886875-.0666875-.1491875-.155375-.1821875-.2660625-.033-.11-.0495-.328625-.0495-.6545v-1.7579375h-.438625v1.9635c0 .2921875.0240625.5231875.072875.6923125.048125.1684375.14575.3086875.2908125.4186875.14575.1106875.320375.1656875.5259375.1656875.17325 0 .3279375-.0446875.4654375-.13475.1368125-.089375.2564375-.2234375.3581875-.4021875v.466125h.3939375v-3.169375h-.4420625zm7.47725-1.769625c-.352 0-.6428125.138875-.873125.4173125-.229625.2784375-.3444375.691625-.3444375 1.2381875 0 .545875.1155.9576875.347875 1.2368125.2316875.279125.5218125.419375.8696875.419375.35475 0 .6455625-.1395625.8745-.4173125.22825-.2784375.3430625-.7019375.3430625-1.271875 0-.52525-.116875-.92675-.34925-1.2051875-.232375-.27775-.5218125-.4173125-.8683125-.4173125zm.5445 2.5678125c-.1478125.202125-.325875.3025-.532125.3025-.2206875 0-.4063125-.100375-.5555-.3004375-.1491875-.20075-.2234375-.504625-.2234375-.9150625 0-.407.0735625-.710875.2206875-.9109375.147125-.2014375.325875-.3025.5335-.3025.221375 0 .4063125.100375.5555.301125.1491875.2000625.224125.5039375.224125.913 0 .405625-.07425.7095-.22275.9123125zm-5.8224375-2.5678125c-.352 0-.6428125.143-.873125.4310625-.229625.287375-.3444375.704-.3444375 1.25125 0 .5273125.114125.930875.3416875 1.21s.5259375.419375.89375.419375c.292875 0 .537625-.086625.7349375-.2585.1986875-.1711875.3348125-.4269375.411125-.7645l-.45375-.0694375c-.12925.4345-.358875.650375-.688875.650375-.21175 0-.3898125-.09075-.5369375-.2715625-.1478125-.1815-.229625-.449625-.2481875-.8064375h1.9394375l.0034375-.1423125c0-.534875-.11275-.9439375-.336875-1.2265-.2255-.2811875-.506-.4228125-.8421875-.4228125zm-.737 1.351625c.01375-.27775.09075-.4998125.229625-.6634375.138875-.165.3073125-.2468125.5039375-.2468125.218625 0 .39875.0996875.5396875.295625.0983125.1354375.15675.3403125.1766875.6153125h-1.4499375zm3.5495625.653125c-.070125.235125-.1244375.4365625-.1615625.6029375-.0474375-.2110625-.103125-.4235-.1670625-.638l-.5589375-1.898875h-.4654375l.988625 3.169375h.4104375l.988625-3.169375h-.45375zm40.1768125-2.206875c-.3746875 0-.683375.152625-.928125.4571875-.243375.3045625-.3650625.7486875-.3650625 1.32825 0 .559625.121.988625.3623125 1.2849375.242.2963125.5589375.444125.9480625.444125.3114375 0 .570625-.092125.7816875-.273625.2096875-.182875.35475-.4530625.4351875-.8119375l-.4805625-.0735625c-.1381875.460625-.3815625.6909375-.7315.6909375-.22275 0-.413875-.0969375-.570625-.28875-.1560625-.1918125-.243375-.47575-.2633125-.8545625h2.058375l.004125-.1519375c0-.567875-.119625-1.0016875-.3575-1.302125-.23925-.29975-.537625-.4489375-.8930625-.4489375zm-.7830625 1.4334375c.0144375-.295625.0969375-.5300625.2440625-.704.1464375-.174625.3251875-.26125.5341875-.26125.232375 0 .4228125.1045.573375.3141875.103125.143.166375.3595625.1863125.6510625zm8.1063125 2.00475h.46475v-3.3639375h-.46475zm-9.50675-3.323375c-.0900625.077-.1890625.23375-.297.4709375v-.5108125h-.4214375v3.3639375h.466125v-1.761375c0-.2440625.0295625-.47575.0886875-.6936875.0336875-.1244375.0914375-.221375.174625-.2908125.0818125-.070125.17325-.1045.27225-.1045.108625 0 .221375.0419375.33825.12375l.1574375-.529375c-.16225-.122375-.3210625-.1835625-.4778125-.1835625-.1120625.0006875-.2124375.0385-.301125.1155zm7.847125 1.4678125c-.0735625-.0873125-.1815-.17325-.3238125-.2585.34925-.0584375.6153125-.196625.7975-.4145625.182875-.2165625.27225-.5011875.27225-.851125 0-.2660625-.05225-.4998125-.160875-.7005625-.10725-.2014375-.2440625-.3465-.4125-.4324375-.16775-.086625-.4283125-.1299375-.7816875-.1299375h-1.6864375v4.6426875h.50325v-2.0618125h.581625c.169125 0 .29975.0226875.39325.06875.0941875.0446875.1904375.133375.2915.2646875.0996875.130625.2481875.3856875.4455.763125l.506.96525h.633875l-.6648125-1.263625c-.11275-.2165625-.2440625-.4145625-.394625-.5919375zm-.7088125-.7376875h-1.082125v-1.5351875h1.20175c.2701875 0 .4750625.0666875.6125625.2014375.1368125.133375.2055625.3183125.2055625.5520625 0 .16225-.0364375.3045625-.10725.4269375-.0721875.1230625-.169125.213125-.2915.2701875s-.3025.0845625-.539.0845625zm2.2474375-1.188h.3870625l.56925-.8861875h-.6111875zm6.3916875 2.3299375c-.06325-.1258125-.1519375-.2255-.2660625-.298375-.11275-.072875-.3636875-.1711875-.75075-.2935625-.281875-.0935-.449625-.1595-.507375-.2028125-.0955625-.0708125-.1423125-.1684375-.1423125-.2921875 0-.1271875.048125-.231.1491875-.31075.0996875-.081125.2495625-.1216875.452375-.1216875.356125 0 .5561875.1835625.5974375.5506875l.4565-.0749375c-.0323125-.2330625-.0886875-.411125-.1705-.5355625s-.2014375-.224125-.3575-.2976875c-.1546875-.07425-.334125-.1106875-.5396875-.1106875-.3251875 0-.578875.089375-.7624375.2688125s-.275.413875-.275.7005625c0 .166375.0336875.3155625.100375.4461875.06875.130625.16225.2358125.284625.3128125.122375.078375.3664375.1739375.7294375.286.2509375.0749375.40975.138875.4750625.1890625.0955625.07425.1423125.1780625.1423125.3100625 0 .1546875-.056375.2811875-.166375.3815625s-.2674375.15125-.468875.15125c-.2028125 0-.3636875-.05775-.4874375-.17325-.122375-.1155-.1959375-.292875-.224125-.5300625l-.46475.0886875c.1045.721875.4888125 1.0828125 1.1495 1.0828125.353375 0 .631125-.0996875.8339375-.2990625.2041875-.198.3059375-.4585625.3059375-.779625.0006875-.1725625-.03025-.32175-.0935-.44825zm-37.4020625.853875c-.1258125.136125-.2770625.204875-.45375.204875-.2261875 0-.4118125-.1024375-.5561875-.3073125-.1450625-.2041875-.21725-.5355625-.21725-.9934375 0-.444125.075625-.76725.226875-.97075.1505625-.2035.341-.30525.5713125-.30525.154 0 .286.056375.3953125.1684375s.187.281875.2316875.50875l.452375-.0825c-.055-.35475-.180125-.620125-.375375-.7975-.1945625-.1780625-.4351875-.2660625-.7205-.2660625-.3691875 0-.6716875.1464375-.9068125.4379375-.2358125.292875-.353375.7315-.353375 1.315875 0 .5809375.116875 1.0195625.350625 1.3165625.2330625.2963125.5300625.444125.891.444125.2976875 0 .55275-.1051875.7645-.3169375.2124375-.2110625.3444375-.517.397375-.9178125l-.45925-.072875c-.033.2866875-.11275.4984375-.2385625.633875zm33.5445-2.84075c-.3733125 0-.683375.1478125-.92675.4434375-.2440625.2963125-.3650625.732875-.3650625 1.3138125 0 .578875.122375 1.0168125.3691875 1.313125.2440625.2963125.5534375.444125.922625.444125.3746875 0 .68475-.1478125.928125-.4434375.243375-.2963125.3636875-.74525.3636875-1.3495625 0-.556875-.12375-.983125-.3705625-1.27875-.2475-.295625-.5548125-.44275-.92125-.44275zm.5775 2.7231875c-.1574375.2151875-.3465.3224375-.565125.3224375-.23375 0-.4310625-.105875-.5891875-.319-.1574375-.2124375-.2365-.53625-.2365-.9714375 0-.4310625.0776875-.7535.23375-.966625.1574375-.2138125.3465-.320375.5665-.320375.235125 0 .4310625.105875.5891875.319.158125.2124375.237875.534875.237875.968 0 .4310625-.07975.7541875-.2365.968zm-26.8406875-2.2611875c-.0859375-.1464375-.1959375-.2591875-.3279375-.341-.1313125-.0804375-.273625-.1216875-.4283125-.1216875-.2151875 0-.40975.064625-.5864375.1925-.1753125.12925-.31625.32725-.4214375.592625-.105875.2660625-.158125.589875-.158125.9714375 0 .5575625.1189375.99.3568125 1.2973125s.518375.460625.8435625.460625c.1546875 0 .298375-.0433125.4310625-.127875.1326875-.086625.243375-.2096875.3265625-.372625v.4241875h.4365625v-4.6426875h-.471625v1.6671875zm-.17325 2.2790625c-.1464375.2035-.3183125.3045625-.517.3045625-.2000625 0-.3760625-.105875-.5273125-.3169375-.15125-.21175-.2261875-.5341875-.2261875-.9686875 0-.444125.0708125-.77275.2124375-.9810625.1409375-.2069375.3100625-.31075.506-.31075.221375 0 .405625.1079375.5520625.3245s.218625.559625.218625 1.0305625c0 .4104375-.0721875.716375-.218625.9178125zm13.1525625.2096875c-.108625 0-.185625-.0378125-.224125-.114125-.0281875-.05225-.0419375-.169125-.0419375-.3513125v-1.9655625h.473v-.444125h-.473v-1.17425l-.466125.342375v.831875h-.341v.444125h.341v1.9339375c0 .3334375.0185625.5561875.056375.6689375.0364375.111375.1045.199375.2041875.2646875.0996875.0639375.229625.0955625.391875.0955625.103125 0 .22-.0165.34925-.0501875l-.06325-.50325c-.0845625.01375-.152625.0213125-.20625.0213125zm-10.6431875-2.95075c-.3733125 0-.680625.152625-.92675.4571875-.243375.3045625-.3650625.7486875-.3650625 1.32825 0 .559625.121.988625.3623125 1.2849375.243375.2963125.5589375.444125.9494375.444125.3100625 0 .570625-.092125.7803125-.273625.2096875-.182875.35475-.4530625.4351875-.8119375l-.4805625-.0735625c-.1381875.460625-.3815625.6909375-.7315.6909375-.22275 0-.413875-.0969375-.570625-.28875-.1560625-.1918125-.243375-.47575-.2619375-.8545625h2.058375l.00275-.1519375c0-.567875-.119625-1.0016875-.3581875-1.302125-.2385625-.29975-.53625-.4489375-.89375-.4489375zm-.7816875 1.4334375c.0144375-.295625.0955625-.5300625.243375-.704.1491875-.174625.3265625-.26125.5355625-.26125.232375 0 .4228125.1045.573375.3141875.103125.143.165.3595625.1863125.6510625zm-6.6268125-1.4334375c-.374 0-.682.1478125-.92675.4434375-.243375.2963125-.36575.732875-.36575 1.3138125 0 .578875.12375 1.0168125.3691875 1.313125s.554125.444125.9233125.444125c.375375 0 .68475-.1478125.928125-.4434375.2426875-.2963125.3636875-.74525.3636875-1.3495625 0-.556875-.12375-.983125-.3705625-1.27875-.2475-.295625-.554125-.44275-.92125-.44275zm.5775 2.7231875c-.1574375.2151875-.345125.3224375-.565125.3224375-.2344375 0-.430375-.105875-.5885-.319-.158125-.2124375-.2371875-.53625-.2371875-.9714375 0-.4310625.0776875-.7535.2344375-.966625.1560625-.2138125.345125-.320375.5665-.320375.2344375 0 .4310625.105875.5885.319.158125.2124375.2371875.534875.2371875.968-.0006875.4310625-.078375.7541875-.2358125.968zm10.7174375-1.4128125h2.1058125v-.5479375h-2.1058125v-1.4183125h2.248125v-.5479375h-2.751375v4.6426875h2.8400625v-.548625h-2.3368125zm4.976125-.9955c-.0763125-.0941875-.17875-.1698125-.3031875-.22825-.1265-.05775-.2619375-.086625-.40975-.086625-.1890625 0-.3575.045375-.50325.136125-.1464375.0914375-.2715625.2303125-.3719375.4145625v-.4750625h-.4200625v3.3639375h.46475v-1.8390625c0-.405625.067375-.6923125.2000625-.8586875.1326875-.1670625.3114375-.2509375.5341875-.2509375.11825 0 .22275.031625.3114375.0941875.0914375.0625625.1560625.15125.1986875.2646875.0433125.114125.06325.2949375.06325.5424375v2.0480625h.466125v-2.068c0-.3100625-.0199375-.540375-.056375-.69025-.039875-.1519375-.097625-.2743125-.1739375-.367125z" fill="#000"/></g></g></svg>