<?xml version="1.0" encoding="UTF-8"?>
<svg width="66px" height="50px" viewBox="0 0 66 50" version="1.1" xmlns="http://www.w3.org/2000/svg" xmlns:xlink="http://www.w3.org/1999/xlink">
    <!-- Generator: Sketch 51.2 (57519) - http://www.bohemiancoding.com/sketch -->
    <title>6.NACN</title>
    <desc>Created with Sketch.</desc>
    <defs></defs>
    <g id="6.NACN" stroke="none" stroke-width="1" fill="none" fill-rule="evenodd">
        <g id="Group" fill-rule="nonzero">
            <rect id="Rectangle" x="0" y="0" width="66" height="50"></rect>
            <g id="6.NACN" transform="translate(0.000000, 18.000000)">
                <path d="M65.417449,8.99822449 C65.2948776,8.97869388 65.1770204,8.96859184 65.0632041,8.96859184 L65.0632041,6.71314286 C65.0632041,6.53130612 65.0396327,6.36091837 64.9938367,6.20063265 C64.9487143,6.04169388 64.878,5.90161224 64.7810204,5.78240816 C64.6833673,5.66253061 64.5574286,5.5682449 64.4005102,5.50022449 C64.2449388,5.43220408 64.0556939,5.39785714 63.832102,5.39785714 C63.5310612,5.39785714 63.2751429,5.46318367 63.063,5.5945102 C62.8542245,5.72516327 62.6703673,5.89353061 62.5168163,6.09826531 L62.4999796,6.09826531 L62.535,5.44904082 C62.1922041,5.44904082 61.8797143,5.45644898 61.5948367,5.47059184 C61.3099592,5.48406122 61.1025306,5.50022449 60.9718776,5.51638776 L60.9718776,6.10634694 C61.0412449,6.10634694 61.1301429,6.10971429 61.2446327,6.11510204 C61.3591224,6.12116327 61.4816939,6.1292449 61.6123469,6.14136735 L61.6123469,8.96791837 C61.4971837,8.96791837 61.3786531,8.976 61.2540612,8.99418367 C61.1287959,9.01034694 61.0345102,9.02785714 60.9718776,9.04469388 L60.9718776,9.63465306 L63.1330408,9.63465306 L63.1330408,9.04469388 C63.0757959,9.0332449 62.9889184,9.01910204 62.8717347,9.00226531 C62.755898,8.98542857 62.6400612,8.97330612 62.524898,8.96791837 L62.524898,6.765 C62.6400612,6.61077551 62.7794694,6.46867347 62.9431224,6.33734694 C63.1094694,6.20669388 63.3000612,6.14136735 63.5175918,6.14136735 C63.7506122,6.14136735 63.9156122,6.204 64.0125918,6.32859184 C64.108898,6.45385714 64.1567143,6.633 64.1567143,6.86602041 L64.1567143,8.96791837 C64.0375102,8.97330612 63.9203265,8.9847551 63.8071837,9.00226531 C63.6926939,9.01910204 63.6078367,9.03391837 63.5499184,9.04469388 L63.5499184,9.63465306 L65.6861633,9.63465306 L65.6861633,9.04469388 C65.6289184,9.03459184 65.5393469,9.01910204 65.417449,8.99822449 Z M20.2034082,7.08557143 C20.0862245,6.9717551 19.9488367,6.87881633 19.7925918,6.80810204 C19.6356735,6.73738776 19.4713469,6.68620408 19.2996122,6.65791837 L19.2996122,6.64040816 C19.6114286,6.56093878 19.8619592,6.41614286 20.0518776,6.20534694 C20.2411224,5.99522449 20.3374286,5.71169388 20.3374286,5.35273469 C20.3374286,5.09142857 20.2869184,4.87120408 20.1879184,4.69273469 C20.086898,4.5122449 19.9495102,4.36879592 19.7723878,4.25767347 C19.5952653,4.14587755 19.3918776,4.06708163 19.1575102,4.01926531 C18.9238163,3.97077551 18.6766531,3.94653061 18.414,3.94653061 L15.9794082,3.94653061 L15.9794082,4.53581633 C16.0427143,4.55332653 16.1403673,4.57016327 16.2743878,4.587 C16.4077347,4.60383673 16.5343469,4.61259184 16.6542245,4.61259184 L16.6542245,8.96926531 C16.5336735,8.96926531 16.4077347,8.97802041 16.2743878,8.99553061 C16.1403673,9.01169388 16.0420408,9.02920408 15.9794082,9.04604082 L15.9794082,9.636 L18.392449,9.636 C18.7177347,9.636 19.0147347,9.60569388 19.282102,9.5457551 C19.5508163,9.48581633 19.7797959,9.39153061 19.9717347,9.26357143 C20.163,9.13561224 20.3125102,8.96926531 20.4216122,8.76722449 C20.5293673,8.5645102 20.5825714,8.32138776 20.5825714,8.03583673 C20.5825714,7.8297551 20.5495714,7.64926531 20.481551,7.49234694 C20.4128571,7.33542857 20.3205918,7.19938776 20.2034082,7.08557143 Z M17.6024694,4.64626531 L18.3203878,4.64626531 C19.0207959,4.64626531 19.3716735,4.92440816 19.3716735,5.47867347 C19.3716735,5.76893878 19.2861429,5.98646939 19.1144082,6.13328571 C18.9426735,6.28144898 18.6712653,6.35553061 18.2947959,6.35553061 L17.6024694,6.35553061 L17.6024694,4.64626531 Z M19.2922041,8.70391837 C19.0928571,8.8527551 18.7810408,8.92616327 18.3567551,8.92616327 L17.6017959,8.92616327 L17.6017959,7.02226531 L18.4005306,7.02226531 C18.8241429,7.02226531 19.1272041,7.10644898 19.3137551,7.27818367 C19.4982857,7.44857143 19.5932449,7.68765306 19.5932449,7.99542857 C19.5939184,8.32004082 19.4922245,8.55642857 19.2922041,8.70391837 Z M60.1765102,3.92565306 L58.9460816,3.92565306 L58.2961837,4.89208163 L59.091551,4.89208163 L60.1765102,3.92565306 Z M6.57440816,0.474795918 C3.12287755,0.474795918 0.313836735,3.28316327 0.313836735,6.73536735 C0.313836735,10.1862245 3.12287755,12.9945918 6.57440816,12.9945918 C10.0252653,12.9945918 12.8336327,10.1862245 12.8336327,6.73536735 C12.8336327,3.28316327 10.0252653,0.474795918 6.57440816,0.474795918 Z M60.1852653,6.06459184 C60.0202653,5.8652449 59.8108163,5.70563265 59.5555714,5.58104082 C59.2996531,5.45914286 58.9945714,5.39853061 58.6423469,5.39853061 C58.2907959,5.39853061 57.9884082,5.46587755 57.7392245,5.59922449 C57.4886939,5.7332449 57.2853061,5.90497959 57.1256939,6.11644898 C56.9674286,6.32657143 56.8495714,6.56363265 56.7727959,6.82561224 C56.6960204,7.08759184 56.6569592,7.34687755 56.6569592,7.60279592 C56.6569592,7.87016327 56.6946735,8.13281633 56.7674082,8.38806122 C56.8414898,8.64465306 56.9573265,8.87228571 57.1176122,9.07230612 C57.2758776,9.27165306 57.4826327,9.43261224 57.7358571,9.5545102 C57.9890816,9.6777551 58.2907959,9.73836735 58.6430204,9.73836735 C58.9952449,9.73836735 59.301,9.67034694 59.5562449,9.53767347 C59.8114898,9.40365306 60.0202653,9.22989796 60.1859388,9.01708163 C60.3509388,8.80359184 60.4741837,8.56585714 60.5536531,8.30253061 C60.6331224,8.04055102 60.6721837,7.78463265 60.6721837,7.53410204 C60.6721837,7.26673469 60.6331224,7.0047551 60.5536531,6.74816327 C60.4735102,6.4922449 60.3502653,6.26393878 60.1852653,6.06459184 Z M59.6458163,8.15706122 C59.6067551,8.33957143 59.543449,8.4964898 59.4599388,8.62714286 C59.3744082,8.75712245 59.268,8.8615102 59.1366735,8.93895918 C59.0060204,9.01573469 58.8470816,9.05412245 58.6598571,9.05412245 C58.4733061,9.05412245 58.3150408,9.01438776 58.1843878,8.93491837 C58.0544082,8.85477551 57.9473265,8.74702041 57.8644898,8.61030612 C57.7836735,8.47359184 57.7223878,8.31465306 57.6819796,8.13214286 C57.6415714,7.94963265 57.6220408,7.75567347 57.6220408,7.55093878 C57.6220408,7.34620408 57.6402245,7.15291837 57.6779388,6.97444898 C57.7136327,6.79530612 57.7742449,6.63973469 57.8564082,6.50908163 C57.937898,6.37910204 58.0443061,6.27471429 58.1763061,6.19793878 C58.3049388,6.1204898 58.4625306,6.08277551 58.6423469,6.08277551 C58.8295714,6.08277551 58.9898571,6.1225102 59.124551,6.20197959 C59.2572245,6.28144898 59.3663265,6.38853061 59.4518571,6.52187755 C59.5353673,6.65589796 59.5993469,6.81483673 59.6417755,6.99667347 C59.685551,7.17918367 59.7057551,7.37179592 59.7057551,7.57720408 C59.7057551,7.78126531 59.6875714,7.97589796 59.6458163,8.15706122 Z M55.2689388,4.9412449 C55.4231633,4.9412449 55.5497755,4.88938776 55.649449,4.78702041 C55.7491224,4.68465306 55.7989592,4.56140816 55.7989592,4.41728571 C55.7989592,4.2745102 55.7497959,4.15126531 55.649449,4.04889796 C55.549102,3.94653061 55.4231633,3.89467347 55.2689388,3.89467347 C55.1207755,3.89467347 54.9961837,3.94585714 54.8931429,4.04889796 C54.790102,4.15193878 54.7389184,4.2745102 54.7389184,4.41728571 C54.7389184,4.56140816 54.7907755,4.68397959 54.8931429,4.78702041 C54.9955102,4.89006122 55.121449,4.9412449 55.2689388,4.9412449 Z M37.400449,6.06459184 C37.235449,5.86591837 37.0266735,5.70495918 36.7694082,5.58171429 C36.5148367,5.45846939 36.2097551,5.39853061 35.8582041,5.39853061 C35.5039592,5.39853061 35.2042653,5.46587755 34.9537347,5.59922449 C34.7038776,5.7332449 34.4998163,5.90497959 34.3402041,6.11644898 C34.1819388,6.3272449 34.0634082,6.56363265 33.9859592,6.82561224 C33.9105306,7.08759184 33.8714694,7.34687755 33.8714694,7.60279592 C33.8714694,7.87083673 33.9091837,8.13281633 33.9819184,8.38806122 C34.0566735,8.64532653 34.1725102,8.87228571 34.3327959,9.07230612 C34.4910612,9.27165306 34.6971429,9.43261224 34.9503673,9.55518367 C35.2022449,9.6777551 35.5039592,9.73836735 35.8588776,9.73836735 C36.2097551,9.73836735 36.5155102,9.67169388 36.7700816,9.53767347 C37.0273469,9.40365306 37.235449,9.22989796 37.4011224,9.01708163 C37.5667959,8.80359184 37.6893673,8.56585714 37.7674898,8.30320408 C37.8476327,8.04122449 37.8873673,7.78463265 37.8873673,7.53410204 C37.8873673,7.26673469 37.8476327,7.0047551 37.7674898,6.74883673 C37.6886939,6.49157143 37.5661224,6.26393878 37.400449,6.06459184 Z M36.861,8.15706122 C36.8212653,8.33957143 36.7606531,8.49581633 36.6751224,8.62714286 C36.5895918,8.75712245 36.4818367,8.86218367 36.3518571,8.93895918 C36.2218776,9.01573469 36.0629388,9.05412245 35.8750408,9.05412245 C35.6891633,9.05412245 35.5288776,9.01371429 35.3995714,8.93491837 C35.2695918,8.85477551 35.1625102,8.74702041 35.0803469,8.61030612 C34.9975102,8.47359184 34.9362245,8.31465306 34.8978367,8.13214286 C34.8574286,7.94963265 34.837898,7.75567347 34.837898,7.55093878 C34.837898,7.34620408 34.8560816,7.15359184 34.892449,6.97512245 C34.9301633,6.79597959 34.990102,6.64040816 35.0709184,6.50908163 C35.1537551,6.37910204 35.2601633,6.27471429 35.3908163,6.19793878 C35.5214694,6.12116327 35.6777143,6.08277551 35.859551,6.08277551 C36.0454286,6.08277551 36.2057143,6.1225102 36.3404082,6.20197959 C36.4730816,6.28144898 36.5821837,6.38785714 36.6677143,6.52187755 C36.7512245,6.65589796 36.8158776,6.81483673 36.8576327,6.996 C36.9000612,7.1785102 36.9222857,7.37246939 36.9222857,7.57720408 C36.9216122,7.78126531 36.9014082,7.97589796 36.861,8.15706122 Z M24.2785714,9.00293878 C24.2725102,8.93963265 24.2684694,8.87632653 24.2657755,8.811 C24.2617347,8.74567347 24.2603878,8.67293878 24.2603878,8.59279592 L24.2603878,6.85928571 C24.2603878,6.34071429 24.1317551,5.96828571 23.8717959,5.73997959 C23.6131837,5.51302041 23.2245918,5.39853061 22.7066939,5.39853061 C22.3591837,5.39853061 22.054102,5.45442857 21.7927959,5.56757143 C21.5314898,5.68004082 21.3092449,5.81944898 21.1267347,5.98579592 L21.5281224,6.55218367 C21.6823469,6.42153061 21.8493673,6.31579592 22.0285102,6.23565306 C22.2069796,6.15618367 22.4029592,6.11577551 22.6130816,6.11577551 C22.880449,6.11577551 23.0723878,6.17032653 23.1855306,6.28077551 C23.2986735,6.39055102 23.3559184,6.57104082 23.3559184,6.81887755 L23.3559184,7.16706122 L23.2030408,7.16706122 C22.9289388,7.16706122 22.659551,7.19063265 22.3962245,7.23979592 C22.1308776,7.28761224 21.8938163,7.36708163 21.6863878,7.47820408 C21.4782857,7.58797959 21.3105918,7.73546939 21.1826327,7.91797959 C21.0553469,8.1004898 20.9900204,8.3247551 20.9900204,8.59212245 C20.9900204,8.77530612 21.0216735,8.93559184 21.0843061,9.075 C21.1476122,9.21508163 21.2324694,9.33495918 21.3415714,9.43395918 C21.4479796,9.53363265 21.5779592,9.60906122 21.7247755,9.6602449 C21.8729388,9.71142857 22.0352449,9.73702041 22.2110204,9.73702041 C22.4851224,9.73702041 22.7242041,9.6777551 22.924898,9.55720408 C23.1276122,9.43732653 23.2858776,9.30061224 23.3990204,9.14840816 L23.4165306,9.14840816 C23.4165306,9.26222449 23.4219184,9.36593878 23.4333673,9.45955102 C23.4441429,9.55383673 23.4582857,9.62859184 23.4757959,9.6865102 C23.7761633,9.6865102 24.0543061,9.68044898 24.3088776,9.66832653 C24.562102,9.65687755 24.7506735,9.64677551 24.8766122,9.63532653 L24.8766122,9.03661224 C24.8032041,9.03661224 24.7143061,9.03391837 24.6112653,9.02785714 C24.5082245,9.02179592 24.398449,9.01438776 24.2785714,9.00293878 Z M23.3552449,8.60087755 C23.2596122,8.73153061 23.1356939,8.83995918 22.9841633,8.9254898 C22.8333061,9.01102041 22.6521429,9.05344898 22.4420204,9.05344898 C22.3160816,9.05344898 22.1941837,9.01304082 22.0743061,8.9342449 C21.9544286,8.85410204 21.8938163,8.72008163 21.8938163,8.53218367 C21.8938163,8.23653061 22.0157143,8.02910204 22.2574898,7.91259184 C22.4999388,7.79540816 22.8137755,7.73681633 23.2016939,7.73681633 L23.3545714,7.73681633 L23.3545714,8.60087755 L23.3552449,8.60087755 Z M43.9613878,4.53514286 C44.0240204,4.55197959 44.1196531,4.57016327 44.2503061,4.58632653 C44.3823061,4.60316327 44.5075714,4.61191837 44.627449,4.61191837 L44.627449,7.37920408 C44.627449,7.59606122 44.6301429,7.77655102 44.6355306,7.92202041 C44.6422653,8.0674898 44.6483265,8.16783673 44.6530408,8.22508163 L44.6355306,8.22508163 C44.6079184,8.16244898 44.5365306,8.04593878 44.4227143,7.87487755 C44.3082245,7.70381633 44.1836327,7.524 44.0469184,7.33610204 L41.6291633,3.94518367 L40.0478571,3.94518367 L40.0478571,4.53446939 C40.1111633,4.55130612 40.2088163,4.5694898 40.3435102,4.58565306 C40.4761837,4.6024898 40.6048163,4.6112449 40.7226735,4.6112449 L40.7226735,8.96791837 C40.6041429,8.96791837 40.4761837,8.976 40.3435102,8.99418367 C40.2088163,9.01034694 40.1104898,9.02785714 40.0478571,9.04469388 L40.0478571,9.63465306 L42.2191224,9.63465306 L42.2191224,9.04469388 C42.1558163,9.02785714 42.0581633,9.01169388 41.9241429,8.99755102 C41.7901224,8.98408163 41.6655306,8.97330612 41.5523878,8.96791837 L41.5523878,5.94404082 C41.5523878,5.80732653 41.5483469,5.66657143 41.5429592,5.52110204 C41.5375714,5.37563265 41.5288163,5.27797959 41.5166939,5.22679592 L41.5348776,5.22679592 C41.5456531,5.24902041 41.568551,5.28942857 41.602898,5.346 C41.6379184,5.40257143 41.6776531,5.47059184 41.7227755,5.54736735 C41.767898,5.62346939 41.821102,5.70697959 41.8796939,5.79453061 C41.9396327,5.8827551 42.0015918,5.96963265 42.063551,6.05516327 L44.6186939,9.63465306 L45.4551429,9.63465306 L45.4551429,4.61259184 C45.5682857,4.61259184 45.6922041,4.60383673 45.8221837,4.587 C45.9528367,4.57083673 46.0504898,4.55265306 46.1131224,4.53581633 L46.1131224,3.94585714 L43.9613878,3.94585714 L43.9613878,4.53514286 Z M49.5235714,9.00293878 C49.5181837,8.94030612 49.5141429,8.87632653 49.510102,8.811 C49.5074082,8.74567347 49.5060612,8.67226531 49.5060612,8.59346939 L49.5060612,6.85928571 C49.5060612,6.34071429 49.3767551,5.96828571 49.1167959,5.73997959 C48.8588571,5.51234694 48.4695918,5.39853061 47.9523673,5.39853061 C47.6041837,5.39853061 47.2997755,5.45510204 47.0377959,5.56757143 C46.7758163,5.68004082 46.5542449,5.81944898 46.3717347,5.98579592 L46.7744694,6.55218367 C46.9280204,6.42085714 47.0943673,6.31579592 47.2735102,6.23565306 C47.454,6.15618367 47.6479592,6.11577551 47.8580816,6.11577551 C48.125449,6.11577551 48.3160408,6.17032653 48.4312041,6.28077551 C48.5443469,6.39122449 48.6015918,6.57104082 48.6015918,6.81887755 L48.6015918,7.16706122 L48.4480408,7.16706122 C48.1739388,7.16706122 47.904551,7.19063265 47.6398776,7.23912245 C47.3752041,7.28761224 47.1394898,7.36640816 46.9313878,7.47753061 C46.7232857,7.58797959 46.5555918,7.73546939 46.4283061,7.91797959 C46.299,8.1004898 46.2350204,8.3247551 46.2350204,8.59279592 C46.2350204,8.77530612 46.266,8.93626531 46.3299796,9.075 C46.3926122,9.21508163 46.4774694,9.33495918 46.5865714,9.43395918 C46.6929796,9.53363265 46.8216122,9.60906122 46.970449,9.6602449 C47.1179388,9.71210204 47.2802449,9.73702041 47.4580408,9.73702041 C47.7307959,9.73702041 47.9678571,9.67708163 48.1705714,9.55720408 C48.3732857,9.43732653 48.5308776,9.30061224 48.6446939,9.14840816 L48.6615306,9.14840816 C48.6615306,9.26222449 48.6682653,9.36593878 48.6783673,9.45955102 C48.6904898,9.55316327 48.7039592,9.62859184 48.7207959,9.6865102 C49.0231837,9.6865102 49.2999796,9.68044898 49.5538776,9.66832653 C49.807102,9.65687755 49.9963469,9.64677551 50.1216122,9.63532653 L50.1216122,9.03661224 C50.0475306,9.03661224 49.9593061,9.03391837 49.8562653,9.02785714 C49.7532245,9.02179592 49.643449,9.01438776 49.5235714,9.00293878 Z M48.6009184,8.60087755 C48.5046122,8.73220408 48.3800204,8.83995918 48.2291633,8.9254898 C48.0783061,9.01102041 47.8978163,9.05344898 47.6870204,9.05344898 C47.5617551,9.05344898 47.4391837,9.01304082 47.3193061,8.9342449 C47.1994286,8.85410204 47.1394898,8.72008163 47.1394898,8.5315102 C47.1394898,8.23653061 47.2607143,8.03044898 47.5024898,7.91259184 C47.7435918,7.79540816 48.059449,7.73681633 48.4466939,7.73681633 L48.6002449,7.73681633 L48.6002449,8.60087755 L48.6009184,8.60087755 Z M55.7356531,8.96859184 L55.7356531,6.12385714 L55.7686531,5.44904082 C55.418449,5.44904082 55.0978776,5.45644898 54.8103061,5.46991837 C54.5207143,5.48406122 54.3105918,5.50022449 54.1812857,5.51706122 L54.1812857,6.10634694 C54.2479592,6.10634694 54.3382041,6.10971429 54.45,6.11510204 C54.5617959,6.12116327 54.6830204,6.1292449 54.8123265,6.14136735 L54.8123265,8.96791837 C54.6991837,8.96791837 54.5813265,8.976 54.4580816,8.99418367 C54.3341633,9.01034694 54.2425714,9.02785714 54.1812857,9.04469388 L54.1812857,9.63465306 L56.3579388,9.63465306 L56.3579388,9.04469388 C56.2953061,9.0332449 56.2037143,9.0177551 56.0851837,8.99755102 C55.9659796,8.97802041 55.8501429,8.96859184 55.7356531,8.96859184 Z M53.273449,8.81504082 C53.2121633,8.84938776 53.1421224,8.88373469 53.0592857,8.91808163 C52.9771224,8.9517551 52.8821633,8.98004082 52.777102,9.00293878 C52.6720408,9.02583673 52.5562041,9.03661224 52.4309388,9.03661224 C52.2376531,9.03661224 52.0686122,8.99822449 51.9231429,8.92144898 C51.7783469,8.84534694 51.6557755,8.74095918 51.5554286,8.61030612 C51.4564286,8.47897959 51.3796531,8.32340816 51.3291429,8.14493878 C51.2772857,7.96512245 51.2523673,7.77318367 51.2523673,7.56777551 C51.2523673,7.35765306 51.2759388,7.16302041 51.325102,6.98253061 C51.3729184,6.80406122 51.4436327,6.64714286 51.5379184,6.51379592 C51.6328776,6.37977551 51.7493878,6.27538776 51.8921633,6.19793878 C52.0342653,6.1204898 52.1992653,6.08277551 52.3871633,6.08277551 C52.5871837,6.08277551 52.7548776,6.11106122 52.8915918,6.16695918 C52.8915918,6.23632653 52.8942857,6.30838776 52.8996735,6.38516327 C52.9050612,6.46261224 52.9111224,6.53669388 52.9171837,6.60808163 L53.6088367,6.60808163 L53.6088367,5.71438776 C53.5118571,5.64097959 53.3589796,5.56891837 53.1468367,5.50157143 C52.9367143,5.43355102 52.6821429,5.39920408 52.3864898,5.39920408 C52.085449,5.39920408 51.8073061,5.44971429 51.5540816,5.54938776 C51.3001837,5.64771429 51.0792857,5.79385714 50.8886939,5.98444898 C50.7001224,6.17436735 50.5519592,6.41008163 50.445551,6.68957143 C50.3391429,6.96838776 50.2859388,7.2842449 50.2859388,7.63714286 C50.2859388,7.93885714 50.3324082,8.21834694 50.4233265,8.47426531 C50.5162653,8.73085714 50.6482653,8.95242857 50.82,9.14032653 C50.9930816,9.32755102 51.204551,9.47504082 51.4550816,9.58010204 C51.7062857,9.6844898 51.9945306,9.73769388 52.3177959,9.73769388 C52.5063673,9.73769388 52.6754082,9.72355102 52.8276122,9.69526531 C52.9784694,9.66697959 53.1111429,9.63128571 53.2283265,9.58885714 C53.3461837,9.54642857 53.4424898,9.50332653 53.5233061,9.46089796 C53.6027755,9.41846939 53.6674286,9.38008163 53.7105306,9.34573469 L53.4128571,8.73085714 C53.3785102,8.75240816 53.3313673,8.78136735 53.273449,8.81504082 Z M29.3821224,8.96859184 L29.3821224,6.71314286 C29.3821224,6.53063265 29.358551,6.36091837 29.3127551,6.20063265 C29.2669592,6.04034694 29.1955714,5.90161224 29.0999388,5.78240816 C29.0022857,5.66253061 28.8763469,5.5682449 28.7207755,5.50022449 C28.5638571,5.43153061 28.3725918,5.39785714 28.1516939,5.39785714 C27.8499796,5.39785714 27.5940612,5.46385714 27.3819184,5.5945102 C27.1717959,5.72516327 26.9892857,5.89353061 26.8357347,6.09826531 L26.8202449,6.09826531 L26.8532449,5.44904082 C26.5111224,5.44904082 26.1979592,5.45644898 25.9130816,5.47059184 C25.6282041,5.48473469 25.4207755,5.50022449 25.289449,5.51706122 L25.289449,6.10634694 C25.3581429,6.10634694 25.4490612,6.10904082 25.5622041,6.11510204 C25.6766939,6.12116327 25.7999388,6.1292449 25.9299184,6.14136735 L25.9299184,8.96791837 C25.8154286,8.96791837 25.695551,8.97667347 25.5702857,8.99418367 C25.4450204,9.01034694 25.3520816,9.02785714 25.289449,9.04469388 L25.289449,9.63465306 L27.4506122,9.63465306 L27.4506122,9.04469388 C27.3933673,9.0332449 27.3071633,9.01910204 27.1906531,9.00226531 C27.0734694,8.98542857 26.9576327,8.97330612 26.8431429,8.96791837 L26.8431429,6.76432653 C26.9576327,6.61010204 27.0977143,6.46867347 27.2627143,6.33667347 C27.4277143,6.20602041 27.6176327,6.14136735 27.8351633,6.14136735 C28.0688571,6.14136735 28.2338571,6.20332653 28.3308367,6.32859184 C28.4264694,6.45385714 28.4756327,6.63367347 28.4756327,6.86669388 L28.4756327,8.96791837 C28.3557551,8.97330612 28.2385714,8.9847551 28.1254286,9.00226531 C28.0109388,9.01910204 27.9254082,9.03391837 27.8681633,9.04469388 L27.8681633,9.63465306 L30.0044082,9.63465306 L30.0044082,9.04469388 C29.9471633,9.0332449 29.8575918,9.0177551 29.7356939,8.99755102 C29.6137959,8.97869388 29.4952653,8.96859184 29.3821224,8.96859184 Z M33.1454694,8.81504082 C33.0855306,8.84938776 33.0148163,8.88508163 32.9326531,8.91740816 C32.8498163,8.9517551 32.7548571,8.98004082 32.6504694,9.00293878 C32.5454082,9.02583673 32.428898,9.03661224 32.3049796,9.03661224 C32.1110204,9.03661224 31.9413061,8.99822449 31.7951633,8.92144898 C31.6510408,8.84534694 31.5277959,8.74095918 31.4287959,8.61030612 C31.3291224,8.47897959 31.2530204,8.32340816 31.2011633,8.14493878 C31.1506531,7.96579592 31.1250612,7.7725102 31.1250612,7.56777551 C31.1250612,7.35765306 31.1493061,7.16234694 31.1984694,6.98253061 C31.2449388,6.80406122 31.317,6.64714286 31.4112857,6.51446939 C31.5055714,6.37977551 31.6227551,6.27538776 31.7648571,6.19726531 C31.9076327,6.12116327 32.0726327,6.08277551 32.2598571,6.08277551 C32.4598776,6.08277551 32.6275714,6.11106122 32.7649592,6.16763265 C32.7649592,6.23632653 32.7676531,6.30906122 32.7730408,6.3844898 C32.7784286,6.46261224 32.7851633,6.54073469 32.7898776,6.61144898 L33.4822041,6.61144898 L33.4822041,5.71506122 C33.384551,5.64097959 33.2303265,5.56959184 33.0195306,5.50157143 C32.8094082,5.43287755 32.5561837,5.39920408 32.2591837,5.39920408 C31.9588163,5.39920408 31.6806735,5.44971429 31.427449,5.54871429 C31.1728776,5.64771429 30.9506327,5.79385714 30.7620612,5.98444898 C30.5714694,6.17436735 30.4233061,6.41008163 30.316898,6.68957143 C30.2118367,6.96838776 30.1586327,7.2842449 30.1586327,7.63714286 C30.1586327,7.93885714 30.2037551,8.21767347 30.2960204,8.47426531 C30.3882857,8.73085714 30.5196122,8.95242857 30.6926939,9.14032653 C30.866449,9.32822449 31.075898,9.47504082 31.3277755,9.58010204 C31.5796531,9.68516327 31.8672245,9.73769388 32.1904898,9.73769388 C32.3797347,9.73769388 32.5487755,9.72355102 32.7003061,9.69593878 C32.8511633,9.66697959 32.9845102,9.63061224 33.1016939,9.58885714 C33.2188776,9.54642857 33.3158571,9.50332653 33.396,9.46089796 C33.4761429,9.41846939 33.5387755,9.38008163 33.5852449,9.34573469 L33.285551,8.73085714 C33.2518776,8.75240816 33.2054082,8.78069388 33.1454694,8.81504082 Z" id="Shape" fill="#0D7B92"></path>
                <path d="M3.06293878,9.63936735 C3.05283673,9.63936735 3.0447551,9.64744898 3.0447551,9.65755102 L3.0447551,10.3626735 C3.0447551,10.373449 3.0535102,10.3815306 3.06293878,10.3815306 L10.0791429,10.3815306 C10.0899184,10.3815306 10.0973265,10.3727755 10.0973265,10.3626735 L10.0973265,9.65755102 C10.0973265,9.64677551 10.0892449,9.63936735 10.0791429,9.63936735 L3.06293878,9.63936735 Z M3.76604082,4.96212245 L3.76604082,8.51804082 L3.41044898,8.51804082 L3.41044898,9.24134694 C3.41044898,9.25279592 3.41920408,9.26087755 3.42863265,9.26087755 L9.71479592,9.26087755 C9.72557143,9.26087755 9.73365306,9.25212245 9.73365306,9.24134694 L9.73365306,8.51804082 L9.37671429,8.51804082 L9.37671429,4.96212245 L8.57461224,4.96212245 L8.57461224,8.51804082 L7.7704898,8.51804082 L7.7704898,4.96212245 L6.96569388,4.96212245 L6.96569388,8.51804082 L6.17908163,8.51804082 L6.17908163,4.96212245 L5.37293878,4.96212245 L5.37293878,8.51669388 L4.56881633,8.51669388 L4.56881633,4.96212245 L3.76604082,4.96212245 Z M10.3236122,4.17753061 L6.59663265,2.1955102 C6.58316327,2.18877551 6.56295918,2.18877551 6.55083673,2.1955102 L2.82385714,4.17753061 C2.81106122,4.18426531 2.80702041,4.1997551 2.8137551,4.21255102 L3.036,4.6024898 C3.04340816,4.61528571 3.0602449,4.62471429 3.07506122,4.62471429 L10.0724082,4.62471429 C10.086551,4.62471429 10.1047347,4.61461224 10.1114694,4.6024898 L10.3343878,4.21255102 C10.340449,4.1997551 10.3364082,4.18426531 10.3236122,4.17753061 Z M8.349,3.89332653 L4.75065306,3.89332653 C4.7365102,3.89332653 4.73583673,3.88793878 4.74795918,3.88120408 L6.52793878,3.01310204 C6.54073469,3.00636735 6.55622449,3.00502041 6.56228571,3.00771429 C6.56969388,3.01040816 8.35304082,3.88120408 8.35304082,3.88120408 C8.36516327,3.88793878 8.3644898,3.89332653 8.349,3.89332653 Z" id="Shape" fill="#FFFFFF"></path>
            </g>
        </g>
    </g>
</svg>