<?xml version="1.0" encoding="UTF-8"?>
<svg width="66px" height="50px" viewBox="0 0 66 50" version="1.1" xmlns="http://www.w3.org/2000/svg" xmlns:xlink="http://www.w3.org/1999/xlink">
    <!-- Generator: Sketch 51.3 (57544) - http://www.bohemiancoding.com/sketch -->
    <title>28.Diners</title>
    <desc>Created with Sketch.</desc>
    <defs></defs>
    <g id="28.Diners" stroke="none" stroke-width="1" fill="none" fill-rule="evenodd">
        <rect id="Rectangle" fill-rule="nonzero" x="0" y="0" width="66" height="50"></rect>
        <g id="diners" transform="translate(8.000000, 6.000000)" fill-rule="nonzero">
            <circle id="Oval" fill="#FFFFFF" cx="23" cy="10" r="9.3"></circle>
            <path d="M18.1,10.1 C18.1,12.5 19.6,14.6 21.8,15.4 L21.8,4.7 C19.7,5.6 18.1,7.7 18.1,10.1 Z M26.4,0.2 L23.8,0.2 C18.3,0.2 13.8,4.3 13.8,10.2 C13.8,15.6 18.3,20 23.8,20 L26.4,20 C31.8,20 36.7,15.6 36.7,10.2 C36.7,4.3 31.8,0.2 26.4,0.2 Z M23.9,19.1 C18.9,19.1 14.9,15.1 14.9,10.1 C14.9,5.1 18.9,1.1 23.9,1.1 C28.9,1.1 32.9,5.1 32.9,10.1 C32.9,15.1 28.8,19.1 23.9,19.1 Z M25.9,4.8 L25.9,15.5 C28,14.7 29.6,12.6 29.6,10.2 C29.6,7.7 28.1,5.6 25.9,4.8 Z" id="Shape" fill="#004A97"></path>
            <path d="M3.6,31 C7.3,31 7.9,28.4 7.9,27.3 C7.9,25.4 6.4,23.6 3.8,23.6 L0.8,23.6 L0.8,23.9 C1.3,23.9 1.7,23.8 1.7,24.7 L1.7,29.8 C1.7,30.6 1.3,30.6 0.8,30.6 L0.8,30.9 L2.2,30.9 C2.6,31 3.1,31 3.6,31 Z M2.7,24.1 L3.5,24.1 C5.5,24.1 6.8,25.5 6.8,27.5 C6.8,29 6,30.8 3.8,30.8 C3.3,30.8 2.7,30.7 2.7,29.9 L2.7,24.1 Z M9.4,24.7 C9.7,24.7 9.9,24.4 9.9,24.1 C9.9,23.8 9.6,23.6 9.4,23.6 C9.1,23.6 8.9,23.9 8.9,24.1 C8.9,24.4 9.1,24.7 9.4,24.7 Z M10.5,31 L10.5,30.7 L10.3,30.7 C10,30.7 9.7,30.7 9.7,30.3 L9.7,26.3 C9.7,26.2 9.7,26.1 9.6,26.1 C9.5,26.1 9.5,26.1 9.4,26.2 C9.4,26.2 8.7,26.4 8.3,26.6 L8.3,26.8 C8.7,27 8.9,27.1 8.9,27.6 L8.9,30.4 C8.9,30.8 8.7,30.8 8.4,30.8 L8.2,30.8 L8.2,31.1 L9.3,31.1 C9.8,31 10.1,31 10.5,31 Z M16.1,30.7 L15.9,30.7 C15.6,30.7 15.3,30.7 15.3,30.3 L15.3,27.7 C15.3,26.9 15,26.3 14.1,26.3 C13.4,26.3 12.9,26.7 12.3,27.1 L12.3,26.4 C12.3,26.3 12.3,26.3 12.2,26.3 C11.7,26.5 11.3,26.7 10.8,26.8 L10.8,27 C11.3,27.2 11.4,27.3 11.4,27.7 L11.4,30.4 C11.4,30.8 11.2,30.8 10.9,30.8 L10.7,30.8 L10.7,31.1 L12.9,31.1 L12.9,30.8 L12.7,30.8 C12.4,30.8 12.1,30.8 12.1,30.4 L12.1,27.3 C12.5,27.1 12.9,26.8 13.3,26.8 C13.9,26.8 14.2,27.1 14.2,27.6 L14.2,30.3 C14.2,30.7 14,30.7 13.7,30.7 L13.5,30.7 L13.5,31 L15.7,31 L16.1,30.7 Z M17.9,31.2 C18.7,31.2 19.3,30.6 19.8,30 L19.6,29.8 C19.2,30.2 18.8,30.5 18.2,30.5 C17.4,30.5 16.7,29.7 16.7,28.7 L16.7,28.1 L19.6,28.1 L19.7,28 L19.7,27.8 C19.7,26.7 18.8,26.2 17.9,26.2 C17.1,26.2 15.8,26.8 15.8,28.8 C16,29.6 16.3,31.2 17.9,31.2 Z M18,26.6 C18.6,26.6 18.9,27.1 18.9,27.5 C18.9,27.6 18.9,27.8 18.6,27.8 L16.8,27.8 C17,27 17.4,26.6 18,26.6 Z M22.7,31 L22.7,30.7 L22.1,30.7 C21.8,30.7 21.6,30.7 21.6,30.3 L21.6,27.9 C21.6,27.2 22.2,27.1 22.4,27.1 C22.8,27.1 22.8,27.4 23.1,27.4 C23.4,27.4 23.6,27.1 23.6,26.8 C23.6,26.4 23.2,26.2 23,26.2 C22.3,26.2 22,26.9 21.7,27.2 L21.7,26.3 C21.7,26.2 21.7,26.2 21.6,26.2 C21.5,26.2 21.1,26.5 20.3,26.8 L20.3,27 C20.5,27.1 20.9,27.2 20.9,27.5 L20.9,30.4 C20.9,30.8 20.7,30.8 20.4,30.8 L20.1,30.8 L20.1,31.1 L21.3,31.1 C21.8,31 22.2,31 22.7,31 Z M25.4,30.8 C24.6,30.8 24.3,30.2 24.1,29.5 L23.9,29.6 L24,30.8 C24.4,31 24.8,31.2 25.3,31.2 C26.5,31.2 27.1,30.4 27.1,29.8 C27.1,28.2 24.7,28.6 24.7,27.4 C24.7,26.9 25.1,26.7 25.5,26.7 C26.2,26.7 26.5,27.1 26.6,27.7 L26.9,27.7 L26.8,26.7 C26.4,26.5 26,26.4 25.6,26.4 C24.5,26.4 24,27.2 24,27.7 C24,29.4 26.3,29 26.3,30.2 C26.2,30.4 26,30.8 25.4,30.8 Z M36.3,30.6 L36.6,29.1 L36.3,29 C36.1,30.1 35.3,30.8 34.2,30.8 C32.6,30.8 31.1,29.3 31.1,27.2 C31.1,24.7 32.8,23.9 34,23.9 C35.1,23.9 36.1,24.4 36.3,25.6 L36.6,25.6 L36.5,24.1 C35.7,23.8 34.9,23.5 34.1,23.5 C32,23.5 30.1,25 30.1,27.2 C30.1,29.6 31.6,31.2 34.1,31.2 C34.6,31.2 35.8,30.9 36.3,30.6 Z M39.1,31 L39.1,30.7 L38.9,30.7 C38.6,30.7 38.3,30.7 38.3,30.3 L38.3,23.1 C38.3,23 38.3,22.9 38.2,22.9 C38.2,22.9 38.1,23 38,23 C37.8,23.1 37.3,23.3 37,23.5 L37,23.7 C37.4,23.8 37.6,23.8 37.6,24.5 L37.6,30.3 C37.6,30.7 37.4,30.7 37.1,30.7 L36.9,30.7 L36.9,31 L39.1,31 Z M39.7,27.2 L39.7,29.8 C39.7,30.6 40.3,31 40.8,31 C41.6,31 42,30.6 42.7,30.2 L42.7,31 L42.8,31 C43,30.9 43.8,30.7 44.3,30.7 L44.3,30.5 L43.9,30.5 C43.7,30.5 43.6,30.5 43.6,30.3 L43.6,26.4 C43.6,26.3 43.6,26.2 43.5,26.2 C43.4,26.2 42.8,26.3 41.9,26.4 L41.9,26.6 C42.3,26.7 42.7,26.8 42.7,27.1 L42.7,29.9 C42.2,30.3 41.8,30.6 41.5,30.6 C40.6,30.6 40.6,29.7 40.6,29.4 L40.6,26.7 C40.6,26.5 40.6,26.4 40.5,26.4 C40.4,26.4 39.6,26.5 39.2,26.5 L39.2,26.7 C39.7,26.8 39.7,27 39.7,27.2 Z M44.8,24.6 L44.8,29.1 C44.8,29.8 44.7,30.3 44.6,31 L44.8,31.1 L45.1,30.8 C45.4,30.9 45.8,31.2 46.5,31.2 C48,31.2 48.9,29.8 48.9,28.5 C48.9,27.4 48.1,26.3 46.9,26.3 C46.3,26.3 45.8,26.7 45.4,27.1 L45.4,23.3 C45.4,23.2 45.4,23.1 45.3,23.1 C45.3,23.1 45.2,23.2 45.1,23.2 C44.9,23.3 44.4,23.5 44.1,23.7 L44.1,23.9 C44.6,23.9 44.8,23.9 44.8,24.6 Z M45.6,27.3 C45.9,27 46.2,26.8 46.6,26.8 C47.4,26.8 48.3,27.7 48.3,28.9 C48.3,29.8 47.8,30.9 46.7,30.9 C46,30.9 45.7,30.2 45.7,29.9 L45.6,27.3 Z M1.6,33.3 L0.8,33.3 L0.8,33.5 L0.9,33.5 C1.1,33.5 1.3,33.5 1.3,33.8 L1.3,36.8 C1.3,37.1 1.1,37.1 0.9,37.1 L0.8,37.1 L0.8,37.3 L2.5,37.3 L2.5,37.2 L2.4,37.2 C2.2,37.2 2,37.2 2,36.9 L2,33.9 C2,33.6 2.2,33.6 2.4,33.6 L2.5,33.6 L2.5,33.4 C2.1,33.3 1.8,33.3 1.6,33.3 Z M6.5,33.3 L5.7,33.3 L5.7,33.5 L5.9,33.5 C6.1,33.5 6.4,33.6 6.4,34 L6.4,36.1 L4,33.3 L2.7,33.3 L2.7,33.5 L2.8,33.5 C3.1,33.5 3.3,33.7 3.3,34 L3.3,36.4 C3.3,36.9 3.2,37.1 2.8,37.1 L2.7,37.1 L2.7,37.3 L4.3,37.3 L4.3,37.4 L4.2,37.4 C3.7,37.4 3.7,37.2 3.7,36.7 L3.7,34.4 L6.6,37.6 L6.8,37.6 L6.8,34.5 C6.8,33.8 7.1,33.8 7.3,33.8 L7.4,33.8 L7.4,33.6 C6.9,33.3 6.7,33.3 6.5,33.3 Z M11.2,33.1 C11.2,33.3 11.1,33.3 10.9,33.3 L8,33.3 C7.8,33.3 7.7,33.3 7.7,33.1 L7.5,33.1 L7.5,33.6 C7.5,33.8 7.5,33.9 7.4,34.1 L7.6,34.1 C7.7,33.7 7.7,33.6 8.1,33.6 L9,33.6 L9,36.6 C9,37.1 8.9,37.1 8.5,37.1 L8.4,37.1 L8.4,37.3 L10.2,37.3 L10.2,37.2 L10.1,37.2 C9.8,37.2 9.6,37.2 9.6,36.7 L9.6,33.7 L10.5,33.7 C10.9,33.7 10.9,34 10.9,34.3 L11.1,34.2 L11.1,33.7 C11.1,33.5 11.1,33.4 11.2,33.2 L11.2,33.1 Z M14.6,36.3 C14.4,37 14.1,37 13.5,37 C13.1,37 12.8,37 12.8,36.6 L12.8,35.3 L13.5,35.3 C13.9,35.3 13.9,35.5 13.9,35.9 L14.1,35.9 L14.1,34.5 L13.9,34.5 C13.9,34.8 13.8,35 13.5,35 L12.8,35 L12.8,33.6 L13.6,33.6 C14.2,33.6 14.3,33.9 14.3,34.3 L14.5,34.2 L14.5,33.3 L11.7,33.3 L11.7,33.5 L11.8,33.5 C12,33.5 12.2,33.5 12.2,33.8 L12.2,36.8 C12.2,37.1 12,37.1 11.8,37.1 L11.7,37.1 L11.7,37.3 L14.7,37.3 L14.9,36.4 L14.6,36.3 Z M18.3,36.7 L17.4,35.3 C17.9,35.1 18.2,34.8 18.2,34.3 C18.2,33.5 17.5,33.3 16.8,33.3 L15.1,33.3 L15.1,33.5 L15.2,33.5 C15.4,33.5 15.6,33.5 15.6,33.9 L15.6,36.8 C15.6,37 15.4,37.1 15.2,37.1 L15.1,37.1 L15.1,37.3 L16.8,37.3 L16.8,37.2 L16.7,37.2 C16.4,37.2 16.2,37.2 16.2,36.7 L16.2,35.5 L16.6,35.5 C17,36.2 17.4,36.7 17.7,37.3 L18.9,37.3 L18.9,37.2 C18.5,37 18.4,36.9 18.3,36.7 Z M16.4,35.1 L16.1,35.1 L16.1,33.5 L16.4,33.5 C16.9,33.5 17.2,33.8 17.2,34.3 C17.3,34.9 17,35.1 16.4,35.1 Z M23.6,33.4 L23.6,33.2 L22.1,33.2 L22.1,33.4 L22.3,33.4 C22.5,33.4 22.8,33.5 22.8,33.9 L22.8,36 L20.4,33.2 L19.1,33.2 L19.1,33.4 L19.2,33.4 C19.5,33.4 19.7,33.6 19.7,33.9 L19.7,36.3 C19.7,36.8 19.6,37 19.2,37 L19.1,37 L19.1,37.2 L20.7,37.2 L20.7,37.3 L20.6,37.3 C20.1,37.3 20.1,37.1 20.1,36.6 L20.1,34.3 L23,37.5 L23.2,37.5 L23.2,34.4 C23.2,33.7 23.5,33.7 23.7,33.7 L23.6,33.7 L23.6,33.4 Z M27.1,36.8 L26.9,36.2 L25.9,33.3 C25.9,33.3 25.9,33.2 25.8,33.1 L25.6,33.1 L25.1,33.4 C25,33.6 24.9,33.9 24.9,34.2 L24,36.8 C23.9,37 23.7,37.2 23.5,37.2 L23.5,37.4 L24.8,37.4 L24.8,37.1 L24.7,37.1 C24.5,37.1 24.3,37.1 24.3,36.9 C24.3,36.8 24.4,36.6 24.4,36.4 L24.6,35.8 L25.8,35.8 L26,36.5 C26.1,36.7 26.1,36.9 26.1,36.9 C26.1,37 25.9,37 25.8,37 L25.7,37 L25.7,37.2 L27.3,37.2 L27.3,37.1 L27.2,37.1 C27.3,37 27.2,37 27.1,36.8 Z M24.8,35.5 L25.3,34 L25.8,35.5 L24.8,35.5 Z M30.8,33.1 C30.8,33.3 30.7,33.3 30.5,33.3 L27.6,33.3 C27.4,33.3 27.3,33.3 27.3,33.1 L27.1,33.1 L27.1,33.6 C27.1,33.8 27.1,33.9 27,34.1 L27.2,34.1 C27.3,33.7 27.3,33.6 27.7,33.6 L28.6,33.6 L28.6,36.6 C28.6,37.1 28.5,37.1 28.1,37.1 L28,37.1 L28,37.3 L29.8,37.3 L29.8,37.2 L29.7,37.2 C29.4,37.2 29.2,37.2 29.2,36.7 L29.2,33.7 L30.1,33.7 C30.5,33.7 30.5,34 30.5,34.3 L30.7,34.2 L30.7,33.7 C30.7,33.5 30.7,33.4 30.8,33.2 L30.8,33.1 Z M32.1,33.3 L31.3,33.3 L31.3,33.5 L31.4,33.5 C31.6,33.5 31.8,33.5 31.8,33.8 L31.8,36.8 C31.8,37.1 31.6,37.1 31.4,37.1 L31.3,37.1 L31.3,37.3 L33,37.3 L33,37.2 L32.9,37.2 C32.7,37.2 32.5,37.2 32.5,36.9 L32.5,33.9 C32.5,33.6 32.7,33.6 32.9,33.6 L33,33.6 L33,33.4 C32.6,33.3 32.3,33.3 32.1,33.3 Z M35.2,33.2 C34,33.2 33.1,34.1 33.1,35.3 C33.1,36.5 34,37.4 35.3,37.4 C36.6,37.4 37.5,36.6 37.5,35.2 C37.3,33.9 36.4,33.2 35.2,33.2 Z M35.3,37 C34.4,37 34,36.1 34,35 C34,34.2 34.3,33.4 35.2,33.4 C36.1,33.4 36.5,34.3 36.5,35.2 C36.5,36.1 36.3,37 35.3,37 Z M42,33.4 L42,33.2 L40.5,33.2 L40.5,33.4 L40.7,33.4 C40.9,33.4 41.2,33.5 41.2,33.9 L41.2,36 L38.8,33.2 L37.5,33.2 L37.5,33.4 L37.6,33.4 C37.9,33.4 38.1,33.6 38.1,33.9 L38.1,36.3 C38.1,36.8 38,37 37.6,37 L37.5,37 L37.5,37.2 L39.1,37.2 L39.1,37.3 L39,37.3 C38.5,37.3 38.5,37.1 38.5,36.6 L38.5,34.3 L41.4,37.5 L41.6,37.5 L41.6,34.4 C41.6,33.7 41.9,33.7 42.1,33.7 L42,33.7 L42,33.4 Z M45.6,36.8 C45.5,36.6 45.4,36.4 45.4,36.2 L44.4,33.3 C44.4,33.3 44.4,33.2 44.3,33.2 L44.1,33.2 L43.6,33.5 C43.5,33.7 43.4,34 43.4,34.3 L42.5,36.9 C42.4,37.1 42.2,37.3 42,37.3 L42,37.5 L43.3,37.5 L43.3,37.1 L43.2,37.1 C43,37.1 42.8,37.1 42.8,36.9 C42.8,36.8 42.9,36.6 42.9,36.4 L43.1,35.8 L44.3,35.8 L44.5,36.5 C44.6,36.7 44.6,36.9 44.6,36.9 C44.6,37 44.4,37 44.3,37 L44.2,37 L44.2,37.2 L45.8,37.2 L45.8,37.1 L45.7,37.1 C45.8,37 45.7,37 45.6,36.8 Z M43.3,35.5 L43.8,34 L44.3,35.5 L43.3,35.5 Z M49.2,36.3 C49.2,36.5 49.1,36.6 49,36.7 C48.9,36.8 48.7,37 48.4,37 L47.6,37 C47.4,37 47.3,36.9 47.3,36.7 L47.3,33.8 C47.3,33.5 47.5,33.5 47.7,33.5 L47.9,33.5 L47.9,33.3 L46.2,33.3 L46.2,33.5 L46.3,33.5 C46.5,33.5 46.7,33.5 46.7,33.8 L46.7,36.7 C46.7,37.1 46.5,37.1 46.3,37.1 L46.2,37.1 L46.2,37.3 L49.2,37.3 C49.3,37 49.4,36.6 49.4,36.4 L49.2,36.4 L49.2,36.3 Z M49.3,33.2 C48.9,33.2 48.7,33.5 48.7,33.8 C48.7,34.1 49,34.4 49.3,34.4 C49.7,34.4 49.9,34.1 49.9,33.8 C49.9,33.4 49.7,33.2 49.3,33.2 Z M49.3,34.2 C49,34.2 48.8,34 48.8,33.7 C48.8,33.4 49,33.2 49.3,33.2 C49.6,33.2 49.8,33.4 49.8,33.7 C49.8,34 49.6,34.2 49.3,34.2 Z M49.5,33.9 L49.5,33.6 C49.5,33.5 49.4,33.4 49.3,33.4 L49,33.4 C49.1,33.4 49.1,33.4 49.1,33.5 L49.1,34 L49,34.1 L49.3,34.1 C49.2,34.1 49.2,34.1 49.2,34 L49.2,33.8 L49.3,33.8 C49.4,34 49.5,34.1 49.5,34.1 L49.6,34.1 C49.6,34 49.6,33.9 49.5,33.9 Z M49.3,33.7 L49.2,33.4 L49.3,33.4 C49.4,33.4 49.4,33.4 49.4,33.5 C49.4,33.6 49.4,33.7 49.3,33.7 Z" id="Shape" fill="#1C1C1B"></path>
        </g>
    </g>
</svg>