<?xml version="1.0" encoding="UTF-8"?>
<svg width="66px" height="50px" viewBox="0 0 66 50" version="1.1" xmlns="http://www.w3.org/2000/svg" xmlns:xlink="http://www.w3.org/1999/xlink">
    <!-- Generator: Sketch 51.2 (57519) - http://www.bohemiancoding.com/sketch -->
    <title>8.BancoSantaFe</title>
    <desc>Created with Sketch.</desc>
    <defs>
        <polygon id="path-1" points="0.145796712 0.176265205 3.69907397 0.176265205 3.69907397 4.17478027 0.145796712 4.17478027"></polygon>
        <polygon id="path-3" points="0.124875315 0.0904109589 6.70458529 0.0904109589 6.70458529 5.10205781 0.124875315 5.10205781"></polygon>
    </defs>
    <g id="8.BancoSantaFe" stroke="none" stroke-width="1" fill="none" fill-rule="evenodd">
        <g id="Group-2">
            <rect id="Rectangle" fill-rule="nonzero" x="0" y="0" width="66" height="50"></rect>
            <g id="Group-35" transform="translate(0.000000, 19.000000)">
                <path d="M15.5264548,6.15758301 L15.5264548,7.47197753 L16.2233425,7.47197753 C16.5175397,7.47197753 16.7350685,7.4155611 16.8752055,7.30290904 C17.0155233,7.19025699 17.0856822,7.01775288 17.0856822,6.78539671 C17.0856822,6.36679397 16.7867836,6.15758301 16.1888055,6.15758301 L15.5264548,6.15758301 Z M15.5264548,5.30898575 L16.1473973,5.30898575 C16.4372548,5.30898575 16.6470082,5.26414192 16.7770192,5.17445425 C16.9068493,5.08458575 16.9719452,4.93631178 16.9719452,4.72945151 C16.9719452,4.53615288 16.9012438,4.39764329 16.7596603,4.31374192 C16.6182575,4.22965973 16.3945808,4.18770904 16.088811,4.18770904 L15.5264548,4.18770904 L15.5264548,5.30898575 Z M14.4568932,3.31144603 L16.0266082,3.31144603 C16.7419397,3.31144603 17.2610795,3.41324877 17.5842082,3.61667342 C17.907337,3.8202789 18.0689918,4.14395014 18.0689918,4.58786795 C18.0689918,4.88911726 17.9981096,5.13648164 17.8567068,5.32959945 C17.7153041,5.52271726 17.5272493,5.63898575 17.2927233,5.67804329 L17.2927233,5.71258027 C17.6124164,5.78382411 17.8429644,5.91727068 17.9843671,6.11273918 C18.1257699,6.30820767 18.1966521,6.56804877 18.1966521,6.89226247 C18.1966521,7.35227342 18.0304767,7.71120493 17.698126,7.96869534 C17.3655945,8.22618575 16.9144438,8.35493096 16.3439507,8.35493096 L14.4568932,8.35493096 L14.4568932,3.31144603 Z" id="Fill-1" fill="#000000"></path>
                <path d="M21.2599562,6.56795836 L20.852926,6.58188164 C20.5469753,6.59110356 20.3193205,6.64625425 20.1699616,6.7473337 C20.0204219,6.84877479 19.9455616,7.00265425 19.9455616,7.20969534 C19.9455616,7.50624329 20.1157151,7.65469808 20.4562027,7.65469808 C20.6999507,7.65469808 20.8948767,7.58453918 21.0409808,7.44440219 C21.1869041,7.30390356 21.2599562,7.11765699 21.2599562,6.88548164 L21.2599562,6.56795836 Z M21.5704274,8.35502137 L21.5478247,7.83063781 L21.5201589,7.83063781 C21.3429534,8.05377205 20.9800438,8.20837479 20.7925315,8.29462685 C20.6050192,8.3808789 20.3607288,8.42409534 20.0594795,8.42409534 C19.6891562,8.42409534 19.3976712,8.31831452 19.1848438,8.10675288 C18.9721973,7.89519123 18.865874,7.5937611 18.865874,7.20282411 C18.865874,6.79344329 19.0090849,6.49165151 19.295326,6.29726795 C19.5817479,6.10288438 20.0133699,5.99529534 20.5907342,5.97468164 L21.2599562,5.95388712 L21.2599562,5.78499945 C21.2599562,5.39406247 21.0599671,5.19859397 20.6598082,5.19859397 C20.3515068,5.19859397 19.6276767,5.29153644 19.2114247,5.47796384 L19.2246247,4.7673337 C19.6685425,4.53497753 20.1605589,4.41870904 20.7012164,4.41870904 C21.2185479,4.41870904 21.6152712,4.53154192 21.8913863,4.75684603 C22.1673205,4.98233096 22.3052877,5.32498849 22.3052877,5.78499945 L22.3052877,8.35502137 L21.5704274,8.35502137 Z" id="Fill-3" fill="#000000"></path>
                <path d="M26.9486137,8.35500329 L25.896411,8.35500329 L25.896411,6.10232384 C25.896411,5.8240389 25.8470466,5.61537041 25.748137,5.47613753 C25.6492274,5.33708548 25.4915507,5.26746904 25.2754685,5.26746904 C24.9810904,5.26746904 24.7684438,5.36583616 24.6373479,5.56257041 C24.5062521,5.75912384 24.4406137,6.08496493 24.4406137,6.54045534 L24.4406137,8.35500329 L23.3885918,8.35500329 L23.3885918,4.4982526 L24.1921644,4.4982526 L24.185474,4.98882247 C24.3028274,4.80257589 24.6711616,4.66442795 24.876937,4.56895397 C25.0828932,4.47348 25.3168767,4.42592384 25.5790685,4.42592384 C26.0275068,4.42592384 26.3679945,4.54707452 26.6001699,4.78973753 C26.832526,5.03240055 26.9486137,5.3826526 26.9486137,5.84013205 L26.9486137,8.35500329 Z" id="Fill-5" fill="#000000"></path>
                <path d="M29.5980707,8.4240411 C28.397594,8.4240411 27.797446,7.76512603 27.797446,6.44729589 C27.797446,5.79181644 27.9605474,5.29112055 28.2871118,4.9450274 C28.6136762,4.59893425 29.0818241,4.42588767 29.691194,4.42588767 C30.1374625,4.42588767 30.4199063,4.49749315 30.7741364,4.67216712 L30.7741364,5.50105479 C30.6086844,5.43433151 30.2615063,5.38080822 30.1190186,5.33831507 C29.9763501,5.2956411 29.8338625,5.27430411 29.691194,5.27430411 C29.143846,5.27430411 28.8702625,5.66307123 28.8702625,6.44042466 C28.8702625,7.1948137 29.143846,7.57200822 29.691194,7.57200822 C29.8935337,7.57200822 30.081046,7.54506575 30.2535501,7.49081918 C30.4260542,7.43693425 30.5985584,7.35230959 30.7710625,7.23748767 L30.7710625,8.13761918 C30.6007282,8.24593151 30.4289474,8.32061096 30.2553584,8.36183836 C30.0815885,8.4034274 29.8626132,8.4240411 29.5980707,8.4240411" id="Fill-7" fill="#000000"></path>
                <path d="M32.3370707,6.41963014 C32.3370707,6.80152603 32.3998159,7.09011781 32.5251255,7.2855863 C32.6504351,7.48105479 32.854583,7.57887945 33.1373885,7.57887945 C33.4180241,7.57887945 33.6198214,7.48177808 33.7427803,7.28739452 C33.86592,7.09301096 33.9273995,6.80387671 33.9273995,6.41963014 C33.9273995,6.03809589 33.8653775,5.75167397 33.7411529,5.56072603 C33.6169282,5.36977808 33.4133227,5.27430411 33.1305173,5.27430411 C32.8498816,5.27430411 32.6477227,5.36923562 32.5233173,5.55891781 C32.3990926,5.74878082 32.3370707,6.03574521 32.3370707,6.41963014 M35.0038323,6.41963014 C35.0038323,7.04762466 34.8381995,7.53855616 34.5069337,7.89260548 C34.1758488,8.24683562 33.7145721,8.4240411 33.123646,8.4240411 C32.7533227,8.4240411 32.4267584,8.34303288 32.1439529,8.18083562 C31.8609666,8.01863836 31.6437995,7.78592055 31.491909,7.48232055 C31.3400186,7.17853973 31.2642542,6.82449041 31.2642542,6.41963014 C31.2642542,5.78964658 31.4286214,5.2998 31.7575364,4.95009041 C32.0864515,4.60038082 32.5486323,4.42588767 33.1444405,4.42588767 C33.514583,4.42588767 33.8411474,4.50635342 34.1241337,4.66728493 C34.4069392,4.82821644 34.6242871,5.05948767 34.7759967,5.36073699 C34.9278871,5.6619863 35.0038323,6.01495068 35.0038323,6.41963014" id="Fill-9" fill="#000000"></path>
                <path d="M40.3984734,6.95450137 C40.3984734,7.40981096 40.2346488,7.76856164 39.9068186,8.03075342 C39.5791693,8.29294521 39.1231364,8.4240411 38.5390816,8.4240411 C38.0007748,8.4240411 37.5246707,8.32278082 37.1107693,8.1204411 L37.1107693,7.12682466 C37.4510762,7.27871507 37.7393063,7.38576164 37.9749173,7.44778356 C38.210709,7.50980548 38.4262488,7.54090685 38.6218981,7.54090685 C38.8564241,7.54090685 39.0363419,7.49606301 39.1616515,7.40637534 C39.2871419,7.31668767 39.3497063,7.18342192 39.3497063,7.00621644 C39.3497063,6.90730685 39.3222214,6.8194274 39.2668899,6.74221644 C39.2117392,6.6651863 39.130731,6.59104932 39.0236844,6.51980548 C38.9168186,6.44838082 38.6989282,6.33464384 38.3700132,6.17823288 C38.0617118,6.0332137 37.8308022,5.89416164 37.6765611,5.76071507 C37.5225008,5.62726849 37.3993611,5.47212329 37.3073227,5.29491781 C37.2154652,5.11789315 37.1695364,4.91085205 37.1695364,4.67415616 C37.1695364,4.22788767 37.3207036,3.87709315 37.6230378,3.6217726 C37.9253721,3.36645205 38.3436132,3.2389726 38.8772186,3.2389726 C39.1392296,3.2389726 39.3893063,3.26989315 39.6272679,3.33209589 C39.8654104,3.39429863 39.8209282,3.35958082 40.0807693,3.47223288 L40.0807693,4.41883562 C39.8117063,4.3081726 39.5375803,4.23837534 39.3618214,4.19443562 C39.1858816,4.15085753 39.0128351,4.12897808 38.8426816,4.12897808 C38.6401611,4.12897808 38.4848351,4.1761726 38.3767036,4.27038082 C38.2687529,4.36476986 38.2146871,4.48772877 38.2146871,4.63943836 C38.2146871,4.7338274 38.2365666,4.81610137 38.2803255,4.88626027 C38.3239036,4.95641918 38.39352,5.0242274 38.488994,5.08968493 C38.5844679,5.15532329 38.8104953,5.27321918 39.1667145,5.4433726 C39.6382981,5.66885753 39.9614268,5.89470411 40.1362816,6.12145479 C40.3111364,6.34802466 40.3984734,6.6255863 40.3984734,6.95450137" id="Fill-11" fill="#000000"></path>
                <path d="M43.3687989,6.56795836 L42.9615879,6.58188164 C42.6558181,6.59110356 42.4281633,6.64625425 42.2786236,6.7473337 C42.1292647,6.84877479 42.0542236,7.00265425 42.0542236,7.20969534 C42.0542236,7.50624329 42.2245578,7.65469808 42.5650455,7.65469808 C42.8086126,7.65469808 43.0035386,7.58453918 43.1496427,7.44440219 C43.2957468,7.30390356 43.3687989,7.11765699 43.3687989,6.88548164 L43.3687989,6.56795836 Z M43.6792701,8.35502137 L43.6566674,7.83063781 L43.6288208,7.83063781 C43.4517962,8.05377205 43.0887058,8.20837479 42.9011934,8.29462685 C42.7138619,8.3808789 42.4693907,8.42409534 42.1681414,8.42409534 C41.7978181,8.42409534 41.5063332,8.31831452 41.2935058,8.10675288 C41.08104,7.89519123 40.9747167,7.5937611 40.9747167,7.20282411 C40.9747167,6.79344329 41.1177468,6.49165151 41.4041688,6.29726795 C41.6905907,6.10288438 42.1220318,5.99529534 42.699577,5.97468164 L43.3687989,5.95388712 L43.3687989,5.78481863 C43.3687989,5.39388164 43.168629,5.19841315 42.7684701,5.19841315 C42.4603496,5.19841315 41.7365195,5.29153644 41.3200866,5.47796384 L41.3334674,4.76715288 C41.7772044,4.53497753 42.2694016,4.41870904 42.8098784,4.41870904 C43.3273907,4.41870904 43.724114,4.5313611 44.0000482,4.75666521 C44.2761633,4.98215014 44.4139496,5.32498849 44.4139496,5.78481863 L44.4139496,8.35502137 L43.6792701,8.35502137 Z" id="Fill-13" fill="#000000"></path>
                <path d="M49.0572575,8.35500329 L48.0052356,8.35500329 L48.0052356,6.10232384 C48.0052356,5.8240389 47.9556904,5.61537041 47.8567808,5.47613753 C47.7578712,5.33708548 47.6003753,5.26746904 47.3842932,5.26746904 C47.0897342,5.26746904 46.8770877,5.36583616 46.7461726,5.56238959 C46.6148959,5.75912384 46.5494384,6.08496493 46.5494384,6.54045534 L46.5494384,8.35500329 L45.4974164,8.35500329 L45.4974164,4.49807178 L46.4716849,4.49789096 L46.4716849,4.99135397 C46.5890384,4.8051074 46.7799863,4.66424712 46.9857616,4.56895397 C47.191537,4.47329918 47.4257014,4.42574301 47.6878932,4.42574301 C48.1361507,4.42574301 48.4766384,4.5468937 48.7089945,4.78955671 C48.9411699,5.03221973 49.0572575,5.38247178 49.0572575,5.84013205 L49.0572575,8.35500329 Z" id="Fill-15" fill="#000000"></path>
                <path d="M51.7655359,7.58580493 C51.9494318,7.58580493 52.1702153,7.54548164 52.4278866,7.46501589 L52.4278866,8.24815562 C52.1656948,8.36550904 51.8438318,8.42409534 51.4619359,8.42409534 C51.0409825,8.42409534 50.7344893,8.31777205 50.5426373,8.10494466 C50.3506044,7.89211726 50.2545879,7.5731474 50.2545879,7.14767342 L50.2545879,5.28810082 L49.7508181,5.28810082 L49.7508181,4.48145425 L50.649503,4.48398575 L50.649503,3.67697753 L51.3066099,3.67715836 L51.3066099,4.48398575 L52.3866592,4.48398575 L52.3866592,5.28810082 L51.3066099,5.28810082 L51.3066099,7.14767342 C51.3066099,7.29703233 51.3485605,7.40769534 51.4326427,7.47875836 C51.5165441,7.55018301 51.6275688,7.58580493 51.7655359,7.58580493" id="Fill-17" fill="#000000"></path>
                <path d="M55.3462981,6.56795836 L54.9392679,6.58188164 C54.6334981,6.59110356 54.4056625,6.64625425 54.2563036,6.7473337 C54.1067638,6.84877479 54.0319036,7.00265425 54.0319036,7.20969534 C54.0319036,7.50624329 54.2022378,7.65469808 54.5427255,7.65469808 C54.7862926,7.65469808 54.9812186,7.58453918 55.1271419,7.44440219 C55.2734268,7.30390356 55.3462981,7.11765699 55.3462981,6.88548164 L55.3462981,6.56795836 Z M55.6569501,8.35502137 L55.6341666,7.83063781 L55.60632,7.83063781 C55.4294762,8.05377205 55.0663858,8.20837479 54.8788734,8.29462685 C54.6913611,8.3808789 54.4468899,8.42409534 54.1456405,8.42409534 C53.7754981,8.42409534 53.4838323,8.31831452 53.2711858,8.10675288 C53.05872,7.89519123 52.9522159,7.5937611 52.9522159,7.20282411 C52.9522159,6.79344329 53.0954268,6.49165151 53.3818488,6.29726795 C53.6680899,6.10288438 54.0997118,5.99529534 54.6770762,5.97468164 L55.3462981,5.95388712 L55.3462981,5.78481863 C55.3462981,5.39388164 55.146309,5.19841315 54.7461501,5.19841315 C54.4378488,5.19841315 53.7140186,5.29153644 53.2977666,5.47796384 L53.3109666,4.76715288 C53.7547036,4.53497753 54.2470816,4.41870904 54.7873775,4.41870904 C55.3048899,4.41870904 55.701794,4.5313611 55.9775474,4.75666521 C56.2536625,4.98215014 56.3916296,5.32498849 56.3916296,5.78481863 L56.3916296,8.35502137 L55.6569501,8.35502137 Z" id="Fill-19" fill="#000000"></path>
                <polygon id="Fill-21" fill="#000000" points="59.8405364 8.35500329 58.7885145 8.35500329 58.7885145 3.31133753 61.6793145 3.31133753 61.6793145 4.18760055 59.8405364 4.18760055 59.8405364 5.4882526 61.5516542 5.4882526 61.5516542 6.36108 59.8405364 6.36108"></polygon>
                <g id="Group-25" transform="translate(62.202740, 4.249315)">
                    <mask id="mask-2" fill="white">
                        <use xlink:href="#path-1"></use>
                    </mask>
                    <g id="Clip-24"></g>
                    <path d="M1.97770356,0.924867945 C1.75456932,0.924867945 1.57971452,0.995750137 1.45332,1.13715288 C1.32674466,1.27855562 1.25441589,1.47908712 1.23597205,1.73910904 L2.71238301,1.73910904 C2.70786247,1.47908712 2.64005425,1.27855562 2.50895836,1.13715288 C2.37786247,0.995750137 2.20065699,0.924867945 1.97770356,0.924867945 M2.12597753,4.17478027 C1.50503507,4.17478027 1.01970904,4.0033611 0.670361096,3.66070356 C0.320651507,3.31804603 0.145796712,2.83272 0.145796712,2.2049063 C0.145796712,1.55864877 0.307451507,1.05885699 0.630580274,0.705892603 C0.953709041,0.352928219 1.40052,0.176265205 1.97083233,0.176265205 C2.51582959,0.176265205 2.94003781,0.331591233 3.24381863,0.642062466 C3.54741863,0.952533699 3.69912822,1.38144329 3.69912822,1.92897205 L3.69912822,2.43943233 L1.21192274,2.43943233 C1.22331452,2.73851178 1.31173644,2.97195288 1.47736932,3.13975562 C1.64300219,3.30773918 1.87535836,3.39164055 2.17425699,3.39164055 C2.40661315,3.39164055 2.62631178,3.36759123 2.83317205,3.31913096 C3.04021315,3.27085151 3.25629534,3.19382137 3.48178027,3.08804055 L3.48178027,3.90228164 C3.29770356,3.99432 3.10115014,4.06267068 2.89193918,4.10751452 C2.6825474,4.15235836 2.42722685,4.17478027 2.12597753,4.17478027" id="Fill-23" fill="#000000" mask="url(#mask-2)"></path>
                </g>
                <path d="M11.1696049,3.54132493 C11.0753967,3.28636603 11.0068652,3.1796811 10.8079611,3.1796811 L9.45288164,3.1796811 C9.40930356,3.1796811 9.36699123,3.19505096 9.33353918,3.22307836 L6.36498575,5.7140811 C6.27638301,5.78821808 6.27638301,5.92419616 6.36498575,5.99851397 L9.27459123,8.43997151 C9.30804329,8.4679989 9.35017479,8.48336877 9.3939337,8.48336877 L10.8079611,8.48336877 C11.0068652,8.48336877 11.1560433,8.14939068 11.1696049,8.12172493 C11.3305364,7.73784 11.8127885,5.28914959 11.1696049,3.54132493" id="Fill-26" fill="#00972F"></path>
                <path d="M2.30783014,3.24182959 C2.25991233,3.2015063 2.19951781,3.17962685 2.13695342,3.17962685 L0.772290411,3.17962685 C0.573386301,3.17962685 0.473572603,3.36786247 0.410646575,3.54127068 C-0.481347945,5.80100219 0.348986301,7.96652548 0.407391781,8.11371452 C0.409561644,8.11913918 0.420410959,8.13722137 0.428367123,8.15964329 C0.484421918,8.31442685 0.574832877,8.48331452 0.772290411,8.48331452 L2.14183562,8.48331452 C2.20946301,8.48331452 2.27473973,8.45980767 2.32681644,8.41677205 L5.17765479,6.05957753 C5.30567671,5.95379671 5.3064,5.75778575 5.17910137,5.65110082 L2.30783014,3.24182959 Z" id="Fill-28" fill="#00972F"></path>
                <path d="M6.08071562,10.065217 C6.0814389,10.1764225 5.99157041,10.2671951 5.88036493,10.2671951 L5.74095123,10.2671951 C5.62992658,10.2671951 5.54005808,10.1769649 5.54060055,10.0661211 L5.55325808,6.62634575 C5.55361973,6.53484986 5.44657315,6.48458137 5.37623342,6.54352932 L2.52738411,8.93417589 C2.48923068,8.96618137 2.47747726,9.02097041 2.49935671,9.06581425 C3.21595397,10.5255896 4.40232658,11.4821375 5.74728,11.4821375 C7.11537863,11.4821375 8.31947178,10.49268 9.03191014,8.99023068 C9.0530663,8.94574849 9.04113205,8.89168274 9.00334027,8.8600389 L6.23206356,6.53466904 C6.16154301,6.47535945 6.05431562,6.52617041 6.0550389,6.61802795 L6.08071562,10.065217 Z" id="Fill-30" fill="#00972F"></path>
                <g id="Group-34" transform="translate(2.350685, 0.090411)">
                    <mask id="mask-4" fill="white">
                        <use xlink:href="#path-3"></use>
                    </mask>
                    <g id="Clip-33"></g>
                    <path d="M3.21873863,2.22047507 C3.21910027,2.14543397 3.18094685,2.07563671 3.11765918,2.03549425 C2.99976329,1.96045315 2.9816811,1.79536274 3.08077151,1.69681479 L3.30752219,1.47060658 C3.39305096,1.38543945 3.5311989,1.3858011 3.61636603,1.47096822 L3.83335233,1.68903945 C3.93425096,1.7901189 3.91219068,1.95954904 3.78868932,2.03151616 L3.78055233,2.03621753 C3.71292493,2.07563671 3.67169753,2.14832712 3.67224,2.22644219 L3.6928537,4.97728603 C3.69357699,5.08342849 3.81780164,5.14074904 3.89917151,5.07239836 L6.65905644,2.75661205 C6.70299616,2.71990521 6.71710027,2.65734082 6.69268932,2.60562575 C5.98187836,1.08997644 4.77181808,0.0903928767 3.3966674,0.0903928767 C2.04466192,0.0903928767 0.852864658,1.05706685 0.137352329,2.53004219 C0.112218082,2.5821189 0.125960548,2.6455874 0.17044274,2.68265589 L3.00211397,5.05865589 C3.08366466,5.1271874 3.20807014,5.06950521 3.2086126,4.9630011 L3.21873863,2.22047507 Z" id="Fill-32" fill="#00972F" mask="url(#mask-4)"></path>
                </g>
            </g>
        </g>
    </g>
</svg>