<?xml version="1.0" encoding="UTF-8"?>
<svg width="66px" height="50px" viewBox="0 0 66 50" version="1.1" xmlns="http://www.w3.org/2000/svg" xmlns:xlink="http://www.w3.org/1999/xlink">
    <!-- Generator: Sketch 51.2 (57519) - http://www.bohemiancoding.com/sketch -->
    <title>22.efectivo-si</title>
    <desc>Created with Sketch.</desc>
    <defs></defs>
    <g id="22.efectivo-si" stroke="none" stroke-width="1" fill="none" fill-rule="evenodd">
        <rect id="Rectangle" fill-rule="nonzero" x="0" y="0" width="66" height="50"></rect>
        <g transform="translate(0.000000, 16.000000)" fill-rule="nonzero" id="Shape">
            <path d="M65.2971926,18.7649564 L0.690029042,18.7649564 C0.306679574,18.7649564 0,18.4582769 0,18.0749274 L0,0.696418199 C0,0.306679574 0.306679574,0 0.690029042,0 L65.2971926,0 C65.6805421,0 65.9872217,0.306679574 65.9872217,0.690029042 L65.9872217,18.0685382 C65.9872217,18.4582769 65.6805421,18.7649564 65.2971926,18.7649564 Z" fill="#C2322E"></path>
            <path d="M54.9978703,9.73068732 C54.863698,9.717909 54.7231365,9.6731849 54.6017425,9.70513069 C54.2120039,9.7945789 53.8286544,9.92875121 53.4389158,10.0181994 C52.8511133,10.1523717 52.2633107,10.3057115 51.6691191,10.3823814 C51.1132623,10.4590513 50.5637948,10.0054211 50.3593417,9.39206196 C50.2443369,9.04065828 50.2698935,8.71481123 50.4871249,8.38896418 C51.4007744,6.98973863 52.6211036,5.98025169 54.1992256,5.40522749 C54.5378509,5.28383349 54.8573088,5.10493708 55.1767667,4.93881897 C55.4387222,4.80464666 55.675121,4.79186834 55.9115198,5.00909971 C56.0329138,5.12410455 56.1734753,5.22633107 56.3140368,5.32216844 C56.767667,5.64162633 56.7612778,6.08886738 56.6526621,6.5552759 C56.6334947,6.63194579 56.4609874,6.74056147 56.3779284,6.72778316 C55.470668,6.58083253 54.7742498,7.01529526 54.096999,7.52003872 C53.8861568,7.67976767 53.6944821,7.85866409 53.4261375,8.08867377 C53.8030978,8.08867377 54.0906099,8.10145208 54.3717328,8.08228461 C54.6784124,8.06311713 54.985092,7.99922556 55.2917715,7.9928364 C56.0648596,7.96727977 56.6207164,8.50396902 56.6654405,9.27705712 C56.6909971,9.73068732 56.5632139,10.1332043 56.3523717,10.529332 C55.8859632,11.3918683 55.1831559,12.0371733 54.4420136,12.6505324 C53.4580833,13.4619555 52.4166505,14.1967086 51.2729913,14.7845111 C50.9854792,14.9314618 50.7682478,15.2061955 50.4999032,15.3914811 C50.3912875,15.468151 50.1804453,15.5384318 50.1037754,15.4809293 C49.7715392,15.2445305 49.4329138,14.9889642 49.1709584,14.6822846 C48.9473379,14.4203291 49.0176186,14.1583737 49.3051307,13.9475315 C49.9632139,13.4747338 50.6276864,13.0211036 51.3049371,12.5738625 C52.19303,11.9924492 53.1066796,11.4493708 53.9819942,10.8424008 C54.378122,10.567667 54.6975799,10.1907067 55.0489835,9.85208132 C55.0298161,9.80735721 55.0106486,9.76902227 54.9978703,9.73068732 Z" fill="#ECD34F"></path>
            <path d="M48.3659245,8.96398838 C48.3659245,10.893514 46.7941917,12.6377541 44.8902227,12.8294288 C43.2609874,12.9891578 41.8809293,11.7304937 41.8362052,10.0373669 C41.7914811,8.29951597 43.0565344,6.61916747 44.743272,6.17192643 C46.6791868,5.65440465 48.3659245,6.95779284 48.3659245,8.96398838 Z M46.890029,9.16844143 C46.9028074,8.16534366 46.2,7.51364956 45.2032914,7.59031946 C44.2065828,7.66698935 43.324879,8.65091965 43.3121007,9.69874153 C43.2993224,10.7210068 44.0021297,11.3727009 45.0180058,11.296031 C46.0083253,11.2129719 46.8772507,10.2354308 46.890029,9.16844143 Z" fill="#FFFFFF"></path>
            <path d="M20.285576,6.15275895 C20.2344627,7.09835431 19.7169409,7.60309777 18.8160697,7.60309777 C18.2921588,7.60309777 17.774637,7.60948693 17.250726,7.59670862 C17.0398838,7.59031946 16.9440465,7.64782188 16.924879,7.8714424 C16.8993224,8.18451113 16.8418199,8.49757986 16.7970958,8.84898354 C17.5701839,8.84898354 18.3241045,8.84898354 19.071636,8.84898354 C19.1546951,9.5070668 18.6755082,10.1140368 18.0365924,10.1523717 C17.6468538,10.1779284 17.250726,10.1715392 16.8545983,10.16515 C16.6565344,10.1587609 16.560697,10.2162633 16.5415295,10.4271055 C16.5159729,10.7018393 16.4584705,10.9701839 16.4073572,11.3024201 C16.682091,11.3024201 16.9312682,11.3024201 17.1804453,11.3024201 C17.4679574,11.3024201 17.7554695,11.296031 18.0429816,11.3024201 C18.867183,11.3151985 19.3974831,11.9668925 19.2569216,12.835818 C18.9566312,12.835818 18.6499516,12.835818 18.343272,12.835818 C17.4999032,12.835818 16.6629235,12.835818 15.8195547,12.835818 C15.0592449,12.8294288 14.7333979,12.4460794 14.8484027,11.6985479 C15.0848015,10.1970958 15.3275895,8.70203291 15.5639884,7.20058083 C15.6662149,6.58083253 16.1070668,6.13998064 16.7268151,6.12720232 C17.8768635,6.10803485 19.0269119,6.12081317 20.1769603,6.12720232 C20.2089061,6.12081317 20.2344627,6.13998064 20.285576,6.15275895 Z" fill="#FFFFFF"></path>
            <path d="M9.24511133,6.11442401 C9.28983543,6.95779284 8.70842207,7.59670862 7.92894482,7.60309777 C7.28363988,7.60948693 6.63194579,7.60309777 5.95469506,7.60309777 C5.89719264,8.01200387 5.83330106,8.40813166 5.76940949,8.84898354 C6.5552759,8.84898354 7.31558567,8.84898354 8.06950629,8.84898354 C8.06950629,9.64123911 7.59670862,10.1459826 6.86834463,10.16515 C6.44666021,10.1779284 6.01858664,10.16515 5.56495644,10.16515 C5.50106486,10.5421104 5.44356244,10.893514 5.37967086,11.296031 C5.90997096,11.296031 6.40193611,11.296031 6.90029042,11.296031 C7.82032914,11.296031 8.30590513,11.8327202 8.24840271,12.8102614 C8.15256534,12.8166505 8.04394966,12.8230397 7.94172314,12.8230397 C6.90029042,12.8230397 5.8588577,12.8230397 4.81103582,12.8230397 C4.03155857,12.8230397 3.6929332,12.4396902 3.8143272,11.6729913 C4.04433688,10.1907067 4.28073572,8.71481123 4.52991288,7.23891578 C4.66408519,6.45943853 5.09854792,6.10803485 5.89719264,6.10803485 C6.90029042,6.10803485 7.89699903,6.10803485 8.90009681,6.10803485 C9.01510165,6.11442401 9.11732817,6.11442401 9.24511133,6.11442401 Z" fill="#FFFFFF"></path>
            <path d="M38.3541142,10.6443369 C38.7630203,9.89041626 39.1463698,9.19399806 39.5297193,8.49757986 C39.8747338,7.8714424 40.2005808,7.23891578 40.5839303,6.63833495 C41.018393,5.96108422 41.663698,5.87802517 42.3281704,6.357212 C42.2834463,6.44666021 42.2451113,6.54249758 42.1939981,6.63194579 C41.261181,8.37618587 40.3219748,10.1204259 39.3827686,11.8582769 C39.1847047,12.228848 38.9674734,12.5802517 38.545789,12.7399806 C37.8302033,13.0083253 37.1657309,12.6377541 36.967667,11.8518877 C36.724879,10.8807357 36.4948693,9.90958374 36.2584705,8.93843175 C36.0604066,8.13339787 35.875121,7.32836399 35.6642788,6.52333011 C35.6067764,6.30609874 35.6770571,6.24220716 35.8559535,6.17831559 C36.6737657,5.89080348 37.2679574,6.21665053 37.4787996,7.09196515 C37.7407551,8.17812197 37.9963214,9.2642788 38.2582769,10.3440465 C38.2902227,10.4334947 38.3157793,10.5037754 38.3541142,10.6443369 Z" fill="#FFFFFF"></path>
            <path d="M11.538819,8.84898354 C12.3374637,8.84898354 13.078606,8.84898354 13.8133591,8.84898354 C13.890029,9.52623427 13.3277832,10.1332043 12.6249758,10.1587609 C12.2032914,10.1715392 11.781607,10.1587609 11.3407551,10.1587609 C11.2449177,10.77212 11.1618587,11.3599226 11.0596321,11.9413359 C10.9510165,12.5419167 10.6123911,12.8166505 9.99903195,12.835818 C9.76902227,12.8422072 9.53901258,12.835818 9.2642788,12.835818 C9.36650532,12.1266215 9.46234269,11.4685382 9.56456922,10.810455 C9.75624395,9.53901258 9.94152953,8.26757018 10.1395934,7.00251694 C10.2226525,6.47221684 10.529332,6.1463698 11.0468538,6.13359148 C12.350242,6.10803485 13.6600194,6.12720232 14.9634076,6.12720232 C15.0400774,6.88112294 14.4394966,7.59670862 13.7175218,7.61587609 C13.1297193,7.6286544 12.5483059,7.6286544 11.9605034,7.61587609 C11.781607,7.61587609 11.6921588,7.66060019 11.6793804,7.85866409 C11.6538238,8.16534366 11.5899322,8.47841239 11.538819,8.84898354 Z" fill="#FFFFFF"></path>
            <path d="M26.0485963,6.08247822 C25.8569216,7.10474347 25.1541142,7.71171346 24.2276864,7.71810261 C23.7101646,7.72449177 23.2118103,7.82032914 22.7581801,8.07589545 C21.9659245,8.5231365 21.6145208,9.4303969 21.8956438,10.2993224 C22.0809293,10.8871249 22.5665053,11.2193611 23.3204259,11.2832527 C24.0551791,11.3471442 24.6493708,11.6410455 24.9624395,12.3566312 C25.0135528,12.471636 25.0327202,12.59303 25.0710552,12.7399806 C24.9688287,12.752759 24.9049371,12.7783156 24.8346563,12.7719264 C24.0615682,12.7463698 23.2693127,12.8102614 22.5153921,12.6824782 C20.7136496,12.3757986 19.8511133,10.7976767 20.3878025,8.93204259 C20.8414327,7.37308809 21.9148112,6.51055179 23.4737657,6.26137464 C24.3043562,6.12720232 25.1605034,6.13998064 26.0485963,6.08247822 Z" fill="#FFFFFF"></path>
            <path d="M26.4766699,7.62226525 C26.5341723,7.27725073 26.5597289,6.98973863 26.6300097,6.71500484 C26.725847,6.357212 27.0005808,6.13359148 27.3519845,6.13359148 C29.0834463,6.11442401 30.814908,6.12720232 32.5910939,6.12720232 C32.514424,6.49138432 32.4760891,6.83639884 32.3738625,7.16863504 C32.271636,7.49448209 31.9777348,7.59670862 31.664666,7.60948693 C31.300484,7.62226525 30.9426912,7.63504356 30.5785092,7.61587609 C30.3357212,7.60309777 30.2526621,7.68615682 30.2207164,7.92894482 C30.0673766,9.1428848 29.9012585,10.3504356 29.7223621,11.5579864 C29.5626331,12.631365 29.0067764,13.0083253 27.8886738,12.8038722 C28.1250726,11.0979671 28.3614714,9.3856728 28.6042594,7.63504356 C27.9014521,7.62226525 27.2178122,7.62226525 26.4766699,7.62226525 Z" fill="#FFFFFF"></path>
            <path d="M57.214908,12.2799613 C57.2276864,12.2032914 57.253243,12.0371733 57.2979671,11.8710552 C57.738819,10.3504356 58.18606,8.83620523 58.6269119,7.31558567 C58.6333011,7.28363988 58.6396902,7.25169409 58.6524685,7.21974831 C58.8696999,6.54888674 58.7610842,6.6447241 59.4191675,6.61916747 C59.7194579,6.60638916 60.0197483,6.49777348 60.3136496,6.70861568 C60.5883833,6.90029042 60.6586641,7.14307841 60.5564376,7.42420136 C59.968635,9.02787996 59.6300097,10.6954501 59.3297193,12.3694095 C59.3105518,12.4844143 59.1508228,12.631365 59.0294288,12.6696999 C58.6396902,12.8038722 58.2371733,12.8933204 57.8346563,13.0083253 C57.457696,13.1169409 57.2021297,12.8613746 57.214908,12.2799613 Z" fill="#ECD34F"></path>
            <path d="M32.4121975,12.7847047 C32.4633107,12.4460794 32.5080348,12.1010649 32.5591481,11.7624395 C32.7891578,10.2737657 33,8.77870281 33.2555663,7.2964182 C33.4280736,6.31887706 33.9136496,6.00580833 34.9486931,6.13998064 C34.8848015,6.58722168 34.8145208,7.03446273 34.7506292,7.47531462 C34.539787,8.86176186 34.335334,10.2482091 34.1053243,11.6282672 C33.9583737,12.5738625 33.364182,12.9763795 32.4121975,12.7847047 Z" fill="#FFFFFF"></path>
            <path d="M60.2753146,5.87163601 C59.8025169,5.86524685 59.4575024,5.5713456 59.4191675,5.19438529 C59.4063892,5.09215876 59.4447241,4.95159729 59.5150048,4.88131655 C60.0261375,4.38296225 60.5436592,3.89738625 61.0739593,3.41819942 C61.2975799,3.22013553 61.7256534,3.23291384 61.9876089,3.42458858 C62.2495644,3.62265247 62.192062,3.91655373 62.1792836,4.18489835 C62.1792836,4.26795741 62.070668,4.35740561 61.9939981,4.42768635 C61.5148112,4.86214908 61.0292352,5.29022265 60.5372701,5.71190707 C60.4414327,5.80135528 60.3136496,5.84607938 60.2753146,5.87163601 Z" fill="#ECD34F"></path>
        </g>
    </g>
</svg>