<?xml version="1.0" encoding="UTF-8"?>
<svg width="66px" height="50px" viewBox="0 0 66 50" version="1.1" xmlns="http://www.w3.org/2000/svg" xmlns:xlink="http://www.w3.org/1999/xlink">
    <!-- Generator: Sketch 51.2 (57519) - http://www.bohemiancoding.com/sketch -->
    <title>16.HSBC-Time</title>
    <desc>Created with Sketch.</desc>
    <defs></defs>
    <g id="16.HSBC-Time" stroke="none" stroke-width="1" fill="none" fill-rule="evenodd">
        <g id="Group-6" fill-rule="nonzero">
            <rect id="Rectangle" x="0" y="0" width="66" height="50"></rect>
            <g id="16.HSBC-Time" transform="translate(0.000000, 20.000000)">
                <g id="Group" fill="#E71D1C">
                    <path d="M0,4.83380282 L4.70366197,9.53746479 L4.70366197,0.148732394 C4.68507042,0.148732394 0,4.83380282 0,4.83380282 Z" id="Shape"></path>
                    <polygon id="Shape" points="4.68507042 9.53746479 14.0738028 9.53746479 9.38873239 4.83380282"></polygon>
                    <polygon id="Shape" points="9.38873239 4.83380282 14.0738028 0.148732394 4.68507042 0.148732394"></polygon>
                    <polygon id="Shape" points="14.0738028 0.148732394 14.0738028 9.53746479 18.7774648 4.83380282"></polygon>
                </g>
                <g id="Group" transform="translate(20.450704, 1.673239)" fill="#000000">
                    <polygon id="Shape" points="0.0743661972 6.32112676 0.0743661972 0.204507042 1.30140845 0.204507042 1.30140845 2.62140845 3.71830986 2.62140845 3.71830986 0.204507042 4.94535211 0.204507042 4.94535211 6.32112676 3.71830986 6.32112676 3.71830986 3.64394366 1.30140845 3.64394366 1.30140845 6.32112676"></polygon>
                    <path d="M5.93070423,4.33183099 L7.13915493,4.22028169 C7.21352113,4.62929577 7.36225352,4.92676056 7.58535211,5.11267606 C7.8084507,5.29859155 8.10591549,5.3915493 8.47774648,5.3915493 C8.86816901,5.3915493 9.18422535,5.29859155 9.37014085,5.13126761 C9.57464789,4.96394366 9.66760563,4.75943662 9.66760563,4.53633803 C9.66760563,4.38760563 9.63042254,4.27605634 9.53746479,4.16450704 C9.44450704,4.0715493 9.29577465,3.97859155 9.09126761,3.90422535 C8.94253521,3.8484507 8.60788732,3.77408451 8.10591549,3.64394366 C7.43661972,3.47661972 6.97183099,3.27211268 6.7115493,3.03042254 C6.33971831,2.69577465 6.15380282,2.28676056 6.15380282,1.80338028 C6.15380282,1.48732394 6.24676056,1.2084507 6.41408451,0.929577465 C6.6,0.650704225 6.84169014,0.446197183 7.17633803,0.316056338 C7.51098592,0.167323944 7.92,0.111549296 8.38478873,0.111549296 C9.14704225,0.111549296 9.72338028,0.278873239 10.1138028,0.613521127 C10.5042254,0.948169014 10.7087324,1.3943662 10.7273239,1.97070423 L9.50028169,2.02647887 C9.44450704,1.71042254 9.33295775,1.48732394 9.1656338,1.3571831 C8.99830986,1.22704225 8.73802817,1.15267606 8.38478873,1.15267606 C8.0315493,1.15267606 7.75267606,1.22704225 7.54816901,1.37577465 C7.41802817,1.46873239 7.34366197,1.59887324 7.34366197,1.74760563 C7.34366197,1.89633803 7.39943662,2.00788732 7.52957746,2.11943662 C7.67830986,2.24957746 8.06873239,2.37971831 8.66366197,2.5284507 C9.25859155,2.6771831 9.70478873,2.82591549 10.0022535,2.97464789 C10.2997183,3.12338028 10.5228169,3.32788732 10.6715493,3.58816901 C10.8388732,3.8484507 10.9132394,4.18309859 10.9132394,4.55492958 C10.9132394,4.90816901 10.8202817,5.2428169 10.6157746,5.54028169 C10.4112676,5.83774648 10.1509859,6.07943662 9.79774648,6.22816901 C9.44450704,6.37690141 8.99830986,6.45126761 8.45915493,6.45126761 C7.67830986,6.45126761 7.08338028,6.26535211 6.6743662,5.91211268 C6.24676056,5.54028169 6.00507042,5.01971831 5.93070423,4.33183099 Z" id="Shape"></path>
                    <path d="M11.9543662,0.204507042 L14.4084507,0.204507042 C14.891831,0.204507042 15.2450704,0.223098592 15.4867606,0.26028169 C15.7284507,0.297464789 15.9329577,0.390422535 16.1188732,0.52056338 C16.3047887,0.650704225 16.4721127,0.818028169 16.583662,1.04112676 C16.6952113,1.26422535 16.7695775,1.48732394 16.7695775,1.76619718 C16.7695775,2.04507042 16.6952113,2.32394366 16.5464789,2.54704225 C16.3977465,2.78873239 16.1746479,2.97464789 15.9143662,3.08619718 C16.2861972,3.19774648 16.5650704,3.38366197 16.7695775,3.64394366 C16.9740845,3.90422535 17.0670423,4.22028169 17.0670423,4.57352113 C17.0670423,4.85239437 17.0112676,5.13126761 16.8811268,5.3915493 C16.7509859,5.65183099 16.583662,5.85633803 16.3419718,6.02366197 C16.1188732,6.17239437 15.84,6.28394366 15.5053521,6.32112676 C15.3008451,6.33971831 14.7988732,6.35830986 14.0180282,6.35830986 L11.9357746,6.35830986 L11.9543662,0.204507042 Z M13.1814085,1.22704225 L13.1814085,2.64 L13.9994366,2.64 C14.4828169,2.64 14.7802817,2.64 14.891831,2.62140845 C15.096338,2.6028169 15.263662,2.5284507 15.3938028,2.39830986 C15.5239437,2.26816901 15.5797183,2.11943662 15.5797183,1.91492958 C15.5797183,1.72901408 15.5239437,1.58028169 15.4309859,1.45014085 C15.3194366,1.33859155 15.1707042,1.26422535 14.9661972,1.22704225 C14.8360563,1.2084507 14.4828169,1.2084507 13.9064789,1.2084507 L13.1814085,1.2084507 L13.1814085,1.22704225 Z M13.1814085,3.64394366 L13.1814085,5.28 L14.3340845,5.28 C14.7802817,5.28 15.0591549,5.26140845 15.1892958,5.2428169 C15.3752113,5.2056338 15.5239437,5.13126761 15.635493,5.00112676 C15.7470423,4.87098592 15.8028169,4.70366197 15.8028169,4.48056338 C15.8028169,4.29464789 15.7656338,4.14591549 15.6726761,4.01577465 C15.5797183,3.8856338 15.4495775,3.79267606 15.2822535,3.73690141 C15.1149296,3.68112676 14.7430986,3.64394366 14.1853521,3.64394366 C14.1853521,3.64394366 13.1814085,3.64394366 13.1814085,3.64394366 Z" id="Shape"></path>
                    <path d="M22.0309859,4.0715493 L23.2208451,4.44338028 C23.0349296,5.11267606 22.7374648,5.61464789 22.3098592,5.93070423 C21.8822535,6.24676056 21.3430986,6.41408451 20.6923944,6.41408451 C19.8743662,6.41408451 19.2050704,6.13521127 18.684507,5.57746479 C18.1639437,5.01971831 17.903662,4.25746479 17.903662,3.29070423 C17.903662,2.26816901 18.1639437,1.48732394 18.684507,0.910985915 C19.2050704,0.334647887 19.9115493,0.0743661972 20.7667606,0.0743661972 C21.5104225,0.0743661972 22.1239437,0.297464789 22.5887324,0.743661972 C22.8676056,1.00394366 23.0721127,1.37577465 23.2208451,1.87774648 L21.9938028,2.17521127 C21.9194366,1.85915493 21.7707042,1.59887324 21.5476056,1.4315493 C21.324507,1.2456338 21.0456338,1.15267606 20.7109859,1.15267606 C20.2647887,1.15267606 19.8929577,1.32 19.6140845,1.63605634 C19.3352113,1.97070423 19.1864789,2.49126761 19.1864789,3.21633803 C19.1864789,3.9971831 19.3166197,4.53633803 19.595493,4.87098592 C19.8743662,5.2056338 20.2276056,5.37295775 20.6738028,5.37295775 C21.0084507,5.37295775 21.2873239,5.26140845 21.5290141,5.05690141 C21.7707042,4.85239437 21.9380282,4.51774648 22.0309859,4.0715493 Z" id="Shape"></path>
                    <polygon id="Shape" points="28.0546479 6.32112676 28.0546479 1.22704225 26.2326761 1.22704225 26.2326761 0.185915493 31.103662 0.185915493 31.103662 1.22704225 29.3002817 1.22704225 29.3002817 6.32112676"></polygon>
                    <path d="M31.7357746,1.2828169 L31.7357746,0.204507042 L32.9070423,0.204507042 L32.9070423,1.2828169 L31.7357746,1.2828169 Z M31.7357746,6.32112676 L31.7357746,1.87774648 L32.9070423,1.87774648 L32.9070423,6.32112676 L31.7357746,6.32112676 Z" id="Shape"></path>
                    <path d="M34.0225352,1.87774648 L35.1008451,1.87774648 L35.1008451,2.49126761 C35.4912676,2.02647887 35.9560563,1.78478873 36.4766197,1.78478873 C36.755493,1.78478873 37.0157746,1.84056338 37.2202817,1.95211268 C37.4247887,2.06366197 37.5921127,2.24957746 37.7408451,2.49126761 C37.9267606,2.24957746 38.1498592,2.08225352 38.3729577,1.95211268 C38.5960563,1.82197183 38.8377465,1.78478873 39.0980282,1.78478873 C39.4326761,1.78478873 39.6929577,1.85915493 39.9160563,1.98929577 C40.1391549,2.11943662 40.3064789,2.32394366 40.4180282,2.5656338 C40.4923944,2.7515493 40.548169,3.06760563 40.548169,3.47661972 L40.548169,6.32112676 L39.3769014,6.32112676 L39.3769014,3.79267606 C39.3769014,3.34647887 39.3397183,3.06760563 39.2467606,2.93746479 C39.1352113,2.77014085 38.9678873,2.69577465 38.7447887,2.69577465 C38.5774648,2.69577465 38.4287324,2.7515493 38.28,2.84450704 C38.1312676,2.93746479 38.0383099,3.08619718 37.9639437,3.29070423 C37.8895775,3.49521127 37.8709859,3.79267606 37.8709859,4.20169014 L37.8709859,6.32112676 L36.6997183,6.32112676 L36.6997183,3.8856338 C36.6997183,3.45802817 36.6811268,3.17915493 36.6439437,3.04901408 C36.6067606,2.91887324 36.5323944,2.82591549 36.4580282,2.77014085 C36.3650704,2.7143662 36.2535211,2.6771831 36.1047887,2.6771831 C35.9188732,2.6771831 35.7701408,2.73295775 35.6214085,2.82591549 C35.4726761,2.91887324 35.3797183,3.06760563 35.3053521,3.25352113 C35.2495775,3.43943662 35.2123944,3.73690141 35.2123944,4.16450704 L35.2123944,6.32112676 L34.0225352,6.32112676 L34.0225352,1.87774648 Z" id="Shape"></path>
                    <path d="M44.2850704,4.90816901 L45.456338,5.11267606 C45.3076056,5.54028169 45.0659155,5.87492958 44.7498592,6.09802817 C44.4338028,6.32112676 44.0247887,6.43267606 43.5414085,6.43267606 C42.7791549,6.43267606 42.2028169,6.17239437 41.8309859,5.67042254 C41.5335211,5.26140845 41.3847887,4.75943662 41.3847887,4.14591549 C41.3847887,3.40225352 41.5707042,2.84450704 41.9611268,2.41690141 C42.3515493,2.00788732 42.8349296,1.78478873 43.4112676,1.78478873 C44.0619718,1.78478873 44.5825352,2.00788732 44.9729577,2.43549296 C45.3633803,2.86309859 45.5307042,3.53239437 45.5121127,4.44338028 L42.5746479,4.44338028 C42.5746479,4.79661972 42.6861972,5.05690141 42.8535211,5.26140845 C43.0208451,5.46591549 43.2625352,5.55887324 43.5228169,5.55887324 C43.7087324,5.55887324 43.8574648,5.50309859 43.9876056,5.41014085 C44.1177465,5.3171831 44.2107042,5.13126761 44.2850704,4.90816901 Z M44.3408451,3.71830986 C44.3408451,3.38366197 44.2478873,3.12338028 44.0805634,2.93746479 C43.9132394,2.7515493 43.7087324,2.6771831 43.4670423,2.6771831 C43.2067606,2.6771831 43.0022535,2.77014085 42.8349296,2.95605634 C42.6676056,3.14197183 42.5932394,3.40225352 42.5932394,3.71830986 L44.3408451,3.71830986 Z" id="Shape"></path>
                </g>
            </g>
        </g>
    </g>
</svg>