<?xml version="1.0" encoding="UTF-8"?>
<svg width="66px" height="50px" viewBox="0 0 66 50" version="1.1" xmlns="http://www.w3.org/2000/svg" xmlns:xlink="http://www.w3.org/1999/xlink">
    <!-- Generator: Sketch 51.2 (57519) - http://www.bohemiancoding.com/sketch -->
    <title>19.Ciudad</title>
    <desc>Created with Sketch.</desc>
    <defs></defs>
    <g id="19.Ciudad" stroke="none" stroke-width="1" fill="none" fill-rule="evenodd">
        <g id="Group" fill-rule="nonzero">
            <rect id="Rectangle" x="0" y="0" width="66" height="50"></rect>
            <g id="19.Ciudad" transform="translate(0.000000, 18.000000)">
                <path d="M15.3744363,2.14735205 C16.8016328,2.14735205 17.5100994,2.76344708 17.5100994,3.92635853 C17.5100994,4.66219438 17.2703326,5.28841037 16.6022073,5.51691577 L16.6022073,5.56680778 C17.3599957,5.83522678 17.7297667,6.35196544 17.7297667,7.28679914 C17.7297667,8.7677365 16.6817495,9.28476026 15.3943931,9.28476026 L13.0992181,9.28476026 L13.0992181,2.14735205 L15.3744363,2.14735205 Z M16.2428423,4.13533477 C16.2428423,3.43955508 15.8937408,3.09216415 15.2645313,3.09216415 L14.3066048,3.09216415 L14.3066048,5.2092959 L15.2645313,5.2092959 C15.9734255,5.20915335 16.2428423,4.77181425 16.2428423,4.13533477 Z M16.4622246,7.14752916 C16.4622246,6.45174946 16.062946,6.04420302 15.3544795,6.04420302 L14.3066048,6.04420302 L14.3066048,8.34108855 L15.3544795,8.34108855 C16.1528942,8.34108855 16.4622246,7.87352916 16.4622246,7.14752916 Z M18.660324,7.8337581 C18.660324,6.75993952 19.2886782,6.28268683 20.2373391,6.17306695 L21.46454,6.05446652 L21.46454,5.63679914 C21.46454,4.95057019 20.9054644,4.77181425 20.3069028,4.77181425 C19.8979309,4.77181425 19.4782678,4.86090713 19.0891102,4.96083369 L19.0891102,4.09584881 C19.578622,3.93662203 20.1567991,3.82742981 20.7359741,3.82742981 C21.8334557,3.82742981 22.6119136,4.32435421 22.6119136,5.42782289 L22.6119136,9.28504536 L21.6642505,9.28504536 L21.5640389,8.84742117 L21.5141469,8.84742117 C21.2147948,9.14620302 20.6363326,9.37442333 20.1471058,9.37442333 C19.1893218,9.37428078 18.660324,8.78755076 18.660324,7.8337581 Z M21.46454,8.20153348 L21.46454,6.82921814 L20.5761771,6.9091879 C20.0675637,6.96848812 19.8181037,7.25714903 19.8181037,7.76390929 C19.8181037,8.25114039 20.0477495,8.49974514 20.5366911,8.49974514 C20.806108,8.49974514 21.2749503,8.36076026 21.46454,8.20153348 Z M25.0971058,3.90640173 L25.0971058,4.38422462 L25.1368769,4.38422462 C25.5662333,4.0362635 26.0252397,3.82742981 26.5542376,3.82742981 C27.4719654,3.82742981 27.931257,4.36398272 27.931257,5.2289676 L27.931257,9.28490281 L26.7934341,9.28490281 L26.7934341,5.55725702 C26.7934341,5.03994816 26.614108,4.79162851 26.1149028,4.79162851 C25.9350065,4.79162851 25.4865486,4.90139093 25.1471404,5.12961123 L25.1471404,9.28490281 L24.0090324,9.28490281 L24.0090324,3.90654428 L25.0971058,3.90654428 L25.0971058,3.90640173 Z M29.048838,6.73043197 L29.048838,6.46115767 C29.048838,4.93075594 29.6972916,3.82728726 31.2544924,3.82728726 C31.6436501,3.82728726 32.1425702,3.91666523 32.4816933,4.05593521 L32.4816933,4.99091145 C32.1723629,4.85135637 31.7236199,4.77181425 31.3541339,4.77181425 C30.3960648,4.77181425 30.216311,5.60672138 30.216311,6.55082073 L30.216311,6.6407689 C30.216311,7.57488985 30.3858013,8.41977538 31.3240562,8.41977538 C31.7931836,8.41977538 32.1823413,8.27109719 32.5315853,8.11158531 L32.5315853,8.9762851 C32.1723629,9.22488985 31.6737279,9.37413823 31.2046004,9.37413823 C29.6374212,9.37428078 29.048838,8.20153348 29.048838,6.73043197 Z M33.1404104,6.73043197 L33.1404104,6.46115767 C33.1404104,4.93075594 33.8189417,3.82728726 35.3563283,3.82728726 C36.8928596,3.82728726 37.5713909,4.93061339 37.5713909,6.46115767 L37.5713909,6.72002592 C37.5713909,8.25099784 36.8928596,9.37413823 35.3563283,9.37413823 C33.8189417,9.37428078 33.1404104,8.2605486 33.1404104,6.73043197 Z M36.393797,6.66058315 L36.393797,6.54112743 C36.393797,5.64663499 36.2141857,4.77181425 35.3460648,4.77181425 C34.4773737,4.77181425 34.2883542,5.64663499 34.2883542,6.54112743 L34.2883542,6.65060475 C34.2883542,7.54538229 34.4879222,8.41991793 35.3563283,8.41991793 C36.223879,8.41977538 36.393797,7.5547905 36.393797,6.66058315 Z M44.9686652,3.02245788 L43.8212916,3.02245788 L43.8212916,1.95861771 L44.9686652,1.95861771 L44.9686652,3.02245788 Z M44.9586868,9.28490281 L43.8208639,9.28490281 L43.8208639,3.90697192 L44.9586868,3.90697192 L44.9586868,9.28490281 Z M51.3360259,6.73043197 L51.3360259,6.46115767 C51.3360259,4.99091145 51.9047948,3.82728726 53.3818834,3.82728726 C53.7808769,3.82728726 54.2296199,3.97625054 54.4699568,4.15557667 L54.4699568,1.71029806 L55.6073521,1.71029806 L55.6073521,9.28490281 L54.649568,9.28490281 L54.539378,8.81748596 L54.4897711,8.81748596 C54.1403844,9.14606048 53.7010497,9.37428078 53.1625011,9.37428078 C51.7353045,9.37428078 51.3360259,7.87352916 51.3360259,6.73043197 Z M54.4698143,8.10189201 L54.4698143,4.95057019 C54.2702462,4.84109287 53.9405313,4.77181425 53.6913564,4.77181425 C52.7831793,4.77181425 52.5033564,5.64663499 52.5033564,6.55082073 L52.5033564,6.6504622 C52.5033564,7.5547905 52.7029244,8.41977538 53.6111015,8.41977538 C53.891067,8.41977538 54.2900605,8.27109719 54.4698143,8.10189201 Z M38.6293866,5.86516199 L38.6293866,5.50736501 C38.6293866,3.47989633 39.4373521,2.01820302 41.3734471,2.01820302 C41.862959,2.01820302 42.3815508,2.06780994 42.8206004,2.24685097 L42.8206004,3.24084233 C42.4216069,3.08190065 41.9725788,3.02260043 41.5034514,3.02260043 C40.2458877,3.02260043 39.9262937,4.37424622 39.9262937,5.62710583 L39.9262937,5.74599136 C39.9262937,6.99856587 40.2064017,8.32027646 41.4633952,8.32027646 C42.0525486,8.32027646 42.4414212,8.17131317 42.8702073,7.96304968 L42.8702073,8.89745572 C42.4217495,9.22517495 41.9024449,9.37442333 41.3138618,9.37442333 C39.3575248,9.37428078 38.6293866,7.81394384 38.6293866,5.86516199 Z M49.1306566,9.28490281 L49.1306566,8.80736501 L49.0903153,8.80736501 C48.6615292,9.15532613 48.2522721,9.36444492 47.7229892,9.36444492 C46.8051188,9.36444492 46.3462549,8.82732181 46.3462549,7.96290713 L46.3462549,3.90640173 L47.4837927,3.90640173 L47.4837927,7.63461771 C47.4837927,8.15135637 47.6634039,8.40053132 48.162324,8.40053132 C48.341365,8.40053132 48.7414989,8.2907689 49.0800518,8.0619784 L49.0800518,3.90640173 L50.2184449,3.90640173 L50.2184449,9.28476026 L49.1306566,9.28476026 L49.1306566,9.28490281 Z M56.5353434,7.8337581 C56.5353434,6.75993952 57.1634125,6.28268683 58.1120734,6.17306695 L59.3392743,6.05446652 L59.3392743,5.63679914 C59.3392743,4.95057019 58.7804838,4.77181425 58.1819222,4.77181425 C57.7726652,4.77181425 57.3541425,4.86090713 56.9644147,4.96083369 L56.9644147,4.09584881 C57.4533564,3.93662203 58.0321037,3.82742981 58.6107084,3.82742981 C59.7084752,3.82742981 60.4872181,4.32435421 60.4872181,5.42782289 L60.4872181,9.28504536 L59.5389849,9.28504536 L59.4396285,8.84742117 L59.3900216,8.84742117 C59.0900994,9.14620302 58.5116371,9.37442333 58.0221253,9.37442333 C57.0643413,9.37428078 56.5353434,8.78755076 56.5353434,7.8337581 Z M59.3392743,8.20153348 L59.3392743,6.82921814 L58.4513391,6.9091879 C57.9421555,6.96848812 57.6926955,7.25714903 57.6926955,7.76390929 C57.6926955,8.25114039 57.9223413,8.49974514 58.4112829,8.49974514 C58.6808423,8.49974514 59.1496847,8.36076026 59.3392743,8.20153348 Z M61.6047991,6.73043197 L61.6047991,6.46115767 C61.6047991,4.99091145 62.173568,3.82728726 63.6500864,3.82728726 C64.0502203,3.82728726 64.4989633,3.97625054 64.73873,4.15557667 L64.73873,1.71029806 L65.8755551,1.71029806 L65.8755551,9.28490281 L64.9189114,9.28490281 L64.8087214,8.81748596 L64.7585443,8.81748596 C64.4097279,9.14606048 63.9698229,9.37428078 63.4318445,9.37428078 C62.0040778,9.37428078 61.6047991,7.87352916 61.6047991,6.73043197 Z M64.7385875,8.10189201 L64.7385875,4.95057019 C64.5384492,4.84109287 64.2093045,4.77181425 63.9598445,4.77181425 C63.0516674,4.77181425 62.7726998,5.64663499 62.7726998,6.55082073 L62.7726998,6.6504622 C62.7726998,7.5547905 62.9719827,8.41977538 63.8804449,8.41977538 C64.15927,8.41977538 64.5585486,8.27109719 64.7385875,8.10189201 Z" id="Shape" fill="#0054A6"></path>
                <path d="M9.03971922,1.84814255 C9.89244492,2.9852527 10.2335637,4.57723542 10.2335637,6.41055292 C10.2335637,10.0636458 8.76944708,12.7925961 5.11692441,12.7925961 C3.48189201,12.7925961 2.27393521,12.2521944 1.46397408,11.2999698 C2.74320518,9.87833261 4.57680778,7.81779266 5.50052268,6.63763283 C6.39615551,5.50095032 7.95920086,3.4117581 9.03971922,1.84814255" id="Shape" fill="#0054A6"></path>
                <path d="M1.17958963,10.9444536 C0.369485961,9.7935162 0,8.22990065 0,6.41055292 C0,2.74320518 1.44929158,0 5.11678186,0 C6.72259179,0 7.93126134,0.540116631 8.74122246,1.46411663 C7.41936933,2.92809071 5.57165443,5.03168035 4.76140821,6.06943413 C3.83755076,7.20654428 2.25996544,9.38126566 1.17958963,10.9444536" id="Shape" fill="#00AEEF"></path>
            </g>
        </g>
    </g>
</svg>