<?xml version="1.0" encoding="UTF-8"?>
<svg width="66px" height="50px" viewBox="0 0 66 50" version="1.1" xmlns="http://www.w3.org/2000/svg" xmlns:xlink="http://www.w3.org/1999/xlink">
    <!-- Generator: Sketch 51.2 (57519) - http://www.bohemiancoding.com/sketch -->
    <title>20.BTDF</title>
    <desc>Created with Sketch.</desc>
    <defs></defs>
    <g id="20.BTDF" stroke="none" stroke-width="1" fill="none" fill-rule="evenodd">
        <rect id="Rectangle" fill-rule="nonzero" x="0" y="0" width="66" height="50"></rect>
        <g id="Group-57" transform="translate(0.000000, 17.000000)">
            <polygon id="Fill-1" fill="#003853" points="0 16.2972973 66.9353282 16.2972973 66.9353282 0 0 0"></polygon>
            <g id="Group-56" transform="translate(3.362934, 1.552124)">
                <path d="M17.606617,5.05182587 C17.5173699,5.15297259 17.4092386,5.20367529 17.2824819,5.20367529 L16.5146981,5.20936641 L16.5146981,4.19220811 L17.2824819,4.19220811 C17.4092386,4.19220811 17.5173699,4.24265212 17.606617,4.34379884 C17.6961228,4.44494556 17.740617,4.56290695 17.740617,4.6979417 C17.740617,4.83271776 17.6961228,4.95067915 17.606617,5.05182587 Z M16.5146981,2.46676409 L17.1099375,2.46676409 C17.2408332,2.46676409 17.3497405,2.51513861 17.4371768,2.61240502 C17.5243544,2.70967143 17.5680726,2.82582201 17.5680726,2.96033938 C17.5680726,3.10339344 17.5243544,3.22497645 17.4371768,3.32638185 C17.3497405,3.42752857 17.2408332,3.47797259 17.1099375,3.47797259 L16.5146981,3.47797259 L16.5146981,2.46676409 Z M17.9607598,3.69837413 C18.1746942,3.53565985 18.2817907,3.28964826 18.2817907,2.96033938 C18.2817907,2.61525058 18.1721073,2.32784903 17.9517058,2.09761737 C17.7315629,1.8676444 17.4508873,1.75252857 17.1099375,1.75252857 L16.074671,1.75252857 C15.8920378,1.75252857 15.8009799,1.84410386 15.8009799,2.02647838 L15.8009799,5.64370232 C15.8009799,5.82633552 15.8920378,5.91765212 16.074671,5.91765212 L17.2824819,5.91765212 C17.6234317,5.91765212 17.9041073,5.80124286 18.1242502,5.56945907 C18.3446517,5.3374166 18.4543351,5.04665212 18.4543351,4.6979417 C18.4543351,4.2654166 18.2900687,3.93222741 17.9607598,3.69837413 Z" id="Fill-2" fill="#FFFFFF"></path>
                <path d="M19.9294992,4.26945212 L20.3439162,2.77372239 L20.7637656,4.26945212 L19.9294992,4.26945212 Z M21.1618853,5.68679961 C21.2053448,5.84071853 21.3051981,5.91754865 21.4629973,5.91754865 L21.6226073,5.91754865 C21.7206498,5.91754865 21.7907541,5.8901278 21.832144,5.83502741 C21.8737927,5.78018571 21.8802598,5.70749459 21.8525803,5.61721274 L20.8413718,1.9878305 C20.8020514,1.83106602 20.7019394,1.75268378 20.5412946,1.75268378 L20.1584375,1.75268378 C20.001673,1.75268378 19.9018197,1.83003127 19.8586189,1.98472625 L18.8531015,5.61410849 C18.8251633,5.7054251 18.8321479,5.77863359 18.8735378,5.83425135 C18.9149278,5.88986911 18.985032,5.91754865 19.0833332,5.91754865 L19.2367347,5.91754865 C19.3978969,5.91754865 19.4982676,5.83968378 19.537588,5.68395405 L19.7316035,4.98342896 L20.9642483,4.98342896 L21.1618853,5.68679961 Z" id="Fill-4" fill="#FFFFFF"></path>
                <path d="M23.1487069,3.23418571 L24.4460236,5.71525521 C24.5091432,5.85003127 24.6162398,5.91754865 24.7670544,5.91754865 L24.9931471,5.91754865 C25.1755216,5.91754865 25.2668382,5.82649073 25.2668382,5.64359884 L25.2668382,2.0263749 C25.2668382,1.84400039 25.1755216,1.7524251 24.9931471,1.7524251 L24.8265525,1.7524251 C24.6439193,1.7524251 24.5528614,1.8437417 24.5528614,2.02585753 L24.5528614,4.4303556 L23.2581317,1.95368378 C23.1944946,1.81968378 23.0871394,1.7524251 22.936066,1.7524251 L22.7091973,1.7524251 C22.5263054,1.7524251 22.4347301,1.84400039 22.4347301,2.0263749 L22.4347301,5.64359884 C22.4347301,5.82649073 22.5260467,5.91754865 22.7084212,5.91754865 L22.8750158,5.91754865 C23.0573903,5.91754865 23.1487069,5.82649073 23.1487069,5.64359884 L23.1487069,3.23418571 Z" id="Fill-6" fill="#FFFFFF"></path>
                <path d="M26.629344,5.76575097 C26.7920583,5.85499807 26.942873,5.91242664 27.0815293,5.93829537 C27.2204444,5.96416409 27.3751394,5.97709846 27.5456143,5.97709846 C27.8431046,5.97709846 28.1090351,5.93933012 28.3428884,5.86405212 C28.5175023,5.81619498 28.5710506,5.69926834 28.5035332,5.51275483 L28.4442938,5.35831853 C28.3845371,5.21138417 28.2676104,5.1560251 28.0929965,5.19146525 C27.914761,5.23932239 27.7321278,5.26312162 27.5456143,5.26312162 C27.3751394,5.26312162 27.236483,5.24811776 27.1293865,5.21836873 C27.02229,5.18887838 26.9198498,5.12705212 26.8228421,5.03392471 C26.7255757,4.94105598 26.654178,4.79593243 26.608649,4.5995888 C26.5628614,4.40324517 26.5400969,4.14843822 26.5400969,3.83516795 C26.5400969,3.5296583 26.5628614,3.27976641 26.608649,3.08549228 C26.654178,2.89121815 26.7255757,2.74531853 26.8228421,2.64805212 C26.9198498,2.55078571 27.023066,2.48637259 27.132232,2.45455405 C27.2411394,2.42299421 27.3790197,2.40721429 27.5456143,2.40721429 C27.7321278,2.40721429 27.914761,2.43075483 28.0929965,2.47861197 C28.2676104,2.51431081 28.3845371,2.45869305 28.4442938,2.31175869 L28.5035332,2.15732239 C28.5710506,1.97080888 28.5175023,1.85388224 28.3428884,1.8060251 C28.1090351,1.7307471 27.8431046,1.69323745 27.5456143,1.69323745 C26.399371,1.69323745 25.8263788,2.40721429 25.8263788,3.83516795 C25.8263788,4.19991699 25.8638884,4.51629151 25.9391664,4.78403282 C26.0147031,5.05177413 26.1078305,5.26001737 26.2188073,5.40876255 C26.3300429,5.55750772 26.4666297,5.67650386 26.629344,5.76575097" id="Fill-8" fill="#FFFFFF"></path>
                <path d="M30.6455672,5.26301815 C29.923571,5.26301815 29.5624436,4.78703359 29.5624436,3.83506448 C29.5624436,2.88309537 29.923571,2.40711081 30.6455672,2.40711081 C31.3673046,2.40711081 31.728432,2.88309537 31.728432,3.83506448 C31.728432,4.78703359 31.3673046,5.26301815 30.6455672,5.26301815 M30.6455672,1.69313398 C29.4475865,1.69313398 28.8487255,2.40711081 28.8487255,3.83506448 C28.8487255,5.26301815 29.4475865,5.97725367 30.6455672,5.97725367 C31.8432892,5.97725367 32.4421502,5.26301815 32.4421502,3.83506448 C32.4421502,2.40711081 31.8432892,1.69313398 30.6455672,1.69313398" id="Fill-10" fill="#FFFFFF"></path>
                <path d="M35.5601336,5.20364942 L35.0600911,5.20364942 L35.0600911,2.46673822 L35.5601336,2.46673822 C36.1789135,2.46673822 36.4883035,2.89900463 36.4883035,3.76379614 C36.4883035,4.72378456 36.1789135,5.20364942 35.5601336,5.20364942 M36.8362378,2.29108958 C36.7309521,2.15036371 36.6021259,2.03835212 36.4495004,1.95479614 C36.2968749,1.87149884 36.15201,1.81717452 36.0151645,1.79130579 C35.8783189,1.76569575 35.7267282,1.7525027 35.5601336,1.7525027 L34.6198054,1.7525027 C34.4374309,1.7525027 34.346373,1.84407799 34.346373,2.02645251 L34.346373,5.64367645 C34.346373,5.82630965 34.4374309,5.91762625 34.6198054,5.91762625 L35.5601336,5.91762625 C35.7267282,5.91762625 35.8783189,5.90365714 36.0151645,5.87597761 C36.15201,5.84803938 36.2968749,5.7888 36.4495004,5.69722471 C36.6021259,5.6061668 36.7309521,5.4843251 36.8362378,5.33144093 C36.9412649,5.17881544 37.0287012,4.9685027 37.0980293,4.70076139 C37.1673575,4.43302008 37.2022803,4.12052587 37.2022803,3.76379614 C37.2022803,3.42672664 37.1673575,3.13208185 37.0980293,2.88012046 C37.0287012,2.62841776 36.9412649,2.43181544 36.8362378,2.29108958" id="Fill-12" fill="#FFFFFF"></path>
                <path d="M39.7425633,1.75255444 L38.3503085,1.75850425 L37.9100228,1.75255444 C37.7276483,1.75255444 37.6363317,1.84412973 37.6363317,2.02650425 L37.6363317,5.64372819 C37.6363317,5.82636139 37.7276483,5.91767799 37.9100228,5.91767799 L39.7425633,5.91767799 C39.9249378,5.91767799 40.0165131,5.82636139 40.0165131,5.64372819 L40.0165131,5.47713359 C40.0165131,5.29475907 39.9249378,5.20370116 39.7425633,5.20370116 L38.3503085,5.20939228 L38.3503085,4.19223398 L39.3558259,4.19223398 C39.5382004,4.19223398 39.629517,4.10091737 39.629517,3.91828417 L39.629517,3.75194826 C39.629517,3.56931506 39.5382004,3.47799846 39.3558259,3.47799846 L38.3503085,3.47799846 L38.3503085,2.46678996 L39.7425633,2.46058147 C39.9249378,2.46058147 40.0165131,2.36952355 40.0165131,2.18714903 L40.0165131,2.02650425 C40.0165131,1.84412973 39.9249378,1.75255444 39.7425633,1.75255444" id="Fill-14" fill="#FFFFFF"></path>
                <path d="M18.180851,7.23703475 L16.0743606,7.23703475 C15.8919861,7.23703475 15.8009282,7.32835135 15.8009282,7.51072587 L15.8009282,7.67706178 C15.8009282,7.85969498 15.8919861,7.95101158 16.0743606,7.95101158 L16.7707467,7.95101158 L16.7707467,11.1282085 C16.7707467,11.310583 16.8618046,11.4018996 17.0441792,11.4018996 L17.2110324,11.4018996 C17.3934069,11.4018996 17.4847236,11.310583 17.4847236,11.1282085 L17.4847236,7.95101158 L18.180851,7.95101158 C18.3632255,7.95101158 18.4545421,7.85969498 18.4545421,7.67706178 L18.4545421,7.51072587 C18.4545421,7.32835135 18.3632255,7.23703475 18.180851,7.23703475" id="Fill-16" fill="#FFFFFF"></path>
                <path d="M19.4242571,7.23703475 L19.2574039,7.23703475 C19.0750293,7.23703475 18.9839714,7.32835135 18.9839714,7.51072587 L18.9839714,11.1282085 C18.9839714,11.310583 19.0750293,11.4018996 19.2574039,11.4018996 L19.4242571,11.4018996 C19.6066317,11.4018996 19.6979483,11.310583 19.6979483,11.1282085 L19.6979483,7.51072587 C19.6979483,7.32835135 19.6066317,7.23703475 19.4242571,7.23703475" id="Fill-18" fill="#FFFFFF"></path>
                <path d="M22.3276595,7.23703475 L20.9354046,7.24272587 L20.4951189,7.23703475 C20.3127444,7.23703475 20.2214278,7.32835135 20.2214278,7.51072587 L20.2214278,11.1282085 C20.2214278,11.310583 20.3127444,11.4018996 20.4951189,11.4018996 L22.3276595,11.4018996 C22.510034,11.4018996 22.6016093,11.310583 22.6016093,11.1282085 L22.6016093,10.9613552 C22.6016093,10.7789807 22.510034,10.6879228 22.3276595,10.6879228 L20.9354046,10.6936139 L20.9354046,9.6764556 L21.940922,9.6764556 C22.1232965,9.6764556 22.2146131,9.585139 22.2146131,9.40276448 L22.2146131,9.23616988 C22.2146131,9.05353668 22.1232965,8.96247876 21.940922,8.96247876 L20.9354046,8.96247876 L20.9354046,7.95101158 L22.3276595,7.94480309 C22.510034,7.94480309 22.6016093,7.85374517 22.6016093,7.67137066 L22.6016093,7.51072587 C22.6016093,7.32835135 22.510034,7.23703475 22.3276595,7.23703475" id="Fill-20" fill="#FFFFFF"></path>
                <path d="M24.8117297,9.26584131 C24.6867838,9.39285676 24.5232934,9.45597645 24.321,9.45597645 L23.8388069,9.45597645 L23.8388069,7.95093398 L24.321,7.95093398 C24.5232934,7.95093398 24.6867838,8.01431236 24.8117297,8.1413278 C24.9366757,8.26834324 24.999278,8.45666757 24.999278,8.70655946 C24.999278,8.95257104 24.9366757,9.13908456 24.8117297,9.26584131 Z M25.1490579,9.93480656 C25.5251892,9.67637799 25.7129961,9.26713475 25.7129961,8.70655946 C25.7129961,8.22281429 25.5802896,7.85677181 25.3143591,7.60894942 C25.0486873,7.36112703 24.7175676,7.23695714 24.321,7.23695714 L23.3985212,7.23695714 C23.2161467,7.23695714 23.1248301,7.32827375 23.1248301,7.51064826 L23.1248301,11.1281309 C23.1248301,11.3105054 23.2161467,11.401822 23.3985212,11.401822 L23.5653745,11.401822 C23.747749,11.401822 23.8388069,11.3105054 23.8388069,11.1281309 L23.8388069,10.170212 L24.321,10.170212 C24.3923977,10.170212 24.4436178,10.1681425 24.4754363,10.1642622 L25.062139,11.2127216 C25.1330193,11.338961 25.2439961,11.401822 25.3940347,11.401822 L25.5660618,11.401822 C25.6726409,11.401822 25.7448147,11.3712969 25.782583,11.3102467 C25.8200927,11.2491965 25.8131081,11.1736598 25.761888,11.0828606 L25.1490579,9.93480656 Z" id="Fill-22" fill="#FFFFFF"></path>
                <path d="M28.0187792,9.26584131 C27.8938332,9.39285676 27.7303429,9.45597645 27.5280494,9.45597645 L27.0458564,9.45597645 L27.0458564,7.95093398 L27.5280494,7.95093398 C27.7303429,7.95093398 27.8938332,8.01431236 28.0187792,8.1413278 C28.1437251,8.26834324 28.2063274,8.45666757 28.2063274,8.70655946 C28.2063274,8.95257104 28.1437251,9.13908456 28.0187792,9.26584131 Z M28.3561073,9.93480656 C28.7322386,9.67637799 28.9200456,9.26713475 28.9200456,8.70655946 C28.9200456,8.22281429 28.787339,7.85677181 28.5214085,7.60894942 C28.2557367,7.36112703 27.924617,7.23695714 27.5280494,7.23695714 L26.6055707,7.23695714 C26.4231961,7.23695714 26.3318795,7.32827375 26.3318795,7.51064826 L26.3318795,11.1281309 C26.3318795,11.3105054 26.4231961,11.401822 26.6055707,11.401822 L26.7724239,11.401822 C26.9547985,11.401822 27.0458564,11.3105054 27.0458564,11.1281309 L27.0458564,10.170212 L27.5280494,10.170212 C27.5994471,10.170212 27.6506672,10.1681425 27.6824857,10.1642622 L28.2691884,11.2127216 C28.3400687,11.338961 28.4510456,11.401822 28.6010842,11.401822 L28.7731112,11.401822 C28.8796903,11.401822 28.9518641,11.3712969 28.9896324,11.3102467 C29.0271421,11.2491965 29.0201575,11.1736598 28.9689375,11.0828606 L28.3561073,9.93480656 Z" id="Fill-24" fill="#FFFFFF"></path>
                <path d="M30.4543456,9.75367375 L30.8687625,8.25794402 L31.2888707,9.75367375 L30.4543456,9.75367375 Z M31.3662181,7.47205212 C31.3268977,7.31528764 31.2267857,7.23690541 31.0661409,7.23690541 L30.6835425,7.23690541 C30.5265193,7.23690541 30.426666,7.3142529 30.3837239,7.46894788 L29.3782066,11.0983301 C29.3502683,11.1896467 29.3569942,11.2631139 29.3986429,11.318473 C29.4400328,11.3740907 29.5098784,11.4017703 29.6081795,11.4017703 L29.7615811,11.4017703 C29.9227432,11.4017703 30.0231139,11.3239054 30.0624344,11.1681757 L30.2567085,10.4676506 L31.4893533,10.4676506 L31.6869903,11.1712799 C31.7301911,11.3249402 31.8303031,11.4017703 31.9878436,11.4017703 L32.1474537,11.4017703 C32.2457548,11.4017703 32.3156004,11.3743494 32.3569903,11.3195077 C32.398639,11.2644073 32.4053649,11.1919749 32.3776853,11.1014344 L31.3662181,7.47205212 Z" id="Fill-26" fill="#FFFFFF"></path>
                <path d="M35.5123799,10.687871 L35.0123375,10.687871 L35.0123375,7.95095985 L35.5123799,7.95095985 C36.1311598,7.95095985 36.4405498,8.38322625 36.4405498,9.24801776 C36.4405498,10.2080062 36.1311598,10.687871 35.5123799,10.687871 M36.7884842,7.7753112 C36.6831985,7.63458533 36.5543722,7.52257375 36.4017467,7.43901776 C36.2491212,7.35597915 36.1042564,7.30139614 35.9674108,7.2757861 C35.8305653,7.24991737 35.6789745,7.23698301 35.5123799,7.23698301 L34.5720517,7.23698301 C34.3896772,7.23698301 34.2986193,7.32829961 34.2986193,7.51067413 L34.2986193,11.1281568 C34.2986193,11.3105313 34.3896772,11.4018479 34.5720517,11.4018479 L35.5123799,11.4018479 C35.6789745,11.4018479 35.8305653,11.3878788 35.9674108,11.3601992 C36.1042564,11.332261 36.2491212,11.2730216 36.4017467,11.181705 C36.5543722,11.0906471 36.6831985,10.9685467 36.7884842,10.8156625 C36.8935112,10.6630371 36.9809475,10.4527243 37.0502757,10.1852417 C37.1196039,9.9172417 37.1545266,9.60474749 37.1545266,9.24801776 C37.1545266,8.91094826 37.1196039,8.61630347 37.0502757,8.36460077 C36.9809475,8.11263938 36.8935112,7.91629575 36.7884842,7.7753112" id="Fill-28" fill="#FFFFFF"></path>
                <path d="M39.6890151,7.23703475 L38.2967602,7.24272587 L37.8564745,7.23703475 C37.6741,7.23703475 37.5827834,7.32835135 37.5827834,7.51072587 L37.5827834,11.1282085 C37.5827834,11.310583 37.6741,11.4018996 37.8564745,11.4018996 L39.6890151,11.4018996 C39.8713896,11.4018996 39.9629649,11.310583 39.9629649,11.1282085 L39.9629649,10.9613552 C39.9629649,10.7789807 39.8713896,10.6879228 39.6890151,10.6879228 L38.2967602,10.6936139 L38.2967602,9.6764556 L39.3022776,9.6764556 C39.4846521,9.6764556 39.5759687,9.585139 39.5759687,9.40276448 L39.5759687,9.23616988 C39.5759687,9.05353668 39.4846521,8.96247876 39.3022776,8.96247876 L38.2967602,8.96247876 L38.2967602,7.95101158 L39.6890151,7.94480309 C39.8713896,7.94480309 39.9629649,7.85374517 39.9629649,7.67137066 L39.9629649,7.51072587 C39.9629649,7.32835135 39.8713896,7.23703475 39.6890151,7.23703475" id="Fill-30" fill="#FFFFFF"></path>
                <path d="M42.4317726,10.687871 L41.2001625,10.687871 L41.2001625,7.51067413 C41.2001625,7.32829961 41.1091046,7.23698301 40.9267301,7.23698301 L40.7598768,7.23698301 C40.5775023,7.23698301 40.4861857,7.32829961 40.4861857,7.51067413 L40.4861857,11.1281568 C40.4861857,11.3105313 40.5775023,11.4018479 40.7598768,11.4018479 L42.4317726,11.4018479 C42.6141471,11.4018479 42.7057224,11.3105313 42.7057224,11.1281568 L42.7057224,10.9615622 C42.7057224,10.7791876 42.6141471,10.687871 42.4317726,10.687871" id="Fill-32" fill="#FFFFFF"></path>
                <path d="M46.2456247,7.23703475 L44.8533699,7.24272587 L44.8533699,7.23703475 L44.4130842,7.23703475 C44.2307097,7.23703475 44.1393931,7.32835135 44.1393931,7.51072587 L44.1393931,11.1282085 C44.1393931,11.310583 44.2307097,11.4018996 44.4130842,11.4018996 L44.5799375,11.4018996 C44.762312,11.4018996 44.8533699,11.310583 44.8533699,11.1282085 L44.8533699,9.6764556 L45.9364934,9.6764556 C46.118868,9.6764556 46.2099259,9.585139 46.2099259,9.40276448 L46.2099259,9.23616988 C46.2099259,9.05353668 46.118868,8.96247876 45.9364934,8.96247876 L44.8533699,8.96247876 L44.8533699,7.95101158 L46.2456247,7.94480309 C46.4279992,7.94480309 46.5195745,7.85374517 46.5195745,7.67137066 L46.5195745,7.51072587 C46.5195745,7.32835135 46.4279992,7.23703475 46.2456247,7.23703475" id="Fill-34" fill="#FFFFFF"></path>
                <path d="M49.5716703,7.23703475 L49.404817,7.23703475 C49.2224425,7.23703475 49.1313846,7.32835135 49.1313846,7.51072587 L49.1313846,10.0153359 C49.1313846,10.2259073 49.0667127,10.4005212 48.9378865,10.5391776 C48.8090602,10.6780927 48.6411722,10.7471622 48.4349985,10.7471622 C48.2290834,10.7471622 48.0622301,10.6780927 47.9354734,10.5391776 C47.8084579,10.4005212 47.7448208,10.2259073 47.7448208,10.0153359 L47.7448208,7.51072587 C47.7448208,7.32835135 47.6537629,7.23703475 47.4713884,7.23703475 L47.3045351,7.23703475 C47.1221606,7.23703475 47.0311027,7.32835135 47.0311027,7.51072587 L47.0311027,10.0153359 C47.0311027,10.4160425 47.1658788,10.757251 47.4354309,11.0387027 C47.7052417,11.3204131 48.0384309,11.4613977 48.4349985,11.4613977 C48.8318247,11.4613977 49.1660486,11.3204131 49.4376703,11.0387027 C49.7092919,10.757251 49.8453614,10.4160425 49.8453614,10.0153359 L49.8453614,7.51072587 C49.8453614,7.32835135 49.7540448,7.23703475 49.5716703,7.23703475" id="Fill-36" fill="#FFFFFF"></path>
                <path d="M52.4690193,7.23703475 L51.0767645,7.24272587 L50.6364788,7.23703475 C50.4541042,7.23703475 50.3627876,7.32835135 50.3627876,7.51072587 L50.3627876,11.1282085 C50.3627876,11.310583 50.4541042,11.4018996 50.6364788,11.4018996 L52.4690193,11.4018996 C52.6513938,11.4018996 52.7429691,11.310583 52.7429691,11.1282085 L52.7429691,10.9613552 C52.7429691,10.7789807 52.6513938,10.6879228 52.4690193,10.6879228 L51.0767645,10.6936139 L51.0767645,9.6764556 L52.0822819,9.6764556 C52.2646564,9.6764556 52.355973,9.585139 52.355973,9.40276448 L52.355973,9.23616988 C52.355973,9.05353668 52.2646564,8.96247876 52.0822819,8.96247876 L51.0767645,8.96247876 L51.0767645,7.95101158 L52.4690193,7.94480309 C52.6513938,7.94480309 52.7429691,7.85374517 52.7429691,7.67137066 L52.7429691,7.51072587 C52.7429691,7.32835135 52.6513938,7.23703475 52.4690193,7.23703475" id="Fill-38" fill="#FFFFFF"></path>
                <path d="M55.5154239,8.9624529 L54.6884008,8.9624529 C54.5060263,8.9624529 54.4147097,9.0537695 54.4147097,9.23614402 L54.4147097,9.40273861 C54.4147097,9.58511313 54.5060263,9.67642973 54.6884008,9.67642973 L55.0751382,9.67642973 L55.0751382,10.7054876 C54.9639027,10.7334259 54.8511151,10.7471363 54.7357405,10.7471363 C54.5652656,10.7471363 54.4266093,10.7323911 54.3195127,10.7029008 C54.2124162,10.6728931 54.1099761,10.6115842 54.0129683,10.5184568 C53.9157019,10.4250707 53.8443042,10.2802058 53.7987753,10.0838622 C53.7532463,9.88751853 53.7304819,9.63271158 53.7304819,9.31944131 C53.7304819,9.01393166 53.7532463,8.76403977 53.7987753,8.56950695 C53.8443042,8.37523282 53.9157019,8.22959189 54.0129683,8.13232548 C54.1099761,8.03531776 54.213451,7.97090463 54.322617,7.9390861 C54.4315243,7.90726757 54.5694046,7.89122896 54.7357405,7.89122896 C54.9618332,7.89122896 55.1442077,7.91321737 55.2833815,7.95667683 C55.4577367,7.99263436 55.5746633,7.9370166 55.6344201,7.79034093 L55.6936595,7.64159575 C55.7611768,7.45508224 55.7076286,7.3381556 55.5330147,7.29055714 C55.2991614,7.21502046 55.0334896,7.17751081 54.7357405,7.17751081 C54.5730263,7.17751081 54.4196247,7.19225598 54.2747598,7.22200502 C54.1301537,7.25175405 53.9775282,7.31435637 53.8168834,7.40955328 C53.6562386,7.50449151 53.5191344,7.62762664 53.4063467,7.77844131 C53.2930417,7.92925598 53.1999143,8.13646448 53.1267058,8.4000668 C53.0529799,8.6639278 53.016505,8.97021351 53.016505,9.31944131 C53.016505,9.68832934 53.0540147,10.0085842 53.1292927,10.2802058 C53.2048293,10.5520861 53.2971807,10.7611054 53.4063467,10.9080398 C53.5152541,11.0547154 53.6520996,11.1719008 53.8168834,11.2590784 C53.9811498,11.346256 54.1329992,11.4018737 54.2716556,11.4254143 C54.4105707,11.4492135 54.5652656,11.4613718 54.7357405,11.4613718 C55.0572888,11.4613718 55.3387405,11.4176537 55.5808718,11.3302174 C55.7195282,11.2908969 55.7891151,11.1876807 55.7891151,11.0210861 L55.7891151,9.23614402 C55.7891151,9.0537695 55.6977985,8.9624529 55.5154239,8.9624529" id="Fill-40" fill="#FFFFFF"></path>
                <path d="M58.1035641,10.7472398 C57.381568,10.7472398 57.0204405,10.2712552 57.0204405,9.3192861 C57.0204405,8.36731699 57.381568,7.89133243 58.1035641,7.89133243 C58.8253015,7.89133243 59.186429,8.36731699 59.186429,9.3192861 C59.186429,10.2712552 58.8253015,10.7472398 58.1035641,10.7472398 M58.1035641,7.1773556 C56.9055834,7.1773556 56.3067224,7.89133243 56.3067224,9.3192861 C56.3067224,10.7472398 56.9055834,11.4614753 58.1035641,11.4614753 C59.3012861,11.4614753 59.9001471,10.7472398 59.9001471,9.3192861 C59.9001471,7.89133243 59.3012861,7.1773556 58.1035641,7.1773556" id="Fill-42" fill="#FFFFFF"></path>
                <path d="M5.07342625,7.76855946 C4.97383166,7.8753973 4.85354208,7.92894556 4.71229884,7.92894556 L3.91916371,7.92894556 L3.91916371,6.84245907 L4.71229884,6.84245907 C4.85354208,6.84245907 4.97383166,6.89574865 5.07342625,7.00258649 C5.17302085,7.10942432 5.22294749,7.23721583 5.22294749,7.38570232 C5.22294749,7.5341888 5.17302085,7.66198031 5.07342625,7.76855946 Z M3.91916371,5.21272934 L4.5547583,5.21272934 C4.69962317,5.21272934 4.82172355,5.26524286 4.92131815,5.37026988 C5.02091274,5.47529691 5.07083938,5.60024286 5.07083938,5.74510772 C5.07083938,5.89721583 5.02091274,6.02759421 4.92131815,6.13598417 C4.82172355,6.24463282 4.69962317,6.29895714 4.5547583,6.29895714 L3.91916371,6.29895714 L3.91916371,5.21272934 Z M5.27183938,6.4621888 C5.50000154,6.29895714 5.61408263,6.05993012 5.61408263,5.74510772 C5.61408263,5.44089151 5.51345328,5.18556718 5.31245328,4.97913475 C5.11145328,4.77270232 4.85897452,4.6694861 4.5547583,4.6694861 L3.58778533,4.6694861 C3.44654208,4.6694861 3.37592046,4.74010772 3.37592046,4.88135097 L3.37592046,8.26006525 C3.37592046,8.40130849 3.44654208,8.4721888 3.58778533,8.4721888 L4.71229884,8.4721888 C5.01289344,8.4721888 5.26356139,8.36793784 5.46456139,8.15995328 C5.66556139,7.95145135 5.76619073,7.69354015 5.76619073,7.38570232 C5.76619073,7.19013475 5.72273127,7.01164054 5.63581236,6.85047838 C5.54889344,6.68931622 5.42756911,6.55997259 5.27183938,6.4621888 Z" id="Fill-44" fill="#FFFFFF"></path>
                <path d="M8.12386641,4.66935676 L6.21165019,4.66935676 C6.07040695,4.66935676 5.99978533,4.73997838 5.99978533,4.88122162 L5.99978533,5.00073514 C5.99978533,5.14197838 6.07040695,5.21285869 6.21165019,5.21285869 L6.89613668,5.21285869 L6.89613668,8.26019459 C6.89613668,8.40143784 6.9667583,8.47205946 7.10800154,8.47205946 L7.22751506,8.47205946 C7.3687583,8.47205946 7.43937992,8.40143784 7.43937992,8.26019459 L7.43937992,5.21285869 L8.12386641,5.21285869 C8.26510965,5.21285869 8.33573127,5.14197838 8.33573127,5.00073514 L8.33573127,4.88122162 C8.33573127,4.73997838 8.26510965,4.66935676 8.12386641,4.66935676" id="Fill-46" fill="#FFFFFF"></path>
                <path d="M10.77479,4.66935676 L9.05270888,4.66935676 C8.91146564,4.66935676 8.84084402,4.73997838 8.84084402,4.88122162 L8.84084402,8.26019459 C8.84084402,8.40143784 8.91146564,8.47205946 9.05270888,8.47205946 L9.17222239,8.47205946 C9.31346564,8.47205946 9.38408726,8.40143784 9.38408726,8.26019459 L9.38408726,6.84232973 L10.4760062,6.84232973 C10.6172494,6.84232973 10.687871,6.77170811 10.687871,6.63046486 L10.687871,6.51095135 C10.687871,6.36970811 10.6172494,6.29908649 10.4760062,6.29908649 L9.38408726,6.29908649 L9.38408726,5.21285869 L10.77479,5.20716757 C10.9160332,5.20716757 10.9866548,5.13680463 10.9866548,4.9953027 L10.9866548,4.88122162 C10.9866548,4.73997838 10.9160332,4.66935676 10.77479,4.66935676" id="Fill-48" fill="#FFFFFF"></path>
                <path d="M6.76790541,12.6502467 C3.42980502,12.6502467 0.714106178,9.93454788 0.714106178,6.59670618 C0.714106178,3.2583471 3.42980502,0.542648263 6.76790541,0.542648263 C10.1060058,0.542648263 12.8217046,3.2583471 12.8217046,6.59670618 C12.8217046,9.93454788 10.1060058,12.6502467 6.76790541,12.6502467 M6.76790541,0.0252737452 C3.14447297,0.0252737452 0.19673166,2.97327375 0.19673166,6.59670618 C0.19673166,10.2198799 3.14447297,13.1676212 6.76790541,13.1676212 C10.3913378,13.1676212 13.3390792,10.2198799 13.3390792,6.59670618 C13.3390792,2.97327375 10.3913378,0.0252737452 6.76790541,0.0252737452" id="Fill-50" fill="#FFFFFF"></path>
                <path d="M5.97414942,1.47819073 C5.9035278,1.27615598 5.68260888,1.16854208 5.47979807,1.23968108 C5.35847375,1.28210579 2.49506448,2.31090502 1.73995637,5.19397452 C1.68563205,5.40118301 1.80980193,5.61330656 2.01726911,5.66763089 C2.05012239,5.67642625 2.08297568,5.68030656 2.11557027,5.68030656 C2.28785598,5.68030656 2.44513784,5.56493205 2.49092548,5.39057683 C3.13764363,2.92140695 5.69554324,1.98676988 5.73589846,1.9722834 C5.9379332,1.90166178 6.04451236,1.68048417 5.97414942,1.47819073" id="Fill-52" fill="#FF8C00"></path>
                <path d="M11.9234649,7.46918069 C11.7175498,7.4081305 11.5018046,7.52402239 11.4402371,7.72942008 C10.7063413,10.1763429 8.11300154,11.019922 8.07652664,11.0313042 C7.87216371,11.0949413 7.75782394,11.3119799 7.821461,11.5166015 C7.87293977,11.6831961 8.02634131,11.7897753 8.19190116,11.7897753 C8.22992819,11.7897753 8.26847259,11.7843429 8.3067583,11.7724432 C8.42963475,11.7341575 11.3274494,10.8067637 12.1837042,7.95214981 C12.2452718,7.74701081 12.1286039,7.53048958 11.9234649,7.46918069" id="Fill-54" fill="#00B4F8"></path>
            </g>
        </g>
    </g>
</svg>