<?xml version="1.0" encoding="UTF-8"?>
<svg width="66px" height="50px" viewBox="0 0 66 50" version="1.1" xmlns="http://www.w3.org/2000/svg" xmlns:xlink="http://www.w3.org/1999/xlink">
    <!-- Generator: Sketch 51.2 (57519) - http://www.bohemiancoding.com/sketch -->
    <title>5.ICBK</title>
    <desc>Created with Sketch.</desc>
    <defs></defs>
    <g id="5.ICBK" stroke="none" stroke-width="1" fill="none" fill-rule="evenodd">
        <rect id="Rectangle" fill-rule="nonzero" x="0" y="0" width="66" height="50"></rect>
        <g transform="translate(0.000000, 14.000000)" id="Shape">
            <path d="M55.9305271,6.45956332 L59.5498887,6.45956332 L59.5498887,8.07628821 L56.322999,8.07628821 L56.322999,12.9172926 L59.5498887,12.9172926 L59.5498887,14.5312664 L55.9305271,14.5312664 L55.9305271,16.1434061 L61.162875,16.1434061 L61.162875,11.3042358 L57.9442382,11.3042358 L57.9442382,9.69026201 L61.162875,9.69026201 L61.162875,4.84467249 L55.9305271,4.84467249 L55.9305271,6.45956332 Z M49.8756386,9.68292576 L53.0887734,9.68292576 L53.0887734,11.2987336 L49.8756386,11.2987336 L49.8756386,16.139738 L55.1171565,16.139738 L55.1171565,14.5275983 L51.488625,14.5275983 L51.488625,12.9117904 L54.7136806,12.9117904 L54.7136806,8.06803493 L51.488625,8.06803493 L51.488625,6.45497817 L55.1162395,6.45497817 L55.1162395,4.8419214 L49.8747216,4.8419214 L49.8747216,9.68292576 L49.8756386,9.68292576 Z M55.5004585,0 C49.6968255,0 45,4.6979476 45,10.4981659 C45,16.2983843 49.6968255,21 55.5004585,21 C61.2985896,21 66,16.2983843 66,10.4981659 C66,4.69703057 61.2995066,1.62897352e-15 55.5004585,0 Z M55.5004585,19.3731878 C50.5982272,19.3731878 46.6239902,15.3978603 46.6239902,10.4981659 C46.6239902,5.60122271 50.5982272,1.6231441 55.5004585,1.6231441 C60.3999389,1.6231441 64.3723418,5.60122271 64.3723418,10.4981659 C64.3723418,15.3978603 60.3999389,19.3731878 55.5004585,19.3731878 Z" fill="#C42127"></path>
            <path d="M26.0235741,10.8202776 L25.9729036,10.7998214 L26.0197499,10.7744947 C26.5331472,10.498823 27.2138526,9.94358308 27.2138526,8.2846822 C27.2138526,7.37584219 26.8725438,6.55467165 26.2549375,5.97507915 C25.5761441,5.34093676 24.5885476,5.00389642 23.4020932,5.00389642 L17.2346341,5 L17.2346341,16.9970777 L23.7070722,16.9990259 C25.1220218,16.9990259 26.1908823,16.6512704 26.8801922,15.9635522 C27.588623,15.2553779 27.7368103,14.3494602 27.7368103,13.7084991 C27.7368103,12.3087101 27.16127,11.3355792 26.0235741,10.8202776 Z M19.4756082,7.20829613 L23.2099278,7.20829613 C23.8667321,7.20829613 24.9680982,7.20829613 24.9680982,8.52723435 C24.9680982,9.01233866 24.760636,9.35424953 24.35336,9.54712233 C23.9891061,9.72148713 23.5292475,9.73804692 23.2175762,9.73804692 L19.4746522,9.73804692 L19.4746522,7.20829613 L19.4756082,7.20829613 Z M25.1736483,14.3796574 C24.7749767,14.7858592 24.0827987,14.7848851 23.5770498,14.7848851 L19.4593554,14.7848851 L19.4593554,14.7605325 L19.4756082,11.9404984 L19.4756082,11.9141976 L23.5541047,11.9141976 C23.9288751,11.9141976 24.4652175,11.9745921 24.8935266,12.2600049 C25.2960223,12.5269097 25.4977483,12.9233704 25.4977483,13.4338014 C25.4977483,13.8438997 25.3887589,14.1614579 25.1736483,14.3796574 Z M9.14552042,5.40912412 C8.38928724,5.62634954 7.76690065,5.94975241 7.24585503,6.39589252 C6.50205047,7.03490543 5.25727728,8.46683984 5.25727728,10.8991801 C5.25727728,12.0583651 5.44944273,13.0168845 5.84715828,13.8273399 C6.17890658,14.4994724 6.64354542,15.0683497 7.3204267,15.6148226 C8.3701663,16.4642422 9.84917101,16.8986931 11.7125066,16.8986931 L14.9276927,16.8986931 L14.9276927,14.6329248 L11.8893753,14.6329248 C10.2019523,14.6329248 8.97821219,14.2091891 8.25066043,13.3685364 C7.73439505,12.7704359 7.47243817,11.9658251 7.46574584,10.9780826 C7.45618537,9.91241172 7.74777971,9.06981086 8.33670466,8.46781395 C9.07094875,7.71483075 10.2660075,7.33103336 11.8893753,7.33103336 L14.9276927,7.33103336 L14.9276927,5.08766945 L11.8262762,5.08766945 C10.7794047,5.08766945 9.90557778,5.1928728 9.14552042,5.40912412 Z M1,17 L3.34805143,17 L3.34805143,5.00292232 L1,5.00292232 L1,17 Z M35.7915063,7.24628622 L38.999044,7.24628622 L38.999044,5.00389642 L35.7236269,5.00389642 C34.6786676,5.00389642 33.8038846,5.10715155 33.0447833,5.32535108 C32.286638,5.54355061 31.6652074,5.86597938 31.1451179,6.3130936 C30.5447204,6.82547285 29.153672,8.29929377 29.153672,10.8991801 C29.153672,12.057391 29.3525298,13.0802013 29.744509,13.9325432 C30.0848618,14.6757854 30.5800941,15.311876 31.2177774,15.8271775 C32.205374,16.6278919 33.6021587,16.9990259 35.6117694,16.9990259 L39,16.9990259 L39,14.7361799 L35.7924623,14.7361799 C34.1059954,14.7361799 32.8803432,14.291988 32.1508793,13.4172417 C31.63557,12.8006332 31.371701,11.9794626 31.3630966,10.9780826 C31.3544922,9.88416268 31.6585151,9.01428687 32.2636929,8.38988554 C33.0027172,7.63203182 34.1872594,7.24628622 35.7915063,7.24628622 Z" fill="#231F20" fill-rule="nonzero"></path>
            <polygon points="0 0 66 0 66 22 0 22"></polygon>
        </g>
    </g>
</svg>