<?xml version="1.0" encoding="UTF-8"?>
<svg width="66px" height="50px" viewBox="0 0 66 50" version="1.1" xmlns="http://www.w3.org/2000/svg" xmlns:xlink="http://www.w3.org/1999/xlink">
    <!-- Generator: Sketch 51.2 (57519) - http://www.bohemiancoding.com/sketch -->
    <title>12.BSJU</title>
    <desc>Created with Sketch.</desc>
    <defs></defs>
    <g id="12.BSJU" stroke="none" stroke-width="1" fill="none" fill-rule="evenodd">
        <g transform="translate(0.000000, 17.000000)" fill-rule="nonzero" id="Shape">
            <path d="M32.2601053,7.67197895 C32.6262316,7.67197895 32.8791158,7.75604211 33.0396,7.84774737 L33.1931368,7.32808421 C33.0097263,7.23568421 32.6574947,7.13703158 32.2601053,7.13703158 C31.0526526,7.13703158 30.2724632,7.96237895 30.2724632,9.10174737 C30.2724632,10.2341684 30.9991579,10.9907368 32.1156,10.9907368 C32.6116421,10.9907368 33.0013895,10.8684632 33.1771579,10.7760632 L33.0625263,10.2716842 C32.8721684,10.3557474 32.6192842,10.4550947 32.2371789,10.4550947 C31.5035368,10.4550947 30.9519158,9.92709474 30.9519158,9.07117895 C30.9519158,8.29863158 31.4118316,7.67197895 32.2601053,7.67197895 Z M20.6698105,8.15343158 L20.6698105,8.13814737 C21.2130947,7.93945263 21.5424,7.50385263 21.5424,7.00642105 C21.5424,6.60138947 21.3826105,6.29570526 21.1130526,6.09631579 C20.7927789,5.83648421 20.3655158,5.72185263 19.6992632,5.72185263 C19.2330947,5.72185263 18.7745684,5.76770526 18.4841684,5.82884211 L18.4841684,10.8983368 C18.7050947,10.9289053 19.0573263,10.9594737 19.5165474,10.9594737 C20.3564842,10.9594737 20.9372842,10.8066316 21.2971579,10.4780211 C21.5576842,10.2258316 21.7334526,9.88888421 21.7334526,9.44633684 C21.7327579,8.68143158 21.1596,8.27570526 20.6698105,8.15343158 Z M19.1483368,6.28042105 C19.2560211,6.2568 19.4317895,6.23456842 19.7381684,6.23456842 C20.4113684,6.23456842 20.8698947,6.47147368 20.8698947,7.07589474 C20.8698947,7.57263158 20.4565263,7.93945263 19.7541474,7.93945263 L19.1490316,7.93945263 L19.1490316,6.28042105 L19.1483368,6.28042105 Z M19.7062105,10.4384211 C19.4686105,10.4384211 19.2782526,10.4314737 19.1476421,10.4078526 L19.1476421,8.44383158 L19.6985684,8.44383158 C20.4259579,8.44383158 21.0289895,8.73423158 21.0289895,9.438 C21.0296842,10.1869263 20.3946947,10.4384211 19.7062105,10.4384211 Z M25.2064421,8.64252632 C25.2064421,7.90054737 24.9306316,7.12869474 23.7996,7.12869474 C23.3334316,7.12869474 22.8888,7.25861053 22.5838105,7.45730526 L22.7373474,7.90054737 C22.9971789,7.73311579 23.3570526,7.62543158 23.7002526,7.62543158 C24.4575158,7.62543158 24.5415789,8.17635789 24.5415789,8.48134737 L24.5415789,8.55776842 C23.1118105,8.55012632 22.3170316,9.03922105 22.3170316,9.93404211 C22.3170316,10.4689895 22.6991368,10.9962947 23.4480632,10.9962947 C23.9767579,10.9962947 24.3734526,10.7371579 24.5797895,10.4453684 L24.6027158,10.4453684 L24.6562105,10.9122316 L25.2682737,10.9122316 C25.2231158,10.6593474 25.2071368,10.3460211 25.2071368,10.0257474 L25.2071368,8.64252632 L25.2064421,8.64252632 Z M24.5568632,9.66726316 C24.5568632,9.73604211 24.5415789,9.81246316 24.5179579,9.88193684 C24.4109684,10.1959579 24.1059789,10.5016421 23.6231368,10.5016421 C23.2799368,10.5016421 22.9881474,10.2946105 22.9881474,9.85901053 C22.9881474,9.13995789 23.8225263,9.01004211 24.5568632,9.02532632 L24.5568632,9.66726316 Z M28.1361474,7.12938947 C27.5247789,7.12938947 27.0968211,7.47328421 26.9134105,7.82551579 L26.8981263,7.82551579 L26.8599158,7.21345263 L26.2638316,7.21345263 C26.2860632,7.51844211 26.2930105,7.83246316 26.2930105,8.21456842 L26.2930105,10.9136211 L26.9676,10.9136211 L26.9676,8.68837895 C26.9676,8.57374737 26.9821895,8.45911579 27.0127579,8.37574737 C27.1266947,8.00058947 27.4719789,7.68726316 27.9152211,7.68726316 C28.5495158,7.68726316 28.7704421,8.18469474 28.7704421,8.78077895 L28.7704421,10.9136211 L29.4443368,10.9136211 L29.4443368,8.70366316 C29.4443368,7.43507368 28.6488632,7.12938947 28.1361474,7.12938947 Z M40.0710316,7.85538947 C39.4047789,7.6032 39.1150737,7.458 39.1150737,7.12938947 C39.1150737,6.86122105 39.3596211,6.63265263 39.8633053,6.63265263 C40.3697684,6.63265263 40.7358947,6.77785263 40.9422316,6.8772 L41.2020632,5.93652632 C40.8963789,5.79966316 40.4684211,5.67669474 39.8862316,5.67669474 C38.6711368,5.67669474 37.9374947,6.34989474 37.9374947,7.22943158 C37.9374947,7.97766316 38.4953684,8.45216842 39.3519789,8.75021053 C39.9709895,8.97183158 40.2155368,9.15524211 40.2155368,9.47621053 C40.2155368,9.81246316 39.9327789,10.0347789 39.3971368,10.0347789 C38.8997053,10.0347789 38.4189474,9.87498947 38.1049263,9.71381053 L37.8673263,10.6774105 C38.1591158,10.8378947 38.7399158,10.9907368 39.3276632,10.9907368 C40.7428421,10.9907368 41.4084,10.2564 41.4084,9.39214737 C41.4090947,8.66614737 40.9797474,8.19233684 40.0710316,7.85538947 Z M61.4675368,8.70366316 C61.4675368,7.82482105 61.0701474,7.09048421 59.8237895,7.09048421 C59.1429474,7.09048421 58.6309263,7.27458947 58.3704,7.41978947 L58.5857684,8.16871579 C58.8296211,8.01587368 59.2353474,7.88595789 59.6174526,7.88595789 C60.1906105,7.88595789 60.2976,8.16871579 60.2976,8.36741053 L60.2976,8.4216 C58.9741263,8.41326316 58.1029263,8.87943158 58.1029263,9.85136842 C58.1029263,10.4467579 58.5545053,10.9976842 59.3103789,10.9976842 C59.7543158,10.9976842 60.1364211,10.8378947 60.3809684,10.5384632 L60.4038947,10.5384632 L60.4733684,10.9136211 L61.5203368,10.9136211 C61.4821263,10.7079789 61.4675368,10.3633895 61.4675368,10.0035158 L61.4675368,8.70366316 Z M60.3365053,9.55263158 C60.3365053,9.62141053 60.3274737,9.69018947 60.3128842,9.75132632 C60.2364632,9.98892632 59.9995579,10.1799789 59.7084632,10.1799789 C59.4486316,10.1799789 59.2499368,10.0340842 59.2499368,9.73534737 C59.2499368,9.28446316 59.7251368,9.13926316 60.3365053,9.14690526 L60.3365053,9.55263158 Z M35.4878526,7.12938947 C34.4638105,7.12938947 33.6530526,7.85538947 33.6530526,9.09410526 C33.6530526,10.2647368 34.4249053,10.9976842 35.4267158,10.9976842 C36.3215368,10.9976842 37.2698526,10.4016 37.2698526,9.03296842 C37.2698526,7.90054737 36.5514947,7.12938947 35.4878526,7.12938947 Z M35.4579789,10.4933053 C34.8007579,10.4933053 34.3332,9.88193684 34.3332,9.07117895 C34.3332,8.36741053 34.6777895,7.63446316 35.4739579,7.63446316 C36.2694316,7.63446316 36.5820632,8.42924211 36.5820632,9.05589474 C36.5813684,9.88888421 36.0999158,10.4933053 35.4579789,10.4933053 Z M57.4123579,7.17524211 L56.2424211,7.17524211 L56.2424211,9.39909474 C56.2424211,9.49149474 56.2347789,9.5832 56.2035158,9.65197895 C56.1270947,9.83538947 55.9443789,10.0570105 55.6227158,10.0570105 C55.2176842,10.0570105 55.0419158,9.72770526 55.0419158,9.18511579 L55.0419158,7.17454737 L53.8712842,7.17454737 L53.8712842,9.36852632 C53.8712842,10.5224842 54.4298526,10.9969895 55.1864211,10.9969895 C55.8596211,10.9969895 56.2125474,10.6148842 56.3570526,10.3863158 L56.3806737,10.3863158 L56.4334737,10.9129263 L57.4422316,10.9129263 C57.4276421,10.5996 57.4116632,10.2029053 57.4116632,9.71242105 L57.4116632,7.17524211 L57.4123579,7.17524211 Z M64.5959368,7.09048421 C63.9762316,7.09048421 63.5948211,7.45035789 63.4412842,7.68656842 L63.4183579,7.68656842 L63.3648632,7.17524211 L62.3568,7.17524211 C62.3713895,7.50385263 62.3873684,7.90054737 62.3873684,8.36741053 L62.3873684,10.9136211 L63.5489684,10.9136211 L63.5489684,8.75715789 C63.5489684,8.65016842 63.5642526,8.53553684 63.5948211,8.46606316 C63.6705474,8.25208421 63.8622947,8.03115789 64.1832632,8.03115789 C64.6035789,8.03115789 64.7730947,8.35907368 64.7730947,8.84122105 L64.7730947,10.9129263 L65.9346947,10.9129263 L65.9346947,8.69602105 C65.934,7.59555789 65.3608421,7.09048421 64.5959368,7.09048421 Z M45.3399158,8.70366316 C45.3399158,7.82482105 44.9432211,7.09048421 43.6975579,7.09048421 C43.0167158,7.09048421 42.504,7.27458947 42.2441684,7.41978947 L42.4595368,8.16871579 C42.7033895,8.01587368 43.1084211,7.88595789 43.4898316,7.88595789 C44.0636842,7.88595789 44.1713684,8.16871579 44.1713684,8.36741053 L44.1713684,8.4216 C42.8478947,8.41326316 41.9753053,8.87943158 41.9753053,9.85136842 C41.9753053,10.4467579 42.4275789,10.9976842 43.1841474,10.9976842 C43.6273895,10.9976842 44.0101895,10.8378947 44.2547368,10.5384632 L44.2776632,10.5384632 L44.3464421,10.9136211 L45.3941053,10.9136211 C45.3552,10.7079789 45.3399158,10.3633895 45.3399158,10.0035158 L45.3399158,8.70366316 Z M44.2081895,9.55263158 C44.2081895,9.62141053 44.2012421,9.69018947 44.1859579,9.75132632 C44.1095368,9.98892632 43.8733263,10.1799789 43.5822316,10.1799789 C43.3217053,10.1799789 43.1237053,10.0340842 43.1237053,9.73534737 C43.1237053,9.28446316 43.5982105,9.13926316 44.2088842,9.14690526 L44.2088842,9.55263158 L44.2081895,9.55263158 Z M48.4690105,7.09048421 C47.85,7.09048421 47.4678947,7.45035789 47.3157474,7.68656842 L47.2921263,7.68656842 L47.2393263,7.17524211 L46.2298737,7.17524211 C46.2451579,7.50385263 46.2604421,7.90054737 46.2604421,8.36741053 L46.2604421,10.9136211 L47.4234316,10.9136211 L47.4234316,8.75715789 C47.4234316,8.65016842 47.4387158,8.53553684 47.4678947,8.46606316 C47.5443158,8.25208421 47.7367579,8.03115789 48.0577263,8.03115789 C48.4780421,8.03115789 48.6468632,8.35907368 48.6468632,8.84122105 L48.6468632,10.9129263 L49.8091579,10.9129263 L49.8091579,8.69602105 C49.8077684,7.59555789 49.2339158,7.09048421 48.4690105,7.09048421 Z M51.7898526,9.0024 C51.7898526,9.80412632 51.4855579,10.0271368 50.9950737,10.0271368 C50.7658105,10.0271368 50.5601684,9.98892632 50.3989895,9.93543158 L50.2683789,10.8754105 C50.4983368,10.9525263 50.8498737,10.9983789 51.1173474,10.9983789 C52.2483789,10.9983789 52.9528421,10.4863579 52.9528421,9.01768421 L52.9528421,5.76075789 L51.7898526,5.76075789 L51.7898526,9.0024 Z" fill="#000000"></path>
            <path d="M6.84593684,6.96126316 L3.85231579,4.13090526 L5.88997895,7.23429474 L6.85357895,7.04602105 L8.17288421,8.33684211 L8.17288421,0.229957895 L6.84593684,6.96126316 Z M0.066,8.33684211 L6.86330526,9.67837895 L8.17357895,8.33684211 L8.17288421,8.33684211 L0.066,8.33684211 Z M3.82730526,12.6775579 L6.97932632,10.7142316 L6.80286316,9.67768421 L3.82730526,12.6775579 Z M9.51372632,9.64781053 L8.17357895,8.33684211 L8.17357895,16.4444211 L9.51372632,9.64781053 Z M9.30183158,5.95945263 L9.48454737,6.996 L12.4413474,3.97875789 L9.30183158,5.95945263 Z M9.51372632,9.67143158 L12.5129053,12.6462947 L10.5516632,9.49427368 L9.51372632,9.67143158 Z M9.48385263,6.996 L8.17357895,8.33684211 L16.2811579,8.33684211 L9.48385263,6.996 Z" fill="#FFC70B"></path>
        </g>
    </g>
</svg>