<?xml version="1.0" encoding="UTF-8"?>
<svg width="66px" height="50px" viewBox="0 0 66 50" version="1.1" xmlns="http://www.w3.org/2000/svg" xmlns:xlink="http://www.w3.org/1999/xlink">
    <!-- Generator: Sketch 51.2 (57519) - http://www.bohemiancoding.com/sketch -->
    <title>21.BancoColumbia</title>
    <desc>Created with Sketch.</desc>
    <defs>
        <polygon id="path-1" points="0.0657184439 0.0619142857 51.1642396 0.0619142857 51.1642396 16.9230769 0.0657184439 16.9230769"></polygon>
    </defs>
    <g id="21.BancoColumbia" stroke="none" stroke-width="1" fill="none" fill-rule="evenodd">
        <rect id="Rectangle" fill-rule="nonzero" x="0" y="0" width="66" height="50"></rect>
        <g id="Group-26" transform="translate(0.000000, 16.000000)">
            <path d="M28.4791692,6.5736967 C27.3390374,6.55774066 26.4476747,7.47883956 26.4380044,8.68255385 C26.4280923,9.92712527 27.2831912,10.8342022 28.4731253,10.8414549 C29.6132571,10.8484659 30.5152571,9.92253187 30.5232352,8.73694945 C30.5309714,7.55523516 29.6185758,6.58941099 28.4791692,6.5736967" id="Fill-1" fill="#EE3A43"></path>
            <path d="M52.5099143,9.25298242 C52.2016725,9.16474066 51.8740901,9.14298242 51.5049253,9.08375165 C51.5049253,9.61416923 51.497189,10.0577956 51.5136286,10.5002132 C51.5162879,10.5642791 51.6335407,10.6725868 51.7022,10.6764549 C51.9323538,10.6887846 52.1671011,10.6812901 52.3950791,10.6479275 C52.8034088,10.5877297 53.0190571,10.3674879 53.0449253,10.0249165 C53.0700681,9.68814725 52.8669912,9.3550044 52.5099143,9.25298242" id="Fill-3" fill="#EE3A43"></path>
            <path d="M52.5179407,7.64379121 C52.645589,7.43273626 52.6397868,7.19097802 52.4739407,6.99442857 C52.2152593,6.68787912 51.8695451,6.72728571 51.515611,6.76548352 L51.515611,7.97838462 C51.920556,8.00691209 52.292622,8.01585714 52.5179407,7.64379121" id="Fill-5" fill="#EE3A43"></path>
            <path d="M59.6021341,9.36559341 L61.1987055,9.36559341 C60.9320462,8.68359341 60.6779582,8.03398901 60.4013868,7.3266044 C60.1207055,8.04293407 59.8658923,8.69302198 59.6021341,9.36559341" id="Fill-7" fill="#EE3A43"></path>
            <path d="M45.4887714,3.94694505 C45.9183758,3.94210989 46.2689253,3.57149451 46.2565956,3.13536264 C46.2440242,2.70043956 45.8729253,2.32861538 45.460244,2.3378022 C45.0156505,2.34771429 44.7064418,2.70189011 44.7153868,3.19096703 C44.7233648,3.63725275 45.0451451,3.95202198 45.4887714,3.94694505" id="Fill-9" fill="#EE3A43"></path>
            <path d="M35.5039868,3.27040879 L35.5039868,3.93355165 C35.6826462,3.93355165 35.7955473,3.96522198 35.9031297,3.94298022 C36.0791297,3.90647473 36.1485143,3.60185934 36.0302945,3.42585934 C35.9396352,3.29047473 35.7505802,3.27040879 35.5039868,3.27040879" id="Fill-11" fill="#EE3A43"></path>
            <path d="M36.0030547,2.66140069 C35.9986841,2.40974583 35.7650209,2.3836036 35.5031165,2.41664048 L35.5031165,2.8897861 C35.7791416,2.93086675 36.0074254,2.90098991 36.0030547,2.66140069" id="Fill-13" fill="#EE3A43"></path>
            <path d="M37.8540462,2.67157363 C37.748156,2.94838681 37.667167,3.15968352 37.5796505,3.3879033 L38.1320681,3.3879033 C38.0416505,3.15484835 37.9606615,2.94669451 37.8540462,2.67157363" id="Fill-15" fill="#EE3A43"></path>
            <g id="Group-19" transform="translate(14.747253, 0.179796)">
                <mask id="mask-2" fill="white">
                    <use xlink:href="#path-1"></use>
                </mask>
                <g id="Clip-18"></g>
                <path d="M47.5661516,11.7216725 C47.4914484,11.7178044 47.3908769,11.6182 47.3565473,11.5393868 C47.2286571,11.2483099 47.1150308,10.9499802 47.0130088,10.6487495 C46.960789,10.4947495 46.8798,10.445189 46.718789,10.4471231 C46.0034264,10.4555846 45.2880637,10.4439802 44.5729429,10.4589692 C44.4813165,10.4609033 44.3502835,10.5563978 44.3091846,10.6424637 C44.172833,10.9294308 44.0625912,11.229211 43.9552505,11.5287495 C43.9020637,11.677189 43.8244593,11.7405297 43.659822,11.7347275 C43.3054044,11.7223978 42.9500198,11.7308593 42.5477341,11.7308593 C42.6964154,11.3355846 42.8252725,10.9850352 42.9596901,10.6366615 C43.609778,8.95450769 44.2651846,7.27428791 44.907778,5.58947473 C44.9856242,5.38543077 45.0845033,5.29477143 45.3057121,5.31338681 C45.516767,5.33103516 45.7326571,5.33466154 45.9427451,5.31266154 C46.1978,5.28582637 46.3145692,5.38567253 46.4045033,5.62404615 C46.9905253,7.17589231 47.5932286,8.72121099 48.1896462,10.2689473 C48.3692725,10.7348154 48.5464813,11.2018923 48.7483495,11.7301341 C48.3165692,11.7301341 47.9406352,11.7400462 47.5661516,11.7216725 Z M41.3328989,11.7354527 C41.1032286,11.7144198 40.8694484,11.7231231 40.6383275,11.7335187 C40.4661956,11.7410132 40.3972945,11.6817824 40.397778,11.5036066 C40.4014044,9.52384835 40.4014044,7.54433187 40.3975363,5.56457363 C40.3970527,5.37648571 40.4649868,5.30565055 40.6525912,5.3145956 C40.8933824,5.32595824 41.1363495,5.33079341 41.3764154,5.31338681 C41.6155143,5.29598022 41.6952945,5.38035385 41.6923934,5.6225956 C41.6810308,6.58817802 41.6878,7.5540022 41.6878,8.51958462 C41.6880418,9.47573846 41.6771626,10.4318923 41.6945692,11.3875626 C41.6994044,11.6738044 41.6056022,11.7601121 41.3328989,11.7354527 Z M37.748833,11.7223978 C37.0641736,11.7494747 36.3773385,11.7219143 35.6917121,11.7347275 C35.4431846,11.7393209 35.4673604,11.5872549 35.4673604,11.4310791 C35.4676022,10.1364637 35.4673604,8.84233187 35.4673604,7.5482 C35.4673604,6.90101319 35.475822,6.25358462 35.4632505,5.60688132 C35.4588989,5.37503516 35.5401297,5.30033187 35.7656901,5.31435385 C36.4003055,5.35303516 37.0414484,5.33683736 37.669778,5.41903516 C38.3273604,5.5051011 38.8169209,5.88079341 39.0151626,6.5391011 C39.209778,7.18556264 39.0183055,7.73556264 38.4791846,8.19852967 C39.019756,8.49806813 39.3947231,8.87883736 39.5061736,9.48540879 C39.7174703,10.6366615 38.922811,11.6754967 37.748833,11.7223978 Z M34.4676901,11.7115187 L33.2692945,11.7115187 C33.0526791,10.4480901 32.8365473,9.18877143 32.6073604,7.85136484 C32.3334484,8.67237582 32.0844374,9.41989231 31.8349429,10.1676505 C31.6852945,10.6158703 31.5281516,11.0619143 31.3891407,11.5135187 C31.3371626,11.6817824 31.2525473,11.7332769 31.0789648,11.735211 C30.1784154,11.7453648 30.1769648,11.7506835 29.8996681,10.9108154 C29.5822396,9.94934286 29.2684374,8.98666154 28.9519758,8.02494725 C28.9403714,7.98989231 28.9169209,7.95870549 28.8784813,7.88787033 C28.6981297,8.89962857 28.5245473,9.87294725 28.3514484,10.8460242 C28.3446791,10.8839802 28.3422615,10.9229033 28.3350088,10.9608593 C28.1882615,11.7311011 28.1882615,11.7311011 27.4020637,11.7311011 L26.9613385,11.7311011 C27.0389429,11.2712769 27.107844,10.8467495 27.182789,10.4234308 C27.4654044,8.82927692 27.7555143,7.23633187 28.0284593,5.64048571 C28.070767,5.39244176 28.1546571,5.28606813 28.4152725,5.3129033 C28.7012725,5.34215604 29.0636681,5.23771648 29.2578,5.37817802 C29.4512066,5.51791429 29.4850527,5.8865956 29.5761956,6.15905714 C29.9431846,7.25591429 30.3053385,8.35422198 30.6696681,9.45156264 C30.6878,9.50571648 30.7112505,9.55769451 30.7511407,9.65874945 C31.0151407,8.86844176 31.2648769,8.12261758 31.5138879,7.37606813 C31.7150308,6.77312308 31.9200418,6.17138681 32.1119978,5.5652989 C32.1705033,5.38035385 32.2597121,5.29791429 32.4623055,5.3129033 C32.7125253,5.33103516 32.9661297,5.30178242 33.2153824,5.32644176 C33.2983055,5.33466154 33.4283714,5.43499121 33.4411846,5.50969451 C33.7970527,7.55085934 34.1405912,9.59395824 34.4850967,11.6368154 C34.487756,11.654222 34.4768769,11.6735626 34.4676901,11.7115187 Z M27.6730747,1.71626593 C28.2453165,1.52769451 28.8748549,1.71602418 29.2041297,2.18334286 C29.1480418,2.24426593 29.0929209,2.31050769 29.0310308,2.36998022 C28.9836462,2.41591429 28.9280418,2.45338681 28.8792066,2.49206813 C28.1935802,2.07914505 27.8019319,2.07140879 27.4883714,2.45894725 C27.2376681,2.7683978 27.249756,3.23402418 27.5154484,3.52195824 C27.8319099,3.86452967 28.3096242,3.84107912 28.8886352,3.41872747 C28.9812286,3.53428791 29.0801077,3.65782637 29.1801956,3.78257363 C28.8770308,4.22837582 28.2685253,4.41235385 27.666789,4.23611209 C27.1407231,4.08162857 26.7742176,3.57441978 26.764789,2.98767253 C26.7551187,2.39657363 27.1080857,1.90241978 27.6730747,1.71626593 Z M26.4739538,4.20492527 C26.2338879,4.22088132 25.9880198,4.16285934 25.9490967,4.09250769 C25.7699538,3.75235385 25.4044154,3.24321099 25.1350967,2.9194967 L25.1350967,4.22716703 L24.6295802,4.22716703 L24.6295802,1.74430989 C24.9305692,1.66356264 25.1302615,1.8003978 25.1302615,1.8003978 C25.3824154,2.22540879 25.6896901,2.67822198 25.9633604,3.00121099 L25.9633604,1.72907912 L26.4739538,1.72907912 L26.4739538,4.20492527 Z M26.308833,10.1052769 C26.2776462,11.062156 25.4155363,11.8280462 24.3885473,11.8967055 C23.927756,11.9276505 23.4807451,11.8660022 23.0668549,11.6508374 C22.399844,11.304156 22.0328549,10.7369912 22.0152066,9.99938681 C21.9791846,8.48283736 21.9874044,6.96507912 21.9784593,5.44804615 C21.9784593,5.42072747 21.9948989,5.39340879 22.0181077,5.31846374 C22.3701077,5.31846374 22.7170308,5.32088132 23.0634703,5.3174967 C23.2837121,5.31532088 23.2433385,5.47463956 23.2435802,5.60277143 C23.2452725,6.88868352 23.243822,8.1745956 23.245756,9.46026593 C23.2459978,9.62393626 23.2443055,9.79074945 23.2730747,9.95055165 C23.3671187,10.4710571 23.6840637,10.6934747 24.2550967,10.6569692 C24.7250747,10.6265077 25.0441956,10.3197165 25.0671626,9.84006813 C25.0877121,9.40587033 25.0802176,8.97022198 25.0809429,8.5352989 C25.0826352,7.57817802 25.091822,6.62081538 25.0753824,5.66393626 C25.0703055,5.37769451 25.1650747,5.28824396 25.4394703,5.3129033 C25.6696242,5.33369451 25.9034044,5.32499121 26.1352505,5.31507912 C26.3134264,5.30758462 26.3736242,5.38301319 26.3712066,5.55441978 C26.3508989,7.07145275 26.3583934,8.58945275 26.308833,10.1052769 Z M22.744833,1.94762857 C22.8144593,1.7563978 22.9167231,1.71167253 23.1060198,1.70877143 C23.301844,1.70538681 23.4009648,1.76776044 23.4684154,1.95125495 C23.7181516,2.62841978 24.2828989,4.11861758 24.3097341,4.20782637 C23.8010747,4.29993626 23.6949429,4.18848571 23.6074264,3.81738681 C23.5907451,3.74630989 23.5598,3.72382637 23.4686571,3.71198022 C23.2788769,3.68756264 22.8799758,3.69336484 22.6904374,3.71947473 C22.599778,3.73204615 22.6055802,3.82198022 22.5654484,3.90248571 C22.3761516,4.27987033 22.3841297,4.28398022 21.9025473,4.20927692 C21.9252725,4.12756264 22.497756,2.6260022 22.744833,1.94762857 Z M21.806811,3.41896923 C21.807778,3.7671011 21.6375802,4.1265956 21.2659978,4.18655165 C20.9374484,4.23973846 20.5366132,4.21241978 20.200811,4.22088132 C20.1935582,3.92061758 20.2058879,3.69191429 20.2027451,3.42694725 C20.1964593,2.88613407 20.2066132,2.34483736 20.2112066,1.80378242 C20.2114484,1.78685934 20.2269209,1.77041978 20.2445692,1.73488132 C20.5221077,1.73488132 20.8151187,1.69499121 21.0928989,1.74334286 C21.6245253,1.83545275 21.7867451,2.32356264 21.5084813,2.75824396 C21.8186571,2.90354066 21.8104374,3.30655165 21.806811,3.41896923 Z M21.1559978,11.7095846 L18.1291846,11.7095846 C18.1228989,11.6094967 18.1120198,11.516178 18.1120198,11.4233429 C18.110811,9.49894725 18.1166132,7.57430989 18.1052505,5.65015604 C18.1035582,5.37962857 18.1843055,5.2938044 18.448789,5.31241978 C18.7447011,5.33321099 19.0870308,5.3100022 19.4066352,5.3100022 C19.4163055,5.47584835 19.3872945,5.61606813 19.3872945,5.74879341 C19.3889868,7.18967253 19.3882615,8.63079341 19.3885033,10.0714308 C19.3887451,10.5065956 19.3894703,10.5070791 19.8110967,10.5078044 C20.1304593,10.5080462 20.4493385,10.5068374 20.7684593,10.5080462 C21.1550308,10.5094967 21.1552725,10.510222 21.155756,10.8832549 C21.1562396,11.1518484 21.1559978,11.4202 21.1559978,11.7095846 Z M13.7446571,11.9010571 C11.8664374,11.9010571 10.3917121,10.4166615 10.3943714,8.52852967 C10.396789,6.66650769 11.8898879,5.16809011 13.7400637,5.17074945 C15.587822,5.17365055 17.0403055,6.66433187 17.0400637,8.55778242 C17.0400637,10.4459143 15.6057121,11.9010571 13.7446571,11.9010571 Z M7.37626154,11.8785736 C5.70982198,12.059167 4.25758022,11.3014967 3.72522857,9.80283736 C3.00503077,7.77521099 3.99962418,5.65160659 6.29729451,5.23191429 C7.55782198,5.0020022 8.66096484,5.39413407 9.5736022,6.30532088 C9.70173407,6.43321099 9.69617363,6.52024396 9.56804176,6.63628791 C9.33208571,6.8500022 9.10507473,7.07314505 8.83986593,7.32505714 C8.25674505,6.73323297 7.59577802,6.36092527 6.76872308,6.40758462 C6.18511868,6.44022198 5.68975604,6.6785956 5.29883297,7.12415604 C4.61538242,7.90261758 4.61369011,9.22189231 5.3027011,9.97279341 C5.78790989,10.5015187 6.39955824,10.6917824 7.10476703,10.6589033 C7.81190989,10.6255407 8.32733846,10.233167 8.78232747,9.80598022 C9.09371209,10.0854527 9.39107473,10.3523538 9.70390989,10.6330352 C9.04052527,11.3225297 8.30775604,11.7777604 7.37626154,11.8785736 Z M30.7383275,1.65776044 C31.4839099,1.65848571 32.043822,2.23338681 32.0360857,2.99057363 C32.0283495,3.72721099 31.4592505,4.29945275 30.7334923,4.29993626 C29.9954044,4.30041978 29.4224374,3.71899121 29.4217121,2.96954066 C29.4209868,2.2125956 29.9784813,1.65727692 30.7383275,1.65776044 Z M50.7510747,0.0686835165 C34.9901297,0.0686835165 19.2294264,0.0694087912 3.46896484,0.0619142857 C3.18707473,0.0619142857 3.01131648,0.143145055 2.84353626,0.367496703 C0.681492308,3.25892527 -0.220749451,6.49872747 0.144789011,10.0881121 C0.392107692,12.5172989 1.27065714,14.7037604 2.7141956,16.6690132 C2.84595385,16.8483978 2.98641538,16.9233429 3.21705275,16.9231011 C19.0938,16.9170571 34.9703055,16.9175407 50.8470527,16.9175407 L51.1642396,16.9175407 L51.1642396,0.0686835165 L50.7510747,0.0686835165 Z" id="Fill-17" fill="#EE3A43" mask="url(#mask-2)"></path>
            </g>
            <path d="M9.2678989,13.1765978 C9.21712967,12.9846418 9.18715165,12.8245978 9.13203077,12.6734989 C9.01743736,12.3606637 8.78172308,12.1921582 8.47952527,12.1921582 C8.16064615,12.1921582 7.95732747,12.3635648 7.83112967,12.6411033 C7.36695385,13.6620484 6.60106374,14.068444 5.51194286,13.8126637 C3.85493187,13.423433 2.66910769,12.4360923 1.9418989,10.8977846 C1.92134945,10.8545099 1.90466813,10.8088176 1.88992088,10.7631253 C1.88436044,10.7459604 1.88895385,10.725411 1.88895385,10.6436967 L6.63176703,10.6436967 L6.63176703,9.99868571 L2.29027253,9.99868571 C3.53363516,8.46763077 3.99466813,6.7862022 3.74154725,4.89154286 C3.88611868,4.88525714 3.9995033,4.87582857 4.11312967,4.87558681 C5.69858022,4.87461978 7.28427253,4.87365275 8.86996484,4.87631209 C9.15959121,4.8767956 9.45042637,4.88090549 9.73763516,4.91136703 C9.83312967,4.92152088 9.95352527,4.99767473 10.0050198,5.07963077 C10.5475253,5.94391648 10.8925143,6.88387253 10.9444923,7.90578462 C10.972778,8.46086154 10.9275692,9.0214989 10.8881626,9.57778462 C10.8591516,9.98732308 10.8393275,9.98611429 10.4409099,9.98635604 L7.37734945,9.98635604 L7.37734945,10.6410374 L11.4350198,10.6410374 C10.993811,11.7695648 10.2634593,12.5639824 9.2678989,13.1765978 M6.65328352,3.64527912 C6.82783297,3.52125714 7.06910769,3.49103736 7.33939341,3.39723516 L7.33939341,4.49505934 C6.99948132,4.48756484 6.67238242,4.4807956 6.34552527,4.47305934 C5.91398681,4.46242198 5.51387692,4.36861978 5.13214066,4.01371868 C5.73822857,4.10196044 6.21062418,3.95956484 6.65328352,3.64527912 M15.7383165,0.257279121 L9.67032967e-05,0.257279121 L9.67032967e-05,17.0841363 L15.6488659,17.0841363 C12.3169538,11.4477846 12.3466901,5.84358681 15.7383165,0.257279121" id="Fill-20" fill="#0E4B8D"></path>
            <path d="M8.20063297,8.06638462 C8.02777582,7.97475824 7.88392967,7.87587912 7.72485275,7.82293407 C7.62863297,7.79053846 7.46665495,7.78908791 7.41080879,7.84735165 C7.35423736,7.90634066 7.36414945,8.06420879 7.39436923,8.16381319 C7.4374022,8.30596703 7.5254022,8.43434066 7.60735824,8.59486813 L6.48414945,8.59486813 C6.55909451,8.46915385 6.64056703,8.3797033 6.66788571,8.27598901 C6.70729231,8.12537363 6.70777582,7.9646044 6.72494066,7.80818681 C6.5706989,7.82124176 6.41283077,7.81882418 6.26366593,7.85315385 C6.16672088,7.8753956 6.08210549,7.95179121 5.96074286,8.02165934 L5.96074286,6.90425275 C6.12803956,6.98935165 6.27333626,7.08605495 6.43338022,7.13658242 C6.52814945,7.16656044 6.67247912,7.15785714 6.74403956,7.10201099 C6.79456703,7.06236264 6.78658901,6.90691209 6.75902857,6.81721978 C6.71478681,6.67385714 6.63234725,6.54234066 6.55256703,6.3777033 L7.64144615,6.3777033 C7.55683077,6.54282418 7.46738022,6.6799011 7.41661099,6.83027473 C7.38590769,6.92069231 7.37575385,7.07928571 7.42724835,7.12183516 C7.49808352,7.18082418 7.6457978,7.19291209 7.74274286,7.16438462 C7.89432527,7.1199011 8.03116044,7.02464835 8.20063297,6.93737363 L8.20063297,8.06638462 Z M9.63691868,5.63792308 C9.59001758,5.55475824 9.43891868,5.48972527 9.33423736,5.48682418 C8.79390769,5.47183516 8.25285275,5.47981319 7.71203956,5.47981319 C6.62170989,5.47957143 5.53138022,5.47981319 4.38907253,5.47981319 C4.47634725,6.87596703 4.15263297,8.16236264 3.47280879,9.36728571 L10.3252044,9.36728571 C10.5101495,8.03157143 10.290633,6.79256044 9.63691868,5.63792308 Z" id="Fill-22" fill="#0E4B8D"></path>
            <path d="M5.57424396,13.2174549 C6.43127692,13.4280264 6.93461758,13.1768396 7.29483736,12.375411 C7.63692527,11.613389 8.5498044,11.3486637 9.20883736,11.8275868 C9.35244176,11.9320264 9.47283736,12.068378 9.63481538,12.2185099 C9.91187033,11.9083341 10.1826396,11.6051692 10.502244,11.247367 L2.80176044,11.247367 C3.50334286,12.2750813 4.40848571,12.9312132 5.57424396,13.2174549" id="Fill-24" fill="#0E4B8D"></path>
        </g>
    </g>
</svg>