<?xml version="1.0" encoding="UTF-8"?>
<svg width="66px" height="50px" viewBox="0 0 66 50" version="1.1" xmlns="http://www.w3.org/2000/svg" xmlns:xlink="http://www.w3.org/1999/xlink">
    <!-- Generator: Sketch 51.2 (57519) - http://www.bohemiancoding.com/sketch -->
    <title>23.CONY</title>
    <desc>Created with Sketch.</desc>
    <defs></defs>
    <g id="23.CONY" stroke="none" stroke-width="1" fill="none" fill-rule="evenodd">
        <g id="Group-2" fill-rule="nonzero">
            <rect id="Rectangle" x="0" y="0" width="66" height="50"></rect>
            <g id="23.CONY" transform="translate(8.000000, 0.000000)">
                <g id="Group" transform="translate(25.000000, 25.000000) scale(-1, 1) rotate(-180.000000) translate(-25.000000, -25.000000) translate(0.000000, -0.000000)">
                    <path d="M49.4720821,24.971041 C49.4720821,11.4554164 38.5147907,0.499166654 25.0002077,0.499166654 C11.484583,0.499166654 0.52833332,11.4554164 0.52833332,24.971041 C0.52833332,38.4866657 11.484583,49.4429155 25.0002077,49.4429155 C38.5147907,49.4429155 49.4720821,38.4866657 49.4720821,24.971041" id="Shape" fill="#FF7175"></path>
                    <g id="Shape" transform="translate(4.166666, 14.583333)" fill="#FFFFFF">
                        <path d="M1.74260412,16.0786455 C1.74260412,18.0973954 3.25718742,18.9463537 4.72489572,18.9463537 C5.43635403,18.9463537 6.14781234,18.7401037 6.67593734,18.373437 L6.67593734,19.5661453 C6.03322902,19.8869787 5.27593737,20.0713537 4.51864572,20.0713537 C2.52281244,20.0713537 0.480104155,18.785937 0.480104155,16.0557288 C0.480104155,13.4859372 2.56864577,12.2005205 4.54260405,12.2005205 C5.34468737,12.2005205 6.10197902,12.3838538 6.74468733,12.7057288 L6.74468733,13.9213538 C6.23947901,13.5546872 5.52906236,13.3473955 4.74885405,13.3473955 C3.28010409,13.3473955 1.74260412,14.2203121 1.74260412,16.0786455"></path>
                        <path d="M11.2879164,18.9239579 C13.123333,18.9239579 14.0410413,17.5927079 14.0410413,16.1468746 C14.0410413,14.702083 13.1462497,13.370833 11.2879164,13.370833 C9.42958312,13.370833 8.53374977,14.702083 8.53374977,16.1468746 C8.53374977,17.5927079 9.45249977,18.9239579 11.2879164,18.9239579 M11.2879164,12.223958 C13.9722913,12.223958 15.3035412,14.1510413 15.3035412,16.1468746 C15.3035412,18.1437495 13.9722913,20.0708328 11.2879164,20.0708328 C8.58062477,20.0708328 7.27229148,18.1437495 7.27229148,16.1468746 C7.27229148,14.1510413 8.60354148,12.223958 11.2879164,12.223958"></path>
                        <polygon points="17.4601037 17.661562 19.8694787 14.0594788 20.6038537 14.0594788 23.0132286 17.661562 23.0132286 12.3615622 24.2528119 12.3615622 24.2528119 19.9105203 23.127812 19.9105203 20.237187 15.5740621 17.3455204 19.9105203 16.2215621 19.9105203 16.2215621 12.3386455 17.4601037 12.3386455"></polygon>
                        <path d="M28.7954159,18.3044787 C28.8412493,18.419062 28.8870826,18.5336454 28.9329159,18.7169787 C28.9797909,18.5336454 29.0256243,18.419062 29.0714576,18.3044787 L30.4016659,15.0690621 L27.4412493,15.0690621 L28.7954159,18.3044787 Z M27.0287493,13.9898955 L30.8599992,13.9898955 L31.5256242,12.3607288 L32.8339575,12.3607288 L29.6214576,19.9336453 L28.2672909,19.9336453 L25.032916,12.3607288 L26.3631244,12.3607288 L27.0287493,13.9898955 Z"></path>
                        <polygon points="33.5916659 12.3382288 34.8302075 12.3382288 34.8302075 15.4132287 38.5239573 15.4132287 38.5239573 16.5601037 34.8302075 16.5601037 34.8302075 18.7861454 38.8458323 18.7861454 38.8458323 19.9111453 33.5916659 19.9111453"></polygon>
                        <polygon points="39.9479157 12.361458 41.1864573 12.361458 41.1864573 19.9343745 39.9479157 19.9343745"></polygon>
                        <path d="M19.9783328,8.66906227 C19.8856245,8.71697898 19.8522912,8.77322898 19.9554162,8.82947898 C19.9710412,8.79197898 19.9627078,8.77635398 19.9324995,8.78364562 C19.9731245,8.73468727 19.9939578,8.69197898 20.0012495,8.64614562 L19.9783328,8.66906227 Z M19.9324995,8.53156227 L19.9324995,8.30135398 C19.8897912,8.33468727 19.8804162,8.36489562 19.8408328,8.34822898 C19.8220828,8.29718727 19.8241662,8.25968727 19.8408328,8.18781227 C20.2543745,7.30239565 21.9897911,8.85239562 20.5064578,9.15135391 C20.5564578,9.12427062 20.5960412,9.11593727 20.6439578,9.08156227 C20.6012495,8.99614562 20.5543745,9.01697891 20.4606245,9.01385391 C20.4293745,8.99822891 20.3262495,8.93156227 20.2543745,8.87531227 L20.2772912,8.85239562 C20.2481245,8.86697891 20.2606245,8.86177062 20.2314578,8.87531227 C20.1887495,8.92427062 20.0491662,8.94927062 19.9324995,8.92218727 C19.9397912,8.95031227 19.9324995,8.97322891 19.9095828,8.99093727 C19.8793745,8.98052062 19.8533328,8.96385391 19.8866662,8.92218727 L19.8179162,8.92218727 C19.8043745,8.80760398 19.8043745,8.75760398 19.8408328,8.69197898 L19.8179162,8.66906227 C19.8356245,8.64510398 19.8522912,8.62531227 19.8866662,8.64614562 C19.9147912,8.61177062 19.9637495,8.55656227 20.0012495,8.50864562 C19.9866662,8.40864562 19.9710412,8.50552062 19.9324995,8.53156227 Z"></path>
                        <path d="M35.7879158,1.71708329 L35.6504158,1.3045833 L35.6274991,1.28062497 L35.5118741,1.2577083 C35.4774991,1.42124996 35.5024991,1.58687496 35.5816658,1.73895829 C35.6264574,1.79520829 35.6806241,1.84312495 35.7420824,1.87749995 L35.7879158,1.83062495 L35.7879158,1.71708329 Z M34.9847908,6.76499983 L34.9618741,6.74208316 C34.9754158,6.77958316 34.9972908,6.81083316 35.0306241,6.83374983 L35.0077074,6.83374983 L35.0077074,6.81083316 L34.9847908,6.81083316 L35.0077074,6.83374983 L35.0077074,6.85666649 L34.9847908,6.85666649 L35.0077074,6.87958316 L34.9847908,6.87958316 L34.9847908,6.90249983 L34.9160408,6.83374983 L34.8702075,6.83374983 L34.8472908,6.85666649 L34.8472908,6.81083316 L34.8014575,6.81083316 L34.8014575,6.76499983 L34.7556241,6.76499983 L34.7556241,6.7191665 L34.6858325,6.7191665 L34.6858325,6.76499983 L34.7556241,6.81083316 L34.7785408,6.85666649 L34.7556241,6.87958316 L34.7785408,6.90249983 L34.7785408,6.85666649 L34.8472908,6.85666649 L34.8702075,6.85666649 L34.8702075,6.87958316 C34.9014574,6.90354149 34.9243741,6.93479149 34.9399991,6.97124983 L34.9160408,6.97124983 L34.9337491,6.99416649 L34.9160408,6.99416649 L34.9160408,7.01708316 L34.9618741,7.06291649 L34.9618741,7.08583316 L35.0077074,7.10874982 L35.0306241,7.10874982 L35.0535408,7.13166649 L35.0306241,7.08583316 L35.0764574,7.13166649 L35.1920824,7.13166649 L35.1920824,7.17749982 L35.2139574,7.17749982 L35.2379158,7.20145816 L35.2379158,7.22333316 L35.1920824,7.22333316 L35.1920824,7.26916648 L35.2139574,7.29312482 L35.3066658,7.29312482 L35.2837491,7.31499982 L35.2837491,7.36083315 L35.3066658,7.36083315 L35.3295824,7.38374981 L35.3295824,7.36083315 L35.4899991,7.36083315 L35.4660408,7.33791648 L35.4899991,7.31499982 L35.4899991,7.33791648 L35.5118741,7.36083315 L35.5358324,7.36083315 L35.5202074,7.33062482 L35.5118741,7.32749982 L35.5118741,7.31499982 L35.4899991,7.29312482 L35.4899991,7.26916648 L35.4660408,7.24729148 L35.4441658,7.24729148 L35.4660408,7.29312482 L35.4660408,7.31499982 L35.4441658,7.31499982 L35.4202074,7.29312482 L35.4202074,7.26916648 L35.3983324,7.26916648 L35.4202074,7.24729148 L35.4202074,7.22333316 L35.3983324,7.22333316 L35.3295824,7.15562482 L35.3295824,7.13166649 L35.3066658,7.10874982 L35.2837491,7.10874982 L35.2837491,7.08583316 L35.2597908,7.08583316 L35.2597908,7.01708316 L35.2139574,7.01708316 L35.2139574,6.99416649 L35.1920824,6.99416649 L35.1920824,6.94729149 L35.1681241,6.94729149 L35.1681241,6.90249983 L35.1462491,6.90249983 C35.1149991,6.85041649 35.0764574,6.80458316 35.0306241,6.76499983 L35.0077074,6.76499983 L35.0077074,6.74208316 L34.9847908,6.74208316 L35.0077074,6.76499983 L35.0306241,6.7879165 L34.9847908,6.76499983 Z M34.8941658,6.62749984 L34.9160408,6.69520816 L34.9399991,6.69520816 L34.9847908,6.7410415 C34.9639574,6.69624984 34.9327074,6.65770816 34.8941658,6.62749984 Z M34.8014575,6.5629165 L34.8014575,6.5816665 L34.8243741,6.5816665 L34.8285408,6.57333317 L34.8014575,6.5629165 Z M34.7327075,6.5347915 L34.7097908,6.5129165 L34.7327075,6.55770817 L34.7899991,6.55770817 L34.7327075,6.5347915 Z M34.6399991,7.10874982 L34.6181241,7.08583316 L34.6181241,7.13166649 L34.6399991,7.13166649 L34.6399991,7.10874982 Z M34.5941658,6.42124984 L34.5493741,6.37541651 L34.5035408,6.37541651 L34.5035408,6.39729151 C34.5389575,6.42437484 34.5774991,6.44729151 34.6181241,6.46708317 L34.5941658,6.42124984 Z M34.4795825,6.99416649 L34.5493741,6.99416649 L34.5493741,7.03999982 L34.5722908,7.03999982 L34.5722908,7.06291649 L34.6181241,7.08583316 L34.5941658,7.06291649 L34.5941658,7.03999982 C34.5795825,7.00979149 34.5639575,6.97958316 34.5493741,6.94729149 L34.5035408,6.94729149 L34.4795825,6.97124983 L34.4795825,6.99416649 Z M32.1399992,2.79520827 L32.1170825,2.79520827 C32.0764575,2.82541659 32.0462492,2.86499993 32.0254159,2.91083326 L32.0254159,2.93270826 L32.0472909,2.93270826 L32.0472909,2.88687493 L32.0712492,2.86395827 L32.1170825,2.86395827 L32.1399992,2.81812493 L32.1399992,2.79520827 Z M32.0941659,3.02437492 L32.0941659,3.00145826 L32.0712492,3.02437492 L32.0941659,3.02437492 Z M31.9795825,3.07020826 L31.9556242,3.09312492 L31.9795825,3.09312492 L31.9795825,3.07020826 Z M31.9337492,3.07020826 L31.9337492,3.04729159 L31.9097909,3.04729159 L31.9097909,3.11708326 L31.9337492,3.09312492 L31.9337492,3.07020826 Z M31.7952075,3.09312492 L31.7733325,3.11708326 L31.7733325,3.16291659 L31.7493742,3.18479159 L31.7493742,3.20874992 L31.7733325,3.20874992 L31.7733325,3.18479159 L31.8181242,3.16291659 L31.7952075,3.09312492 Z M28.9733326,6.90249983 L28.9733326,6.87958316 L28.9504159,6.87958316 L28.9274993,6.90249983 L28.9733326,6.90249983 Z M28.9045826,6.42124984 L28.8816659,6.42124984 L28.8816659,6.39729151 L28.8587493,6.39729151 L28.8816659,6.42124984 L28.8816659,6.48895817 L28.9045826,6.44312484 L28.9045826,6.42124984 Z M28.8587493,6.6035415 L28.8587493,6.5816665 L28.8233326,6.5816665 C28.8358326,6.58895817 28.8441659,6.59937484 28.8587493,6.6035415 Z M28.8129159,6.55770817 L28.7889576,6.55770817 C28.7952076,6.56499984 28.8056243,6.56708317 28.8129159,6.57333317 L28.8129159,6.55770817 Z M28.7670826,6.32958317 L28.7431243,6.30562484 C28.7514576,6.33479151 28.7670826,6.35666651 28.7889576,6.37541651 L28.7670826,6.32958317 Z M28.6514576,6.5129165 L28.6295827,6.48895817 L28.6295827,6.46708317 L28.5827077,6.44312484 C28.5847909,6.40354151 28.5774993,6.36499984 28.5608327,6.32958317 L28.5149993,6.28270818 L28.4910409,6.30562484 C28.4410409,6.25249984 28.3972909,6.20249984 28.3535409,6.14520818 C28.3764577,6.20249984 28.4077077,6.25874984 28.4452077,6.30562484 L28.4452077,6.32958317 L28.4910409,6.37541651 L28.5368743,6.37541651 L28.5608327,6.42124984 L28.5608327,6.44312484 L28.5827077,6.48895817 L28.6056243,6.48895817 L28.6514576,6.5347915 L28.6514576,6.5129165 Z M23.9024994,6.67333316 L23.8785411,6.64937484 L23.8785411,6.69520816 L23.9243744,6.7191665 L23.9024994,6.67333316 Z M23.6722911,6.30562484 L23.6504161,6.30562484 L23.6504161,6.35145817 L23.6722911,6.37541651 L23.6722911,6.30562484 Z M23.4660411,6.19104152 L23.5118744,6.21395818 L23.5118744,6.23687484 L23.5347911,6.21395818 L23.4660411,6.19104152 Z M23.4660411,6.14520818 L23.4431244,6.14520818 L23.4660411,6.16812484 L23.4660411,6.14520818 Z M23.5118744,6.55770817 L23.5118744,6.5347915 L23.5004161,6.5347915 L23.5118744,6.55770817 Z M23.3972911,6.00770818 L23.3972911,5.98479152 L23.3743745,5.98479152 L23.3743745,5.96187485 L23.3524995,5.93895819 L23.3743745,5.91499985 L23.3524995,5.91499985 L23.3524995,5.93895819 L23.3524995,5.98479152 L23.3743745,5.98479152 L23.3743745,6.03062485 L23.4202077,6.05354152 L23.3972911,6.00770818 Z M23.3285411,6.21395818 L23.3743745,6.25979151 L23.3743745,6.21395818 L23.3285411,6.16812484 L23.3285411,6.21395818 Z M23.3056245,5.75562486 L23.2827077,5.73166652 L23.2827077,5.75562486 L23.2597911,5.75562486 C23.2629161,5.79312485 23.2702077,5.83270819 23.2827077,5.86916652 L23.3285411,5.86916652 L23.3056245,5.75562486 Z M23.2597911,5.6170832 L23.2368745,5.57124986 L23.2368745,5.50249986 L23.2139577,5.50249986 L23.2139577,5.5952082 L23.2597911,5.64104152 L23.2597911,5.6170832 Z M23.1910411,5.75562486 L23.1910411,5.73166652 L23.1681245,5.75562486 L23.1462495,5.72333319 L23.1504161,5.77020819 L23.1524995,5.77124986 L23.1681245,5.75562486 L23.1587495,5.77437486 L23.1681245,5.77749986 L23.1566661,5.77749986 L23.1514577,5.78687485 L23.1618745,5.89312485 L23.2139577,5.89312485 L23.2139577,5.91499985 L23.1681245,5.91499985 L23.1910411,5.93895819 L23.2139577,5.93895819 L23.2139577,6.03062485 L23.2368745,6.05354152 L23.2368745,6.07645818 L23.2483327,6.07645818 L23.2368745,6.05354152 L23.2597911,6.05354152 L23.2597911,6.03062485 L23.2368745,6.03062485 L23.2368745,6.00770818 L23.2597911,5.96187485 L23.2368745,5.96187485 L23.2139577,5.89312485 L23.2368745,5.89312485 L23.1910411,5.80145819 L23.1910411,5.75562486 Z M23.1441661,5.2733332 L23.1441661,5.22749987 L23.1222911,5.2045832 L23.0983327,5.22749987 C23.1066661,5.2545832 23.1222911,5.27854153 23.1441661,5.29624987 L23.1441661,5.2733332 Z M20.8733328,5.02124987 L20.8504162,5.02124987 L20.8504162,5.04312487 L20.8274995,5.04312487 L20.8274995,5.0889582 L20.8274995,5.13479154 L20.8504162,5.11291654 L20.8274995,5.0889582 L20.8733328,5.0670832 L20.8733328,5.02124987 Z M20.8274995,4.97541654 L20.8045828,4.95145821 L20.8045828,4.97541654 L20.7962495,4.97541654 L20.8014578,4.98166654 L20.8045828,4.97541654 L20.8045828,4.98687487 L20.8274995,5.02124987 L20.8274995,4.97541654 Z M20.7816662,5.0670832 L20.7816662,5.02124988 L20.7587495,4.99729154 L20.7358328,4.99729154 L20.7358328,5.11291654 L20.7587495,5.11291654 L20.7816662,5.0889582 L20.7816662,5.0670832 Z M20.7587495,4.79104155 L20.7358328,4.79104155 C20.7587495,4.73374988 20.7660412,4.67124988 20.7587495,4.60770822 C20.7504162,4.63583322 20.7347912,4.65874988 20.7129162,4.67645822 L20.7129162,4.63062488 L20.6899995,4.63062488 L20.6441662,4.67645822 L20.6441662,4.65354155 L20.6202078,4.67645822 L20.6202078,4.74520821 L20.5972912,4.76916655 L20.5972912,4.79104155 L20.6202078,4.79104155 L20.5972912,4.86083321 L20.6202078,4.88270821 L20.6202078,4.90666655 L20.5972912,4.88270821 C20.5754162,4.90145821 20.5597912,4.92333321 20.5524995,4.95145821 L20.5754162,4.94104155 L20.5754162,5.02124987 L20.6202078,5.02124987 L20.6202078,4.95145821 C20.6358328,4.93687487 20.6514578,4.92124987 20.6670828,4.90666655 L20.6899995,4.90666655 L20.6899995,4.97541654 L20.7129162,4.97541654 L20.7129162,4.95145821 L20.7358328,4.95145821 L20.7129162,4.90666655 L20.7358328,4.88270821 L20.7358328,4.86083321 L20.7129162,4.86083321 L20.7129162,4.83687488 L20.7358328,4.83687488 L20.7587495,4.86083321 L20.7587495,4.83687488 L20.7816662,4.79104155 L20.7587495,4.79104155 Z M20.7129162,5.2733332 L20.7129162,5.29624987 L20.7358328,5.2733332 L20.7358328,5.22749987 L20.7129162,5.25041654 L20.7129162,5.2733332 Z M20.4608328,4.67645822 L20.4379162,4.67645822 L20.4379162,4.65354155 L20.4608328,4.65354155 L20.4608328,4.56187488 L20.4379162,4.56187488 L20.4379162,4.58479155 L20.4139578,4.60770822 L20.4139578,4.72229155 L20.4608328,4.72229155 L20.4608328,4.67645822 Z M20.3681245,4.88270821 L20.3681245,4.95145821 L20.3910412,4.99729154 C20.4160412,4.91708321 20.4243745,4.83062488 20.4139578,4.74520821 C20.3972912,4.78166655 20.3889578,4.82020821 20.3910412,4.86083321 L20.3681245,4.88270821 Z M20.4139578,5.77749986 L20.4379162,5.75562486 L20.4139578,5.75562486 L20.4139578,5.77749986 Z M17.0639579,3.36916659 L17.0639579,3.34520825 L17.0410412,3.34520825 L17.0181246,3.41499991 L17.0410412,3.41499991 L17.0639579,3.39104158 L17.0639579,3.36916659 Z M17.0410412,3.30041659 L17.0181246,3.30041659 L17.0181246,3.32333325 L17.0410412,3.32333325 L17.0410412,3.30041659 Z M16.8347912,3.52958324 L16.8118746,3.52958324 L16.7889579,3.57541658 L16.7889579,3.64416658 L16.7889579,3.66708324 L16.8118746,3.68999991 L16.8118746,3.66708324 L16.7889579,3.64416658 L16.8118746,3.62124991 L16.8118746,3.59833324 L16.8347912,3.57541658 L16.8347912,3.52958324 Z M16.7889579,3.48270825 L16.7889579,3.52958324 L16.8118746,3.50666658 L16.7889579,3.48270825 Z M14.838958,7.26916648 L14.838958,7.17749982 L14.7931246,7.20145816 L14.770208,7.20145816 L14.7931246,7.15562482 L14.7931246,7.13166649 L14.7472913,7.03999982 L14.723333,7.03999982 L14.7472913,7.01708316 L14.723333,7.01708316 L14.723333,6.99416649 L14.7472913,6.97124983 L14.723333,6.92541649 L14.723333,6.85666649 L14.7004163,6.87958316 L14.6774996,6.87958316 L14.6774996,6.81083316 L14.654583,6.83374983 L14.6774996,6.87958316 C14.6972913,6.96187483 14.713958,7.04729149 14.723333,7.13166649 L14.6774996,7.15562482 C14.7004163,7.17749982 14.723333,7.20145816 14.7472913,7.22333316 L14.770208,7.22333316 L14.8160413,7.26916648 L14.8160413,7.29312482 L14.838958,7.31499982 L14.838958,7.26916648 Z M14.723333,6.23687484 L14.723333,6.12229152 L14.6774996,6.12229152 C14.7129163,6.19520818 14.7285413,6.27229151 14.723333,6.35145817 L14.7472913,6.32958317 L14.723333,6.23687484 Z M14.7472913,7.40770815 L14.7472913,7.36083315 L14.723333,7.33791648 L14.7004163,7.38374981 L14.7004163,7.56812481 L14.723333,7.56812481 C14.7379163,7.62020814 14.7462496,7.6743748 14.7472913,7.72854148 L14.770208,7.75145814 C14.826458,7.64520814 14.8285413,7.53374981 14.770208,7.42958315 L14.770208,7.45354148 L14.7472913,7.40770815 Z M14.654583,9.47229141 L14.654583,9.56395812 L14.6774996,9.58687477 L14.770208,9.58687477 L14.7931246,9.63270813 L14.8160413,9.60979141 L14.7931246,9.58687477 L14.770208,9.58687477 L14.770208,9.51812477 L14.723333,9.56395812 L14.723333,9.33479141 L14.770208,9.33479141 L14.770208,9.28895813 L14.7931246,9.28895813 C14.7597913,9.25979141 14.720208,9.23583312 14.6774996,9.22020812 L14.654583,9.24312477 L14.654583,9.26604141 L14.6774996,9.26604141 L14.6774996,9.24312477 L14.7004163,9.26604141 L14.7004163,9.35770812 C14.688958,9.34104141 14.673333,9.32958312 14.654583,9.32333312 C14.645208,9.37333312 14.6379163,9.42229141 14.6316663,9.47229141 L14.654583,9.47229141 Z M14.6087496,9.26604141 L14.6087496,9.19729141 L14.585833,9.19729141 L14.5410413,9.15145813 L14.517083,9.17437477 C14.5243746,9.22020812 14.5410413,9.26916641 14.563958,9.31187477 L14.585833,9.31187477 L14.6087496,9.28895813 L14.620208,9.28895813 L14.6087496,9.26604141 Z M14.2879163,6.94729149 L14.2649996,6.94729149 L14.2649996,6.85666649 L14.242083,6.83374983 L14.1504163,6.83374983 L14.1504163,6.90249983 L14.1962496,6.90249983 L14.1962496,7.06291649 L14.2191663,7.06291649 L14.1962496,7.10874982 C14.2118746,7.15354148 14.220208,7.20041648 14.2191663,7.24729148 L14.2649996,7.24729148 C14.2629163,7.21499982 14.2556246,7.18374982 14.242083,7.15562482 L14.2649996,7.13166649 L14.2649996,7.03999982 L14.242083,7.01708316 L14.2879163,6.99416649 L14.2879163,6.94729149 Z M14.1504163,6.99416649 L14.173333,6.97124983 L14.1504163,6.92541649 L14.1504163,6.99416649 Z M8.78062477,9.63270813 L8.75770812,9.63270813 C8.73583312,9.61499977 8.72020812,9.59208313 8.71187477,9.56395812 L8.71187477,9.60979141 L8.68895812,9.60979141 L8.68895812,9.54104141 L8.66604148,9.54104141 C8.65874977,9.51291641 8.64208312,9.48999977 8.62020812,9.47229141 L8.62020812,9.44937477 L8.57437477,9.40354141 L8.48270812,9.40354141 L8.48270812,9.44937477 L8.45979148,9.42645812 L8.45979148,9.44937477 L8.48270812,9.49520812 L8.41395812,9.47229141 L8.41395812,9.49520812 L8.43687477,9.51812477 L8.50562477,9.54104141 L8.52854148,9.56395812 L8.55145812,9.56395812 L8.52854148,9.54104141 L8.57437477,9.54104141 L8.59729148,9.56395812 L8.62020812,9.63270813 C8.65874977,9.64624977 8.68895812,9.66916641 8.71187477,9.70249977 L8.78062477,9.70249977 L8.80354148,9.67958313 L8.87229141,9.67958313 L8.78062477,9.63270813 Z M8.84937477,9.54104141 L8.82645812,9.51812477 L8.78062477,9.51812477 C8.80874977,9.54520812 8.83895812,9.56812477 8.87229141,9.58687477 L8.84937477,9.54104141 Z M8.41395812,8.78374977 L8.41395812,8.76083312 L8.39104148,8.73791648 L8.36812477,8.73791648 C8.38999977,8.75562477 8.40562477,8.77854148 8.41395812,8.80666648 L8.41395812,8.82958312 L8.39104148,8.82958312 L8.39104148,8.87541641 L8.43687477,8.89937477 L8.48270813,8.87541641 L8.41395812,8.78374977 Z M8.32229148,7.61395814 L8.29937477,7.59104148 L8.29937477,7.56812481 L8.27645812,7.54520815 L8.27645812,7.36083315 L8.25249977,7.36083315 L8.25249977,7.33791648 L8.27645812,7.29312482 L8.25249977,7.22333316 L8.25249977,7.31499982 L8.22958312,7.36083315 L8.25249977,7.40770815 C8.26291648,7.51604148 8.27020812,7.61916648 8.27645812,7.72854148 L8.29937477,7.75145814 L8.29937477,7.7743748 L8.32229148,7.82020812 L8.32229148,7.7056248 L8.34520812,7.75145814 L8.32229148,7.61395814 Z M8.18374977,8.62333312 L8.20666648,8.71499977 C8.22958312,8.73270812 8.24520812,8.75562477 8.25249977,8.78374977 L8.25249977,8.76083312 L8.22958312,8.73791648 L8.20666648,8.64624977 L8.18374977,8.62333312 Z M8.20666648,8.53166648 L8.20666648,8.50874977 L8.18374977,8.46291648 L8.18374977,8.55458312 L8.20666648,8.55458312 L8.20666648,8.53166648 Z M8.13895812,8.82958312 L8.18374977,8.87541641 L8.18374977,8.89937477 L8.20666648,8.87541641 L8.18374977,8.82958312 L8.18374977,8.80666648 L8.13895812,8.76083312 L8.13895812,8.82958312 Z M8.02333312,8.09520812 L8.02333312,8.14104148 L8.04624977,8.14104148 L8.02333312,8.09520812 Z M8.00041648,8.23374977 L7.97749977,8.23374977 C7.90249977,8.00458312 7.84416648,7.77541647 7.79416647,7.54520815 L7.79416647,7.63687481 C7.82124977,7.68479148 7.83791648,7.74104148 7.83999977,7.79729147 L7.81708312,7.79729147 C7.89416648,7.92333312 7.92541648,8.06395812 7.90874977,8.20979148 C7.92645812,8.23270812 7.94937477,8.24833312 7.97749977,8.25562477 L7.97749977,8.27958312 L8.00041648,8.32541648 L8.00041648,8.23374977 Z M7.88583312,7.10874982 L7.88583312,7.08583316 L7.86291648,7.06291649 L7.83999977,7.06291649 L7.81708312,7.08583316 L7.83999977,7.13166649 L7.83999977,7.15562482 L7.86291648,7.15562482 L7.88583312,7.17749982 L7.88583312,7.13166649 L7.90874977,7.10874982 L7.88583312,7.10874982 Z M7.97749977,8.73791648 L8.02333312,8.73791648 C8.00354148,8.67229148 7.97229148,8.61083312 7.93166648,8.55458312 C7.94104148,8.61708313 7.95666648,8.67854148 7.97749977,8.73791648 Z M8.57437477,9.67958312 L8.57437477,9.70249977 L8.62020812,9.72437477 L8.66604148,9.72437477 C8.62854148,9.71187477 8.59729148,9.68895812 8.57437477,9.65562477 L8.57437477,9.63270812 C8.55666648,9.61083312 8.53374977,9.59520812 8.50562477,9.58687477 L8.57437477,9.67958312 Z M7.7712498,7.36083315 C7.73583314,7.28687482 7.7056248,7.20979148 7.67958314,7.13166649 L7.67958314,7.33791648 L7.7024998,7.36083315 L7.7024998,7.40770815 L7.72541648,7.42958315 L7.7712498,7.42958315 L7.74833314,7.40770815 L7.7712498,7.36083315 Z M7.58791648,6.97124983 L7.58791648,6.94729149 L7.56499981,6.94729149 L7.56499981,6.97124983 L7.58791648,7.01708316 L7.58791648,6.97124983 Z M9.90562477,9.79312477 L9.92854141,9.81604141 L9.97437477,9.81604141 L9.90562477,9.74729141 L9.85874977,9.77020812 L9.90562477,9.79312477 Z M11.0754164,8.57749977 L11.098333,8.55458312 L11.0754164,8.55458312 L11.0754164,8.57749977 Z M11.1212497,8.46291648 L11.1441664,8.43999977 L11.098333,8.43999977 L11.098333,8.46291648 L11.1212497,8.46291648 Z M11.2129164,8.23374977 L11.235833,8.23374977 L11.2129164,8.20979148 L11.1899997,8.20979148 L11.2129164,8.23374977 Z M11.2129164,8.71499977 L11.2587497,8.71499977 L11.2587497,8.78374977 L11.235833,8.80666648 L11.235833,8.85249977 L11.2816664,8.85249977 C11.3056247,8.78687477 11.3129164,8.71708312 11.304583,8.64624977 L11.3285414,8.64624977 L11.3285414,8.62333312 L11.304583,8.62333312 L11.3285414,8.60041648 L11.304583,8.60041648 L11.304583,8.57749977 L11.2816664,8.57749977 C11.2806247,8.60874977 11.2722914,8.63999977 11.2587497,8.66916648 L11.2129164,8.66916648 L11.2129164,8.71499977 Z M11.4191664,8.46291648 L11.4191664,8.48583313 L11.442083,8.46291648 L11.442083,8.53166648 L11.4191664,8.53166648 L11.4191664,8.55458312 L11.442083,8.57749977 L11.442083,8.62333312 L11.488958,8.62333312 L11.510833,8.60041648 L11.5347914,8.60041648 L11.5347914,8.62333312 L11.557708,8.60041648 L11.557708,8.53166648 L11.5806247,8.50874977 L11.557708,8.50874977 L11.557708,8.41708312 L11.510833,8.41708312 L11.510833,8.39416648 L11.557708,8.39416648 L11.5347914,8.37124977 L11.488958,8.37124977 L11.4649997,8.34833312 L11.4649997,8.37124977 L11.4191664,8.37124977 L11.4191664,8.39416648 L11.442083,8.39416648 L11.3962497,8.43999977 L11.4337497,8.45874977 L11.4191664,8.46291648 Z M11.4649997,8.69208312 L11.4649997,8.66916648 L11.442083,8.69208312 L11.4649997,8.69208312 Z M11.4649997,8.23374977 L11.4191664,8.23374977 L11.4649997,8.25562477 L11.488958,8.25562477 L11.4649997,8.23374977 Z M11.2587497,8.39416648 L11.235833,8.39416648 L11.2816664,8.41708312 L11.2587497,8.39416648 Z M14.9535413,7.13166649 L14.9535413,7.20145816 L14.976458,7.24729148 L14.976458,7.26916648 C14.9899996,7.24104148 14.9972913,7.20874982 14.9993746,7.17749982 L14.9535413,7.08583316 L14.9535413,7.13166649 Z M24.1545827,7.03999982 L24.2004161,7.03999982 L24.2233327,7.06291649 L24.2004161,7.05145816 L24.2004161,7.06291649 L24.2233327,7.06291649 L24.2462494,7.06291649 L24.2233327,7.03999982 L24.2004161,7.03999982 L24.1545827,7.01708316 L24.1545827,7.03999982 Z M24.3847911,6.85666649 L24.3608327,6.83374983 L24.3379161,6.83374983 L24.3847911,6.85666649 Z M29.0879159,6.7191665 L29.0879159,6.67333316 L29.0649993,6.67333316 L29.0649993,6.69520816 L29.0420826,6.7191665 L29.0879159,6.7191665 Z M29.0879159,6.92541649 L29.0879159,6.87958316 L29.0649993,6.87958316 L29.0879159,6.92541649 Z M29.1795826,6.90249983 L29.2254159,6.90249983 L29.2024993,6.87958316 L29.1795826,6.87958316 L29.1795826,6.90249983 Z M29.4316659,7.06291649 L29.4087493,7.03999982 L29.3858326,7.03999982 L29.4316659,7.06291649 Z M29.5014576,6.97124983 L29.5014576,6.92541649 L29.4774993,6.94729149 L29.5014576,6.97124983 Z M29.6618743,7.17749982 L29.7077076,7.17749982 L29.7077076,7.10874982 L29.6847909,7.10874982 L29.6618743,7.13166649 L29.6149993,7.13166649 L29.6618743,7.17749982 Z M29.7993742,7.20145816 L29.7993742,7.22333316 L29.8212492,7.22333316 L29.8212492,7.17749982 L29.7993742,7.17749982 L29.7993742,7.20145816 Z M31.8879159,3.85041657 L31.8879159,3.82749991 L31.8639575,3.85041657 L31.8879159,3.85041657 Z M31.8639575,3.89624991 L31.8639575,3.91916657 L31.8879159,3.91916657 L31.8879159,3.87333323 L31.8639575,3.87333323 L31.8639575,3.89624991 Z M31.8639575,3.98895823 L31.8879159,3.98895823 L31.8639575,3.9649999 L31.8639575,3.98895823 Z M35.8566658,8.14104148 L35.8795824,8.14104148 L35.8566658,8.11916648 L35.8108324,8.11916648 L35.8566658,8.14104148 Z M35.9483324,8.60041648 L35.9941658,8.60041648 L35.9941658,8.57749977 L35.9483324,8.57749977 L35.9483324,8.60041648 Z M36.8660408,4.26291656 C36.6899991,4.1774999 36.5045824,4.10770823 36.3160408,4.05666656 C35.4743741,4.74104155 34.6649991,5.56291653 35.0993741,6.67333316 L35.0535408,6.64937484 L35.0764574,6.69520816 L35.0535408,6.7191665 L35.0764574,6.74208316 L35.0993741,6.74208316 L35.0993741,6.76499983 L35.1462491,6.76499983 L35.1681241,6.7879165 L35.1681241,6.81083316 L35.2139574,6.85666649 L35.2139574,6.87958316 C35.3368741,7.02541649 35.4545824,7.17749982 35.5587491,7.33791648 L35.5358324,7.33791648 L35.5243741,7.33270815 L35.5587491,7.38374981 L35.5587491,7.42958315 L35.5816658,7.42958315 L35.5816658,7.49937481 L35.6733324,7.49937481 L35.6274991,7.45354148 L35.6733324,7.45354148 L35.6733324,7.47541648 L35.6962491,7.49937481 L35.6962491,7.52124981 L35.6504158,7.52124981 L35.6504158,7.59104148 L35.6733324,7.59104148 L35.7202074,7.63687481 L35.7660408,7.63687481 L35.7660408,7.65979148 L35.8108324,7.61395814 L35.8337491,7.61395814 L35.8337491,7.63687481 L35.8108324,7.63687481 L35.8337491,7.65979148 L35.8566658,7.65979148 C35.8774991,7.70458314 35.9087491,7.7431248 35.9483324,7.7743748 L35.9722908,7.7743748 L35.9941658,7.79729147 L35.9722908,7.82020812 L35.9264574,7.82020812 C35.9077074,7.79833314 35.8858324,7.78166647 35.8566658,7.7743748 L35.8566658,7.79729147 L35.8639574,7.81291648 L35.8337491,7.79729147 L35.8337491,7.7743748 L35.7879158,7.7743748 L35.8108324,7.75145814 L35.7879158,7.75145814 L35.7660408,7.7743748 C35.7931241,7.78166647 35.8160408,7.79833314 35.8337491,7.82020812 L35.8754158,7.83374977 L35.8795824,7.84312477 L35.7879158,7.84312477 L35.7660408,7.86604148 L35.7660408,7.88895812 L35.7879158,7.91187477 L35.7202074,7.91187477 L35.7202074,7.93479148 L35.7420824,7.95770812 L35.6962491,7.95770812 L35.7420824,7.98166648 L35.8337491,7.98166648 L35.8337491,7.95770812 L35.8566658,7.93479148 L35.9024991,7.93479148 L35.9264574,7.98166648 L35.9483324,7.98166648 L35.9722908,8.00354148 L36.0858324,8.00354148 C36.1097908,8.02229148 36.1243741,8.04416648 36.1327074,8.07333312 L36.0639574,8.04937477 L36.1097908,8.09520812 L36.0639574,8.09520812 L36.0639574,8.11916648 L36.0181241,8.11916648 L36.0181241,8.14104148 L36.0639574,8.16395812 L36.0858324,8.16395812 L36.1097908,8.18791648 L36.1327074,8.18791648 L36.2004158,8.25562477 L36.1785408,8.25562477 L36.1327074,8.23374977 L36.0858324,8.23374977 L36.0639574,8.20979148 L36.0399991,8.20979148 C36.0129158,8.20249977 35.9889574,8.18687477 35.9722908,8.16395812 L35.9254158,8.16395812 C35.9712491,8.19520813 36.0181241,8.22645812 36.0639574,8.25562477 C36.0952074,8.25770812 36.1264574,8.26604148 36.1556241,8.27958312 C36.1702074,8.29833312 36.1889574,8.31187477 36.2118741,8.31916648 C36.2431241,8.36395812 36.2712491,8.41291648 36.2920824,8.46291648 L36.2702074,8.46291648 L36.2243741,8.43999977 L36.2004158,8.39416648 L36.1785408,8.39416648 C36.1285408,8.36812477 36.0827074,8.33687477 36.0399991,8.30145812 L35.9941658,8.32541648 L36.0181241,8.32541648 L36.0399991,8.37124977 L36.0181241,8.34833312 L35.9722908,8.37124977 L35.9722908,8.39416648 L36.0181241,8.39416648 L36.0181241,8.48583312 L35.9941658,8.48583312 L35.9941658,8.46291648 L35.9722908,8.46291648 L35.9722908,8.48583312 L36.0181241,8.53166648 L36.0399991,8.60041648 L36.0181241,8.60041648 L35.9722908,8.62333312 C34.9795824,8.62020812 33.8233325,7.35874981 33.7399991,6.41395817 L33.7004159,6.46708317 L33.5858325,6.48895817 C33.2837491,6.25979151 33.1816659,5.60041652 33.0660409,5.25249987 C32.8743741,4.67749988 32.7024992,4.15666656 32.4149992,3.62124991 L32.4149992,3.57541658 C32.3504159,3.47333325 32.2743742,3.38166659 32.1858325,3.30041659 L32.1399992,3.30041659 L32.1399992,3.27645825 L32.0941659,3.27645825 L32.0472909,3.34520825 L32.0254159,3.34520825 L32.0254159,3.39104158 L31.9795825,3.43687491 L31.9795825,3.55249991 L31.9337492,3.55249991 L31.9337492,3.52958324 L31.8879159,3.52958324 L31.8639575,3.55249991 L31.8410409,3.55249991 L31.8181242,3.52958324 L31.7952075,3.52958324 L31.7952075,3.59833324 L31.7733325,3.64416658 L31.7952075,3.66708324 L31.7952075,3.64416658 L31.8181242,3.62124991 L31.8181242,3.64416658 L31.7952075,3.68999991 L31.7952075,3.80458323 L31.8181242,3.80458323 L31.8181242,3.75874991 L31.8410409,3.75874991 L31.8639575,3.73583324 L31.8879159,3.75874991 L31.8639575,3.78166657 L31.8879159,3.80458323 L31.8879159,3.78166657 L31.9097909,3.78166657 L31.9097909,3.82749991 L31.9337492,3.85041657 L31.9097909,3.87333323 C31.9212492,4.0681249 31.9202075,4.26291656 31.8639575,4.44729155 C31.8347909,4.86395821 31.7618742,5.29416653 31.7493742,5.70874986 C31.7368742,6.12541652 31.9108325,6.5504165 31.7493742,6.94729149 C31.5795826,7.09937482 31.3545826,7.12333316 31.1535409,7.01708316 C30.6264576,6.45770817 30.5993742,5.75145819 30.4191659,5.04312487 C30.2754159,4.47854155 29.7358326,3.51812491 29.1337493,3.34520825 C28.7441659,3.71916657 29.0524993,4.96916654 29.1566659,5.43374987 C29.3556243,6.31812484 29.8202076,6.34208317 30.3035409,6.94729149 L30.3035409,7.06291649 L30.2577076,7.06291649 L30.2577076,7.03999982 L30.2347909,7.03999982 L30.2118742,7.06291649 L30.2118742,7.08583316 L30.1670826,7.08583316 L30.2118742,7.10874982 L30.2118742,7.13166649 L30.1431242,7.13166649 L30.0514576,7.08583316 L30.0514576,7.06291649 L30.0295826,7.03999982 L30.0295826,7.01708316 L30.0056242,6.99416649 L29.9827076,6.99416649 L29.9827076,7.01708316 L30.0056242,7.03999982 L29.9139576,7.03999982 L29.9368742,7.01708316 L29.9368742,6.99416649 L29.8910409,6.99416649 L29.8910409,7.03999982 L29.8681242,7.01708316 L29.8452076,7.03999982 L29.8681242,7.03999982 L29.8681242,7.06291649 L29.8910409,7.06291649 L29.8910409,7.08583316 L29.8681242,7.10874982 L29.8681242,7.15562482 L29.8910409,7.15562482 L29.8910409,7.17749982 L29.9139576,7.15562482 L29.9139576,7.13166649 L29.9597909,7.15562482 L29.9368742,7.15562482 L29.9368742,7.17749982 L29.9139576,7.17749982 L29.9139576,7.20145816 L29.9368742,7.20145816 L29.9368742,7.17749982 L29.9597909,7.17749982 L29.9597909,7.24729148 L29.9827076,7.26916648 L30.0056242,7.24729148 L30.0514576,7.26916648 L30.0754159,7.26916648 L30.0754159,7.24729148 L30.0972909,7.24729148 L30.1212492,7.22333316 L30.1431242,7.22333316 L30.1431242,7.17749982 L30.1733326,7.19312482 L30.1670826,7.20145816 L30.1889576,7.20145816 L30.1889576,7.29312482 L30.1670826,7.31499982 C30.0910409,7.29416648 30.0149992,7.28687482 29.9368742,7.29312482 L29.9139576,7.26916648 L29.8910409,7.26916648 L29.8910409,7.24729148 L29.8212492,7.24729148 L29.7993742,7.26916648 L29.6618743,7.26916648 L29.6618743,7.24729148 L29.6149993,7.24729148 L29.5931243,7.22333316 L29.5743743,7.22333316 L29.5931243,7.38374981 L29.5472909,7.38374981 L29.5233326,7.36083315 L29.5233326,7.33791648 L29.5014576,7.33791648 L29.5014576,7.26916648 L29.5233326,7.24729148 L29.5233326,7.22333316 L29.4087493,7.22333316 L29.4316659,7.20145816 L29.4316659,7.15562482 L29.4087493,7.17749982 L29.4087493,7.15562482 L29.3629159,7.15562482 L29.3858326,7.20145816 L29.3629159,7.20145816 L29.3410409,7.18895816 L29.3410409,7.17749982 L29.3629159,7.13166649 L29.3629159,7.10874982 L29.3410409,7.08583316 L29.3410409,7.10874982 L29.2827076,7.10874982 L29.2712493,7.08583316 L29.2024993,7.08583316 L29.2493743,7.13166649 C29.1879159,7.11395816 29.1254159,7.09833316 29.0649993,7.08583316 L29.0649993,7.15562482 C29.0879159,7.17749982 29.1108326,7.20145816 29.1337493,7.22333316 L29.0879159,7.22333316 L29.1108326,7.24729148 L29.1337493,7.22333316 L29.1795826,7.22333316 L29.1795826,7.26916648 L29.2952076,7.26916648 L29.2952076,7.29312482 L29.3170826,7.29312482 L29.3170826,7.31499982 L29.4316659,7.31499982 L29.4316659,7.33791648 L29.5014576,7.33791648 L29.4774993,7.36083315 L29.4556243,7.36083315 L29.5233326,7.38374981 L29.5472909,7.40770815 L29.5014576,7.40770815 L29.4556243,7.38374981 L29.3629159,7.38374981 L29.3629159,7.36083315 L29.3410409,7.36083315 L29.3170826,7.33791648 L29.2493743,7.33791648 L29.2254159,7.31499982 L29.2024993,7.31499982 L29.2254159,7.33791648 L29.0420826,7.24729148 L29.0191659,7.24729148 L28.9952076,7.22333316 L28.9952076,7.20145816 L28.9733326,7.20145816 L28.9733326,7.17749982 L28.9504159,7.17749982 L28.9504159,7.20145816 L28.9274993,7.20145816 L28.9274993,7.17749982 L28.8816659,7.15562482 L28.8587493,7.15562482 L28.8358326,7.13166649 L28.8129159,7.13166649 L28.8129159,7.08583316 L28.7431243,7.03999982 L28.7212493,7.03999982 L28.6754159,7.01708316 L28.6514576,7.01708316 L28.5608327,6.92541649 L28.5368743,6.94729149 L28.5368743,6.92541649 L28.5149993,6.92541649 L28.5368743,6.90249983 L28.5149993,6.87958316 L28.5827077,6.87958316 L28.6056243,6.92541649 L28.6295827,6.92541649 L28.6754159,6.97124983 L28.7431243,6.97124983 L28.7670826,7.01708316 L28.8129159,7.03999982 L28.8358326,7.03999982 L28.7889576,7.01708316 L28.8129159,7.01708316 L28.8129159,6.97124983 L28.8587493,6.99416649 L28.8587493,7.01708316 L28.8358326,7.01708316 L28.8587493,7.03999982 L28.8816659,7.03999982 L28.9045826,7.01708316 L28.9045826,6.99416649 L28.8816659,6.99416649 C28.8889576,6.98687483 28.8972909,6.97958316 28.9045826,6.97124983 C28.9118743,6.96395816 28.9191659,6.95562483 28.9274993,6.94729149 L28.9504159,6.92541649 L28.9274993,6.92541649 L28.9274993,6.94729149 L28.9045826,6.94729149 L28.9045826,6.97124983 L28.8587493,6.94729149 L28.8587493,6.92541649 L28.8816659,6.90249983 L28.8816659,6.87958316 L28.8587493,6.85666649 L28.8587493,6.83374983 L28.7889576,6.83374983 L28.7889576,6.81083316 L28.8129159,6.7879165 L28.7670826,6.76499983 L28.7431243,6.76499983 L28.7431243,6.74208316 L28.6972909,6.74208316 L28.6972909,6.76499983 C28.7035409,6.7879165 28.7149993,6.80770816 28.7327076,6.82124983 L28.7212493,6.83374983 L28.7431243,6.87958316 L28.7431243,6.90249983 L28.6972909,6.87958316 L28.6972909,6.7879165 L28.6754159,6.7879165 L28.6514576,6.76499983 L28.6514576,6.74208316 L28.6754159,6.74208316 L28.6754159,6.69520816 L28.6295827,6.69520816 L28.6514576,6.7191665 L28.6514576,6.74208316 L28.6295827,6.74208316 L28.5608327,6.67333316 L28.6514576,6.67333316 L28.6514576,6.64937484 L28.6295827,6.64937484 L28.6295827,6.6035415 L28.6056243,6.6035415 L28.6056243,6.62749984 L28.5827077,6.62749984 L28.5608327,6.64937484 L28.5608327,6.67333316 L28.5608327,6.69520816 L28.5368743,6.69520816 L28.5149993,6.64937484 L28.4910409,6.64937484 L28.4452077,6.6035415 L28.4452077,6.5816665 L28.4222909,6.5816665 L28.3764577,6.55770817 L28.3764577,6.5347915 L28.3879159,6.5129165 L28.3993743,6.5347915 L28.3993743,6.48895817 L28.3879159,6.5129165 L28.3764577,6.48895817 L28.3535409,6.48895817 L28.3535409,6.5129165 L28.3306243,6.5347915 L28.3077077,6.5347915 L28.2899993,6.5129165 L28.3306243,6.5129165 L28.2847909,6.48895817 L28.2712493,6.48895817 L28.2899993,6.5129165 L28.2847909,6.5129165 L28.2847909,6.5347915 L28.2618743,6.5347915 L28.2618743,6.47749984 C28.0441659,6.23166651 27.9087493,5.93062485 27.7899993,5.62749986 L27.7108327,5.64104152 C27.4327077,5.42854153 27.409791,4.97124987 27.2389577,4.67229155 C27.059791,4.35979155 26.781666,4.11604156 26.541041,3.85041657 C26.091041,3.35562491 25.6452077,2.63687494 24.8774994,2.68062493 C23.4608327,2.76083327 24.1504161,5.98166652 25.1868744,6.25979151 L25.2108327,6.28270818 L25.256666,6.28270818 L25.3243744,6.23687484 C25.3149994,5.93062485 25.2806244,5.6264582 25.278541,5.31916653 C25.456666,5.21187487 25.6681244,5.1920832 25.875416,5.2045832 L26.0368744,5.29624987 C26.600416,6.04312485 26.1962494,7.11604149 25.3483327,7.38374981 L25.3483327,7.06291649 L25.3702077,7.03999982 L25.3483327,7.03999982 L25.3702077,7.01708316 L25.3702077,6.99416649 L25.3024994,6.99416649 L25.3024994,6.97124983 L25.256666,6.99416649 L25.256666,6.97124983 L25.1868744,6.97124983 L25.2108327,6.92541649 L25.141041,6.92541649 L25.1181244,6.94729149 L25.0264577,6.94729149 L25.072291,6.97124983 L25.0493744,6.97124983 L25.0608327,6.98270816 C25.0493744,6.99104149 25.0420827,7.00249983 25.037916,7.01708316 L25.003541,7.01708316 L25.003541,6.99416649 C24.9649994,6.99104149 24.925416,6.98374983 24.8889577,6.97124983 L24.9806244,6.97124983 L24.9806244,6.94729149 C24.962916,6.92541649 24.9399994,6.90979149 24.9118744,6.90249983 L24.9806244,6.90249983 L24.9806244,6.87958316 L24.8889577,6.87958316 L24.866041,6.85666649 L24.9577077,6.85666649 L24.934791,6.83374983 L24.866041,6.83374983 L24.8431244,6.85666649 L24.8202077,6.83374983 L24.797291,6.83374983 L24.8202077,6.85666649 L24.8431244,6.85666649 L24.866041,6.85666649 L24.866041,6.87958316 L24.8889577,6.87958316 L24.8889577,6.90249983 L24.866041,6.90249983 L24.866041,6.92541649 L24.8889577,6.94729149 L24.8202077,6.94729149 L24.8202077,6.99416649 L24.8431244,7.01708316 L24.797291,6.99416649 L24.7743744,6.99416649 L24.7743744,6.97124983 L24.6827077,6.87958316 L24.612916,6.87958316 L24.591041,6.85666649 L24.4524994,6.85666649 L24.4524994,6.83374983 L24.4306244,6.83374983 L24.4306244,6.85666649 L24.4524994,6.85666649 L24.4983327,6.90249983 L24.4524994,6.87958316 L24.4306244,6.87958316 L24.4306244,6.90249983 L24.4524994,6.90249983 C24.4712494,6.92541649 24.4931244,6.94104149 24.522291,6.94729149 L24.4983327,6.97124983 L24.4524994,6.97124983 L24.4066661,6.94729149 L24.4066661,6.92541649 L24.3847911,6.90249983 L24.3608327,6.90249983 C24.3441661,6.87958316 24.3202077,6.86395816 24.2920827,6.85666649 L24.3149994,6.90249983 C24.2920827,6.87958316 24.2691661,6.85666649 24.2462494,6.83374983 L24.2004161,6.83374983 L24.2004161,6.85666649 L24.1545827,6.85666649 L24.1545827,6.87958316 L24.1774994,6.87958316 L24.2004161,6.90249983 L24.2004161,6.93687483 L24.2233327,6.94729149 L24.2233327,6.97124983 L24.2004161,6.94729149 L24.1774994,6.94729149 L24.1774994,6.97124983 C24.1952077,6.99312483 24.2191661,7.00874983 24.2462494,7.01708316 L24.2920827,7.01708316 L24.3149994,7.03999982 L24.2920827,7.03999982 L24.2920827,7.06291649 L24.2691661,7.06291649 L24.3149994,7.10874982 C24.2774994,7.10145816 24.2379161,7.09312482 24.2004161,7.08583316 L24.0629161,7.01708316 L24.0399994,7.01708316 L24.0170827,6.99416649 L23.9941661,6.99416649 C23.9629161,6.97958316 23.9327077,6.96395816 23.9024994,6.94729149 L23.9483327,6.94729149 L23.9941661,6.97124983 L24.0629161,6.97124983 L24.0399994,6.94729149 L24.0170827,6.94729149 L24.0170827,6.92541649 L23.9941661,6.92541649 L23.9941661,6.90249983 C23.9524994,6.88687483 23.9129161,6.86291649 23.8785411,6.83374983 L23.9024994,6.83374983 L23.9024994,6.81083316 L23.9483327,6.81083316 L23.9483327,6.7879165 L23.8785411,6.7879165 L23.8785411,6.76499983 L23.8566661,6.74208316 L23.8566661,6.7879165 L23.8327077,6.76499983 L23.8327077,6.74208316 L23.8108327,6.7191665 L23.8108327,6.67333316 L23.7868744,6.67333316 L23.8108327,6.64937484 L23.8108327,6.55770817 L23.7868744,6.5347915 L23.7420827,6.5347915 L23.7181244,6.46708317 L23.6722911,6.44312484 L23.6504161,6.44312484 C23.6972911,6.48166651 23.7368744,6.5285415 23.7649994,6.5816665 L23.7649994,6.67333316 L23.7420827,6.67333316 L23.7420827,6.7191665 L23.6962494,6.7191665 L23.6962494,6.76499983 L23.7420827,6.76499983 L23.7649994,6.74208316 L23.7868744,6.76499983 L23.8108327,6.76499983 L23.8327077,6.7879165 L23.8327077,6.81083316 L23.8566661,6.81083316 L23.8566661,6.7879165 L23.8785411,6.7879165 L23.8785411,6.83374983 L23.8785411,6.97124983 L23.8327077,6.97124983 L23.6722911,6.87958316 L23.6504161,6.87958316 L23.6045827,6.85666649 L23.6045827,6.87958316 L23.5806244,6.87958316 L23.5577077,6.85666649 L23.5577077,6.83374983 L23.6045827,6.83374983 L23.6045827,6.81083316 L23.5806244,6.81083316 L23.5577077,6.7879165 L23.5347911,6.7879165 L23.5577077,6.76499983 C23.5389577,6.71083316 23.5077077,6.66499984 23.4660411,6.62749984 L23.4660411,6.6035415 L23.4431244,6.5816665 L23.4660411,6.5816665 C23.4285411,6.52020817 23.3827077,6.46812484 23.3285411,6.42124984 L23.3056245,6.42124984 L23.3056245,6.35145817 L23.2827077,6.35145817 C23.2743745,6.32333317 23.2597911,6.30041651 23.2368745,6.28270818 L23.2524995,6.28270818 L23.2785411,6.29624984 L23.2827077,6.30562484 L23.2827077,6.32958317 L23.2941661,6.31708317 L23.2889577,6.30249984 L23.3014577,6.30979151 L23.3056245,6.30562484 L23.3056245,6.25979151 L23.2597911,6.21395818 L23.2827077,6.21395818 C23.2847911,6.17437484 23.2764577,6.13583318 23.2597911,6.09937484 L23.2597911,6.16812484 L23.2368745,6.14520818 L23.2139577,6.14520818 L23.2139577,6.09937484 L23.1910411,6.05354152 L23.1441661,6.03062485 L23.1441661,6.05354152 L23.1681245,6.07645818 L23.1681245,6.09937484 L23.1441661,6.07645818 L23.1222911,6.09937484 L23.0983327,6.05354152 L23.0764577,6.05354152 L23.0556245,5.97437485 C22.9858327,5.98062485 22.9160411,5.99208318 22.8462495,6.00770818 C22.5452077,5.77749986 22.4420827,5.11916654 22.3264578,4.77020821 C22.1368745,4.1962499 21.9639578,3.67437491 21.6764578,3.13895826 L21.6764578,3.09312492 L21.5618745,2.93270826 L21.3316662,2.95562493 C20.7274995,4.1118749 21.3004162,5.19624987 20.9879162,6.37541651 L20.9660412,6.37541651 L20.9660412,6.23687484 L20.9420828,6.21395818 L20.9191662,6.21395818 L20.9191662,6.28270818 L20.9420828,6.28270818 L20.9420828,6.37541651 L20.9191662,6.35145817 L20.8962495,6.35145817 L20.8962495,6.28270818 L20.8733328,6.28270818 L20.8733328,6.25979151 L20.8504162,6.25979151 L20.8274995,6.23687484 L20.8274995,6.25979151 L20.8045828,6.25979151 L20.8045828,6.30562484 L20.7816662,6.30562484 L20.7816662,6.28270818 L20.8045828,6.23687484 L20.8045828,6.16812484 L20.8504162,6.16812484 L20.8733328,6.19104152 L20.8504162,6.21395818 L20.8733328,6.21395818 L20.8733328,6.19104152 L20.8733328,6.16812484 L20.8504162,6.16812484 L20.8504162,6.07645818 L20.8274995,6.07645818 L20.8274995,6.12229152 L20.8045828,6.09937484 L20.8045828,5.89312485 L20.7816662,5.84729152 L20.7816662,5.75562486 L20.8045828,5.75562486 L20.8045828,5.68687486 L20.8274995,5.66291652 L20.8274995,5.70874986 L20.8733328,5.70874986 L20.8733328,5.66291652 L20.8962495,5.66291652 L20.8962495,5.5952082 L20.8733328,5.57124986 L20.8733328,5.54937486 L20.8504162,5.54937486 L20.8274995,5.50249986 L20.8274995,5.43374987 L20.8045828,5.43374987 L20.8045828,5.57124986 L20.7816662,5.57124986 L20.7816662,5.36499987 L20.7587495,5.36499987 L20.7587495,5.4108332 L20.7472912,5.42229153 L20.7358328,5.4108332 L20.7358328,5.43374987 L20.7129162,5.43374987 L20.6899995,5.4108332 L20.7129162,5.38791653 L20.7129162,5.36499987 L20.7358328,5.36499987 L20.7358328,5.3420832 L20.7587495,5.31916653 L20.7587495,5.3420832 L20.7816662,5.3420832 L20.7816662,5.31916653 L20.7587495,5.31916653 L20.7587495,5.29624987 L20.7358328,5.29624987 L20.7358328,5.3420832 L20.7129162,5.36499987 L20.6899995,5.36499987 C20.6691662,5.40874987 20.6618745,5.4545832 20.6670828,5.50249986 L20.6899995,5.54937486 L20.6899995,5.52541653 L20.7129162,5.50249986 L20.7129162,5.68687486 L20.7160412,5.68687486 L20.7358328,5.80145819 L20.7587495,5.80145819 L20.7587495,5.84729152 L20.7358328,5.84729152 L20.7587495,5.89312485 L20.7587495,5.98479152 L20.7358328,5.98479152 L20.7358328,6.03062485 L20.7587495,6.03062485 L20.7358328,6.05354152 L20.7587495,6.07645818 L20.7587495,6.16812484 C20.7327078,6.12645818 20.7170828,6.07854152 20.7129162,6.03062485 L20.6899995,6.00770818 L20.6899995,5.82333319 L20.6670828,5.82333319 L20.6670828,5.77749986 L20.6899995,5.75562486 L20.6899995,5.68687486 L20.6670828,5.66291652 L20.6670828,5.5952082 L20.6441662,5.57124986 L20.6441662,5.4795832 C20.6285412,5.46499987 20.6129162,5.44937487 20.5972912,5.43374987 C20.5774995,5.47749986 20.5702078,5.5233332 20.5754162,5.57124986 L20.5524995,5.52541653 L20.5295828,5.52541653 L20.5295828,5.5952082 L20.5524995,5.6170832 L20.5524995,5.96187485 L20.5754162,5.96187485 L20.5754162,6.12229152 L20.5972912,6.14520818 L20.5972912,6.28270818 L20.5754162,6.23687484 L20.5754162,6.21395818 L20.5524995,6.21395818 L20.5524995,6.23687484 L20.5754162,6.25979151 L20.5754162,6.32958317 L20.5524995,6.35145817 L20.5524995,6.37541651 L20.5295828,6.37541651 C20.5452078,6.46812484 20.5597912,6.5566665 20.5754162,6.64937484 L20.5524995,6.64937484 L20.5524995,6.76499983 L20.5754162,6.7879165 L20.5754162,6.76499983 L20.5972912,6.74208316 L20.6202078,6.74208316 C20.6420828,6.87645816 20.6504162,7.01499983 20.6441662,7.15562482 L20.6670828,7.10874982 C20.6858328,7.14208316 20.7087495,7.17333316 20.7358328,7.20145816 C20.6233328,7.25979148 20.5087495,7.31291648 20.3910412,7.36083315 L20.2993745,7.33791648 C19.9816662,6.97020816 19.8327078,6.50770817 19.7754162,6.03062485 C19.7254162,6.06708318 19.6691662,6.09833318 19.6118745,6.12229152 C19.1639579,5.91083319 19.1910412,5.41604153 19.0493745,5.00874987 C18.8691662,4.49208322 18.6420829,3.76187491 18.2806245,3.34520825 L18.1202079,3.34520825 C18.0233329,3.55354158 17.9931245,3.78687491 17.9587495,4.01083323 L17.9358329,4.01083323 C17.9389579,4.19833323 17.9358329,4.38583323 17.9264579,4.57229155 L17.9129162,4.58479155 L17.9129162,4.60770822 L17.9243745,4.60770822 C17.9191662,4.67020822 17.9233329,4.73166655 17.9358329,4.79104155 L17.9191662,4.70562488 C17.8993745,4.83374988 17.8899995,4.95874987 17.8899995,5.0889582 L17.9129162,5.11291654 C17.8910412,5.1639582 17.8837495,5.2170832 17.8899995,5.2733332 L17.8670829,5.2733332 L17.8670829,5.29624987 L17.8899995,5.29624987 C17.9233329,6.03999985 17.7983329,7.17645816 16.9733329,7.38374981 C16.013958,7.62541648 15.5118746,6.53583317 15.113958,5.84729152 L15.045208,5.82333319 C15.035833,6.09312485 14.9910413,6.35770817 14.9993746,6.62749984 L14.976458,6.62749984 L14.976458,6.55770817 C14.9274996,6.48687484 14.888958,6.40979151 14.8618746,6.32958317 L14.8618746,6.5347915 C14.8691663,6.5629165 14.8847913,6.58687484 14.907708,6.6035415 L14.907708,6.67333316 L14.9993746,6.67333316 L14.9993746,6.69520816 L14.9535413,6.7191665 L14.9535413,6.87958316 L14.9306246,6.92541649 L14.907708,6.90249983 L14.907708,7.20145816 C14.9306246,7.13374982 14.9462496,7.06499982 14.9535413,6.99416649 L14.9535413,7.06291649 L14.976458,7.06291649 L14.976458,6.97124983 C14.9972913,7.14729148 15.020208,7.32854148 15.045208,7.49937481 C15.0274996,7.53583315 15.020208,7.57437481 15.0222913,7.61395814 L14.9993746,7.61395814 L14.9993746,7.54520815 L14.976458,7.52124981 L14.976458,7.33791648 L14.9535413,7.45354148 L14.9306246,7.47541648 C14.945208,7.49104148 14.960833,7.50666648 14.976458,7.52124981 L14.976458,8.79520812 L14.9535413,8.80666648 L14.976458,8.82229148 C14.9774996,9.01604141 14.9660413,9.20979141 14.9535413,9.40354141 L14.9306246,9.38062477 L14.907708,9.31187477 L14.9306246,9.28895812 L14.9306246,9.22020812 L14.907708,9.22020812 L14.907708,9.24312477 L14.8847913,9.24312477 L14.8847913,9.26604141 L14.838958,9.33479141 C14.8587496,9.29104141 14.867083,9.24520812 14.8618746,9.19729141 L14.8847913,9.17437477 L14.8618746,9.12854141 L14.8160413,9.12854141 L14.8160413,9.40354141 L14.838958,9.42645812 L14.838958,9.54104141 L14.8847913,9.47229141 L14.907708,9.49520812 C14.9035413,9.54104141 14.8962496,9.58791641 14.8847913,9.63270813 L14.8618746,9.58687477 C14.8347913,9.61499977 14.8118746,9.64520812 14.7931246,9.67958312 L14.7931246,9.70249977 L14.8160413,9.72437477 L14.7931246,9.74729141 L14.8160413,9.79312477 L14.8160413,9.83895812 L14.7931246,9.83895812 L14.7931246,9.88583312 L14.770208,9.88583312 L14.7472913,9.90874977 L14.7472913,9.93166641 L14.723333,9.95458305 L14.723333,10.023333 C14.701458,10.0056248 14.685833,9.98270805 14.6774996,9.95458305 L14.7004163,9.90874977 L14.7004163,9.88583312 L14.6774996,9.86187477 L14.654583,9.86187477 L14.6316663,9.83895812 L14.6087496,9.83895812 L14.6087496,9.81604141 L14.563958,9.77020812 L14.5410413,9.77020812 L14.5410413,9.83895812 L14.517083,9.81604141 L14.4712496,9.86187477 L14.4712496,9.97749977 L14.448333,10.023333 L14.448333,10.0462498 L14.4712496,10.0691664 C14.4524996,10.1368748 14.445208,10.2056248 14.448333,10.2754164 L14.4254163,10.298333 L14.4254163,10.1149998 L14.4024996,10.0691664 C14.4004163,10.0285414 14.4087496,9.98999977 14.4254163,9.95458305 L14.4024996,9.93166641 L14.4024996,9.77020812 L14.379583,9.77020812 L14.379583,9.74729141 L14.4254163,9.77020812 C14.4056246,9.73374977 14.3899996,9.69624977 14.379583,9.65562477 L14.4024996,9.63270813 L14.4024996,9.60979141 L14.379583,9.56395812 L14.379583,9.65562477 L14.3566663,9.70249977 L14.379583,9.67958312 L14.379583,9.72437477 L14.3566663,9.74729141 L14.3566663,10.298333 L14.3337496,10.298333 L14.3337496,10.0462498 L14.310833,10.0691664 C14.3024996,10.1222914 14.285833,10.1785414 14.2649996,10.229583 L14.1962496,10.298333 C14.182708,10.3274998 14.1743746,10.3587498 14.173333,10.3899998 C14.151458,10.3316664 14.1441663,10.2691664 14.1504163,10.2066664 L14.173333,10.229583 L14.2035413,10.1993748 L14.1962496,10.1837498 L14.2191663,10.1837498 L14.2191663,10.160833 L14.242083,10.1379164 C14.245208,10.035833 14.260833,9.93687477 14.2879163,9.83895812 L14.2191663,9.81604141 L14.2191663,9.88583312 L14.1962496,9.93166641 L14.173333,9.93166641 L14.173333,9.90874977 L14.1274996,9.88583312 L14.0816663,9.88583312 L14.0587497,9.90874977 L14.104583,9.90874977 L14.104583,9.93166641 L14.0816663,9.93166641 L14.0816663,9.95458305 L14.035833,9.93166641 L14.035833,10.0004164 L13.9899997,10.0462498 L14.035833,10.0462498 L14.035833,10.0691664 L13.967083,10.160833 L13.9441663,10.1379164 C13.9118747,9.69104141 13.7660413,9.26812477 13.6910413,8.82958312 C13.4535413,7.84104148 13.570208,6.66083316 13.538958,5.64416652 C12.773333,5.0889582 12.7472913,3.75770824 12.1087497,3.04729159 C11.1774997,2.01291662 10.082708,2.49312494 9.68791641,3.66916658 C9.38687477,4.56916655 9.47854141,5.58791652 9.56083312,6.5129165 C9.62749977,7.25354148 9.80562477,8.65041648 10.432708,9.12854141 L10.5254164,9.12854141 C11.029583,8.74208313 10.757708,8.10874977 10.8462498,7.59104148 L10.9149998,7.54520815 L11.0754164,7.54520815 L11.0754164,7.56812481 L11.1441664,7.56812481 L11.1441664,7.59104148 L11.098333,7.59104148 L11.098333,7.61395814 L11.1441664,7.61395814 L11.1441664,7.63687481 L11.1899997,7.63687481 L11.1899997,7.72854148 C11.2993747,7.77541647 11.4160414,7.80041647 11.5347914,7.79729147 L11.5347914,7.82020812 L11.510833,7.84312477 L11.5347914,7.86604148 L11.510833,7.88895812 L11.510833,7.91187477 L11.5004164,7.91187477 L11.510833,7.93479148 L11.4962497,7.91187477 L11.4649997,7.91187477 L11.4837497,7.89416648 L11.4649997,7.86604148 L11.4649997,7.88895812 L11.442083,7.88895812 L11.442083,7.93479148 L11.4649997,7.93479148 L11.4649997,7.95770812 L11.488958,7.95770812 L11.488958,7.93479148 L11.510833,7.93479148 L11.5347914,7.95770812 L11.523333,7.93479148 L11.6035414,7.93479148 L11.6493747,7.88895812 L11.626458,7.88895812 L11.626458,7.86604148 L11.6493747,7.86604148 L11.6493747,7.84312477 L11.6722914,7.84312477 L11.695208,7.86604148 L11.7181247,7.86604148 L11.7181247,7.98166648 L11.7410414,7.98166648 L11.7410414,8.02749977 L11.7181247,8.02749977 L11.695208,8.04937477 L11.6493747,8.04937477 L11.626458,8.09520812 L11.6493747,8.07333312 L11.6722914,8.07333312 C11.6722914,8.16604148 11.6879164,8.25979148 11.7181247,8.34833312 L11.763958,8.39416648 L11.7410414,8.39416648 L11.763958,8.41708312 L11.6722914,8.41708312 C11.688958,8.37958312 11.6972914,8.34208312 11.695208,8.30145812 L11.6722914,8.27958312 L11.6493747,8.27958312 L11.626458,8.30145812 L11.6493747,8.32541648 L11.6493747,8.34833312 L11.626458,8.37124977 L11.6493747,8.37124977 C11.626458,8.38895812 11.6118747,8.41187477 11.6035414,8.43999977 L11.626458,8.46291648 L11.626458,8.57749977 L11.6035414,8.60041648 L11.626458,8.62333312 L11.6493747,8.62333312 L11.626458,8.66916648 L11.5806247,8.66916648 L11.6035414,8.64624977 L11.557708,8.64624977 L11.5347914,8.64624977 L11.5347914,8.66916648 L11.557708,8.64624977 L11.557708,8.66916648 L11.5806247,8.66916648 L11.557708,8.69208312 L11.5347914,8.69208312 L11.5347914,8.71499977 L11.510833,8.73791648 L11.5347914,8.73791648 L11.5347914,8.71499977 L11.5806247,8.71499977 L11.5806247,8.73791648 L11.6035414,8.73791648 L11.626458,8.71499977 L11.626458,8.69208312 L11.6722914,8.66916648 L11.6722914,8.71499977 L11.695208,8.71499977 L11.695208,8.73791648 L11.6722914,8.73791648 L11.6722914,8.76083313 L11.695208,8.76083313 L11.7181247,8.73791648 L11.7410414,8.73791648 L11.763958,8.71499977 L11.7868747,8.71499977 C11.6399997,9.21291641 11.2535414,9.84208312 10.782708,10.0931248 C10.263958,10.370208 9.70874977,10.1535414 9.17124977,10.3212498 L9.12541641,10.2754164 L9.12541641,10.2524998 C9.10979141,10.2222914 9.09416641,10.1910414 9.07854141,10.160833 C9.03791641,10.1274998 8.99208312,10.104583 8.94208312,10.092083 C8.97541641,10.2004164 9.03062477,10.3035414 9.10249977,10.3899998 C9.05562477,10.3597914 9.00979141,10.329583 8.96499977,10.298333 L8.98687477,10.298333 L8.98687477,10.2524998 C8.89624977,10.173333 8.81499977,10.092083 8.73479148,10.0004164 L8.68895812,10.0004164 C8.72020812,10.0254164 8.74312477,10.054583 8.75770812,10.092083 C8.74312477,10.076458 8.72749977,10.060833 8.71187477,10.0462498 L8.64312477,10.0462498 L8.68895812,10.092083 L8.71187477,10.092083 L8.73479148,10.1379164 L8.73479148,10.160833 C8.21395812,9.61083312 7.86187477,8.93166641 7.7024998,8.18791648 C7.67541648,8.12541648 7.65562481,8.05979148 7.64520814,7.99208312 L7.65666648,8.00354148 L7.7024998,8.00354148 L7.72541648,8.02749977 L7.72541648,8.04937477 L7.7024998,8.04937477 L7.7024998,8.09520812 C7.72854148,8.16187477 7.75145814,8.23166648 7.7712498,8.30145812 L7.79416647,8.30145812 C7.8024998,8.35041648 7.81708312,8.39729148 7.83999977,8.43999977 L7.83999977,8.46291648 L7.86291648,8.46291648 C7.85458312,8.35770812 7.82333312,8.25562477 7.7712498,8.16395812 L7.74833314,8.16395812 C7.75041648,8.12437477 7.7431248,8.08583313 7.72541648,8.04937477 L7.74833314,8.07333312 L7.74833314,8.00354148 L7.72541648,7.95770812 L7.72541648,7.93479148 L7.67958314,7.93479148 L7.67958314,7.88895812 L7.7024998,7.84312477 L7.65666648,7.82020812 L7.63374981,7.82020812 L7.65666648,7.79729147 L7.63374981,7.79729147 L7.63374981,7.7743748 L7.65666648,7.75145814 L7.63374981,7.7056248 L7.63374981,7.68270814 L7.58791648,7.68270814 C7.60562481,7.76604147 7.62124981,7.85145812 7.63374981,7.93479148 C7.14937482,6.17645818 7.36916648,2.86708326 9.29104141,1.98687495 C11.2493747,1.08791664 12.992083,3.30145825 13.438958,4.92958321 C13.4743747,4.97020821 13.5056247,5.01708321 13.5306247,5.0670832 C13.5306247,4.28374989 13.4066663,3.38583325 13.6274997,2.62645827 C13.8691663,1.79729162 14.2149996,2.04937495 14.838958,2.29104161 C15.3493746,2.87124993 15.4712496,3.86604157 15.745208,4.60770822 C16.0399996,5.4108332 16.2327079,6.12333318 16.8118746,6.76499983 L16.9035412,6.76499983 L16.9493746,6.69520816 C16.9493746,5.5420832 16.4931246,4.39520823 16.7431246,3.23062492 L16.7431246,3.27645825 L16.9952079,3.27645825 L16.9952079,3.20874992 L17.0181246,3.18479159 L17.0410412,3.18479159 L17.0181246,3.20874992 L17.0181246,3.23062492 L17.0410412,3.20874992 L17.0410412,3.25458325 L17.0639579,3.25458325 L17.0639579,3.07020826 L17.0868746,3.04729159 L17.0868746,2.95562493 L17.0993746,2.94416659 L17.1097912,2.95562493 L17.1097912,2.93270826 L17.0993746,2.94416659 L17.0868746,2.93270826 L17.0868746,2.91083326 L17.1097912,2.91083326 L17.1097912,2.74937493 L17.1327079,2.7035416 L17.1327079,2.61083327 L17.1795829,2.52020827 L17.1795829,2.49624994 L17.2024995,2.4504166 L17.2024995,2.42854161 L17.2483329,2.42854161 L17.2712495,2.40458327 L17.3170829,2.40458327 L17.3170829,2.38270827 L17.3399995,2.35874994 L17.3629162,2.35874994 L17.3629162,2.33687495 L17.3858329,2.31291661 L17.4087495,2.31291661 L17.4087495,2.29104161 L17.4545829,2.26708327 L17.6149995,2.26708327 L17.6379162,2.24416661 C18.6952079,1.92645829 19.4285412,3.33270825 19.6191662,4.15666656 C19.7847912,3.32124991 20.2389578,2.15562495 21.3024995,2.29937495 C22.1379161,2.41187494 22.6337495,3.47749991 22.7597911,4.22020823 C22.7233327,3.06604159 23.8524994,2.02958328 25.0264577,2.19833328 C26.006666,2.33999995 26.934791,3.16291659 27.4462493,3.9712499 C27.4389577,2.6066666 28.8264576,2.25562495 29.8910409,2.61083327 C30.1045826,2.84208327 30.2327076,3.13583326 30.4420826,3.36916659 L30.5795826,3.36916659 C30.8295826,2.91604159 30.9597909,2.46187494 31.5202076,2.31291661 C31.9764575,2.19208328 32.6035409,2.32645827 32.9431241,2.6566666 C33.5410409,3.24208325 33.7504159,4.38270823 33.9295825,5.16604154 C34.2077075,4.37437489 35.4243741,3.9274999 35.4660408,3.04729159 C35.2004158,2.48583327 34.2962491,0.625416651 35.7202074,0.706666649 C36.6097908,0.757708314 36.9243741,2.22645828 36.8899991,2.91083326 C37.0879157,3.22749992 37.3983324,3.45979158 37.7847907,3.46083325 L37.8306241,3.9649999 L37.3254157,4.42437489 L36.8660408,4.26291656 Z"></path>
                    </g>
                </g>
            </g>
        </g>
    </g>
</svg>