<svg height="50" viewBox="0 0 66 50" width="66" xmlns="http://www.w3.org/2000/svg"><g fill="none"><path d="m0 0h66v50h-66z"/><g transform="translate(0 21)"><path d="m2.29923913 3.08765217v-.01434782c.62484783-.15567392 1.023-.495 1.023-1.17365218 0-.91180434-.71021739-1.24323913-1.7411087-1.24323913h-1.34295652v4.93278261h1.32215218c1.00865217 0 1.89032608-.25395652 1.89032608-1.31426087 0-.693-.47634782-1.13060869-1.15141304-1.18728261zm-1.35084783-1.85158695h.74608696c.4125 0 .91682609.14778261.91682609.73460869 0 .72815218-.58252174.792-1.27193478.792h-.39097827zm.53302174 3.77347826h-.53302174v-1.66793478h.4627174c.61121739 0 1.2862826.10545652 1.2862826.87019565 0 .66430435-.57606521.79773913-1.21597826.79773913zm5.89839131-1.61771739c0-.98282609-.41895652-1.49145652-1.45630435-1.49145652-.462 0-.85943478.14132608-1.19373913.33932608l.03586956.56530435c.26973914-.22597826.67434783-.36730435 1.05169566-.36730435.6678913 0 .89530434.31780435.89530434.9405-.26256521-.01506522-.44765217-.01506522-.71093478-.01506522-.68869565 0-1.68371739.28336957-1.68371739 1.18728261 0 .78482609.54736957 1.12415218 1.3286087 1.12415218.61193478 0 .96704347-.33286957 1.12271739-.55167392h.01434782v.46558696h.62556522c-.01434782-.10473913-.02869565-.29628261-.02869565-.70591304v-1.49073913zm-.66789131.79845652c0 .53732609-.34793478.94695652-1.00865217.94695652-.30632609 0-.67506522-.20517391-.67506522-.58682609 0-.63560869.89530435-.693 1.25758696-.693.14204348 0 .28408696.01506522.42684782.01506522v.31780435zm20.42413046-.25539131h2.5854782c0-1.15858695-.3902608-2.03523913-1.5976304-2.03523913-1.0244348 0-1.6987826.75613044-1.6987826 1.8236087 0 1.17365217.5889783 1.95130435 1.8752609 1.95130435.5968695 0 .8881304-.14132609 1.1449565-.23315218v-.66430434c-.1642826.13415217-.6750652.36013043-1.1162609.36013043-.6320217 0-1.1930217-.48782609-1.1930217-1.20234783zm.9735-1.49791304c.5760652 0 .9031956.45267391.9031956 1.00291304h-1.8759782c.0495-.46558695.3192391-1.00291304.9727826-1.00291304zm-3.2476305.04304348h-.0143478c-.2066087-.33286957-.5696087-.58036957-1.200913-.58036957-1.0516957 0-1.5639131.85513044-1.5639131 1.8236087 0 .98282609.4627174 1.95130435 1.5560218 1.95130435.6463695 0 1.0595869-.32497826 1.2367826-.594h.0150652v.50863043h.639913v-5.30080435h-.6686087zm-1.0660434 2.65721739c-.7173913 0-1.0151087-.79845652-1.0014783-1.36376087-.0136304-.65784783.2704565-1.33578261.9950217-1.33578261.7252827 0 1.0732174.68582609 1.0732174 1.35730435-.0007174.59973913-.3135 1.34223913-1.0667608 1.34223913zm-6.1824783-3.23758696c-1.1083696 0-1.8472826.792-1.8472826 1.88745653 0 1.03160869.7532609 1.88745652 1.8472826 1.88745652 1.0868478 0 1.8401087-.85513044 1.8401087-1.88745652 0-1.09545653-.738913-1.88745653-1.8401087-1.88745653zm0 3.23758696c-.7891304 0-1.1363478-.70663043-1.1363478-1.35013043 0-.68582609.4189565-1.35013044 1.1363478-1.35013044.7102174 0 1.1291739.66430435 1.1291739 1.35013044 0 .6435-.3472174 1.35013043-1.1291739 1.35013043zm-7.2556956-3.23758696c-.50432613 0-.98784787.2475-1.18656527.65784783h-.01506521v-.57247826h-.64636957v3.60417391h.6686087v-1.66721739c0-.87665217.34147826-1.48428261 1.10119565-1.48428261.5825217.03586957.7668913.44478261.7668913 1.28628261v1.86593478h.6686087v-2.14141304c0-.96847826-.4196739-1.54884783-1.3573043-1.54884783zm4.1149565 3.23758696c-.8594348 0-1.208087-.70663043-1.208087-1.35013043 0-.68582609.4189565-1.35013044 1.1650435-1.35013044.2130652 0 .4684565.04878261.7252826.15567391l.0566739-.55167391c-.1922609-.07747826-.5401956-.14132609-.8099348-.14132609-1.1090869 0-1.848.792-1.848 1.88745653 0 1.03160869.7532609 1.88745652 1.848 1.88745652.2410435 0 .5602826-.02080435.8379131-.1485l-.0495-.594c-.2058913.13486956-.4906957.20517391-.7173913.20517391z" fill="#6d7158"/><path d="m44.4682174.31995652h-1.4893044v5.04613044h1.2468261v-1.76406522h.4835218c1.1664782 0 1.8580434-.60763044 1.8580434-1.62776087 0-1.13419565-.6707608-1.65430435-2.0990869-1.65430435zm.0803478 2.32721739h-.3221087v-1.37308695h.3221087c.4297174 0 .7711957.16571739.7711957.67936956 0 .528-.3421957.69371739-.7711957.69371739zm-10.1338695-2.32721739h-1.2475435v5.04613044h3.1794782v-.99717392h-1.9312174v-4.04895652zm5.7470217 2.75478261c0-1.15069565-.7711957-1.56247826-1.6629131-1.56247826-.5165217 0-.9656086.07963043-1.3946086.26758696l.0200869.8823913c.3350217-.20302174.7238478-.28265217 1.1133913-.28265217.4354565 0 .7912826.13702174.7977391.64995652-.1542391-.02797826-.3694565-.05021739-.5631521-.05021739-.6435 0-1.8042392.13773913-1.8042392 1.287 0 .81782608.6169566 1.18584782 1.307087 1.18584782.4964348 0 .8314565-.20947826 1.1069348-.67936956h.0136304c0 .19513043.020087.39026087.0272609.59256522h1.1062174c-.0538044-.29628261-.0674348-.59256522-.0674348-.88884783zm-1.8702391 1.51154348c-.2826522 0-.4964348-.15208696-.4964348-.41178261 0-.36228261.3221087-.49858696.7310217-.49858696.1815 0 .3558261.01434783.5100652.02080435-.0007174.44119565-.2891087.88956522-.7446521.88956522zm21.9980869-3.07402174c-.5509565 0-1.0603043.23817391-1.3006304.7668913h-.0136305v-.67936956h-1.1133913v5.28502174h1.2073696v-2.04671739h.0129131c.2281304.44836956.6843913.61408695 1.1069347.61408695 1.0395 0 1.5961957-.92543478 1.5961957-2.03954348-.0007174-.90965217-.5301522-1.90036956-1.4957609-1.90036956zm-.4828043 2.94345652c-.4031739 0-.7374783-.4125-.7374783-.96130435 0-.56458695.2948478-.98354347.7374783-.98354347.4691739 0 .7310217.43330434.7310217.93260869 0 .59973913-.2747609 1.01223913-.7310217 1.01223913zm5.8883478.02152174v-1.4025c0-1.15069565-.7711957-1.56247826-1.662913-1.56247826-.5165218 0-.9656087.07963043-1.3946087.26758696l.0200869.8823913c.3350218-.20302174.7238478-.28265217 1.1133913-.28265217.4354565 0 .7912826.13702174.7977391.64995652-.1542391-.02797826-.3687391-.05021739-.5631521-.05021739-.6442174 0-1.8042392.13773913-1.8042392 1.287 0 .81782608.6162392 1.18584782 1.307087 1.18584782.4964348 0 .8314565-.20947826 1.1069348-.67936956h.0136304c0 .19513043.0193696.39026087.0265435.59256522h1.1062174c-.053087-.29556522-.0667174-.59184783-.0667174-.88813044zm-1.8709565.10904348c-.2812174 0-.4957174-.15208696-.4957174-.41178261 0-.36228261.3213913-.49858696.7310217-.49858696.1815 0 .3558261.01434783.5100652.02080435-.0007174.44119565-.2891087.88956522-.7453695.88956522zm-7.9207174-3.07402174c-.4964348 0-.9591522.21736956-1.2403696.72313043-.1879565-.49213043-.5968695-.72313043-1.0933043-.72313043-.5495218 0-1.0323261.23817391-1.2733696.78123913h-.0136304v-.69371739h-1.0997609v3.76630435h1.2073696v-1.59045653c0-.81065217.2539565-1.1793913.6836739-1.1793913.3421956 0 .4828043.31780435.4828043.74536957v2.02376087h1.208087v-1.59045653c0-.81065217.2546739-1.1793913.6836739-1.1793913.3421956 0 .4828043.31780435.4828043.74536956v2.02376087h1.2073696v-2.21960869c-.0014348-1.01797826-.2295652-1.63278261-1.2353478-1.63278261zm-5.4923478 1.56247826c0-1.15069565-.7719131-1.56247826-1.6636305-1.56247826-.5165217 0-.9656087.07963043-1.3946087.26758696l.020087.8823913c.3357391-.20302174.7245652-.28265217 1.1133913-.28265217.4354565 0 .792.13702174.7977391.64995652-.1542391-.02797826-.3687391-.05021739-.5631522-.05021739-.6442173 0-1.8042391.13773913-1.8042391 1.287 0 .81782608.6169565 1.18584782 1.307087 1.18584782.4964348 0 .8321739-.20947826 1.1069348-.67936956h.0136304c0 .19513043.0193696.39026087.0272609.59256522h1.1055c-.053087-.29628261-.066-.59256522-.066-.88884783zm-1.871674 1.51154348c-.2819347 0-.4964347-.15208696-.4964347-.41178261 0-.36228261.3221087-.49858696.7317391-.49858696.1807826 0 .3551087.01434783.5093478.02080435-.0007174.44119565-.2883913.88956522-.7446522.88956522z" fill="#fec253"/></g></g></svg>