<?xml version="1.0" encoding="UTF-8"?>
<svg width="66px" height="50px" viewBox="0 0 66 50" version="1.1" xmlns="http://www.w3.org/2000/svg" xmlns:xlink="http://www.w3.org/1999/xlink">
    <!-- Generator: Sketch 51.3 (57544) - http://www.bohemiancoding.com/sketch -->
    <title>26.Banco Comafi</title>
    <desc>Created with Sketch.</desc>
    <defs></defs>
    <g id="26.Banco-Comafi" stroke="none" stroke-width="1" fill="none" fill-rule="evenodd">
        <rect id="Rectangle" fill-rule="nonzero" x="1" y="0" width="66" height="50"></rect>
        <g id="QUIL" transform="translate(2.000000, 19.000000)" fill-rule="nonzero">
            <path d="M62.458166,4.53538141 L62.9973569,4.53538141 C62.9140995,2.01719191 60.8491834,0 58.3085106,0 L58.3085106,0.708261426 C58.362694,0.705621122 58.4155559,0.699680439 58.4697393,0.699680439 C60.6245205,0.700340515 62.3755694,2.4033363 62.458166,4.53538141 Z M62.4601483,4.8040323 C62.400018,6.95521961 60.6390575,8.68329828 58.4704001,8.68329828 C58.4162167,8.68329828 58.3633548,8.6773576 58.3091714,8.6747173 L58.3091714,9.38297872 C60.8643812,9.38297872 62.9398696,7.34202408 63,4.80337222 L62.4601483,4.80337222 L62.4601483,4.8040323 Z" id="Shape" fill="#C0D094"></path>
            <path d="M58.4647016,0.670212766 C58.4122112,0.670212766 58.361001,0.676197798 58.3085106,0.678857812 L58.3085106,4.53454852 L62.3278669,4.53454852 C62.247851,2.38592198 60.551515,0.670212766 58.4647016,0.670212766 Z M58.3085106,4.80453997 L58.3085106,8.70412091 C58.361001,8.70678093 58.4122112,8.71276596 58.4647016,8.71276596 C60.5655978,8.71276596 62.2715357,6.97178661 62.3297872,4.80453997 L58.3085106,4.80453997 Z" id="Shape" fill="#A2B37E"></path>
            <path d="M18.3625608,6.13930804 L17.5769644,6.13930804 C17.5568381,6.25863375 17.5132312,6.47806048 17.3267275,6.67561083 C17.10668,6.90299261 16.8074691,6.97989141 16.4908154,6.97989141 C15.3120854,6.97989141 15.0343425,5.94175769 15.0343425,4.9818486 C15.0343425,4.13596187 15.2550609,2.87707557 16.5002077,2.87707557 C17.4904214,2.87707557 17.585015,3.58441189 17.6145335,3.76141171 L18.3786619,3.76141171 C18.2860809,2.60196351 17.2549437,2.31226719 16.5283845,2.31226719 C14.6901828,2.31226719 14.2695433,3.91520929 14.2695433,4.98781489 C14.2695433,5.97689248 14.6197408,7.55862113 16.4358035,7.55862113 C17.3206896,7.55928405 18.2552206,7.14164404 18.3625608,6.13930804 Z M48.2501092,5.16547762 L50.456622,5.16547762 L50.456622,4.57282657 L48.2501092,4.57282657 L48.2501092,2.98513164 L50.5948225,2.98513164 L50.5948225,2.38386262 L47.5215373,2.38386262 L47.5215373,7.48105941 L48.2501092,7.48105941 L48.2501092,5.16547762 Z M19.4225457,10.5265168 C19.4225457,10.1453375 19.268915,9.84437149 18.6785437,9.84437149 C18.1894747,9.84437149 17.9157571,10.0180567 17.8969725,10.5265168 L18.3041946,10.5265168 C18.2820557,10.2905171 18.4115348,10.1221352 18.6617718,10.1221352 C19.0642977,10.1221352 19.0602724,10.4509439 19.0495384,10.7532357 C18.5275965,10.7399773 17.845315,10.7717975 17.845315,11.460572 C17.845315,11.8967738 17.9848574,12.2083465 18.4705719,12.2083465 C18.7603906,12.2083465 18.937502,12.0949871 19.0495384,11.8344592 L19.0602724,11.8344592 L19.0602724,12.1606162 L19.4695071,12.1606162 C19.4420011,11.9862681 19.4225457,11.8019761 19.4225457,11.6216617 L19.4225457,10.5265168 Z M18.5772413,11.9047288 C18.3270044,11.9047288 18.2176515,11.7071785 18.2176515,11.4864259 C18.2176515,11.0058084 18.6953156,11.034977 19.0495384,11.0316624 C19.0864366,11.7648526 18.8053393,11.9047288 18.5772413,11.9047288 Z M23.6369919,4.88241051 C23.6369919,3.15351348 22.7373465,2.24995265 21.3070378,2.24995265 C20.8266902,2.24995265 20.1195864,2.36264916 19.5848978,2.93474967 C19.0213616,3.53469285 18.9220718,4.38919755 18.9220718,4.96726435 C18.9220718,6.36271229 19.4923169,7.5997222 21.2513551,7.5997222 C23.0855314,7.60038513 23.6369919,6.23742029 23.6369919,4.88241051 Z M19.6721118,4.92616327 C19.6721118,3.8800745 20.0055374,2.84194078 21.3137466,2.84194078 C22.4944892,2.84194078 22.881585,3.71765894 22.881585,4.8757813 C22.881585,5.22315171 22.8373071,6.02661153 22.4146549,6.53507166 C22.115444,6.88774544 21.6941336,6.99911611 21.2728231,6.99911611 C20.8656011,6.99911611 20.4221517,6.89503757 20.1289787,6.53507166 C19.7707306,6.09754404 19.6721118,5.4830166 19.6721118,4.92616327 Z M36.77745,2.92016541 L38.4043256,7.48172233 L39.0859361,7.48172233 L40.7798993,2.89099691 L40.7798993,7.48172233 L41.4762691,7.48172233 L41.4762691,2.38386262 L40.2975391,2.38386262 L38.8055097,6.58346487 L37.3456824,2.38386262 L36.0844346,2.38386262 L36.0844346,7.48105941 L36.77745,7.48105941 L36.77745,2.92016541 Z M16.5317388,11.8172233 L16.5236883,11.8172233 L16.0091261,9.89077593 L15.585803,9.89077593 L16.2707679,12.1606162 L16.7598369,12.1606162 L17.4776747,9.89077593 L17.0872246,9.89077593 L16.5317388,11.8172233 Z M11.7128329,11.5580213 L11.7128329,10.1665509 L12.2159903,10.1665509 L12.2159903,9.89011301 L11.7128329,9.89011301 L11.7128329,9.28619231 L11.3384838,9.45192247 L11.3384838,9.89011301 L10.9601095,9.89011301 L10.9601095,10.1665509 L11.3378129,10.1665509 L11.3378129,11.7827514 C11.3378129,12.0446051 11.4974816,12.1884589 11.853717,12.1884589 C11.9785,12.1884589 12.0992578,12.1599533 12.2220282,12.1533241 L12.2220282,11.8682682 C12.1408521,11.8795378 12.0811441,11.8848412 12.0536382,11.8848412 C11.7128329,11.8855041 11.7128329,11.7012122 11.7128329,11.5580213 Z M2.63721554,4.81943305 C2.8867816,4.72861292 3.50734237,4.50918619 3.50734237,3.66860282 C3.50734237,3.26620999 3.36511655,2.96855862 3.1437273,2.75708694 C2.82170658,2.44882884 2.47083817,2.38386262 1.84289776,2.38386262 L0,2.38386262 L0,7.48105941 L1.87979597,7.48105941 C2.28701801,7.48105941 2.68618953,7.48105941 3.04443758,7.24771135 C3.21752372,7.13567776 3.66566923,6.78101522 3.66566923,6.09025191 C3.66499835,5.11642149 2.93709734,4.90428689 2.63721554,4.81943305 Z M0.69301543,2.96259234 L1.72213999,2.96259234 C2.11393187,2.96259234 2.76468208,2.96259234 2.76468208,3.7322432 C2.76468208,4.53968054 1.93614959,4.53968054 1.69262142,4.53968054 L0.69301543,4.53968054 L0.69301543,2.96259234 Z M1.91401067,6.90962182 L0.69301543,6.90962182 L0.69301543,5.14559 L1.94352924,5.14559 C2.57146965,5.14559 2.93038858,5.51881432 2.93038858,6.02793737 C2.93038858,6.61064461 2.47888869,6.90962182 1.91401067,6.90962182 Z M9.26815892,12.1606162 L9.63982451,12.1606162 L9.63982451,9.89077593 L9.26815892,9.89077593 L9.26815892,12.1606162 Z M6.10833058,2.38386262 L3.93670333,7.48105941 L4.67332574,7.48105941 L5.23082411,6.15389229 L7.62384061,6.15389229 L8.18268074,7.48105941 L8.95955573,7.48105941 L6.87245892,2.38386262 L6.10833058,2.38386262 Z M5.45758037,5.58311762 L6.45785724,3.08191805 L7.40916013,5.58311762 L5.45758037,5.58311762 Z M13.6120843,7.48172233 L13.6120843,2.38386262 L12.9552962,2.38386262 L12.9552962,6.59804912 L10.419383,2.38386262 L9.42447315,2.38386262 L9.42447315,7.48105941 L10.0745525,7.48105941 L10.0745525,3.15351348 L12.6963379,7.48172233 L13.6120843,7.48172233 Z M9.24534912,9.31005745 L9.66330518,9.31005745 L9.66330518,8.91296799 L9.24534912,8.91296799 L9.24534912,9.31005745 Z M7.19515052,9.68129301 C7.19515052,9.33060799 7.44874184,9.20465307 7.70099141,9.20465307 C8.09882117,9.20465307 8.21018667,9.43932698 8.20616142,9.79398952 L8.6435729,9.79398952 C8.66973708,9.13239472 8.33429883,8.84402424 7.73118085,8.84402424 C7.18106211,8.84402424 6.76646043,9.14830482 6.76646043,9.72769746 C6.76646043,10.7035166 8.24238875,10.6199886 8.24238875,11.3425721 C8.24238875,11.7303807 7.9867848,11.8689311 7.6553718,11.8689311 C7.38567945,11.8689311 7.10391132,11.7303807 7.10391132,11.2902014 L7.10391132,11.193415 L6.68930964,11.193415 C6.67991737,11.5049877 6.67991737,12.2401667 7.65201742,12.2308858 C8.19408564,12.2308858 8.67040796,12.0094703 8.67040796,11.3259991 C8.66973708,10.2951575 7.19515052,10.3972473 7.19515052,9.68129301 Z M13.4027708,9.84370857 C12.6050987,9.84370857 12.5266061,10.3926069 12.5266061,11.0588421 C12.5266061,12.0631669 12.9157145,12.2090094 13.4027708,12.2090094 C13.8858019,12.2090094 14.200443,11.9763243 14.2051391,11.4718417 L13.7945627,11.4718417 C13.7811452,11.7012122 13.6483116,11.9040659 13.3927077,11.9040659 C13.1008764,11.9040659 12.929132,11.7794368 12.929132,11.1450218 L14.2225819,11.1450218 L14.2225819,10.950786 C14.2225819,10.2003599 14.0595589,9.84370857 13.4027708,9.84370857 Z M12.929132,10.8652693 C12.934499,10.2341688 13.130395,10.1214723 13.3672144,10.1214723 C13.6389194,10.1214723 13.8274357,10.2036745 13.8274357,10.8652693 L12.929132,10.8652693 Z M50.4975454,9.84370857 C50.201018,9.84370857 50.0279319,9.92524781 49.8843643,10.1804723 L49.8669215,10.1804723 L49.8669215,9.89011301 L49.46775,9.89011301 C49.4825093,10.0458994 49.4905598,10.2036745 49.4905598,10.3621125 L49.4905598,12.1599533 L49.8669215,12.1599533 L49.8669215,10.8168761 C49.8669215,10.5053034 49.9232752,10.1446745 50.3331807,10.1446745 C50.6538597,10.1446745 50.7370484,10.3435507 50.7370484,10.5848538 L50.7370484,12.1599533 L51.114081,12.1599533 L51.114081,10.5848538 C51.1134101,10.1373824 50.9913106,9.84370857 50.4975454,9.84370857 Z M22.0879381,9.84370857 C21.8685614,9.84370857 21.7095637,9.93916914 21.5827681,10.1194836 L21.5686797,10.1194836 L21.5686797,8.91296799 L21.1943306,8.91296799 L21.1943306,12.1599533 L21.5686797,12.1599533 L21.5686797,11.8921333 L21.577401,11.8921333 C21.7048676,12.1042679 21.8645362,12.2083465 22.1040391,12.2083465 C22.4736921,12.2083465 22.8473703,12.0631669 22.8473703,11.0608309 C22.8480411,10.4960225 22.8305984,9.84370857 22.0879381,9.84370857 Z M21.9886483,11.9047288 C21.5284271,11.9047288 21.5693505,11.2809205 21.5693505,10.9335501 C21.5693505,10.63391 21.5874642,10.1453375 22.001395,10.1453375 C22.4045918,10.1453375 22.4589328,10.4628764 22.4589328,11.0687859 C22.4582619,11.4128417 22.4582619,11.9047288 21.9886483,11.9047288 Z M44.1369653,2.38386262 L41.9660089,7.48105941 L42.7019605,7.48105941 L43.2587879,6.15389229 L45.6518044,6.15389229 L46.2086319,7.48105941 L46.9881904,7.48105941 L44.9017645,2.38386262 L44.1369653,2.38386262 Z M43.4862151,5.58311762 L44.4871628,3.08191805 L45.4384657,5.58311762 L43.4862151,5.58311762 Z M46.1717337,9.31005745 L46.5903607,9.31005745 L46.5903607,8.91296799 L46.1717337,8.91296799 L46.1717337,9.31005745 Z M39.2945787,11.8172233 L39.2851864,11.8172233 L38.7692824,9.89077593 L38.3519972,9.89077593 L39.0329368,12.1606162 L39.5220058,12.1606162 L40.2438689,9.89077593 L39.8520771,9.89077593 L39.2945787,11.8172233 Z M44.850107,9.84370857 C44.6334139,9.84370857 44.4737453,9.93916914 44.3456079,10.1194836 L44.3301777,10.1194836 L44.3301777,8.91296799 L43.9585121,8.91296799 L43.9585121,12.1599533 L44.3301777,12.1599533 L44.3301777,11.8921333 L44.3409118,11.8921333 C44.4677074,12.1042679 44.6260343,12.2083465 44.8695624,12.2083465 C45.2392154,12.2083465 45.6122227,12.0631669 45.6122227,11.0608309 C45.6122227,10.4960225 45.5914256,9.84370857 44.850107,9.84370857 Z M44.7514882,11.9047288 C44.2899251,11.9047288 44.3301777,11.2809205 44.3301777,10.9335501 C44.3301777,10.63391 44.3482914,10.1453375 44.763564,10.1453375 C45.1647481,10.1453375 45.2204309,10.4628764 45.2204309,11.0687859 C45.21976,11.4128417 45.21976,11.9047288 44.7514882,11.9047288 Z M42.1867273,10.5265168 C42.1867273,10.1453375 42.0330966,9.84437149 41.4413835,9.84437149 C40.9529854,9.84437149 40.6806095,10.0180567 40.6604832,10.5265168 L41.0677053,10.5265168 C41.0428829,10.2905171 41.1743746,10.1221352 41.4259533,10.1221352 C41.8278084,10.1221352 41.8224414,10.4509439 41.8117073,10.7532357 C41.2904363,10.7399773 40.607484,10.7717975 40.607484,11.460572 C40.607484,11.8967738 40.7476972,12.2083465 41.2354244,12.2083465 C41.5232304,12.2083465 41.6990001,12.0949871 41.8117073,11.8344592 L41.8224414,11.8344592 L41.8224414,12.1606162 L42.2303343,12.1606162 C42.2041701,11.9862681 42.1867273,11.8019761 42.1867273,11.6216617 L42.1867273,10.5265168 Z M41.3414229,11.9047288 C41.0891733,11.9047288 40.9811622,11.7071785 40.9811622,11.4864259 C40.9811622,11.0058084 41.4574845,11.034977 41.8123782,11.0316624 C41.8492764,11.7648526 41.5675083,11.9047288 41.3414229,11.9047288 Z M48.0528715,9.84370857 C47.256541,9.84370857 47.175365,10.3926069 47.175365,11.0588421 C47.175365,12.0631669 47.5644734,12.2090094 48.0528715,12.2090094 C48.5365734,12.2090094 48.8498727,11.9763243 48.8532271,11.4718417 L48.4439925,11.4718417 C48.4325876,11.7012122 48.2984123,11.9040659 48.0461627,11.9040659 C47.7529897,11.9040659 47.5778909,11.7794368 47.5778909,11.1450218 L48.8733534,11.1450218 L48.8733534,10.950786 C48.8726825,10.2003599 48.7089887,9.84370857 48.0528715,9.84370857 Z M47.5778909,10.8652693 C47.5845997,10.2341688 47.7798247,10.1214723 48.0159733,10.1214723 C48.2903617,10.1214723 48.4755237,10.2036745 48.4755237,10.8652693 L47.5778909,10.8652693 Z M51.4468357,7.48172233 L52.1619901,7.48172233 L52.1619901,2.38386262 L51.4468357,2.38386262 L51.4468357,7.48172233 Z M62.9919495,4.51316371 L58.7795159,4.51316371 L58.7795159,0.670212766 C56.6689384,0.753740766 54.976317,2.42628954 54.8944701,4.51382663 C54.8924574,4.56619736 54.8864195,4.61790517 54.8864195,4.6702759 C54.8864195,4.7087253 54.8911157,4.74518593 54.8924574,4.78297241 C54.9521654,6.88907128 56.6535083,8.58614812 58.7795159,8.67033904 L58.7795159,4.78297241 L62.9939621,4.78297241 C62.9953039,4.74518593 63,4.7087253 63,4.6702759 C63,4.61790517 62.9939621,4.56553444 62.9919495,4.51316371 Z M51.7339708,12.1606162 L52.1626609,12.1606162 L52.1626609,11.6939201 L51.7339708,11.6939201 L51.7339708,12.1606162 Z M46.1938727,12.1606162 L46.5662091,12.1606162 L46.5662091,9.89077593 L46.1938727,9.89077593 L46.1938727,12.1606162 Z M35.9147028,10.4297304 C35.9147028,10.2308542 36.0710171,10.1214723 36.2716091,10.1214723 C36.5084286,10.1214723 36.6358951,10.249416 36.6332116,10.4880674 L37.0424463,10.4880674 C37.0780027,10.0352926 36.7264634,9.84370857 36.315887,9.84370857 C35.6705038,9.84370857 35.522911,10.2248879 35.522911,10.4655281 C35.522911,11.1456847 36.6714515,11.1549656 36.6714515,11.5580213 C36.6714515,11.7920323 36.4990363,11.9040659 36.2736218,11.9040659 C35.8972601,11.9040659 35.8925639,11.5971337 35.8925639,11.4685271 L35.4699117,11.4685271 C35.4531398,11.9889198 35.7650974,12.2076836 36.2608751,12.2076836 C36.7164003,12.2076836 37.0645852,12.0134478 37.0645852,11.5142686 C37.0652561,10.8228424 35.9147028,10.8294716 35.9147028,10.4297304 Z M25.2900316,9.84370857 C24.4923595,9.84370857 24.4152087,10.3926069 24.4152087,11.0588421 C24.4152087,12.0631669 24.8023044,12.2090094 25.2900316,12.2090094 C25.7730627,12.2090094 26.0870329,11.9763243 26.0903873,11.4718417 L25.6811526,11.4718417 C25.6690769,11.7012122 25.5369142,11.9040659 25.2799685,11.9040659 C24.9901498,11.9040659 24.8150511,11.7794368 24.8150511,11.1450218 L26.1098427,11.1450218 L26.1098427,10.950786 C26.1098427,10.2003599 25.945478,9.84370857 25.2900316,9.84370857 Z M24.8150511,10.8652693 C24.8210889,10.2341688 25.0156431,10.1214723 25.2531334,10.1214723 C25.5255093,10.1214723 25.7133547,10.2036745 25.7133547,10.8652693 L24.8150511,10.8652693 Z M23.4088939,9.31005745 L23.8275208,9.31005745 L23.8275208,8.91296799 L23.4088939,8.91296799 L23.4088939,9.31005745 Z M28.8342722,12.7340426 L29.1254326,12.7340426 L29.5407052,11.6939201 L29.0704207,11.6939201 L28.8342722,12.7340426 Z M23.4330455,12.1606162 L23.8053819,12.1606162 L23.8053819,9.89077593 L23.4330455,9.89077593 L23.4330455,12.1606162 Z M27.7347056,9.84370857 C27.43952,9.84370857 27.2664338,9.92524781 27.1215245,10.1804723 L27.1027399,10.1804723 L27.1027399,9.89011301 L26.7069228,9.89011301 C26.7203403,10.0458994 26.7290617,10.2036745 26.7290617,10.3621125 L26.7290617,12.1599533 L27.1027399,12.1599533 L27.1027399,10.8168761 C27.1027399,10.5053034 27.1631188,10.1446745 27.5716826,10.1446745 C27.8916907,10.1446745 27.976892,10.3435507 27.976892,10.5848538 L27.976892,12.1599533 L28.3505702,12.1599533 L28.3505702,10.5848538 C28.3505702,10.1373824 28.2291416,9.84370857 27.7347056,9.84370857 Z M33.0500602,2.24995265 C32.5683708,2.24995265 31.8592544,2.36264916 31.3245658,2.93474967 C30.7603587,3.53469285 30.6603981,4.38919755 30.6603981,4.96726435 C30.6603981,6.36271229 31.2333266,7.5997222 32.9876687,7.5997222 C34.8285538,7.5997222 35.3773308,6.23675737 35.3773308,4.88174759 C35.3766599,3.15351348 34.4763436,2.24995265 33.0500602,2.24995265 Z M34.153652,6.53573458 C33.8537702,6.88840836 33.4338015,6.99977903 33.0111493,6.99977903 C32.6039273,6.99977903 32.159807,6.89570049 31.8679758,6.53573458 C31.5110695,6.09754404 31.4097671,5.4830166 31.4097671,4.92616327 C31.4097671,3.8800745 31.7458762,2.84194078 33.0554272,2.84194078 C34.2321446,2.84194078 34.6192403,3.71765894 34.6192403,4.8757813 C34.6192403,5.22447756 34.5756333,6.02793737 34.153652,6.53573458 Z M34.1174247,9.84370857 C33.3204234,9.84370857 33.2439435,10.3926069 33.2439435,11.0588421 C33.2439435,12.0631669 33.6283557,12.2076836 34.1174247,12.2076836 C34.6038102,12.2076836 34.9915768,12.0625039 34.9915768,11.0588421 C34.9915768,10.3926069 34.9130842,9.84370857 34.1174247,9.84370857 Z M34.1174247,11.9047288 C33.7289872,11.9047288 33.6337227,11.6415493 33.6337227,10.901067 C33.6337227,10.2805733 33.8289478,10.1446745 34.1174247,10.1446745 C34.4025472,10.1446745 34.5977723,10.2805733 34.5977723,10.901067 C34.5977723,11.6408864 34.5025078,11.9047288 34.1174247,11.9047288 Z M28.2385339,2.87773849 C29.2294185,2.87773849 29.3240121,3.58507482 29.3535306,3.76207463 L30.117659,3.76207463 C30.0237362,2.60262643 28.9946117,2.31293011 28.2660398,2.31293011 C26.4305217,2.31293011 26.0098821,3.91587221 26.0098821,4.98847781 C26.0098821,5.9775554 26.3594088,7.55928405 28.1734588,7.55928405 C29.0610285,7.55928405 29.9969012,7.14164404 30.1028997,6.13930804 L29.3179742,6.13930804 C29.2958352,6.25863375 29.2528991,6.47806048 29.0670664,6.67561083 C28.846348,6.90299261 28.5451244,6.97989141 28.2318251,6.97989141 C27.0517533,6.97989141 26.7726687,5.94175769 26.7726687,4.9818486 C26.7726687,4.13596187 26.9953997,2.87773849 28.2385339,2.87773849 Z M32.0336823,9.84370857 C31.7391675,9.84370857 31.5660813,9.92524781 31.421172,10.1804723 L31.4017166,10.1804723 L31.4017166,9.89011301 L31.0058995,9.89011301 C31.0199879,10.0458994 31.0280384,10.2036745 31.0280384,10.3621125 L31.0280384,12.1599533 L31.4010457,12.1599533 L31.4010457,10.8168761 C31.4010457,10.5053034 31.4600828,10.1446745 31.8713301,10.1446745 C32.1893256,10.1446745 32.2765396,10.3435507 32.2765396,10.5848538 L32.2765396,12.1599533 L32.6502204,12.1599533 L32.6502178,10.5848538 C32.6508886,10.1373824 32.5254347,9.84370857 32.0336823,9.84370857 Z" id="Shape" fill="#61823B"></path>
        </g>
    </g>
</svg>