<svg height="50" viewBox="0 0 66 50" width="66" xmlns="http://www.w3.org/2000/svg"><g fill="none"><path d="m0 0h66v50h-66z"/><path d="m1.06293878 7.63936735c-.01010205 0-.01818368.00808163-.01818368.01818367v.70512245c0 .01077551.0087551.01885714.01818368.01885714h7.01620408c.01077551 0 .01818367-.0087551.01818367-.01885714v-.70512245c0-.01077551-.00808163-.01818367-.01818367-.01818367zm.70310204-4.6772449v3.55591837h-.35559184v.72330612c0 .01144898.0087551.01953061.01818367.01953061h6.28616327c.01077551 0 .01885714-.0087551.01885714-.01953061v-.72330612h-.35693877v-3.55591837h-.80210205v3.55591837h-.80412244v-3.55591837h-.80479592v3.55591837h-.78661225v-3.55591837h-.80614285v3.55457143h-.80412245v-3.55457143zm6.55757142-.78459184-3.72697959-1.98202041c-.01346938-.00673469-.03367347-.00673469-.04579592 0l-3.72697959 1.98202041c-.01279592.0067347-.01683673.02222449-.01010204.03502041l.2222449.38993878c.00740816.01279591.0242449.02222449.03906122.02222449h6.99734694c.01414286 0 .03232653-.01010205.03906123-.02222449l.22291837-.38993878c.00606122-.01279592.0020204-.02828571-.01077552-.03502041zm-1.97461224-.28420408h-3.59834694c-.01414286 0-.01481633-.00538775-.00269388-.01212245l1.7799796-.86810204c.01279591-.00673469.02828571-.00808163.03434693-.00538775.00740817.00269387 1.79075511.87348979 1.79075511.87348979.01212245.0067347.01144898.01212245-.00404082.01212245z" fill="#fff" transform="translate(2 20)"/><g transform="translate(0 17)"><path d="m6.2981875 9.1829375-1.874125 5.44225-.0199375-7.62025c-.7184375.275-1.595 1.6121875-2.24675 2.693625-.8779375 1.4526875-1.3509375 2.528625-1.3509375 2.528625v3.49525h14.691875l-.004125-1.2485c-5.7000625.001375-9.196-5.291-9.196-5.291z" fill="#b4aba8"/><path d="m5.839625 7.1836875c.9260625 1.403875 2.792625 3.3935 4.1614375 4.3175 1.3695.925375 3.1405 1.648625 5.498625 1.7496875v-12.4911875l-14.6939375.0034375v9.755625c.7205-1.529 1.464375-3.0284375 2.5609375-4.0541875 1.09725-1.0291875 1.5475625-.686125 2.4729375.719125zm4.0865-2.116125.001375-.006875-.4379375.0818125-1.13025-1.65-.0116875-.0116875.006875.0048125-.0034375-.006875.0103125.0103125 1.5668125 1.568875.0825-.44.5603125-3.0091875v-.006875l.0006875.0034375.0006875-.0034375v3.40175l.00275.001375v.6895625l.63525-.6345625.0055.0006875-.0818125-.438625 1.6665-1.1385-1.5805625 1.5785.4420625.0825 3.0146875.5616875h-3.3996875-.01375-.6826875l-.00825.00825.4785.4791875.1615625.160875.438625-.0825 1.1350625 1.6603125-1.5695625-1.571625-.0818125.4379375-.562375 3.0174375v.00825l-.0006875-.004125-.0006875.004125v-3.411375l-.0055-.0034375-.0020625-.0020625v-.683375l-.6373125.63525.0804375.433125-1.654125 1.13575-.004125.004125.001375-.0020625-.001375.0006875.00275-.00275 1.573-1.574375-.4379375-.0825-3.0195-.5658125h3.4079375.001375.6854375.0006875z" fill="#0075bf"/><path d="m11.1533125 6.351125-.51975-.51975-.0804375-.0804375v4.1009375l.562375-3.018125.0818125-.4379375-.0061875-.006875zm-.0385-1.6946875.0818125.438625.0048125.001375 1.5805625-1.5785zm.078375 1.7331875.0048125.0048125v.0006875l1.568875 1.5723125-1.1350625-1.6603125zm-1.285625-.0006875-1.5736875 1.574375 1.654125-1.13575-.0804375-.433125.6373125-.6359375v-.0034375l-.633875.6345625zm-9.5755-6.1166875v15.939h15.640625v-15.939zm.4558125.52525 14.69325-.0034375v12.4905c-2.358125-.100375-4.129125-.8243125-5.498625-1.7496875-1.3688125-.9246875-3.235375-2.9129375-4.1614375-4.3168125-.925375-1.40525-1.3756875-1.7483125-2.4729375-.7184375-1.0965625 1.0250625-1.8404375 2.5251875-2.5609375 4.0535v-9.755625zm.0130625 14.916v-3.49525s.473-1.07525 1.3509375-2.5293125c.6510625-1.08075 1.5283125-2.418625 2.24675-2.6929375l.0199375 7.62025 1.874125-5.4429375s3.4959375 5.292375 9.1966875 5.291l.004125 1.2485h-14.6925625zm9.1045625-9.3245625.639375-.6400625v-.006875l-.0020625-.001375h-4.09475l3.0201875.5658125zm.6689375-.661375-.012375.0130625h4.096125l-3.0146875-.5616875-.4420625-.0818125-.0034375.0034375v.0020625l-.6180625.620125v-4.079625l-.5603125 3.0091875-.0825.4406875.0556875.055zm-.6655-.6331875v-.001375l-1.5681875-1.5668125 1.13025 1.65z" fill="#fff"/><path d="m43.7614375 12.436875c.017875-1.0635625-1.150875-1.4733125-2.124375-1.4733125-.5341875 0-1.156375.056375-1.6506875.28325-.48675.22-.840125.6084375-.8284375 1.2849375h1.7043125c-.009625-.292875.1326875-.7156875.5740625-.732875.7308125-.0295625.62975.572.62975.9845h-.5713125c-1.5675 0-2.6324375.47025-2.651 1.6273125-.01925.979.572 1.5901875 1.705 1.5901875.8985625 0 1.3069375-.44825 1.530375-.790625h.0158125c0 .342375 0 .4943125.0385.6469375h1.7331875c-.0639375-.56925-.1051875-.7803125-.1051875-.980375zm-2.5430625 2.514875c-.345125 0-.6235625-.286-.6235625-.627 0-.33275.2096875-.504625.4791875-.639375.2468125-.122375.6098125-.100375.9920625-.100375.0006875.633875-.06325 1.36675-.8476875 1.36675zm21.8246875-.218625 2.51075-2.5018125v-1.134375h-4.225375v1.134375h2.37875l-2.4729375 2.5018125v1.133h4.4323125v-1.133zm-41.6879375-7.00425c.727375-.26675 1.25125-.8669375 1.25125-1.6630625 0-.859375-.4860625-1.64725-1.3715625-1.777875v-.01925c.669625-.18425 1.1529375-.76725 1.1529375-1.4843125 0-1.3371875-1.032625-1.793-2.2158125-1.793h-2.4495625v6.8695h2.4495625c.4125.0116875.8305.0006875 1.1831875-.132zm-2.6833125-5.9214375h1.178375c.9040625-.028875 1.5420625.136125 1.5420625 1.043625 0 .9081875-.638 1.0725-1.5420625 1.040875h-1.178375zm0 2.902625h1.585375c.738375 0 1.35025.323125 1.35025 1.166 0 .8463125-.611875 1.1694375-1.3426875 1.1694375h-1.59225v-2.3354375zm16.9585625 3.28625c1.056 0 1.8514375-.6510625 1.9305-1.7221875h-.9026875c-.04675.6813125-.4186875 1.071125-1.0209375 1.071125-.8635 0-1.1969375-.749375-1.1969375-1.8651875 0-1.120625.3334375-1.8693125 1.1969375-1.8693125.6545 0 .941875.418.985875 1.0175l.9040625-.0034375c-.0515625-1.034-.8119375-1.6658125-1.8184375-1.6658125-1.51525 0-2.222 1.1611875-2.222 2.556125 0 1.4025.6111875 2.4811875 2.143625 2.4811875zm24.9280625 3.102h-1.8005625v2.7341875c0 .055.11275 1.03675-.787875 1.03675-.5630625 0-.6785625-.501875-.6985-.969375v-2.800875h-1.7991875v3.1934375c0 1.0498125.75625 1.7105 1.77925 1.7105.616 0 1.0951875-.1890625 1.505625-.6606875l.0254375.52525h1.8335625c-.0488125-.5115-.0584375-.80025-.0584375-1.2258125v-3.543375zm-31.1169375-5.83c0-.9205625.2523125-1.1281875.383625-1.260875.3795-.3760625.8751875-.3499375.8751875-.3499375.759 0 1.0938125.427625 1.0938125 1.21275v2.9913125h.9026875v-3.2855625c0-1.530375-1.4733125-1.6149375-1.80675-1.6149375-.47575 0-1.1405625.2481875-1.447875.8463125h-.015125v-.716375h-.88275v4.769875h.8985625v-2.5925625zm-8.9890625 6.336c-.504625-.114125-1.115125-.275-1.115125-.7789375 0-.3465.38225-.62975.818125-.62975.32175 0 .5685625.0763125.732875.221375.16775.1326875.2550625.331375.24475.5988125h1.9023125c.111375-1.6534375-1.337875-2.1553125-2.75825-2.1553125-1.4361875 0-2.8634375.4455-2.9376875 2.068 0 .741125.3444375 1.36675 1.0401875 1.66925 1.4905.6579375 2.89575.45925 2.89575 1.387375 0 .45375-.5603125.680625-.9975625.680625-.675125 0-1.1474375-.350625-1.137125-.9948125h-1.901625c.0268125 1.8638125 1.43275 2.3299375 3.025 2.3299375 1.582625 0 3.0105625-.6875 3.0105625-2.13125 0-1.8555625-1.67475-1.9696875-2.8221875-2.2653125zm27.2339375-1.4086875c.7816875 0 1.247125.350625 1.2931875.96525h1.997875c.0309375-1.7276875-1.6286875-2.2955625-3.2910625-2.2955625-2.1415625.017875-3.2945 1.2643125-3.2945 3.5550625 0 2.292125 1.1529375 3.5798125 3.2945 3.5798125 1.662375 0 3.322-.6125625 3.2910625-2.336125h-1.997875c-.03575.6510625-.493625 1.0016875-1.2931875 1.0016875-1.0745625 0-1.2931875-1.1721875-1.2931875-2.167 0-1.0236875.1973125-2.303125 1.2931875-2.303125zm-4.90325-4.7155625c0-1.4829375-.8078125-2.5210625-2.3766875-2.5210625-1.5695625 0-2.376 1.038125-2.376 2.5210625 0 1.475375.8064375 2.5169375 2.376 2.5169375 1.5695625-.0006875 2.3766875-1.0415625 2.3766875-2.5169375zm-3.8011875 0c0-1.016125.350625-1.8693125 1.4245-1.8693125 1.0745625 0 1.425875.8531875 1.425875 1.8693125 0 1.0113125-.3513125 1.8651875-1.425875 1.8651875-1.073875 0-1.4245-.853875-1.4245-1.8651875zm-12.5324375 1.667875h.015125c.0048125.215875.0240625.4241875.0419375.6455625.0144375.1148125.1766875.067375.2619375.067375h.6084375c-.0281875-.39875-.0385-.798875-.0385-1.007875v-2.27975c0-1.32-.9673125-1.6149375-1.9559375-1.6149375-.9494375 0-1.7661875.36575-1.8156875 1.4059375h.952875c.0089375-.4915625.4406875-.7541875.9026875-.7541875.96525 0 1.016125.479875 1.016125 1.3014375h-.823625c-1.1419375 0-2.3299375.389125-2.3299375 1.7325 0 .928125.837375 1.3523125 1.6671875 1.3523125.66275 0 1.1955625-.2536875 1.497375-.848375zm-2.2144375-.6813125c0-.697125.737-.895125 1.291125-.925375h.9123125c.0171875.88275-.1835625 1.804-1.254 1.804-.537625 0-.9494375-.2921875-.9494375-.878625zm13.3175625 3.2236875-1.7978125.6840625v.7225625h-.935v1.134375h.935v2.1401875c-.097625 1.4581875.6435 1.6300625 1.8645 1.6300625.2688125 0 .5616875-.0185625.97075-.0969375v-1.068375c-.209.0323125-.4558125.0323125-.6964375.0323125-.4145625 0-.341-.620125-.341-.7425v-1.89475h1.049125v-1.134375h-1.049125zm-4.8764375 1.27325c-.6125625 0-1.089.1890625-1.50425.6620625l-.03025-.529375h-1.82875c.048125.515625.0584375.80025.0584375 1.2271875v3.542h1.8005625v-2.7328125c0-.059125-.11275-1.03675.7830625-1.03675.5671875 0 .6813125.50325.70125.969375v2.7995h1.80125v-3.1920625c0-1.0470625-.7555625-1.709125-1.7813125-1.709125zm20.772125 1.034h-.0226875l-.026125-.8999375h-1.82875c.045375.51425.055.801625.055 1.2285625v3.53925h1.799875v-1.9050625c-.026125-.911625.2990625-1.4719375 1.241625-1.480875.1230625 0 .243375 0 .380875.009625v-1.5255625c-.80025-.0171875-1.3921875.2475-1.5998125 1.034zm-24.921875.4393125c.0165-1.0635625-1.1501875-1.4733125-2.1264375-1.4733125-.5369375 0-1.156375.056375-1.6520625.28325-.4846875.22-.837375.6084375-.825 1.2849375h1.6995c-.0061875-.292875.13475-.7156875.576125-.732875.730125-.0295625.633875.572.633875.9845h-.5740625c-1.5654375 0-2.6324375.47025-2.6503125 1.6273125-.0185625.979.572 1.5901875 1.7029375 1.5901875.897875 0 1.3096875-.44825 1.53175-.790625h.01925c0 .342375 0 .4943125.0378125.6469375h1.7331875c-.0680625-.56925-.1051875-.7803125-.1051875-.980375v-2.4399375zm-2.5465 2.514875c-.342375 0-.6235625-.286-.6235625-.627 0-.33275.21175-.504625.4791875-.639375.2509375-.122375.6139375-.100375.9961875-.100375 0 .633875-.066 1.36675-.8518125 1.36675z" fill="#000"/></g></g></svg>