<?xml version="1.0" encoding="UTF-8"?>
<svg width="66px" height="50px" viewBox="0 0 66 50" version="1.1" xmlns="http://www.w3.org/2000/svg" xmlns:xlink="http://www.w3.org/1999/xlink">
    <!-- Generator: Sketch 51.2 (57519) - http://www.bohemiancoding.com/sketch -->
    <title>4.nativa</title>
    <desc>Created with Sketch.</desc>
    <defs></defs>
    <g id="4.nativa" stroke="none" stroke-width="1" fill="none" fill-rule="evenodd">
        <rect id="Rectangle" fill-rule="nonzero" x="0" y="0" width="66" height="50"></rect>
        <g transform="translate(7.000000, 14.000000)" fill-rule="nonzero" id="Shape">
            <path d="M13.4,0.3 C12.8,1.2 12.3,2.2 11.8,3.3 L11.6,3.9 C11.1,5 10.8,6.1 10.6,7.2 C10.2,8.5 10,10 10,11.6 C10,13.1 10.2,14.6 10.5,16 C10.7,17 11.1,18.1 11.5,19.3 L11.7,19.9 C12.2,21 12.7,22 13.3,22.9 C12.6,21.4 12.1,20 11.7,18.5 C11.1,16.2 10.8,13.9 10.8,11.7 C10.8,9.4 11.1,7.1 11.7,4.8 C12.1,3.2 12.7,1.8 13.4,0.3 Z M36,5.1 L37.3,5.1 L37.3,6.4 L36,6.4 L36,5.1 Z M19.8,6.8 C18.9,6.8 18.1,7.2 17.4,8.1 L17.4,7 L16.2,7 L16.2,16 L17.4,16 L17.4,10.3 C17.4,9.4 17.6,8.7 18.1,8.2 C18.5,7.8 19,7.6 19.6,7.6 C20.8,7.6 21.4,8.3 21.4,9.7 L21.4,16 L22.6,16 L22.6,9.7 C22.6,8.9 22.5,8.3 22.2,7.8 C21.6,7.1 20.9,6.8 19.8,6.8 Z M28.6,7.2 C28.2,7 27.5,6.9 26.7,6.9 C25.9,6.9 25.2,7 24.7,7.3 C24.6,7.3 24.5,7.4 24.5,7.4 C23.8,7.8 23.5,8.4 23.4,9.3 L24.7,9.3 L24.7,8.9 C24.8,8.5 24.9,8.3 25.2,8.1 C25.5,7.8 26,7.7 26.6,7.7 C27.3,7.7 27.9,7.9 28.2,8.3 C28.5,8.6 28.6,9.2 28.6,9.9 L28.6,10.7 L25.1,11.1 L24.7,11.2 C23.7,11.6 23.1,12.5 23.1,13.7 C23.1,14.5 23.3,15.1 23.8,15.6 C24,15.8 24.3,16 24.7,16.2 C25,16.3 25.4,16.4 25.8,16.4 C27,16.4 28,16 28.6,15.1 L28.6,16 L29.8,16 L29.7,9.2 C29.8,8.2 29.4,7.5 28.6,7.2 Z M28.6,13 C28.6,13.6 28.4,14.1 27.9,14.6 C27.4,15.1 26.8,15.3 26.2,15.3 C25.6,15.3 25.2,15.1 24.9,14.8 L24.8,14.7 C24.6,14.4 24.5,14 24.5,13.5 C24.5,13.1 24.6,12.7 24.8,12.4 C25,12 25.4,11.8 26,11.7 L28.7,11.5 L28.7,13 L28.6,13 Z M33.1,5.1 L31.9,5.1 L31.9,7 L30.3,7 L30.3,7.8 L31.9,7.8 L31.9,14.2 C31.9,14.8 32,15.2 32.3,15.5 C32.6,15.8 33.2,15.9 33.9,15.9 L35,15.9 L35,15 L34.1,15.1 C33.7,15.1 33.4,15 33.2,14.8 C33.1,14.6 33,14.2 33,13.6 L33,7.8 L35,7.8 L35,7 L33,7 L33,5.1 L33.1,5.1 Z M36,7 L37.3,7 L37.3,16 L36,16 L36,7 Z M41.8,14.6 L41.7,14.6 L39.4,7 L38.1,7 L41,16 L42.3,16 L45.3,7 L44.2,7 L41.8,14.6 Z M52.1,16 C52,15.3 52,14.6 52,13.7 L52,9.2 C52,7.6 51,6.8 48.9,6.8 C48,6.8 47.2,7 46.7,7.4 C46.1,7.8 45.7,8.4 45.7,9.3 L47,9.3 C47,8.8 47.2,8.4 47.6,8.1 C47.9,7.8 48.4,7.7 49,7.7 C49.7,7.7 50.2,7.9 50.6,8.3 C50.9,8.6 51,9.2 51,9.9 L51,10.7 L47.5,11.1 C46.2,11.5 45.5,12.3 45.5,13.7 C45.5,14.5 45.7,15.1 46.2,15.6 C46.7,16.1 47.3,16.3 48.2,16.3 C49.4,16.3 50.3,15.9 50.9,15 L51,15 L51,16 L52.1,16 Z M50.8,13 C50.8,13.6 50.6,14.1 50.1,14.6 C49.6,15.1 49,15.3 48.4,15.3 C47.8,15.3 47.4,15.1 47,14.8 C46.7,14.5 46.6,14 46.6,13.5 C46.6,12.6 47.1,11.9 48.1,11.7 L50.8,11.5 L50.8,13 Z" fill="#1D3B6F"></path>
            <path d="M9,3 L9,7.4 L6.6,3.6 L7.9,7.8 L4.5,4.7 L6.9,8.5 L2.8,6.3 L6.2,9.4 L1.6,8.2 L5.7,10.4 L0.9,10.4 L5.5,11.6 L0.9,12.7 L5.7,12.7 L1.6,14.9 L6.2,13.7 L2.8,16.8 L6.9,14.6 L4.5,18.4 L7.9,15.3 L6.6,19.5 L9,15.7 L9,20.1 L10.2,16 C9.9,14.5 9.7,13 9.7,11.6 C9.7,10.1 9.9,8.7 10.2,7.2 L9,3 Z M39.6,17.9 L38.4,16.6 L38.1,18.6 L38.5,18.6 L38.7,17.5 L39.9,18.8 L40.2,16.8 L39.8,16.8 L39.6,17.9 Z M43.7,17 C43.3,17.3 43.3,17.8 43.3,17.8 C43.3,18 43.4,18.2 43.5,18.3 C43.7,18.5 43.9,18.6 44.2,18.6 L44.8,18.4 L44.9,17.9 L44.7,18.1 C44.6,18.2 44.4,18.3 44.2,18.3 C44,18.3 43.8,18.1 43.8,18.1 C43.7,18 43.6,17.8 43.7,17.7 C43.7,17.5 44,17.3 44,17.3 C44.1,17.2 44.3,17.1 44.5,17.1 C44.6,17.1 44.8,17.2 44.9,17.3 L45,17.4 L45.1,16.9 C45.1,16.9 44.7,16.7 44.5,16.7 C44.3,16.7 43.9,16.9 43.7,17 Z M40.6,18.6 L41,18.6 L41.3,18.1 L41.9,18.1 L42,18.6 L42.4,18.6 L41.8,16.5 L40.6,18.6 Z M41.6,17.8 L41.8,17.4 L41.9,17.8 L41.6,17.8 Z M48.4,16.8 C48.1,16.8 47.9,16.9 47.6,17.1 C47.4,17.3 47.2,17.5 47.2,17.7 C47.2,18 47.2,18.2 47.4,18.4 C47.6,18.6 47.8,18.7 48.1,18.7 C48.1,18.7 48.5,18.7 48.9,18.5 L49.3,17.8 C49.3,17.5 49.3,17.3 49.1,17.1 C48.9,16.9 48.7,16.8 48.4,16.8 Z M48.6,18.1 C48.6,18.1 48.3,18.4 48.1,18.3 C47.9,18.3 47.8,18.2 47.7,18.1 C47.6,18 47.6,17.8 47.6,17.7 C47.6,17.5 47.9,17.3 47.9,17.3 C47.9,17.3 48.2,17.1 48.4,17.1 C48.6,17.1 48.7,17.2 48.8,17.3 C48.9,17.4 48.9,17.6 48.9,17.7 L48.6,18.1 Z M45.8,18.6 L46.2,18.6 L46.5,16.8 L46.2,16.8 L45.8,18.6 Z M51.7,16.8 L51.5,17.9 L50.3,16.6 L50,18.6 L50.4,18.6 L50.5,17.5 L51.7,18.8 L52.1,16.8 L51.7,16.8 Z" fill="#F0B91B"></path>
        </g>
    </g>
</svg>