<?xml version="1.0" encoding="UTF-8"?>
<svg width="66px" height="50px" viewBox="0 0 66 50" version="1.1" xmlns="http://www.w3.org/2000/svg" xmlns:xlink="http://www.w3.org/1999/xlink">
    <!-- Generator: Sketch 51.2 (57519) - http://www.bohemiancoding.com/sketch -->
    <title>14.BancoBica</title>
    <desc>Created with Sketch.</desc>
    <defs>
        <polygon id="path-1" points="0 0.051257732 7.59789278 0.051257732 7.59789278 9.75278144 0 9.75278144"></polygon>
        <polygon id="path-3" points="-1.13402062e-05 0.051257732 8.8075866 0.051257732 8.8075866 9.92288454 -1.13402062e-05 9.92288454"></polygon>
    </defs>
    <g id="14.BancoBica" stroke="none" stroke-width="1" fill="none" fill-rule="evenodd">
        <rect id="Rectangle" fill-rule="nonzero" x="0" y="0" width="66" height="50"></rect>
        <g id="Group-23" transform="translate(0.000000, 20.000000)">
            <g id="Group-3" transform="translate(0.000000, 0.062156)">
                <mask id="mask-2" fill="white">
                    <use xlink:href="#path-1"></use>
                </mask>
                <g id="Clip-2"></g>
                <path d="M1.31054227,8.61331753 C1.31054227,8.65232784 1.34660412,8.68396701 1.39105773,8.68396701 L3.52596495,8.68396701 C3.84814021,8.68396701 4.16804742,8.65436907 4.48545979,8.59494639 C4.80253196,8.53552371 5.08853196,8.43969897 5.34345979,8.30713196 C5.59827423,8.17479175 5.80375876,8.0012866 5.9598,7.78638969 C6.11584124,7.57183299 6.19386186,7.30919381 6.19386186,6.99858557 C6.19386186,6.66064742 6.11822268,6.37736907 5.96751134,6.14909072 C5.8166866,5.92081237 5.6190268,5.73789485 5.37475876,5.60090515 C5.13026392,5.46391546 4.84936701,5.36786392 4.53218144,5.31309072 C4.21476907,5.25820412 3.88987216,5.23087423 3.55715052,5.23087423 L1.39105773,5.23087423 C1.34660412,5.23087423 1.31054227,5.2625134 1.31054227,5.30163711 L1.31054227,8.61331753 Z M1.31054227,4.09141031 C1.31054227,4.13042062 1.34660412,4.16205979 1.39105773,4.16205979 L3.12021237,4.16205979 C3.43229485,4.16205979 3.73655258,4.14391546 4.03298557,4.1072866 C4.32941856,4.07088454 4.59704742,3.99547216 4.83643918,3.88116289 C5.07560412,3.76708041 5.26793402,3.6070701 5.41376907,3.40158557 C5.55926392,3.19598763 5.63206804,2.92427629 5.63206804,2.58622474 C5.63206804,2.28480206 5.56436701,2.04053402 5.42930515,1.85319381 C5.29401649,1.66608041 5.11461443,1.51741031 4.89109897,1.40775052 C4.6672433,1.29820412 4.41254227,1.22279175 4.12665567,1.18174021 C3.84042887,1.14057526 3.55182062,1.12004948 3.26071753,1.12004948 L1.39105773,1.12004948 C1.34660412,1.12004948 1.31054227,1.15180206 1.31054227,1.19081237 L1.31054227,4.09141031 Z M-4.53608247e-05,0.121997938 C-4.53608247e-05,0.0828742268 0.0360164948,0.0512350515 0.0805835052,0.0512350515 L3.36992371,0.0512350515 C3.82750103,0.0512350515 4.27487216,0.0924 4.71169691,0.174503093 C5.14852165,0.25683299 5.53851134,0.391668041 5.88177938,0.578781443 C6.22493402,0.766121649 6.50322268,1.01050309 6.71641856,1.31192577 C6.92950103,1.61334845 7.03621237,1.98802887 7.03621237,2.4355134 C7.03621237,3.0020701 6.8620268,3.47008041 6.51365567,3.84011134 C6.16505773,4.21002887 5.69455258,4.47278144 5.1016866,4.62791546 L5.1016866,4.65535876 C5.45516082,4.68280206 5.78550103,4.76286392 6.09236701,4.89520412 C6.39911959,5.02765773 6.66425361,5.19912165 6.88810928,5.40902887 C7.11162474,5.61927629 7.28592371,5.86354433 7.41066598,6.1421732 C7.53552165,6.42091546 7.59789278,6.7199567 7.59789278,7.03963711 C7.59789278,7.57875052 7.47042887,8.02169897 7.21572784,8.36882268 C6.9606866,8.71605979 6.62796495,8.99219381 6.21722268,9.19779175 C5.80625361,9.40338969 5.34345979,9.54729691 4.82872784,9.6295134 C4.31388247,9.71161649 3.80141856,9.75278144 3.29190309,9.75278144 L0.0805835052,9.75278144 C0.0360164948,9.75278144 -4.53608247e-05,9.72114227 -4.53608247e-05,9.68201856 L-4.53608247e-05,0.121997938 Z" id="Fill-1" fill="#85CB00" mask="url(#mask-2)"></path>
            </g>
            <path d="M12.0363474,6.42648351 C11.2468423,6.42648351 10.6204093,6.53172062 10.1573887,6.74174124 C9.69402784,6.95198866 9.46257423,7.29741134 9.46257423,7.77766907 C9.46257423,8.21834948 9.61770825,8.53099897 9.92831649,8.71595773 C10.2386979,8.90148351 10.6256258,8.99390619 11.0889866,8.99390619 C11.4466567,8.99390619 11.7599866,8.93641134 12.0284093,8.82119485 C12.296832,8.70620515 12.5204608,8.55356598 12.6995227,8.36327732 C12.8783577,8.17310206 13.015234,7.95038041 13.1100381,7.69522577 C13.2047289,7.44007113 13.2573474,7.16733918 13.2678938,6.87691649 L13.2678938,6.50405052 C13.2678938,6.46129794 13.2314918,6.42648351 13.1864711,6.42648351 L12.0363474,6.42648351 Z M8.52371856,3.73443196 C8.49275979,3.7038134 8.4929866,3.6542567 8.52496598,3.62443196 C8.89182165,3.28195773 9.32274948,3.0273701 9.81786289,2.86078247 C10.338832,2.68580309 10.8678526,2.5981433 11.4046979,2.5981433 C12.499368,2.5981433 13.2888732,2.84343196 13.7732134,3.33378247 C14.2573268,3.82424639 14.4995536,4.56997835 14.4995536,5.57075155 L14.4995536,8.58838041 C14.4995536,8.75746289 14.5116876,9.56148351 14.5154299,9.80983402 C14.5161103,9.8524732 14.4812959,9.88694742 14.4366155,9.88785464 C14.2185433,9.89261753 13.6133165,9.85122577 13.3547598,9.27162784 C13.2745845,9.09188557 13.3469351,8.90386495 13.3469351,8.75360722 L13.3152959,8.75360722 C13.0730691,9.11388557 12.7493062,9.40929794 12.344234,9.63939072 C11.9388216,9.86948351 11.4521,9.9848134 10.8836155,9.9848134 C10.5047392,9.9848134 10.1494505,9.93967938 9.81786289,9.84975155 C9.48627526,9.75948351 9.19653299,9.62691649 8.94931649,9.45182371 C8.7018732,9.27684433 8.50455361,9.05922577 8.35724433,8.79862784 C8.20970825,8.53848351 8.13622371,8.23830825 8.13622371,7.89787526 C8.13622371,7.31748351 8.29407938,6.86183402 8.60990412,6.53172062 C8.92572887,6.20126701 9.31775979,5.95620515 9.78622371,5.79585464 C10.2545742,5.63595773 10.7597804,5.53582371 11.3020691,5.49567938 C11.8441309,5.45576186 12.3415124,5.43568969 12.7943268,5.43568969 L13.1864711,5.43568969 C13.2314918,5.43568969 13.2678938,5.40087526 13.2678938,5.35812268 L13.2678938,5.22544227 C13.2678938,4.71501959 13.1073165,4.32979278 12.7863887,4.06942165 C12.4651206,3.80916392 12.0151412,3.67897835 11.4363371,3.67897835 C11.0361412,3.67897835 10.6441103,3.74168969 10.2599041,3.86665876 C9.90064639,3.98380309 9.58039897,4.15980309 9.29961546,4.39477216 C9.26672887,4.42221546 9.21762577,4.42108144 9.18734742,4.3911433 L8.52371856,3.73443196 Z" id="Fill-4" fill="#85CB00"></path>
            <path d="M15.6708608,4.44737938 C15.6708608,4.12679175 15.660201,3.82604948 15.6391082,3.54526598 C15.6201701,3.29589485 15.6097371,3.06602887 15.6076959,2.85600825 C15.6073557,2.81291546 15.6445515,2.77844124 15.6900258,2.77844124 L16.701799,2.77844124 C16.7467062,2.77844124 16.782768,2.81257526 16.7829948,2.85510103 C16.7842423,3.02010103 16.7893454,3.18510103 16.7986443,3.34987423 C16.8090773,3.54027629 16.8145206,3.73578144 16.8145206,3.93616289 L16.8462732,3.93616289 C16.9308711,3.76594639 17.0500567,3.60049278 17.2037165,3.44002887 C17.3570361,3.27979175 17.5396134,3.13701856 17.7515619,3.01148247 C17.9632835,2.8862866 18.2015412,2.78603918 18.4663351,2.71085361 C18.7309021,2.63566804 19.0167887,2.59813196 19.3239948,2.59813196 C19.8109433,2.59813196 20.2318918,2.66832784 20.5867268,2.80849278 C20.9414485,2.94911134 21.2351598,3.14450309 21.4683144,3.39500825 C21.7010155,3.6456268 21.8732732,3.94886392 21.9844072,4.30460619 C22.0956546,4.66046186 22.1512216,5.04886392 22.1512216,5.46992577 C22.1512216,5.46992577 22.1469124,9.08699794 22.1505412,9.73429691 C22.150768,9.77841031 22.1119845,9.81515258 22.0656031,9.81254433 C21.3022938,9.7670701 20.9690052,9.12385361 20.9191082,9.01782268 C20.9144588,9.0080701 20.9124175,8.99775052 20.9124175,8.98697732 L20.9124175,5.59013196 C20.9124175,4.9986268 20.774634,4.53265773 20.4994072,4.19188454 C20.2238402,3.85122474 19.795067,3.68055464 19.2128608,3.68055464 C18.8103969,3.68055464 18.4636134,3.74587423 18.1725103,3.87605979 C17.8811804,4.00647216 17.6429227,4.19188454 17.4577371,4.43229691 C17.2724381,4.67293608 17.1346546,4.95870928 17.0448402,5.28938969 C16.9546856,5.62029691 16.9097784,5.98613196 16.9097784,6.38700825 L16.9097784,9.73724536 C16.9097784,9.78011134 16.8731495,9.81492577 16.8277887,9.81492577 L15.7528505,9.81492577 C15.7076031,9.81492577 15.6708608,9.78011134 15.6708608,9.73724536 L15.6708608,4.44737938 Z" id="Fill-6" fill="#85CB00"></path>
            <path d="M28.3861237,4.48291959 C28.3540309,4.51149691 28.305268,4.50730103 28.2771443,4.47498144 C28.0424021,4.20542474 27.7906495,4.00776495 27.521433,3.88177526 C27.2324845,3.7466 26.9140515,3.67901237 26.565567,3.67901237 C26.1771649,3.67901237 25.8338969,3.7466 25.5350825,3.88177526 C25.2364948,4.01683711 24.9899588,4.20451753 24.795701,4.44470309 C24.6015567,4.68500206 24.4545876,4.96261031 24.3552474,5.27798144 C24.255567,5.59335258 24.2058969,5.93106392 24.2058969,6.29134227 C24.2058969,6.65173402 24.2630515,6.98955876 24.377701,7.3049299 C24.4920103,7.62007423 24.6513402,7.89779588 24.8554639,8.13798144 C25.0594742,8.37839381 25.3060103,8.56584742 25.5948454,8.70102268 C25.883567,8.83619794 26.2072165,8.90378557 26.565567,8.90378557 C27.3012062,8.90378557 27.8763814,8.63661031 28.2912062,8.10203299 C28.3193299,8.06585773 28.3717216,8.06064124 28.4049485,8.09216701 L29.1539691,8.80625979 C29.1845876,8.83540412 29.1867423,8.88450722 29.1583918,8.91580619 C28.8308866,9.27699175 28.4494021,9.54325979 28.0142784,9.71461031 C27.556134,9.89457938 27.0733814,9.98484742 26.565567,9.98484742 C26.0280412,9.98484742 25.5350825,9.89457938 25.0870309,9.71461031 C24.6390928,9.53430103 24.2580619,9.27914639 23.9445052,8.94880619 C23.6308351,8.61857938 23.3867938,8.22813608 23.2127216,7.77770309 C23.0384227,7.32738351 22.9513299,6.8319299 22.9513299,6.29134227 C22.9513299,5.76107423 23.0384227,5.27038351 23.2127216,4.82017732 C23.3867938,4.36963093 23.6332165,3.97930103 23.9519897,3.64896082 C24.2705361,3.31873402 24.6513402,3.06108454 25.0945155,2.87578557 C25.5373505,2.6907134 26.0280412,2.59806392 26.565567,2.59806392 C27.0832474,2.59806392 27.5737113,2.68810515 28.0366186,2.86830103 C28.4753711,3.03897113 28.8625258,3.29968247 29.1985361,3.64998144 C29.2290412,3.68173402 29.2265464,3.73344536 29.1937732,3.76270309 L28.3861237,4.48291959 Z" id="Fill-8" fill="#85CB00"></path>
            <path d="M30.4679474,6.29137629 C30.4679474,6.66197423 30.5247619,7.00456186 30.6388443,7.31981959 C30.7525866,7.63519072 30.9184938,7.91041753 31.136566,8.1456134 C31.3542979,8.38092268 31.6143289,8.56588144 31.9165454,8.7010567 C32.2186485,8.83611856 32.5577206,8.90381959 32.9343289,8.90381959 C33.3105969,8.90381959 33.6497825,8.83611856 33.951999,8.7010567 C34.2539887,8.56588144 34.5140196,8.38092268 34.7319784,8.1456134 C34.9497103,7.91041753 35.1156175,7.63519072 35.2297,7.31981959 C35.3434423,7.00456186 35.4005969,6.66197423 35.4005969,6.29137629 C35.4005969,5.92111856 35.3434423,5.57830412 35.2297,5.26293299 C35.1156175,4.94778866 34.9497103,4.67256186 34.7319784,4.43725258 C34.5140196,4.2021701 34.2539887,4.01687113 33.951999,3.88169588 C33.6497825,3.74663402 33.3105969,3.67904639 32.9343289,3.67904639 C32.5577206,3.67904639 32.2186485,3.74663402 31.9165454,3.88169588 C31.6143289,4.01687113 31.3542979,4.2021701 31.136566,4.43725258 C30.9184938,4.67256186 30.7525866,4.94778866 30.6388443,5.26293299 C30.5247619,5.57830412 30.4679474,5.92111856 30.4679474,6.29137629 M29.2199577,6.29137629 C29.2199577,5.74103608 29.313968,5.24036598 29.5022155,4.79004639 C29.6903495,4.3396134 29.947999,3.95189175 30.2748237,3.62654124 C30.6016485,3.30141753 30.9927722,3.04841753 31.4485351,2.86833505 C31.9039577,2.68813918 32.3994113,2.59809794 32.9343289,2.59809794 C33.469133,2.59809794 33.9642464,2.68813918 34.4200093,2.86833505 C34.875432,3.04841753 35.2667825,3.30141753 35.5937206,3.62654124 C35.9205454,3.95189175 36.1780814,4.3396134 36.3663289,4.79004639 C36.5542361,5.24036598 36.6485866,5.74103608 36.6485866,6.29137629 C36.6485866,6.8419433 36.5542361,7.3423866 36.3663289,7.79270619 C36.1780814,8.24325258 35.9205454,8.63120103 35.5937206,8.95632474 C35.2667825,9.28167526 34.875432,9.53433505 34.4200093,9.71464433 C33.9642464,9.8945 33.469133,9.98476804 32.9343289,9.98476804 C32.3994113,9.98476804 31.9039577,9.8945 31.4485351,9.71464433 C30.9927722,9.53433505 30.6016485,9.28167526 30.2748237,8.95632474 C29.947999,8.63120103 29.6903495,8.24325258 29.5022155,7.79270619 C29.313968,7.3423866 29.2199577,6.8419433 29.2199577,6.29137629" id="Fill-10" fill="#85CB00"></path>
            <g id="Group-14" transform="translate(37.649485, 0.062156)">
                <mask id="mask-4" fill="white">
                    <use xlink:href="#path-3"></use>
                </mask>
                <g id="Clip-13"></g>
                <path d="M5.46721546,3.39682268 C5.39531856,3.50943093 5.30334948,3.59686392 5.18575155,3.66399794 C5.0621433,3.73453402 4.92073093,3.78624536 4.76559691,3.81765773 C4.60252474,3.85077113 4.43480309,3.86755464 4.26708144,3.86755464 L2.81213299,3.86755464 C2.7688134,3.86755464 2.73377216,3.83636907 2.73377216,3.79792577 L2.73377216,2.22503918 C2.73377216,2.18670928 2.7688134,2.15552371 2.81213299,2.15552371 L4.16071031,2.15552371 C4.3304732,2.15552371 4.50851443,2.17049278 4.68939072,2.19997732 C4.86278247,2.22855464 5.01859691,2.27516289 5.15286495,2.33866804 C5.27817423,2.39809072 5.37819485,2.47974021 5.4581433,2.58781237 C5.53400928,2.69089485 5.57256598,2.82663711 5.57256598,2.99129691 C5.57256598,3.15074021 5.53707113,3.28716289 5.46721546,3.39682268 M5.19255567,7.76847216 C5.01905052,7.80181237 4.84554536,7.81859588 4.67691649,7.81859588 L2.81213299,7.81859588 C2.7688134,7.81859588 2.73377216,7.78752371 2.73377216,7.74908041 L2.73377216,6.04135876 C2.73377216,6.00280206 2.7688134,5.9717299 2.81213299,5.9717299 L4.34294742,5.9717299 C4.52620515,5.9717299 4.72738041,5.98477113 4.94080309,6.01074021 C5.14685464,6.03580206 5.34088557,6.0819567 5.51711237,6.1478433 C5.68279278,6.20998763 5.81604021,6.29810103 5.92411237,6.41705979 C6.0248134,6.52785361 6.07368969,6.67334845 6.07368969,6.86159588 C6.07368969,7.03770928 6.03377216,7.18694639 5.95507113,7.30454433 C5.87183402,7.42883299 5.76841134,7.52647216 5.63879278,7.60313196 C5.50633918,7.68149278 5.35630825,7.73705979 5.19255567,7.76847216 M8.1144732,5.42399794 C7.89333918,5.20842062 7.62548351,5.02867835 7.31827732,4.88976082 C7.2183701,4.84474021 7.11438041,4.80425567 7.00653505,4.76864742 C6.94484433,4.74823505 6.93735979,4.67338969 6.99440103,4.64447216 C7.28777216,4.49591546 7.54201959,4.30970928 7.75442165,4.08721443 C8.12059691,3.70380206 8.30634948,3.21708041 8.30634948,2.64077113 C8.30634948,2.08975052 8.17877216,1.6378433 7.92701959,1.29752371 C7.67810206,0.961173196 7.34900928,0.695698969 6.9485866,0.508245361 C6.55746289,0.325101031 6.11077216,0.201379381 5.62087526,0.140482474 C5.14356598,0.0812865979 4.66240103,0.0512350515 4.19121546,0.0512350515 L0.0783494845,0.0512350515 C0.035143299,0.0512350515 -1.13402062e-05,0.0824206186 -1.13402062e-05,0.120863918 L-1.13402062e-05,9.15594639 C-1.13402062e-05,9.19438969 -1.13402062e-05,9.78634845 1.26442165,9.92265773 C1.79185464,9.92243093 4.58596804,9.92288454 4.58596804,9.92288454 C5.07268969,9.92288454 5.5681433,9.87638969 6.05838041,9.78453402 C6.55678247,9.69154433 7.01288557,9.53516289 7.41353505,9.31969897 C7.82076186,9.10071959 8.15745258,8.80904948 8.41430825,8.4525134 C8.67524639,8.09030722 8.8075866,7.63658557 8.8075866,7.10416289 C8.8075866,6.78119381 8.74759691,6.47205979 8.62931856,6.18537938 C8.51024639,5.89722474 8.33708144,5.64104948 8.1144732,5.42399794" id="Fill-12" fill="#03B151" mask="url(#mask-4)"></path>
            </g>
            <path d="M47.1413732,8.85654227 C47.2310742,9.02222268 48.0124144,10.3677381 49.5388062,9.99940825 C49.5716928,9.9914701 49.5952804,9.96119175 49.5952804,9.92739794 L49.5952804,5.67595464 C49.5952804,5.63569691 49.5626206,5.60303711 49.5221361,5.60303711 L47.2056722,5.60303711 C47.165301,5.60303711 47.1326412,5.63569691 47.1326412,5.67595464 L47.1326412,8.82184124 C47.1326412,8.83420206 47.1354763,8.84576907 47.1413732,8.85654227" id="Fill-15" fill="#03B151"></path>
            <path d="M48.3349753,2.20713299 C48.0089443,2.2131433 47.7205629,2.31951443 47.475501,2.52420515 C47.120099,2.82086495 46.9278825,3.28252474 46.9685938,3.74361753 C46.9936557,4.02610206 47.0978722,4.27808144 47.2794289,4.4959268 C47.5762021,4.85166907 48.0383155,5.04422577 48.4997485,5.00328763 C48.8176144,4.97516392 49.0973773,4.84645258 49.3328,4.61987526 C49.6132433,4.34986495 49.7720062,3.96838041 49.7648619,3.57907113 C49.7582845,3.21675155 49.627532,2.90115361 49.376233,2.63964845 C49.1062227,2.35886495 48.7245113,2.20010206 48.3349753,2.20713299" id="Fill-17" fill="#90CF00"></path>
            <path d="M54.7147258,4.72107526 C54.9169216,4.72107526 55.100633,4.76337423 55.2764062,4.8501268 C55.4491175,4.93574536 55.584066,5.04347732 55.6770557,5.17094124 L55.8031588,5.34342577 L57.9107361,4.10133299 L57.4415918,3.48431237 C57.0714474,3.12562165 56.6289526,2.87046701 56.1261278,2.72553918 C55.6352103,2.58458041 55.1602825,2.51302371 54.7147258,2.51302371 C54.1358082,2.51302371 53.582066,2.60215773 53.0690351,2.77804433 C52.5535093,2.95472474 52.098767,3.21146701 51.7173959,3.54124021 C51.3355711,3.87158041 51.030633,4.27370412 50.8114268,4.73627113 C50.591767,5.19974536 50.4802928,5.72298247 50.4802928,6.29135361 C50.4802928,6.85995155 50.591767,7.38318866 50.8113134,7.84654948 C51.0307464,8.3093433 51.3355711,8.71146701 51.7173959,9.04146701 C52.0980866,9.3710134 52.5528289,9.62786907 53.0691485,9.80500309 C53.5825196,9.98066289 54.1361485,10.0699103 54.7147258,10.0699103 C55.1601691,10.0699103 55.6349835,9.99835361 56.1261278,9.85716804 C56.6282722,9.71280722 57.3970247,9.16881753 57.9262722,8.03332268 L58.2887052,6.69075567 L55.982901,6.65299278 L55.8038392,7.10660103 C55.6862412,7.23451856 55.4292722,7.63720928 55.2659732,7.73110619 C55.1158289,7.81774536 54.9303031,7.86174536 54.7147258,7.86174536 C54.1918289,7.86174536 53.8003649,7.72214742 53.518334,7.4351268 C53.2325608,7.14447732 53.0934165,6.77025052 53.0934165,6.29135361 C53.0934165,5.8125701 53.2325608,5.4385701 53.518334,5.14769381 C53.8005918,4.86055979 54.1919423,4.72107526 54.7147258,4.72107526" id="Fill-19" fill="#03B151"></path>
            <path d="M63.4784598,6.81076907 C63.5215526,6.81076907 63.556367,6.8451299 63.556367,6.88754227 L63.556367,7.10765567 C63.556367,7.30350103 63.5158825,7.47417113 63.4360474,7.61501649 C63.3533773,7.76062474 63.2457588,7.87708866 63.1071814,7.97109897 C62.9633876,8.06862474 62.795666,8.14562474 62.6084392,8.19960412 C62.4198515,8.25392371 62.2213979,8.28148041 62.0185216,8.28148041 C61.7964804,8.28148041 61.5889546,8.2259134 61.3836969,8.11149072 C61.2099649,8.01487216 61.1289959,7.87550103 61.1289959,7.67251134 C61.1289959,7.47825361 61.1894392,7.33309897 61.3137278,7.22922268 C61.4597897,7.10708866 61.6407794,7.01387216 61.8514804,6.95195464 C62.0734082,6.88697526 62.3083773,6.84671753 62.5493567,6.83265567 C62.8009959,6.81814021 63.0130577,6.81076907 63.1796454,6.81076907 L63.4784598,6.81076907 Z M65.8452742,4.4914701 C65.7391299,4.00576907 65.5470268,3.58833608 65.2744082,3.25096495 C64.9988412,2.91041856 64.6283567,2.64936701 64.1727072,2.47506804 C63.7262433,2.30428454 63.1536763,2.21764536 62.4708825,2.21764536 C61.8501196,2.21764536 61.2413773,2.31845979 60.6618928,2.51736701 C60.0777588,2.71786186 59.8156866,2.77342887 59.3768206,3.17498557 L59.2991402,3.24620206 C59.2670474,3.27545979 59.2659134,3.3251299 59.2964186,3.35597526 L59.6039649,4.85821237 C59.6354907,4.89007835 59.6878825,4.88894433 59.717934,4.85560412 L59.7916454,4.77395464 C60.1201711,4.54907835 60.8442433,4.2440268 61.1289959,4.10136701 C61.408532,3.96131546 62.1066351,3.92105773 62.4277897,4.02572784 C62.9369649,4.19186186 62.9369649,4.19186186 63.1925732,4.39938763 C63.369367,4.54318144 63.4807278,4.72088247 63.5286969,4.93782062 C63.5390165,4.98420206 63.5018206,5.02752165 63.4537381,5.02797526 C63.2236454,5.0301299 62.9760887,5.03466598 62.7148103,5.04158351 C62.343532,5.05178969 61.9666969,5.08229485 61.5941711,5.13219175 C61.2174495,5.18322268 60.8500268,5.26305773 60.5022227,5.36897526 C60.1431918,5.47829485 59.8186351,5.63444948 59.5375113,5.83301649 C59.2495835,6.0365732 59.0182433,6.29728454 58.850068,6.60732577 C58.6806454,6.91940825 58.5948,7.30282062 58.5948,7.74690309 C58.5948,8.14029485 58.6722536,8.49218144 58.8250062,8.79269691 C58.9770784,9.09275876 59.1866454,9.3480268 59.4476969,9.5514701 C59.7058,9.75287216 60.0076763,9.90585155 60.344934,10.0062124 C60.6777691,10.1049856 61.027501,10.1548825 61.3850577,10.1548825 C61.8684907,10.1548825 62.3355938,10.0652948 62.7732124,9.88884124 C63.0168,9.79040825 63.235666,9.65682062 63.4281093,9.48864536 C63.4780062,9.44509897 63.556367,9.48025361 63.556367,9.5460268 C64.3719546,10.2627278 65.9999546,9.94214021 65.9999546,9.89972784 L65.9999546,6.12684124 C65.9999546,5.51344948 65.9479031,4.96322268 65.8452742,4.4914701 Z" id="Fill-21" fill="#03B151"></path>
        </g>
    </g>
</svg>