<?xml version="1.0" encoding="UTF-8"?>
<svg width="66px" height="50px" viewBox="0 0 66 50" version="1.1" xmlns="http://www.w3.org/2000/svg" xmlns:xlink="http://www.w3.org/1999/xlink">
    <!-- Generator: Sketch 51.3 (57544) - http://www.bohemiancoding.com/sketch -->
    <title>24.Imagen no disponible</title>
    <desc>Created with Sketch.</desc>
    <defs>
        <polygon id="path-1" points="0 50 66 50 66 0 0 0"></polygon>
    </defs>
    <g id="24.Imagen-no-disponible" stroke="none" stroke-width="1" fill="none" fill-rule="evenodd">
        <rect id="Rectangle" stroke="#E2E2E2" fill="#FFFFFF" fill-rule="nonzero" x="0.5" y="0.5" width="65" height="49"></rect>
        <text id="IMAGEN-NO-DISPONIBLE" font-family="OpenSans-SemiBold, Open Sans" font-size="6" font-weight="500" line-spacing="8" fill="#9E9E9E">
            <tspan x="15.7001953" y="36">IMAGEN NO </tspan>
            <tspan x="15.4804688" y="44">DISPONIBLE</tspan>
        </text>
        <g id="noun_Photo_1447982" transform="translate(23.000000, 9.000000)" fill-rule="nonzero">
            <g id="Group">
                <path d="M18.0243902,0.0242424242 L1.97560976,0.0242424242 C0.902439024,0.0242424242 0.0243902439,0.896969697 0.0243902439,1.96363636 L0.0243902439,14.0363636 C0.0243902439,15.1030303 0.902439024,15.9757576 1.97560976,15.9757576 L18.0487805,15.9757576 C19.1219512,15.9757576 20,15.1030303 20,14.0363636 L20,1.96363636 C19.9756098,0.896969697 19.097561,0.0242424242 18.0243902,0.0242424242 Z M1.97560976,15.0060606 C1.43902439,15.0060606 1,14.569697 1,14.0363636 L1,13.5030303 L8.2195122,8.8 L15.9756098,15.0060606 L1.97560976,15.0060606 Z M19,14.0363636 C19,14.569697 18.5609756,15.0060606 18.0243902,15.0060606 L17.5121951,15.0060606 L11.097561,9.89090909 L15.5365854,7.05454545 L19,8.84848485 L19,14.0363636 Z M19,7.75757576 L15.4878049,5.93939394 L10.3170732,9.23636364 L8.26829268,7.61212121 L1,12.3636364 L1,1.96363636 C1,1.43030303 1.43902439,0.993939394 1.97560976,0.993939394 L18.0487805,0.993939394 C18.5853659,0.993939394 19.0243902,1.43030303 19.0243902,1.96363636 L19.0243902,7.75757576 L19,7.75757576 Z" id="Shape" fill="#9E9E9E"></path>
                <path d="M11.1219512,2.32727273 C9.97560976,2.32727273 9.04878049,3.24848485 9.04878049,4.38787879 C9.04878049,5.52727273 9.97560976,6.44848485 11.1219512,6.44848485 C12.2682927,6.44848485 13.195122,5.52727273 13.195122,4.38787879 C13.195122,3.24848485 12.2682927,2.32727273 11.1219512,2.32727273 Z M11.1219512,5.47878788 C10.5121951,5.47878788 10.0243902,4.99393939 10.0243902,4.38787879 C10.0243902,3.78181818 10.5121951,3.2969697 11.1219512,3.2969697 C11.7317073,3.2969697 12.2195122,3.78181818 12.2195122,4.38787879 C12.2439024,4.99393939 11.7317073,5.47878788 11.1219512,5.47878788 Z" id="Shape" fill="#C4C4C4"></path>
            </g>
        </g>
        <g id="Group-33">
            <polygon id="Fill-1" fill="#FFFFFF" points="0.5 49.5 65.5 49.5 65.5 0.5 0.5 0.5"></polygon>
            <path d="M0,50 L66,50 L66,0 L0,0 L0,50 Z M1,49 L65,49 L65,1 L1,1 L1,49 Z" id="Fill-2" fill="#E3E3E3"></path>
            <polygon id="Fill-3" fill="#A0A0A0" points="16.289 36 16.787 36 16.787 31.717 16.289 31.717"></polygon>
            <g id="Group-32">
                <path d="M19.8574,36 L18.4044,32.203 L18.3804,32.203 C18.4084,32.504 18.4214,32.861 18.4214,33.275 L18.4214,36 L17.9614,36 L17.9614,31.717 L18.7114,31.717 L20.0684,35.25 L20.0914,35.25 L21.4604,31.717 L22.2044,31.717 L22.2044,36 L21.7064,36 L21.7064,33.24 C21.7064,32.924 21.7194,32.58 21.7474,32.209 L21.7234,32.209 L20.2584,36 L19.8574,36 Z" id="Fill-4" fill="#A0A0A0"></path>
                <path d="M25.3828,34.1895 L24.8848,32.8625 C24.8208,32.6945 24.7538,32.4885 24.6858,32.2445 C24.6428,32.4315 24.5808,32.6375 24.5008,32.8625 L23.9968,34.1895 L25.3828,34.1895 Z M26.0708,36.0005 L25.5378,34.6375 L23.8208,34.6375 L23.2938,36.0005 L22.7898,36.0005 L24.4838,31.6995 L24.9028,31.6995 L26.5868,36.0005 L26.0708,36.0005 Z" id="Fill-6" fill="#A0A0A0"></path>
                <path d="M29.0596,33.7559 L30.5156,33.7559 L30.5156,35.8389 C30.2886,35.9109 30.0586,35.9659 29.8246,36.0029 C29.5896,36.0399 29.3186,36.0589 29.0096,36.0589 C28.3616,36.0589 27.8566,35.8659 27.4956,35.4809 C27.1336,35.0949 26.9536,34.5539 26.9536,33.8589 C26.9536,33.4129 27.0426,33.0239 27.2216,32.6879 C27.3996,32.3539 27.6576,32.0979 27.9936,31.9199 C28.3296,31.7439 28.7226,31.6549 29.1736,31.6549 C29.6306,31.6549 30.0566,31.7389 30.4516,31.9069 L30.2576,32.3469 C29.8716,32.1829 29.4986,32.1009 29.1416,32.1009 C28.6206,32.1009 28.2126,32.2559 27.9196,32.5669 C27.6266,32.8769 27.4806,33.3079 27.4806,33.8589 C27.4806,34.4369 27.6216,34.8749 27.9036,35.1739 C28.1856,35.4729 28.6006,35.6219 29.1476,35.6219 C29.4446,35.6219 29.7346,35.5879 30.0176,35.5199 L30.0176,34.2009 L29.0596,34.2009 L29.0596,33.7559 Z" id="Fill-8" fill="#A0A0A0"></path>
                <polygon id="Fill-10" fill="#A0A0A0" points="33.9316 36 31.5436 36 31.5436 31.717 33.9316 31.717 33.9316 32.159 32.0416 32.159 32.0416 33.539 33.8176 33.539 33.8176 33.979 32.0416 33.979 32.0416 35.555 33.9316 35.555"></polygon>
                <path d="M38.2266,36 L37.6586,36 L35.3176,32.405 L35.2936,32.405 C35.3256,32.827 35.3406,33.214 35.3406,33.565 L35.3406,36 L34.8806,36 L34.8806,31.717 L35.4436,31.717 L37.7786,35.297 L37.8016,35.297 C37.7976,35.244 37.7896,35.075 37.7756,34.789 C37.7616,34.503 37.7566,34.298 37.7606,34.175 L37.7606,31.717 L38.2266,31.717 L38.2266,36 Z" id="Fill-12" fill="#A0A0A0"></path>
                <path d="M44.3086,36 L43.7406,36 L41.3996,32.405 L41.3756,32.405 C41.4076,32.827 41.4226,33.214 41.4226,33.565 L41.4226,36 L40.9626,36 L40.9626,31.717 L41.5256,31.717 L43.8606,35.297 L43.8836,35.297 C43.8796,35.244 43.8716,35.075 43.8576,34.789 C43.8436,34.503 43.8386,34.298 43.8426,34.175 L43.8426,31.717 L44.3086,31.717 L44.3086,36 Z" id="Fill-14" fill="#A0A0A0"></path>
                <path d="M45.791,33.8525 C45.791,34.4325 45.914,34.8735 46.162,35.1715 C46.408,35.4725 46.768,35.6225 47.238,35.6225 C47.713,35.6225 48.071,35.4725 48.313,35.1735 C48.556,34.8745 48.677,34.4345 48.677,33.8525 C48.677,33.2765 48.557,32.8395 48.314,32.5405 C48.074,32.2445 47.717,32.0945 47.244,32.0945 C46.77,32.0945 46.408,32.2455 46.162,32.5445 C45.914,32.8445 45.791,33.2805 45.791,33.8525 M49.204,33.8525 C49.204,34.5385 49.031,35.0775 48.684,35.4695 C48.338,35.8625 47.855,36.0585 47.238,36.0585 C46.607,36.0585 46.121,35.8665 45.777,35.4805 C45.436,35.0945 45.264,34.5495 45.264,33.8465 C45.264,33.1495 45.436,32.6095 45.779,32.2245 C46.123,31.8415 46.611,31.6495 47.244,31.6495 C47.859,31.6495 48.34,31.8445 48.686,32.2355 C49.031,32.6255 49.204,33.1655 49.204,33.8525" id="Fill-16" fill="#A0A0A0"></path>
                <path d="M18.9609,41.835 C18.9609,41.276 18.8209,40.856 18.5409,40.572 C18.2599,40.289 17.8439,40.148 17.2909,40.148 L16.5669,40.148 L16.5669,43.569 L17.1739,43.569 C17.7679,43.569 18.2139,43.424 18.5129,43.131 C18.8119,42.84 18.9609,42.407 18.9609,41.835 M19.4879,41.817 C19.4879,42.524 19.2959,43.065 18.9129,43.439 C18.5289,43.814 17.9769,44 17.2559,44 L16.0689,44 L16.0689,39.717 L17.3819,39.717 C18.0479,39.717 18.5649,39.901 18.9349,40.271 C19.3039,40.64 19.4879,41.155 19.4879,41.817" id="Fill-18" fill="#A0A0A0"></path>
                <mask id="mask-2" fill="white">
                    <use xlink:href="#path-1"></use>
                </mask>
                <g id="Clip-21"></g>
                <polygon id="Fill-20" fill="#A0A0A0" mask="url(#mask-2)" points="20.443 44 20.941 44 20.941 39.717 20.443 39.717"></polygon>
                <path d="M24.5332,42.8604 C24.5332,43.2374 24.3962,43.5314 24.1232,43.7424 C23.8492,43.9534 23.4782,44.0584 23.0102,44.0584 C22.5022,44.0584 22.1112,43.9934 21.8382,43.8624 L21.8382,43.3814 C22.0132,43.4564 22.2052,43.5144 22.4122,43.5574 C22.6192,43.6004 22.8242,43.6224 23.0272,43.6224 C23.3592,43.6224 23.6092,43.5584 23.7772,43.4334 C23.9452,43.3064 24.0292,43.1314 24.0292,42.9074 C24.0292,42.7584 23.9992,42.6374 23.9402,42.5434 C23.8802,42.4484 23.7812,42.3604 23.6412,42.2804 C23.5012,42.2004 23.2892,42.1094 23.0042,42.0074 C22.6052,41.8654 22.3212,41.6964 22.1502,41.5014 C21.9792,41.3054 21.8932,41.0504 21.8932,40.7364 C21.8932,40.4064 22.0172,40.1434 22.2652,39.9484 C22.5132,39.7534 22.8422,39.6554 23.2502,39.6554 C23.6762,39.6554 24.0672,39.7334 24.4252,39.8894 L24.2692,40.3234 C23.9162,40.1744 23.5722,40.1004 23.2382,40.1004 C22.9742,40.1004 22.7682,40.1574 22.6202,40.2704 C22.4712,40.3834 22.3972,40.5414 22.3972,40.7424 C22.3972,40.8904 22.4252,41.0124 22.4792,41.1074 C22.5342,41.2024 22.6262,41.2894 22.7562,41.3674 C22.8862,41.4474 23.0852,41.5344 23.3522,41.6304 C23.8022,41.7904 24.1112,41.9624 24.2802,42.1454 C24.4492,42.3294 24.5332,42.5674 24.5332,42.8604" id="Fill-22" fill="#A0A0A0" mask="url(#mask-2)"></path>
                <path d="M25.9072,41.8877 L26.3552,41.8877 C26.7972,41.8877 27.1162,41.8167 27.3132,41.6737 C27.5112,41.5317 27.6092,41.3027 27.6092,40.9887 C27.6092,40.7047 27.5162,40.4937 27.3312,40.3557 C27.1452,40.2167 26.8562,40.1477 26.4642,40.1477 L25.9072,40.1477 L25.9072,41.8877 Z M28.1252,40.9647 C28.1252,41.3987 27.9772,41.7327 27.6812,41.9647 C27.3852,42.1997 26.9622,42.3157 26.4112,42.3157 L25.9072,42.3157 L25.9072,43.9997 L25.4092,43.9997 L25.4092,39.7167 L26.5192,39.7167 C27.5902,39.7167 28.1252,40.1327 28.1252,40.9647 Z" id="Fill-23" fill="#A0A0A0" mask="url(#mask-2)"></path>
                <path d="M29.3262,41.8525 C29.3262,42.4325 29.4502,42.8735 29.6972,43.1715 C29.9442,43.4725 30.3032,43.6225 30.7732,43.6225 C31.2482,43.6225 31.6062,43.4725 31.8482,43.1735 C32.0912,42.8745 32.2122,42.4345 32.2122,41.8525 C32.2122,41.2765 32.0912,40.8395 31.8502,40.5405 C31.6092,40.2445 31.2522,40.0945 30.7792,40.0945 C30.3052,40.0945 29.9442,40.2455 29.6972,40.5445 C29.4502,40.8445 29.3262,41.2805 29.3262,41.8525 M32.7392,41.8525 C32.7392,42.5385 32.5662,43.0775 32.2192,43.4695 C31.8722,43.8625 31.3902,44.0585 30.7732,44.0585 C30.1422,44.0585 29.6562,43.8665 29.3132,43.4805 C28.9702,43.0945 28.7992,42.5495 28.7992,41.8465 C28.7992,41.1495 28.9712,40.6095 29.3142,40.2245 C29.6582,39.8415 30.1462,39.6495 30.7792,39.6495 C31.3942,39.6495 31.8752,39.8445 32.2212,40.2355 C32.5662,40.6255 32.7392,41.1655 32.7392,41.8525" id="Fill-24" fill="#A0A0A0" mask="url(#mask-2)"></path>
                <path d="M37.04,44 L36.472,44 L34.131,40.405 L34.107,40.405 C34.139,40.827 34.154,41.214 34.154,41.565 L34.154,44 L33.694,44 L33.694,39.717 L34.257,39.717 L36.592,43.297 L36.615,43.297 C36.611,43.244 36.603,43.075 36.589,42.789 C36.575,42.503 36.57,42.298 36.574,42.175 L36.574,39.717 L37.04,39.717 L37.04,44 Z" id="Fill-25" fill="#A0A0A0" mask="url(#mask-2)"></path>
                <polygon id="Fill-26" fill="#A0A0A0" mask="url(#mask-2)" points="38.218 44 38.716 44 38.716 39.717 38.218 39.717"></polygon>
                <path d="M40.3887,41.9727 L40.3887,43.5757 L41.2827,43.5757 C41.6277,43.5757 41.8887,43.5087 42.0627,43.3747 C42.2387,43.2417 42.3257,43.0317 42.3257,42.7457 C42.3257,42.4807 42.2367,42.2847 42.0567,42.1597 C41.8787,42.0347 41.6067,41.9727 41.2417,41.9727 L40.3887,41.9727 Z M40.3887,41.5507 L41.2087,41.5507 C41.5607,41.5507 41.8137,41.4957 41.9677,41.3847 C42.1217,41.2757 42.1997,41.0887 42.1997,40.8267 C42.1997,40.5867 42.1137,40.4137 41.9417,40.3067 C41.7697,40.2017 41.4957,40.1477 41.1207,40.1477 L40.3887,40.1477 L40.3887,41.5507 Z M39.8907,39.7167 L41.1007,39.7167 C41.6687,39.7167 42.0797,39.8017 42.3337,39.9717 C42.5877,40.1417 42.7147,40.4107 42.7147,40.7777 C42.7147,41.0317 42.6447,41.2417 42.5017,41.4067 C42.3617,41.5717 42.1547,41.6777 41.8827,41.7267 L41.8827,41.7557 C42.5337,41.8677 42.8587,42.2087 42.8587,42.7817 C42.8587,43.1637 42.7287,43.4627 42.4707,43.6777 C42.2107,43.8927 41.8497,43.9997 41.3847,43.9997 L39.8907,43.9997 L39.8907,39.7167 Z" id="Fill-27" fill="#A0A0A0" mask="url(#mask-2)"></path>
                <polygon id="Fill-28" fill="#A0A0A0" mask="url(#mask-2)" points="43.7783 44 43.7783 39.717 44.2763 39.717 44.2763 43.549 46.1663 43.549 46.1663 44"></polygon>
                <polygon id="Fill-29" fill="#A0A0A0" mask="url(#mask-2)" points="49.2803 44 46.8923 44 46.8923 39.717 49.2803 39.717 49.2803 40.159 47.3903 40.159 47.3903 41.539 49.1663 41.539 49.1663 41.979 47.3903 41.979 47.3903 43.555 49.2803 43.555"></polygon>
                <path d="M42,16.7573 L38.488,14.9393 L33.317,18.2363 L31.268,16.6113 L24,21.3633 L24,10.9633 C24,10.4303 24.439,9.9933 24.976,9.9933 L41.049,9.9933 C41.585,9.9933 42.024,10.4303 42.024,10.9633 L42.024,16.7573 L42,16.7573 Z M42,23.0363 C42,23.5693 41.561,24.0063 41.024,24.0063 L40.512,24.0063 L34.098,18.8903 L38.536,16.0543 L42,17.8483 L42,23.0363 Z M24.976,24.0063 C24.439,24.0063 24,23.5693 24,23.0363 L24,22.5033 L31.22,17.7993 L38.976,24.0063 L24.976,24.0063 Z M41.024,9.0243 L24.976,9.0243 C23.902,9.0243 23.024,9.8973 23.024,10.9633 L23.024,23.0363 C23.024,24.1033 23.902,24.9753 24.976,24.9753 L41.049,24.9753 C42.122,24.9753 43,24.1033 43,23.0363 L43,10.9633 C42.976,9.8973 42.098,9.0243 41.024,9.0243 Z" id="Fill-30" fill="#A0A0A0" mask="url(#mask-2)"></path>
                <path d="M34.1221,14.4785 C33.5121,14.4785 33.0241,13.9935 33.0241,13.3875 C33.0241,12.7815 33.5121,12.2965 34.1221,12.2965 C34.7311,12.2965 35.2201,12.7815 35.2201,13.3875 C35.2441,13.9935 34.7311,14.4785 34.1221,14.4785 M34.1221,11.3275 C32.9761,11.3275 32.0491,12.2485 32.0491,13.3875 C32.0491,14.5265 32.9761,15.4485 34.1221,15.4485 C35.2681,15.4485 36.1951,14.5265 36.1951,13.3875 C36.1951,12.2485 35.2681,11.3275 34.1221,11.3275" id="Fill-31" fill="#C5C5C5" mask="url(#mask-2)"></path>
            </g>
        </g>
    </g>
</svg>